<?xml version="1.0" encoding="utf-8"?>
<!-- Generator: Adobe Illustrator 23.0.4, SVG Export Plug-In . SVG Version: 6.00 Build 0)  -->
<svg version="1.1" id="Layer_1" xmlns="http://www.w3.org/2000/svg" xmlns:xlink="http://www.w3.org/1999/xlink" x="0px" y="0px"
	 viewBox="0 0 179.6 250.4" style="enable-background:new 0 0 179.6 250.4;" xml:space="preserve">
<style type="text/css">
	.st0{fill:#F4F4F2;stroke:#000000;}
	.st1{fill-rule:evenodd;clip-rule:evenodd;stroke:#000000;stroke-linejoin:round;}
</style>
<path class="st0" d="M179.1,235.8c0,7.8-6.3,14.2-14.2,14.2H14.7c-7.8,0-14.2-6.3-14.2-14.2V14.7c0-7.8,6.3-14.2,14.2-14.2h150.2
	c7.8,0,14.2,6.3,14.2,14.2V235.8z"/>
<g>
	<g>
		<polygon points="6.2,38.7 6.2,14.7 8.4,14.7 8.4,38.7 6.2,38.7 		"/>
	</g>
	<path d="M12.9,37.5c-0.8-0.8-1.3-2-1.3-3.3l0,0V19.3c0-1.3,0.5-2.4,1.3-3.3l0,0c0.8-0.8,1.9-1.3,3.1-1.3l0,0c1.2,0,2.3,0.5,3.1,1.3
		l0,0c0.8,0.8,1.3,2,1.3,3.3l0,0v14.9c0,1.3-0.5,2.4-1.3,3.3l0,0c-0.8,0.8-1.9,1.3-3.1,1.3l0,0C14.8,38.8,13.7,38.3,12.9,37.5
		L12.9,37.5z M14.4,17.7c-0.4,0.4-0.6,0.9-0.6,1.5l0,0v14.9c0,0.6,0.2,1.1,0.6,1.5l0,0c0.4,0.4,0.9,0.7,1.6,0.7l0,0
		c0.6,0,1.2-0.3,1.6-0.7l0,0c0.4-0.4,0.6-0.9,0.6-1.5l0,0V19.3c0-0.6-0.2-1.1-0.6-1.5l0,0c-0.4-0.4-0.9-0.7-1.6-0.7l0,0
		C15.4,17.1,14.8,17.3,14.4,17.7L14.4,17.7z"/>
</g>
<g>
	<g>
		<polygon points="173.4,211.7 173.4,235.8 171.2,235.8 171.2,211.7 173.4,211.7 		"/>
	</g>
	<path d="M166.7,213c0.8,0.8,1.3,2,1.3,3.3l0,0v14.9c0,1.3-0.5,2.4-1.3,3.3l0,0c-0.8,0.8-1.9,1.3-3.1,1.3l0,0
		c-1.2,0-2.3-0.5-3.1-1.3l0,0c-0.8-0.8-1.3-2-1.3-3.3l0,0v-14.9c0-1.3,0.5-2.4,1.3-3.3l0,0c0.8-0.8,1.9-1.3,3.1-1.3l0,0
		C164.8,211.7,165.9,212.2,166.7,213L166.7,213z M165.2,232.7c0.4-0.4,0.6-0.9,0.6-1.5l0,0v-14.9c0-0.6-0.2-1.1-0.6-1.5l0,0
		c-0.4-0.4-0.9-0.7-1.6-0.7l0,0c-0.6,0-1.2,0.3-1.6,0.7l0,0c-0.4,0.4-0.6,0.9-0.6,1.5l0,0v14.9c0,0.6,0.2,1.1,0.6,1.5l0,0
		c0.4,0.4,0.9,0.7,1.6,0.7l0,0C164.2,233.4,164.8,233.1,165.2,232.7L165.2,232.7z"/>
</g>
<path class="st1" d="M13.2,43c0,0-0.1,0-0.1,0.1c-3,1.9-6.6,5.7-6.9,10.4c-0.2,2.2,1.3,3.8,3.1,3.8c1.2,0,2.1-0.4,2.7-1.2
	c0.4-0.7,0.5-1.7,0.6-1.2c0.2,1.8-0.5,3.6-0.9,5.1c0.5-0.2,1-0.3,1.6-0.3h0c0.6,0,1.2,0.1,1.6,0.3c-0.4-1.5-1.2-3.3-0.9-5.1
	c0.1-0.5,0.2,0.6,0.6,1.2c0.5,0.8,1.5,1.2,2.7,1.2c1.9,0,3.3-1.6,3.1-3.8c-0.4-4.7-3.9-8.5-6.9-10.4C13.4,43.1,13.3,43.1,13.2,43
	L13.2,43z"/>
<path class="st1" d="M166.3,207.4c0,0-0.1,0-0.1-0.1c-3-1.9-6.6-5.7-6.9-10.4c-0.2-2.2,1.3-3.8,3.1-3.8c1.2,0,2.1,0.4,2.7,1.2
	c0.4,0.7,0.5,1.7,0.6,1.2c0.2-1.8-0.5-3.6-0.9-5.1c0.5,0.2,1,0.3,1.6,0.3h0c0.6,0,1.2-0.1,1.6-0.3c-0.4,1.5-1.2,3.3-0.9,5.1
	c0.1,0.5,0.2-0.6,0.6-1.2c0.5-0.8,1.5-1.2,2.7-1.2c1.9,0,3.3,1.6,3.1,3.8c-0.4,4.7-3.9,8.5-6.9,10.4
	C166.4,207.4,166.4,207.4,166.3,207.4L166.3,207.4z"/>
<path class="st1" d="M46.5,26c-0.1,0.1-0.2,0.1-0.3,0.2C38.7,31,29.8,40.5,28.9,52.3c-0.4,5.6,3.2,9.5,7.8,9.6c3,0.1,5.3-1,6.6-3
	c1.1-1.7,1.3-4.2,1.5-3.1c0.6,4.5-1.3,8.9-2.3,12.7c1.1-0.4,2.6-0.6,4-0.6h0c1.4,0,2.9,0.2,4,0.6c-1-3.8-2.9-8.2-2.3-12.7
	c0.2-1.2,0.4,1.4,1.5,3.1c1.3,2,3.7,3.1,6.6,3c4.6-0.1,8.2-4,7.8-9.6C63.3,40.5,54.5,31,46.9,26.2C46.8,26.1,46.7,26.1,46.5,26
	L46.5,26z"/>
<path class="st1" d="M91.2,54.4c-0.1,0.1-0.2,0.1-0.3,0.2c-7.6,4.8-16.5,14.3-17.4,26.1c-0.4,5.6,3.2,9.5,7.8,9.6c3,0.1,5.3-1,6.6-3
	c1.1-1.7,1.3-4.2,1.5-3.1c0.6,4.5-1.3,8.9-2.3,12.7c1.1-0.4,2.6-0.6,4-0.6h0c1.4,0,2.9,0.2,4,0.6c-1-3.8-2.9-8.2-2.3-12.7
	c0.2-1.2,0.4,1.4,1.5,3.1c1.3,2,3.7,3.1,6.6,3c4.6-0.1,8.2-4,7.8-9.6c-0.9-11.8-9.8-21.3-17.4-26.1C91.4,54.5,91.4,54.4,91.2,54.4
	L91.2,54.4z"/>
<path class="st1" d="M134.4,26c-0.1,0.1-0.2,0.1-0.3,0.2c-7.6,4.8-16.5,14.3-17.4,26.1c-0.4,5.6,3.2,9.5,7.8,9.6c3,0.1,5.3-1,6.6-3
	c1.1-1.7,1.3-4.2,1.5-3.1c0.6,4.5-1.3,8.9-2.3,12.7c1.1-0.4,2.6-0.6,4-0.6h0c1.4,0,2.9,0.2,4,0.6c-1-3.8-2.9-8.2-2.3-12.7
	c0.2-1.2,0.4,1.4,1.5,3.1c1.3,2,3.7,3.1,6.6,3c4.6-0.1,8.2-4,7.8-9.6c-0.9-11.8-9.8-21.3-17.4-26.1C134.7,26.1,134.6,26.1,134.4,26
	L134.4,26z"/>
<path class="st1" d="M46.5,78c-0.1,0.1-0.2,0.1-0.3,0.2c-7.6,4.8-16.5,14.3-17.4,26.1c-0.4,5.6,3.2,9.5,7.8,9.6c3,0.1,5.3-1,6.6-3
	c1.1-1.7,1.3-4.2,1.5-3.1c0.6,4.5-1.3,8.9-2.3,12.7c1.1-0.4,2.6-0.6,4-0.6h0c1.4,0,2.9,0.2,4,0.6c-1-3.8-2.9-8.2-2.3-12.7
	c0.2-1.2,0.4,1.4,1.5,3.1c1.3,2,3.7,3.1,6.6,3c4.6-0.1,8.2-4,7.8-9.6C63.3,92.5,54.5,83,46.9,78.2C46.8,78.1,46.7,78.1,46.5,78
	L46.5,78z"/>
<path class="st1" d="M133,78c-0.1,0.1-0.2,0.1-0.3,0.2c-7.6,4.8-16.5,14.3-17.4,26.1c-0.4,5.6,3.2,9.5,7.8,9.6c3,0.1,5.3-1,6.6-3
	c1.1-1.7,1.3-4.2,1.5-3.1c0.6,4.5-1.3,8.9-2.3,12.7c1.1-0.4,2.6-0.6,4-0.6h0c1.4,0,2.9,0.2,4,0.6c-1-3.8-2.9-8.2-2.3-12.7
	c0.2-1.2,0.4,1.4,1.5,3.1c1.3,2,3.7,3.1,6.6,3c4.6-0.1,8.2-4,7.8-9.6c-0.9-11.8-9.8-21.3-17.4-26.1C133.3,78.1,133.2,78.1,133,78
	L133,78z"/>
<path class="st1" d="M46.5,224.4c-0.1-0.1-0.2-0.1-0.3-0.2c-7.6-4.8-16.5-14.3-17.4-26.1c-0.4-5.6,3.2-9.5,7.8-9.6
	c3-0.1,5.3,1,6.6,3c1.1,1.7,1.3,4.2,1.5,3.1c0.6-4.5-1.3-8.9-2.3-12.7c1.1,0.4,2.6,0.6,4,0.6h0c1.4,0,2.9-0.2,4-0.6
	c-1,3.8-2.9,8.2-2.3,12.7c0.2,1.2,0.4-1.4,1.5-3.1c1.3-2,3.7-3.1,6.6-3c4.6,0.1,8.2,4,7.8,9.6c-0.9,11.8-9.8,21.3-17.4,26.1
	C46.8,224.3,46.7,224.3,46.5,224.4L46.5,224.4z"/>
<path class="st1" d="M133,224.4c-0.1-0.1-0.2-0.1-0.3-0.2c-7.6-4.8-16.5-14.3-17.4-26.1c-0.4-5.6,3.2-9.5,7.8-9.6c3-0.1,5.3,1,6.6,3
	c1.1,1.7,1.3,4.2,1.5,3.1c0.6-4.5-1.3-8.9-2.3-12.7c1.1,0.4,2.6,0.6,4,0.6h0c1.4,0,2.9-0.2,4-0.6c-1,3.8-2.9,8.2-2.3,12.7
	c0.2,1.2,0.4-1.4,1.5-3.1c1.3-2,3.7-3.1,6.6-3c4.6,0.1,8.2,4,7.8,9.6c-0.9,11.8-9.8,21.3-17.4,26.1
	C133.3,224.3,133.2,224.3,133,224.4L133,224.4z"/>
<path class="st1" d="M46.5,172.5c-0.1-0.1-0.2-0.1-0.3-0.2c-7.6-4.8-16.5-14.3-17.4-26.1c-0.4-5.6,3.2-9.5,7.8-9.6
	c3-0.1,5.3,1,6.6,3c1.1,1.7,1.3,4.2,1.5,3.1c0.6-4.5-1.3-8.9-2.3-12.7c1.1,0.4,2.6,0.6,4,0.6h0c1.4,0,2.9-0.2,4-0.6
	c-1,3.8-2.9,8.2-2.3,12.7c0.2,1.2,0.4-1.4,1.5-3.1c1.3-2,3.7-3.1,6.6-3c4.6,0.1,8.2,4,7.8,9.6c-0.9,11.8-9.8,21.3-17.4,26.1
	C46.8,172.3,46.7,172.4,46.5,172.5L46.5,172.5z"/>
<path class="st1" d="M89.8,196.1c-0.1-0.1-0.2-0.1-0.3-0.2c-7.6-4.8-16.5-14.3-17.4-26.1c-0.4-5.6,3.2-9.5,7.8-9.6
	c3-0.1,5.3,1,6.6,3c1.1,1.7,1.3,4.2,1.5,3.1c0.6-4.5-1.3-8.9-2.3-12.7c1.1,0.4,2.6,0.6,4,0.6h0c1.4,0,2.9-0.2,4-0.6
	c-1,3.8-2.9,8.2-2.3,12.7c0.2,1.2,0.4-1.4,1.5-3.1c1.3-2,3.7-3.1,6.6-3c4.6,0.1,8.2,4,7.8,9.6c-0.9,11.8-9.8,21.3-17.4,26.1
	C90,196,90,196,89.8,196.1L89.8,196.1z"/>
<path class="st1" d="M133,172.5c-0.1-0.1-0.2-0.1-0.3-0.2c-7.6-4.8-16.5-14.3-17.4-26.1c-0.4-5.6,3.2-9.5,7.8-9.6c3-0.1,5.3,1,6.6,3
	c1.1,1.7,1.3,4.2,1.5,3.1c0.6-4.5-1.3-8.9-2.3-12.7c1.1,0.4,2.6,0.6,4,0.6h0c1.4,0,2.9-0.2,4-0.6c-1,3.8-2.9,8.2-2.3,12.7
	c0.2,1.2,0.4-1.4,1.5-3.1c1.3-2,3.7-3.1,6.6-3c4.6,0.1,8.2,4,7.8,9.6c-0.9,11.8-9.8,21.3-17.4,26.1
	C133.3,172.3,133.2,172.4,133,172.5L133,172.5z"/>
</svg>
