<?xml version="1.0" encoding="utf-8"?>
<!-- Generator: Adobe Illustrator 23.0.4, SVG Export Plug-In . SVG Version: 6.00 Build 0)  -->
<svg version="1.1" id="Layer_1" xmlns="http://www.w3.org/2000/svg" xmlns:xlink="http://www.w3.org/1999/xlink" x="0px" y="0px"
	 viewBox="0 0 179.6 250.4" style="enable-background:new 0 0 179.6 250.4;" xml:space="preserve">
<style type="text/css">
	.st0{fill:#F4F4F2;stroke:#000000;}
	.st1{fill:#E44145;}
</style>
<g>
	<path class="st0" d="M179.1,235.8c0,7.8-6.3,14.2-14.2,14.2H14.7c-7.8,0-14.2-6.3-14.2-14.2V14.7c0-7.8,6.3-14.2,14.2-14.2h150.2
		c7.8,0,14.2,6.3,14.2,14.2V235.8z"/>
	<path class="st1" d="M13.3,43c1.8,3.5,4.1,6.3,7.1,8.5c-2.9,2.2-5.3,5-7.1,8.5c-1.8-3.5-4.2-6.3-7.1-8.5
		C9.1,49.3,11.5,46.5,13.3,43L13.3,43z"/>
	<path class="st1" d="M166.3,190.4c1.8,3.5,4.1,6.3,7.1,8.5c-2.9,2.2-5.3,5-7.1,8.5c-1.8-3.5-4.2-6.3-7.1-8.5
		C162.2,196.7,164.5,193.9,166.3,190.4L166.3,190.4z"/>
	<path class="st1" d="M46.6,26c4.5,8.7,10.4,15.8,17.7,21.3C57,52.8,51.1,59.9,46.6,68.5c-4.5-8.6-10.4-15.7-17.7-21.2
		C36.2,41.8,42.1,34.7,46.6,26L46.6,26z"/>
	<path class="st1" d="M46.6,78c4.5,8.7,10.4,15.8,17.7,21.3c-7.3,5.5-13.2,12.6-17.7,21.2c-4.5-8.6-10.4-15.7-17.7-21.2
		C36.2,93.8,42.1,86.7,46.6,78L46.6,78z"/>
	<path class="st1" d="M46.6,129.9c4.5,8.7,10.4,15.8,17.7,21.3c-7.3,5.5-13.2,12.6-17.7,21.2c-4.5-8.6-10.4-15.7-17.7-21.2
		C36.2,145.7,42.1,138.6,46.6,129.9L46.6,129.9z"/>
	<path class="st1" d="M46.6,181.9c4.5,8.7,10.4,15.8,17.7,21.3c-7.3,5.5-13.2,12.6-17.7,21.2c-4.5-8.6-10.4-15.7-17.7-21.2
		C36.2,197.7,42.1,190.6,46.6,181.9L46.6,181.9z"/>
	<path class="st1" d="M133,26c4.5,8.7,10.4,15.8,17.7,21.3c-7.3,5.5-13.2,12.6-17.7,21.2c-4.5-8.6-10.4-15.7-17.7-21.2
		C122.6,41.8,128.5,34.7,133,26L133,26z"/>
	<path class="st1" d="M133,78c4.5,8.7,10.4,15.8,17.7,21.3c-7.3,5.5-13.2,12.6-17.7,21.2c-4.5-8.6-10.4-15.7-17.7-21.2
		C122.6,93.8,128.5,86.7,133,78L133,78z"/>
	<path class="st1" d="M133,129.9c4.5,8.7,10.4,15.8,17.7,21.3c-7.3,5.5-13.2,12.6-17.7,21.2c-4.5-8.6-10.4-15.7-17.7-21.2
		C122.6,145.7,128.5,138.6,133,129.9L133,129.9z"/>
	<path class="st1" d="M133,181.9c4.5,8.7,10.4,15.8,17.7,21.3c-7.3,5.5-13.2,12.6-17.7,21.2c-4.5-8.6-10.4-15.7-17.7-21.2
		C122.6,197.7,128.5,190.6,133,181.9L133,181.9z"/>
	<path class="st1" d="M89.8,54.4c4.5,8.7,10.4,15.8,17.7,21.3c-7.3,5.5-13.2,12.6-17.7,21.2c-4.5-8.6-10.4-15.7-17.7-21.2
		C79.4,70.1,85.3,63,89.8,54.4L89.8,54.4z"/>
	<path class="st1" d="M89.8,153.6c4.5,8.7,10.4,15.8,17.7,21.3c-7.3,5.5-13.2,12.6-17.7,21.2c-4.5-8.6-10.4-15.7-17.7-21.2
		C79.4,169.3,85.3,162.2,89.8,153.6L89.8,153.6z"/>
	<g>
		<g>
			<polygon class="st1" points="6.2,38.7 6.2,14.7 8.4,14.7 8.4,38.7 6.2,38.7 			"/>
		</g>
		<path class="st1" d="M12.9,37.5c-0.8-0.8-1.3-2-1.3-3.3l0,0V19.3c0-1.3,0.5-2.4,1.3-3.3l0,0c0.8-0.8,1.9-1.3,3.1-1.3l0,0
			c1.2,0,2.3,0.5,3.1,1.3l0,0c0.8,0.8,1.3,2,1.3,3.3l0,0v14.9c0,1.3-0.5,2.4-1.3,3.3l0,0c-0.8,0.8-1.9,1.3-3.1,1.3l0,0
			C14.8,38.8,13.7,38.3,12.9,37.5L12.9,37.5z M14.4,17.7c-0.4,0.4-0.6,0.9-0.6,1.5l0,0v14.9c0,0.6,0.2,1.1,0.6,1.5l0,0
			c0.4,0.4,0.9,0.7,1.6,0.7l0,0c0.6,0,1.2-0.3,1.6-0.7l0,0c0.4-0.4,0.6-0.9,0.6-1.5l0,0V19.3c0-0.6-0.2-1.1-0.6-1.5l0,0
			c-0.4-0.4-0.9-0.7-1.6-0.7l0,0C15.4,17.1,14.8,17.3,14.4,17.7L14.4,17.7z"/>
	</g>
	<g>
		<g>
			<polygon class="st1" points="173.4,211.7 173.4,235.8 171.2,235.8 171.2,211.7 173.4,211.7 			"/>
		</g>
		<path class="st1" d="M166.7,213c0.8,0.8,1.3,2,1.3,3.3l0,0v14.9c0,1.3-0.5,2.4-1.3,3.3l0,0c-0.8,0.8-1.9,1.3-3.1,1.3l0,0
			c-1.2,0-2.3-0.5-3.1-1.3l0,0c-0.8-0.8-1.3-2-1.3-3.3l0,0v-14.9c0-1.3,0.5-2.4,1.3-3.3l0,0c0.8-0.8,1.9-1.3,3.1-1.3l0,0
			C164.8,211.7,165.9,212.2,166.7,213L166.7,213z M165.2,232.7c0.4-0.4,0.6-0.9,0.6-1.5l0,0v-14.9c0-0.6-0.2-1.1-0.6-1.5l0,0
			c-0.4-0.4-0.9-0.7-1.6-0.7l0,0c-0.6,0-1.2,0.3-1.6,0.7l0,0c-0.4,0.4-0.6,0.9-0.6,1.5l0,0v14.9c0,0.6,0.2,1.1,0.6,1.5l0,0
			c0.4,0.4,0.9,0.7,1.6,0.7l0,0C164.2,233.4,164.8,233.1,165.2,232.7L165.2,232.7z"/>
	</g>
</g>
</svg>
