<?xml version="1.0" encoding="utf-8"?>
<!-- Generator: Adobe Illustrator 23.0.4, SVG Export Plug-In . SVG Version: 6.00 Build 0)  -->
<svg version="1.1" id="Layer_1" xmlns="http://www.w3.org/2000/svg" xmlns:xlink="http://www.w3.org/1999/xlink" x="0px" y="0px"
	 viewBox="0 0 179.6 250.4" style="enable-background:new 0 0 179.6 250.4;" xml:space="preserve">
<style type="text/css">
	.st0{fill:#F4F4F2;stroke:#000000;}
	.st1{fill:#E44145;}
</style>
<g>
	<g>
		<path class="st0" d="M179.1,235.8c0,7.8-6.3,14.2-14.2,14.2H14.7c-7.8,0-14.2-6.3-14.2-14.2V14.7c0-7.8,6.3-14.2,14.2-14.2h150.2
			c7.8,0,14.2,6.3,14.2,14.2V235.8z"/>
	</g>
	<g>
		<path class="st1" d="M13.3,60C13.2,60,13.2,60,13.3,60C13.2,60,13.2,60,13.3,60L13.3,60z"/>
		<path class="st1" d="M17.2,43.1c-1.2-0.4-3.2,0.3-3.9,3.1c-0.1,0.2-0.1,0.2-0.2,0c-1-2.9-2.7-3.5-3.9-3.1
			c-1.8,0.6-3.2,2.7-3.1,5.4c0,4.7,4.2,7,7.1,11.5c2.8-4.5,7.1-6.8,7.1-11.5C20.6,45.8,19,43.7,17.2,43.1z"/>
	</g>
	<g>
		<path class="st1" d="M166.3,190.4C166.3,190.4,166.3,190.4,166.3,190.4C166.4,190.4,166.4,190.4,166.3,190.4L166.3,190.4z"/>
		<path class="st1" d="M166.4,190.5c-2.8,4.5-7.1,6.8-7.1,11.5c-0.2,2.7,1.3,4.8,3.1,5.3c1.2,0.4,3.2-0.3,3.9-3.1
			c0.1-0.2,0.1-0.2,0.2,0c1,2.9,2.7,3.5,3.9,3.1c1.8-0.6,3.2-2.7,3.1-5.4C173.4,197.3,169.2,194.9,166.4,190.5z"/>
	</g>
	<g>
		<path class="st1" d="M46.6,68.5C46.5,68.5,46.5,68.5,46.6,68.5C46.5,68.5,46.5,68.5,46.6,68.5L46.6,68.5z"/>
		<path class="st1" d="M56.5,26.3c-3.1-1-8,0.7-9.7,7.8c-0.2,0.4-0.3,0.4-0.4,0c-2.6-7.2-6.8-8.7-9.8-7.8c-4.4,1.4-8,6.7-7.7,13.4
			C29,51.4,39.4,57.3,46.5,68.5c7.1-11.2,17.7-17.1,17.7-28.8C64.8,32.8,61,27.7,56.5,26.3z"/>
	</g>
	<g>
		<path class="st1" d="M56.5,77.3c-3.1-1-8,0.7-9.7,7.8c-0.2,0.4-0.3,0.4-0.4,0c-2.6-7.2-6.8-8.7-9.8-7.8c-4.4,1.4-8,6.7-7.7,13.4
			c0.1,11.7,10.6,17.6,17.6,28.8c7.1-11.2,17.7-17.1,17.7-28.8C64.8,83.9,61,78.7,56.5,77.3z"/>
		<path class="st1" d="M46.6,119.6C46.5,119.5,46.5,119.5,46.6,119.6C46.5,119.5,46.5,119.5,46.6,119.6L46.6,119.6z"/>
	</g>
	<g>
		<path class="st1" d="M46.6,179.1C46.6,179.1,46.6,179.1,46.6,179.1C46.6,179.1,46.6,179.1,46.6,179.1L46.6,179.1z"/>
		<path class="st1" d="M64.3,208c-0.1-11.7-10.6-17.6-17.6-28.8c-7.1,11.2-17.7,17.1-17.7,28.8c-0.6,6.8,3.2,12,7.7,13.4
			c3.1,1,8-0.7,9.7-7.8c0.2-0.4,0.3-0.4,0.4,0c2.6,7.2,6.8,8.7,9.8,7.8C61,219.9,64.6,214.7,64.3,208z"/>
	</g>
	<g>
		<path class="st1" d="M64.3,156.9c-0.1-11.7-10.6-17.6-17.6-28.8c-7.1,11.2-17.7,17.1-17.7,28.8c-0.6,6.8,3.2,12,7.7,13.4
			c3.1,1,8-0.7,9.7-7.8c0.2-0.4,0.3-0.4,0.4,0c2.6,7.2,6.8,8.7,9.8,7.8C61,168.9,64.6,163.6,64.3,156.9z"/>
		<path class="st1" d="M46.6,128.1C46.6,128.1,46.6,128.1,46.6,128.1C46.6,128.1,46.6,128.1,46.6,128.1L46.6,128.1z"/>
	</g>
	<g>
		<path class="st1" d="M99.7,54.6c-3.1-1-8,0.7-9.8,7.8c-0.1,0.4-0.3,0.4-0.4,0c-2.6-7.2-6.8-8.7-9.8-7.8c-4.4,1.4-8,6.7-7.7,13.4
			c0.1,11.7,10.6,17.6,17.6,28.8c7.1-11.2,17.7-17.1,17.7-28.8C108.1,61.2,104.3,56,99.7,54.6z"/>
		<path class="st1" d="M89.8,96.9C89.8,96.9,89.8,96.8,89.8,96.9C89.7,96.8,89.7,96.9,89.8,96.9L89.8,96.9z"/>
	</g>
	<g>
		<path class="st1" d="M107.5,182.4c-0.1-11.7-10.6-17.6-17.6-28.8c-7.1,11.2-17.7,17.1-17.7,28.8c-0.6,6.8,3.2,12,7.7,13.4
			c3.1,1,8-0.7,9.7-7.8c0.1-0.4,0.3-0.4,0.4,0c2.6,7.2,6.8,8.7,9.8,7.8C104.2,194.4,107.8,189.2,107.5,182.4z"/>
		<path class="st1" d="M89.8,153.6C89.8,153.6,89.8,153.6,89.8,153.6C89.9,153.6,89.9,153.6,89.8,153.6L89.8,153.6z"/>
	</g>
	<g>
		<path class="st1" d="M133,68.5C133,68.5,133,68.5,133,68.5C133,68.5,132.9,68.5,133,68.5L133,68.5z"/>
		<path class="st1" d="M143,26.3c-3.1-1-8,0.7-9.7,7.8c-0.1,0.4-0.3,0.4-0.4,0c-2.6-7.2-6.8-8.7-9.8-7.8c-4.4,1.4-8,6.7-7.7,13.4
			c0.1,11.7,10.6,17.6,17.6,28.8c7.1-11.2,17.7-17.1,17.7-28.8C151.3,32.8,147.5,27.7,143,26.3z"/>
	</g>
	<g>
		<path class="st1" d="M143,77.3c-3.1-1-8,0.7-9.7,7.8c-0.1,0.4-0.3,0.4-0.4,0c-2.6-7.2-6.8-8.7-9.8-7.8c-4.4,1.4-8,6.7-7.7,13.4
			c0.1,11.7,10.6,17.6,17.6,28.8c7.1-11.2,17.7-17.1,17.7-28.8C151.3,83.9,147.5,78.7,143,77.3z"/>
		<path class="st1" d="M133,119.6C133,119.5,133,119.5,133,119.6C133,119.5,132.9,119.5,133,119.6L133,119.6z"/>
	</g>
	<g>
		<path class="st1" d="M150.7,208c-0.1-11.7-10.6-17.6-17.6-28.8c-7.1,11.2-17.7,17.1-17.7,28.8c-0.6,6.8,3.2,12,7.7,13.4
			c3.1,1,8-0.7,9.7-7.8c0.1-0.4,0.3-0.4,0.4,0c2.6,7.2,6.8,8.7,9.8,7.8C147.5,219.9,151,214.7,150.7,208z"/>
		<path class="st1" d="M133,179.1C133,179.1,133.1,179.1,133,179.1C133.1,179.1,133.1,179.1,133,179.1L133,179.1z"/>
	</g>
	<g>
		<path class="st1" d="M133,128.1C133,128.1,133.1,128.1,133,128.1C133.1,128.1,133.1,128.1,133,128.1L133,128.1z"/>
		<path class="st1" d="M150.7,156.9c-0.1-11.7-10.6-17.6-17.6-28.8c-7.1,11.2-17.7,17.1-17.7,28.8c-0.6,6.8,3.2,12,7.7,13.4
			c3.1,1,8-0.7,9.7-7.8c0.1-0.4,0.3-0.4,0.4,0c2.6,7.2,6.8,8.7,9.8,7.8C147.5,168.9,151,163.6,150.7,156.9z"/>
	</g>
	<g>
		<g>
			<polygon class="st1" points="6.2,38.7 6.2,14.7 8.4,14.7 8.4,38.7 6.2,38.7 			"/>
		</g>
		<path class="st1" d="M12.9,37.5c-0.8-0.8-1.3-2-1.3-3.3l0,0V19.3c0-1.3,0.5-2.4,1.3-3.3l0,0c0.8-0.8,1.9-1.3,3.1-1.3l0,0
			c1.2,0,2.3,0.5,3.1,1.3l0,0c0.8,0.8,1.3,2,1.3,3.3l0,0v14.9c0,1.3-0.5,2.4-1.3,3.3l0,0c-0.8,0.8-1.9,1.3-3.1,1.3l0,0
			C14.8,38.8,13.7,38.3,12.9,37.5L12.9,37.5z M14.4,17.7c-0.4,0.4-0.6,0.9-0.6,1.5l0,0v14.9c0,0.6,0.2,1.1,0.6,1.5l0,0
			c0.4,0.4,0.9,0.7,1.6,0.7l0,0c0.6,0,1.2-0.3,1.6-0.7l0,0c0.4-0.4,0.6-0.9,0.6-1.5l0,0V19.3c0-0.6-0.2-1.1-0.6-1.5l0,0
			c-0.4-0.4-0.9-0.7-1.6-0.7l0,0C15.4,17.1,14.8,17.3,14.4,17.7L14.4,17.7z"/>
	</g>
	<g>
		<g>
			<polygon class="st1" points="173.4,211.7 173.4,235.8 171.2,235.8 171.2,211.7 173.4,211.7 			"/>
		</g>
		<path class="st1" d="M166.7,213c0.8,0.8,1.3,2,1.3,3.3l0,0v14.9c0,1.3-0.5,2.4-1.3,3.3l0,0c-0.8,0.8-1.9,1.3-3.1,1.3l0,0
			c-1.2,0-2.3-0.5-3.1-1.3l0,0c-0.8-0.8-1.3-2-1.3-3.3l0,0v-14.9c0-1.3,0.5-2.4,1.3-3.3l0,0c0.8-0.8,1.9-1.3,3.1-1.3l0,0
			C164.8,211.7,165.9,212.2,166.7,213L166.7,213z M165.2,232.7c0.4-0.4,0.6-0.9,0.6-1.5l0,0v-14.9c0-0.6-0.2-1.1-0.6-1.5l0,0
			c-0.4-0.4-0.9-0.7-1.6-0.7l0,0c-0.6,0-1.2,0.3-1.6,0.7l0,0c-0.4,0.4-0.6,0.9-0.6,1.5l0,0v14.9c0,0.6,0.2,1.1,0.6,1.5l0,0
			c0.4,0.4,0.9,0.7,1.6,0.7l0,0C164.2,233.4,164.8,233.1,165.2,232.7L165.2,232.7z"/>
	</g>
</g>
</svg>
