<?xml version="1.0" encoding="utf-8"?>
<!-- Generator: Adobe Illustrator 23.0.4, SVG Export Plug-In . SVG Version: 6.00 Build 0)  -->
<svg version="1.1" id="Layer_1" xmlns="http://www.w3.org/2000/svg" xmlns:xlink="http://www.w3.org/1999/xlink" x="0px" y="0px"
	 viewBox="0 0 179.6 250.4" style="enable-background:new 0 0 179.6 250.4;" xml:space="preserve">
<style type="text/css">
	.st0{fill:#F4F4F2;stroke:#000000;}
</style>
<g>
	<path class="st0" d="M179.1,235.8c0,7.8-6.3,14.2-14.2,14.2H14.7c-7.8,0-14.2-6.3-14.2-14.2V14.7c0-7.8,6.3-14.2,14.2-14.2h150.2
		c7.8,0,14.2,6.3,14.2,14.2V235.8z"/>
	<path d="M13.3,43c-1.9,0-3.4,1.7-3.4,3.8c0,1.2,0.5,2.3,1.3,3c0.3,0.2,0.1,0.5-0.1,0.3c-0.5-0.3-1-0.5-1.6-0.5
		c-1.8,0-3.3,1.6-3.3,3.7c0,2,1.5,3.7,3.3,3.7c1.2,0,2.2-0.7,2.8-1.8c0.1-0.1,0.1-0.3,0.2-0.3c0.1,0,0.2,0.2,0.2,0.5
		c0,1.3-0.5,2.9-1.2,4.6c0.3-0.1,1.3-0.3,1.9-0.3c0.6,0,1.6,0.2,1.9,0.3c-0.7-1.8-1.2-3.3-1.2-4.6c0-0.3,0.1-0.5,0.2-0.5
		c0.1,0,0.1,0.1,0.2,0.3c0.6,1.1,1.6,1.8,2.8,1.8c1.8,0,3.3-1.6,3.3-3.7c0-2-1.5-3.7-3.3-3.7c-0.6,0-1.1,0.2-1.6,0.5
		c-0.3,0.2-0.4-0.1-0.1-0.3c0.8-0.7,1.3-1.8,1.3-3C16.6,44.7,15.1,43,13.3,43z"/>
	<path d="M166.3,207.4c1.9,0,3.4-1.7,3.4-3.8c0-1.2-0.5-2.3-1.3-3c-0.3-0.2-0.1-0.5,0.1-0.3c0.5,0.3,1,0.5,1.6,0.5
		c1.8,0,3.3-1.6,3.3-3.7c0-2-1.5-3.7-3.3-3.7c-1.2,0-2.2,0.7-2.8,1.8c-0.1,0.1-0.1,0.3-0.2,0.3c-0.1,0-0.2-0.2-0.2-0.5
		c0-1.3,0.5-2.9,1.2-4.6c-0.3,0.1-1.3,0.3-1.9,0.3c-0.6,0-1.6-0.2-1.9-0.3c0.7,1.8,1.3,3.3,1.3,4.6c0,0.3-0.1,0.5-0.2,0.5
		c-0.1,0-0.1-0.1-0.2-0.3c-0.6-1.1-1.6-1.8-2.8-1.8c-1.8,0-3.3,1.6-3.3,3.7c0,2,1.5,3.7,3.3,3.7c0.6,0,1.1-0.2,1.6-0.5
		c0.3-0.2,0.4,0.1,0.1,0.3c-0.8,0.7-1.3,1.8-1.3,3C162.9,205.7,164.5,207.4,166.3,207.4z"/>
	<path d="M89.8,26c-4.7,0-8.4,4.3-8.4,9.5c0,3,1.3,5.7,3.2,7.4c0.6,0.6,0.4,1.2-0.3,0.8c-1.2-0.7-2.6-1.2-4-1.2
		c-4.5,0-8.1,4.1-8.1,9.2c0,5.1,3.7,9.2,8.1,9.2c3,0,5.6-1.8,7-4.5c0.1-0.3,0.2-0.6,0.4-0.6c0.3,0,0.4,0.4,0.4,1.3
		c0,3.3-1.3,7.1-3.1,11.5c0.8-0.2,3.2-0.7,4.8-0.7c1.6,0,4,0.5,4.8,0.7c-1.9-4.4-3.1-8.3-3.1-11.5c0-0.8,0.1-1.3,0.4-1.3
		c0.2,0,0.3,0.4,0.4,0.6c1.4,2.7,4,4.5,7,4.5c4.5,0,8.1-4.1,8.1-9.2c0-5.1-3.6-9.2-8.1-9.2c-1.5,0-2.8,0.5-4,1.2
		c-0.7,0.4-0.9-0.2-0.3-0.8c1.9-1.8,3.2-4.4,3.2-7.4C98.2,30.3,94.4,26,89.8,26z"/>
	<path d="M89.8,224.4c4.7,0,8.4-4.3,8.4-9.5c0-3-1.3-5.7-3.2-7.4c-0.7-0.6-0.4-1.2,0.3-0.8c1.2,0.7,2.6,1.2,4,1.2
		c4.5,0,8.1-4.1,8.1-9.2s-3.6-9.2-8.1-9.2c-3,0-5.6,1.8-7,4.5c-0.1,0.3-0.2,0.6-0.4,0.6c-0.3,0-0.4-0.4-0.4-1.3
		c0-3.3,1.3-7.1,3.1-11.5c-0.8,0.2-3.2,0.7-4.8,0.7c-1.6,0-4-0.5-4.8-0.7c1.9,4.4,3.1,8.3,3.1,11.5c0,0.8-0.1,1.3-0.4,1.3
		c-0.2,0-0.3-0.4-0.4-0.6c-1.4-2.7-4-4.5-7-4.5c-4.5,0-8.1,4.1-8.1,9.2s3.7,9.2,8.1,9.2c1.5,0,2.8-0.5,4-1.2
		c0.7-0.4,0.9,0.2,0.3,0.8c-1.9,1.8-3.2,4.4-3.2,7.4C81.4,220.2,85.1,224.4,89.8,224.4z"/>
	<path d="M20.3,35L18,35l0,1.4l-9.6,0c0-0.3,0.2-0.8,0.5-1.2c0.5-0.9,1.3-1.9,2.4-3c1-1,2.2-2.1,3.4-3l0,0l0,0
		c1.4-1.2,2.6-2.1,3.6-3.1c0.5-0.5,0.9-1.1,1.2-1.8c0.3-0.7,0.5-1.4,0.6-2.2c0-0.2,0-0.4,0-0.6c0-0.6-0.1-1.2-0.3-2
		c-0.3-1.1-0.8-2.3-1.9-3.3c-1.1-1-2.7-1.6-4.7-1.6c-1.6,0-3,0.4-4,1.1c-0.8,0.5-1.3,1.2-1.8,1.8c-0.6,1-1,2.1-1.1,2.9
		c-0.2,0.8-0.2,1.5-0.2,1.7c0,0,0,0.1,0,0.1l2-0.1l0.3,0c0,0,0,0,0,0c0-0.2,0-1.6,0.7-2.9c0.3-0.6,0.7-1.2,1.4-1.6
		c0.6-0.4,1.5-0.7,2.7-0.7c1.1,0,1.8,0.2,2.4,0.5c0.9,0.4,1.4,1.1,1.7,1.9c0.3,0.8,0.4,1.6,0.4,2.1c0,0.1,0,0.2,0,0.3
		c-0.1,0.6-0.2,1-0.4,1.4c-0.3,0.6-0.8,1.2-1.5,1.8c-0.7,0.6-1.7,1.4-2.8,2.3c-1.6,1.3-3.3,2.8-4.7,4.3C8,32.5,7.4,33.2,7,34
		c-0.4,0.8-0.7,1.5-0.8,2.4h0l0,0.1v0l0,0l0,0l0,2.2h14.2v-1L20.3,35z"/>
	<path d="M159.2,215.5l2.3,0l0-1.4h9.6c-0.1,0.3-0.2,0.8-0.5,1.2c-0.5,0.9-1.4,1.9-2.4,3c-1,1-2.2,2.1-3.4,3l0,0l0,0
		c-1.4,1.2-2.6,2.1-3.6,3.1c-0.5,0.5-0.9,1.1-1.2,1.8c-0.3,0.7-0.5,1.4-0.6,2.2c0,0.2,0,0.4,0,0.6c0,0.6,0.1,1.2,0.3,2
		c0.3,1.1,0.8,2.3,1.9,3.3c1.1,1,2.7,1.6,4.7,1.6c1.6,0,3-0.4,4-1.1c0.8-0.5,1.3-1.2,1.8-1.8c0.6-1,1-2.1,1.1-2.9
		c0.2-0.8,0.2-1.5,0.2-1.7c0,0,0-0.1,0-0.1l-2,0.1l-0.3,0c0,0,0,0,0,0c0,0.2,0,1.6-0.7,2.9c-0.3,0.6-0.7,1.2-1.4,1.6
		c-0.6,0.4-1.5,0.7-2.7,0.7c-1.1,0-1.8-0.2-2.4-0.5c-0.9-0.4-1.4-1.1-1.7-1.9c-0.3-0.8-0.4-1.6-0.4-2.1c0-0.1,0-0.2,0-0.3
		c0.1-0.6,0.2-1,0.4-1.4c0.3-0.6,0.8-1.2,1.5-1.8c0.7-0.6,1.7-1.4,2.8-2.3c1.6-1.3,3.3-2.8,4.7-4.3c0.7-0.8,1.3-1.5,1.7-2.4
		c0.4-0.8,0.7-1.5,0.8-2.4h0l0-0.1c0,0,0,0,0,0l0,0v0l0-2.2h-14.2v1L159.2,215.5z"/>
</g>
</svg>
