<?xml version="1.0" encoding="utf-8"?>
<!-- Generator: Adobe Illustrator 23.0.4, SVG Export Plug-In . SVG Version: 6.00 Build 0)  -->
<svg version="1.1" id="Layer_1" xmlns="http://www.w3.org/2000/svg" xmlns:xlink="http://www.w3.org/1999/xlink" x="0px" y="0px"
	 viewBox="0 0 179.6 250.4" style="enable-background:new 0 0 179.6 250.4;" xml:space="preserve">
<style type="text/css">
	.st0{fill:#F4F4F2;stroke:#000000;}
	.st1{fill:#E44145;}
</style>
<g>
	<path class="st0" d="M179.1,235.8c0,7.8-6.3,14.2-14.2,14.2H14.7c-7.8,0-14.2-6.3-14.2-14.2V14.7c0-7.8,6.3-14.2,14.2-14.2h150.2
		c7.8,0,14.2,6.3,14.2,14.2V235.8z"/>
	<path class="st1" d="M13.3,43c1.8,3.5,4.1,6.3,7.1,8.5c-2.9,2.2-5.3,5-7.1,8.5c-1.8-3.5-4.2-6.3-7.1-8.5
		C9.1,49.3,11.5,46.5,13.3,43L13.3,43z"/>
	<path class="st1" d="M166.3,190.4c1.8,3.5,4.1,6.3,7.1,8.5c-2.9,2.2-5.3,5-7.1,8.5c-1.8-3.5-4.2-6.3-7.1-8.5
		C162.2,196.7,164.5,193.9,166.3,190.4L166.3,190.4z"/>
	<path class="st1" d="M89.8,26c4.5,8.7,10.4,15.8,17.7,21.3c-7.3,5.5-13.2,12.6-17.7,21.2c-4.5-8.6-10.4-15.7-17.7-21.2
		C79.4,41.8,85.3,34.7,89.8,26L89.8,26z"/>
	<path class="st1" d="M89.8,181.9c4.5,8.7,10.4,15.8,17.7,21.3c-7.3,5.5-13.2,12.6-17.7,21.2c-4.5-8.6-10.4-15.7-17.7-21.2
		C79.4,197.7,85.3,190.6,89.8,181.9L89.8,181.9z"/>
	<path class="st1" d="M20.3,35L18,35l0,1.4H8.5c0.1-0.3,0.2-0.8,0.5-1.2c0.5-0.9,1.4-1.9,2.4-3c1-1,2.2-2.1,3.4-3l0,0l0,0
		c1.4-1.2,2.6-2.1,3.6-3.1c0.5-0.5,0.9-1.1,1.2-1.8c0.3-0.7,0.5-1.4,0.6-2.2c0-0.2,0-0.4,0-0.6c0-0.6-0.1-1.2-0.3-2
		c-0.3-1.1-0.8-2.3-1.9-3.3c-1.1-1-2.7-1.6-4.7-1.6c-1.6,0-3,0.4-4,1.1c-0.8,0.5-1.3,1.2-1.8,1.8c-0.6,1-1,2.1-1.1,2.9
		c-0.2,0.8-0.2,1.5-0.2,1.7c0,0,0,0.1,0,0.1l2-0.1l0.3,0c0,0,0,0,0,0c0-0.2,0-1.6,0.7-2.9c0.3-0.6,0.7-1.2,1.4-1.6
		c0.6-0.4,1.5-0.7,2.7-0.7c1.1,0,1.8,0.2,2.4,0.5c0.9,0.5,1.4,1.1,1.7,1.9c0.3,0.8,0.4,1.6,0.4,2.1c0,0.1,0,0.2,0,0.3
		c-0.1,0.6-0.2,1-0.4,1.4c-0.3,0.6-0.8,1.2-1.5,1.8c-0.7,0.6-1.7,1.4-2.8,2.3c-1.6,1.3-3.3,2.8-4.7,4.3C8,32.5,7.4,33.2,7,34
		c-0.4,0.8-0.7,1.5-0.8,2.4h0l0,0.1c0,0,0,0,0,0l0,0v0l0,2.2h14.2v-1L20.3,35z"/>
	<path class="st1" d="M159.2,215.5l2.3,0l0-1.4h9.6c0,0.3-0.2,0.8-0.5,1.2c-0.5,0.9-1.4,1.9-2.4,3c-1,1-2.2,2.1-3.4,3l0,0l0,0
		c-1.4,1.2-2.6,2.1-3.6,3.1c-0.5,0.5-0.9,1.1-1.2,1.8c-0.3,0.7-0.5,1.4-0.6,2.2c0,0.2,0,0.4,0,0.6c0,0.6,0.1,1.2,0.3,2
		c0.3,1.1,0.8,2.3,1.9,3.3c1.1,1,2.7,1.6,4.7,1.6c1.6,0,3-0.4,4-1.1c0.8-0.5,1.3-1.2,1.8-1.8c0.6-1,1-2.1,1.1-2.9
		c0.2-0.8,0.2-1.5,0.2-1.7c0,0,0-0.1,0-0.1l-2,0.1l-0.3,0c0,0,0,0,0,0c0,0.2,0,1.6-0.7,2.9c-0.3,0.6-0.7,1.2-1.4,1.6
		c-0.6,0.4-1.5,0.7-2.7,0.7c-1.1,0-1.8-0.2-2.4-0.5c-0.9-0.4-1.4-1.1-1.7-1.9c-0.3-0.8-0.4-1.6-0.4-2.1c0-0.1,0-0.2,0-0.3
		c0.1-0.6,0.2-1,0.4-1.4c0.3-0.6,0.8-1.2,1.5-1.8c0.7-0.6,1.7-1.4,2.8-2.3c1.6-1.3,3.3-2.8,4.7-4.3c0.7-0.8,1.3-1.5,1.7-2.4
		c0.4-0.8,0.7-1.5,0.8-2.4h0l0-0.1c0,0,0,0,0,0l0,0v0l0-2.2h-14.2v1L159.2,215.5z"/>
</g>
</svg>
