<?xml version="1.0" encoding="utf-8"?>
<!-- Generator: Adobe Illustrator 23.0.4, SVG Export Plug-In . SVG Version: 6.00 Build 0)  -->
<svg version="1.1" id="Layer_1" xmlns="http://www.w3.org/2000/svg" xmlns:xlink="http://www.w3.org/1999/xlink" x="0px" y="0px"
	 viewBox="0 0 179.6 250.4" style="enable-background:new 0 0 179.6 250.4;" xml:space="preserve">
<style type="text/css">
	.st0{fill:#F4F4F2;stroke:#000000;}
	.st1{fill:#E44145;}
</style>
<g>
	<path class="st0" d="M179.1,235.8c0,7.8-6.3,14.2-14.2,14.2H14.7c-7.8,0-14.2-6.3-14.2-14.2V14.7c0-7.8,6.3-14.2,14.2-14.2h150.2
		c7.8,0,14.2,6.3,14.2,14.2V235.8z"/>
	<g>
		<path class="st1" d="M17.2,43.1c-1.2-0.4-3.2,0.3-3.9,3.1c-0.1,0.2-0.1,0.2-0.2,0c-1-2.9-2.7-3.5-3.9-3.1
			c-1.8,0.6-3.2,2.7-3.1,5.4c0,4.7,4.2,7,7.1,11.5c2.8-4.5,7.1-6.8,7.1-11.5C20.6,45.8,19,43.7,17.2,43.1z"/>
		<path class="st1" d="M13.3,60C13.2,60,13.2,60,13.3,60C13.2,60,13.2,60,13.3,60L13.3,60z"/>
	</g>
	<g>
		<path class="st1" d="M166.3,190.4c-2.8,4.5-7.1,6.8-7.1,11.5c-0.2,2.7,1.3,4.8,3.1,5.3c1.2,0.4,3.2-0.3,3.9-3.1
			c0.1-0.2,0.1-0.2,0.2,0c1,2.9,2.7,3.5,3.9,3.1c1.8-0.6,3.2-2.7,3.1-5.4C173.4,197.3,169.2,194.9,166.3,190.4z"/>
		<path class="st1" d="M166.3,190.4C166.3,190.4,166.3,190.4,166.3,190.4C166.4,190.4,166.4,190.4,166.3,190.4L166.3,190.4z"/>
	</g>
	<g>
		<path class="st1" d="M89.8,181.9C89.8,181.9,89.8,182,89.8,181.9C89.9,182,89.9,181.9,89.8,181.9L89.8,181.9z"/>
		<path class="st1" d="M107.5,210.8c-0.1-11.7-10.6-17.6-17.6-28.8c-7.1,11.2-17.7,17.1-17.7,28.8c-0.6,6.8,3.2,12,7.7,13.4
			c3.1,1,8-0.7,9.7-7.8c0.1-0.4,0.3-0.4,0.4,0c2.6,7.2,6.8,8.7,9.8,7.8C104.2,222.8,107.8,217.5,107.5,210.8z"/>
	</g>
	<g>
		<path class="st1" d="M89.8,68.5C89.8,68.5,89.8,68.5,89.8,68.5C89.7,68.5,89.7,68.5,89.8,68.5L89.8,68.5z"/>
		<path class="st1" d="M99.7,26.3c-3.1-1-8,0.7-9.8,7.8c-0.1,0.4-0.3,0.4-0.4,0c-2.6-7.2-6.8-8.7-9.8-7.8c-4.4,1.4-8,6.7-7.7,13.4
			c0.1,11.7,10.6,17.6,17.6,28.8c7.1-11.2,17.7-17.1,17.7-28.8C108.1,32.8,104.3,27.7,99.7,26.3z"/>
	</g>
	<path class="st1" d="M20.3,35L18,35l0,1.4H8.5c0.1-0.3,0.2-0.8,0.5-1.2c0.5-0.9,1.4-1.9,2.4-3c1-1,2.2-2.1,3.4-3l0,0l0,0
		c1.4-1.2,2.6-2.1,3.6-3.1c0.5-0.5,0.9-1.1,1.2-1.8c0.3-0.7,0.5-1.4,0.6-2.2c0-0.2,0-0.4,0-0.6c0-0.6-0.1-1.2-0.3-2
		c-0.3-1.1-0.8-2.3-1.9-3.3c-1.1-1-2.7-1.6-4.7-1.6c-1.6,0-3,0.4-4,1.1c-0.8,0.5-1.3,1.2-1.8,1.8c-0.6,1-1,2.1-1.1,2.9
		c-0.2,0.8-0.2,1.5-0.2,1.7c0,0,0,0.1,0,0.1l2-0.1l0.3,0c0,0,0,0,0,0c0-0.2,0-1.6,0.7-2.9c0.3-0.6,0.7-1.2,1.4-1.6
		c0.6-0.4,1.5-0.7,2.7-0.7c1.1,0,1.8,0.2,2.4,0.5c0.9,0.5,1.4,1.1,1.7,1.9c0.3,0.8,0.4,1.6,0.4,2.1c0,0.1,0,0.2,0,0.3
		c-0.1,0.6-0.2,1-0.4,1.4c-0.3,0.6-0.8,1.2-1.5,1.8c-0.7,0.6-1.7,1.4-2.8,2.3c-1.6,1.3-3.3,2.8-4.7,4.3C8,32.5,7.4,33.2,7,34
		c-0.4,0.8-0.7,1.5-0.8,2.4h0l0,0.1c0,0,0,0,0,0l0,0v0l0,2.2h14.2v-1L20.3,35z"/>
	<path class="st1" d="M159.3,215.5l2.3,0l0-1.4h9.6c0,0.3-0.2,0.8-0.5,1.2c-0.5,0.9-1.4,1.9-2.4,3c-1,1-2.2,2.1-3.4,3l0,0l0,0
		c-1.4,1.2-2.6,2.1-3.6,3.1c-0.5,0.5-0.9,1.1-1.2,1.8c-0.3,0.7-0.5,1.4-0.6,2.2c0,0.2,0,0.4,0,0.6c0,0.6,0.1,1.2,0.3,2
		c0.3,1.1,0.8,2.3,1.9,3.3c1.1,1,2.7,1.6,4.7,1.6c1.6,0,3-0.4,4-1.1c0.8-0.5,1.3-1.2,1.8-1.8c0.6-1,1-2.1,1.1-2.9
		c0.2-0.8,0.2-1.5,0.2-1.7c0,0,0-0.1,0-0.1l-2,0.1l-0.3,0c0,0,0,0,0,0c0,0.2,0,1.6-0.7,2.9c-0.3,0.6-0.7,1.2-1.4,1.6
		c-0.6,0.4-1.5,0.7-2.7,0.7c-1.1,0-1.8-0.2-2.4-0.5c-0.9-0.4-1.4-1.1-1.7-1.9c-0.3-0.8-0.4-1.6-0.4-2.1c0-0.1,0-0.2,0-0.3
		c0.1-0.6,0.2-1,0.4-1.4c0.3-0.6,0.8-1.2,1.5-1.8c0.7-0.6,1.7-1.4,2.8-2.3c1.6-1.3,3.3-2.8,4.7-4.3c0.7-0.8,1.3-1.5,1.7-2.4
		c0.4-0.8,0.7-1.5,0.8-2.4h0l0-0.1c0,0,0,0,0,0l0,0v0l0-2.2h-14.2v1L159.3,215.5z"/>
</g>
</svg>
