<?xml version="1.0" encoding="utf-8"?>
<!-- Generator: Adobe Illustrator 23.0.4, SVG Export Plug-In . SVG Version: 6.00 Build 0)  -->
<svg version="1.1" id="Layer_1" xmlns="http://www.w3.org/2000/svg" xmlns:xlink="http://www.w3.org/1999/xlink" x="0px" y="0px"
	 viewBox="0 0 179.6 250.4" style="enable-background:new 0 0 179.6 250.4;" xml:space="preserve">
<style type="text/css">
	.st0{fill:#F4F4F2;stroke:#000000;}
	.st1{fill:#E44145;}
</style>
<g>
	<path class="st0" d="M179.1,235.8c0,7.8-6.3,14.2-14.2,14.2H14.7c-7.8,0-14.2-6.3-14.2-14.2V14.7c0-7.8,6.3-14.2,14.2-14.2h150.2
		c7.8,0,14.2,6.3,14.2,14.2V235.8z"/>
	<path class="st1" d="M13.3,43c1.8,3.5,4.1,6.3,7.1,8.5c-2.9,2.2-5.3,5-7.1,8.5c-1.8-3.5-4.2-6.3-7.1-8.5
		C9.1,49.3,11.5,46.5,13.3,43L13.3,43z"/>
	<path class="st1" d="M166.3,190.4c1.8,3.5,4.1,6.3,7.1,8.5c-2.9,2.2-5.3,5-7.1,8.5c-1.8-3.5-4.2-6.3-7.1-8.5
		C162.2,196.7,164.5,193.9,166.3,190.4L166.3,190.4z"/>
	<path class="st1" d="M89.8,26c4.5,8.7,10.4,15.8,17.7,21.3c-7.3,5.5-13.2,12.6-17.7,21.2c-4.5-8.6-10.4-15.7-17.7-21.2
		C79.4,41.8,85.3,34.7,89.8,26L89.8,26z"/>
	<path class="st1" d="M89.8,104c4.5,8.7,10.4,15.8,17.7,21.3c-7.3,5.5-13.2,12.6-17.7,21.2c-4.5-8.6-10.4-15.7-17.7-21.2
		C79.4,119.7,85.3,112.6,89.8,104L89.8,104z"/>
	<path class="st1" d="M89.8,181.9c4.5,8.7,10.4,15.8,17.7,21.3c-7.3,5.5-13.2,12.6-17.7,21.2c-4.5-8.6-10.4-15.7-17.7-21.2
		C79.4,197.7,85.3,190.6,89.8,181.9L89.8,181.9z"/>
	<g>
		<path class="st1" d="M14.3,22.5l5.9-5.2h0v0l0,0l0,0v-2.5l-13.5,0l0,1.8v2.3h2.1v-1.5l7.9,0l-7.8,7.2l1.1,1.7
			c0.8-0.8,1.9-1.2,3.1-1.2c1.4,0,2.7,0.6,3.6,1.7c0.9,1,1.4,2.5,1.4,4.1c0,1.6-0.6,3-1.4,4.1c-0.9,1-2.3,1.7-3.6,1.7
			c-1.4,0-2.6-0.6-3.5-1.7c-0.6-0.8-1.1-1.7-1.3-2.8l-2.1,0.4c0.7,3.7,3.5,6.5,6.9,6.5c3.9,0,7.2-3.7,7.2-8.2
			C20.3,26.5,17.7,23.1,14.3,22.5z"/>
		<polygon class="st1" points="10,26.1 10,26.1 10,26.1 		"/>
	</g>
	<g>
		<path class="st1" d="M165.3,228l-5.9,5.2h0v0l0,0l0,0l0,2.5l13.5,0l0-1.8v-2.3h-2.1v1.5l-7.9,0l7.8-7.2l-1.1-1.7
			c-0.8,0.8-1.9,1.2-3.1,1.2c-1.4,0-2.7-0.6-3.6-1.7c-0.9-1-1.4-2.5-1.4-4.1c0-1.6,0.6-3,1.4-4.1c0.9-1,2.3-1.7,3.6-1.7
			c1.4,0,2.6,0.6,3.5,1.7c0.6,0.8,1.1,1.7,1.3,2.8l2.1-0.4c-0.7-3.7-3.5-6.5-6.9-6.5c-3.9,0-7.2,3.7-7.2,8.2
			C159.2,224,161.9,227.3,165.3,228z"/>
		<polygon class="st1" points="169.6,224.4 169.6,224.4 169.6,224.4 		"/>
	</g>
</g>
</svg>
