<?xml version="1.0" encoding="utf-8"?>
<!-- Generator: Adobe Illustrator 23.0.4, SVG Export Plug-In . SVG Version: 6.00 Build 0)  -->
<svg version="1.1" id="Layer_1" xmlns="http://www.w3.org/2000/svg" xmlns:xlink="http://www.w3.org/1999/xlink" x="0px" y="0px"
	 viewBox="0 0 179.6 250.4" style="enable-background:new 0 0 179.6 250.4;" xml:space="preserve">
<style type="text/css">
	.st0{fill:#F4F4F2;stroke:#000000;}
	.st1{fill-rule:evenodd;clip-rule:evenodd;stroke:#000000;stroke-width:6.501800e-02;stroke-linejoin:round;}
	.st2{fill-rule:evenodd;clip-rule:evenodd;stroke:#000000;stroke-width:0.1625;stroke-linejoin:round;}
</style>
<g>
	<path class="st0" d="M179.1,235.8c0,7.8-6.3,14.2-14.2,14.2H14.7c-7.8,0-14.2-6.3-14.2-14.2V14.7c0-7.8,6.3-14.2,14.2-14.2h150.2
		c7.8,0,14.2,6.3,14.2,14.2V235.8z"/>
	<g>
		<path d="M14.3,22.5l5.9-5.2h0v0l0,0l0,0v-2.5H6.7l0,1.8v2.3h2.1v-1.5l7.9,0l-7.8,7.2l1.1,1.7c0.8-0.8,1.9-1.2,3.1-1.2
			c1.4,0,2.7,0.6,3.6,1.7c0.9,1,1.4,2.5,1.4,4.1c0,1.6-0.6,3-1.4,4.1c-0.9,1-2.3,1.7-3.6,1.7c-1.4,0-2.6-0.6-3.5-1.7
			c-0.6-0.8-1.1-1.7-1.3-2.8l-2.1,0.4c0.7,3.7,3.5,6.5,6.9,6.5c3.9,0,7.2-3.7,7.2-8.2C20.3,26.5,17.7,23.1,14.3,22.5z"/>
		<polygon points="10,26.1 10,26.1 10,26.1 		"/>
	</g>
	<g>
		<path d="M165.3,228l-5.9,5.2h0v0l0,0l0,0v2.5h13.5l0-1.8v-2.3h-2.1v1.5l-7.9,0l7.8-7.2l-1.1-1.7c-0.8,0.8-1.9,1.2-3.1,1.2
			c-1.4,0-2.7-0.6-3.6-1.7c-0.9-1-1.4-2.5-1.4-4.1s0.6-3,1.4-4.1c0.9-1,2.3-1.7,3.6-1.7c1.4,0,2.6,0.6,3.5,1.7
			c0.6,0.8,1.1,1.7,1.3,2.8l2.1-0.4c-0.7-3.7-3.5-6.5-6.9-6.5c-3.9,0-7.2,3.7-7.2,8.2C159.2,224,161.9,227.3,165.3,228z"/>
		<polygon points="169.6,224.4 169.6,224.4 169.6,224.4 		"/>
	</g>
	<path class="st1" d="M166.3,207.4c0,0-0.1,0-0.1-0.1c-3-1.9-6.6-5.7-6.9-10.4c-0.2-2.2,1.3-3.8,3.1-3.8c1.2,0,2.1,0.4,2.7,1.2
		c0.4,0.7,0.5,1.7,0.6,1.2c0.2-1.8-0.5-3.6-0.9-5.1c0.5,0.2,1,0.3,1.6,0.3h0c0.6,0,1.2-0.1,1.6-0.3c-0.4,1.5-1.2,3.3-0.9,5.1
		c0.1,0.5,0.2-0.6,0.6-1.2c0.5-0.8,1.5-1.2,2.7-1.2c1.9,0,3.3,1.6,3.1,3.8c-0.4,4.7-3.9,8.5-6.9,10.4
		C166.4,207.4,166.4,207.4,166.3,207.4L166.3,207.4z"/>
	<path class="st1" d="M13.2,43c0,0-0.1,0-0.1,0.1c-3,1.9-6.6,5.7-6.9,10.4c-0.2,2.2,1.3,3.8,3.1,3.8c1.2,0,2.1-0.4,2.7-1.2
		c0.4-0.7,0.5-1.7,0.6-1.2c0.2,1.8-0.5,3.6-0.9,5.1c0.5-0.2,1-0.3,1.6-0.3h0c0.6,0,1.2,0.1,1.6,0.3c-0.4-1.5-1.2-3.3-0.9-5.1
		c0.1-0.5,0.2,0.6,0.6,1.2c0.5,0.8,1.5,1.2,2.7,1.2c1.9,0,3.3-1.6,3.1-3.8c-0.4-4.7-3.9-8.5-6.9-10.4C13.4,43.1,13.3,43.1,13.2,43
		L13.2,43z"/>
	<path class="st2" d="M89.8,26c-0.1,0.1-0.2,0.1-0.3,0.2C81.9,31,73,40.5,72.1,52.3c-0.4,5.6,3.2,9.5,7.8,9.6c3,0.1,5.3-1,6.6-3
		c1.1-1.7,1.3-4.2,1.5-3.1c0.6,4.5-1.3,8.9-2.3,12.7c1.1-0.4,2.6-0.6,4-0.6h0c1.4,0,2.9,0.2,4,0.6c-1-3.8-2.9-8.2-2.3-12.7
		c0.2-1.2,0.4,1.4,1.5,3.1c1.3,2,3.7,3.1,6.6,3c4.6-0.1,8.2-4,7.8-9.6c-0.9-11.8-9.8-21.3-17.4-26.1C90,26.1,90,26.1,89.8,26
		L89.8,26z"/>
	<path class="st2" d="M89.8,104c-0.1,0.1-0.2,0.1-0.3,0.2c-7.6,4.8-16.5,14.3-17.4,26.1c-0.4,5.6,3.2,9.5,7.8,9.6c3,0.1,5.3-1,6.6-3
		c1.1-1.7,1.3-4.2,1.5-3.1c0.6,4.5-1.3,8.9-2.3,12.7c1.1-0.4,2.6-0.6,4-0.6h0c1.4,0,2.9,0.2,4,0.6c-1-3.8-2.9-8.2-2.3-12.7
		c0.2-1.2,0.4,1.4,1.5,3.1c1.3,2,3.7,3.1,6.6,3c4.6-0.1,8.2-4,7.8-9.6c-0.9-11.8-9.8-21.3-17.4-26.1C90,104.1,90,104,89.8,104
		L89.8,104z"/>
	<path class="st2" d="M89.8,224.4c-0.1-0.1-0.2-0.1-0.3-0.2c-7.6-4.8-16.5-14.3-17.4-26.1c-0.4-5.6,3.2-9.5,7.8-9.6
		c3-0.1,5.3,1,6.6,3c1.1,1.7,1.3,4.2,1.5,3.1c0.6-4.5-1.3-8.9-2.3-12.7c1.1,0.4,2.6,0.6,4,0.6h0c1.4,0,2.9-0.2,4-0.6
		c-1,3.8-2.9,8.2-2.3,12.7c0.2,1.2,0.4-1.4,1.5-3.1c1.3-2,3.7-3.1,6.6-3c4.6,0.1,8.2,4,7.8,9.6c-0.9,11.8-9.8,21.3-17.4,26.1
		C90,224.3,90,224.4,89.8,224.4L89.8,224.4z"/>
</g>
</svg>
