<?xml version="1.0" encoding="utf-8"?>
<!-- Generator: Adobe Illustrator 23.0.4, SVG Export Plug-In . SVG Version: 6.00 Build 0)  -->
<svg version="1.1" id="Layer_1" xmlns="http://www.w3.org/2000/svg" xmlns:xlink="http://www.w3.org/1999/xlink" x="0px" y="0px"
	 viewBox="0 0 179.6 250.4" style="enable-background:new 0 0 179.6 250.4;" xml:space="preserve">
<style type="text/css">
	.st0{fill:#F4F4F2;stroke:#000000;}
	.st1{fill:#E44145;}
</style>
<g>
	<path class="st0" d="M179.1,235.8c0,7.8-6.3,14.2-14.2,14.2H14.7c-7.8,0-14.2-6.3-14.2-14.2V14.7c0-7.8,6.3-14.2,14.2-14.2h150.2
		c7.8,0,14.2,6.3,14.2,14.2V235.8z"/>
	<g>
		<path class="st1" d="M17.2,43.1c-1.2-0.4-3.2,0.3-3.9,3.1c-0.1,0.2-0.1,0.2-0.2,0c-1-2.9-2.7-3.5-3.9-3.1
			c-1.8,0.6-3.2,2.7-3.1,5.4c0,4.7,4.2,7,7.1,11.5c2.8-4.5,7.1-6.8,7.1-11.5C20.6,45.8,19,43.7,17.2,43.1z"/>
		<path class="st1" d="M13.3,60C13.2,60,13.2,60,13.3,60C13.2,60,13.2,60,13.3,60L13.3,60z"/>
	</g>
	<g>
		<path class="st1" d="M166.3,190.4C166.3,190.4,166.3,190.4,166.3,190.4C166.4,190.4,166.4,190.4,166.3,190.4L166.3,190.4z"/>
		<path class="st1" d="M166.3,190.4c-2.8,4.5-7.1,6.8-7.1,11.5c-0.2,2.7,1.3,4.8,3.1,5.3c1.2,0.4,3.2-0.3,3.9-3.1
			c0.1-0.2,0.1-0.2,0.2,0c1,2.9,2.7,3.5,3.9,3.1c1.8-0.6,3.2-2.7,3.1-5.4C173.4,197.3,169.2,194.9,166.3,190.4z"/>
	</g>
	<g>
		<path class="st1" d="M107.5,210.8c-0.1-11.7-10.6-17.6-17.6-28.8c-7.1,11.2-17.7,17.1-17.7,28.8c-0.6,6.8,3.2,12,7.7,13.4
			c3.1,1,8-0.7,9.7-7.8c0.1-0.4,0.3-0.4,0.4,0c2.6,7.2,6.8,8.7,9.8,7.8C104.2,222.8,107.8,217.5,107.5,210.8z"/>
		<path class="st1" d="M89.8,181.9C89.8,181.9,89.8,182,89.8,181.9C89.9,182,89.9,181.9,89.8,181.9L89.8,181.9z"/>
	</g>
	<g>
		<path class="st1" d="M89.8,68.5C89.8,68.5,89.8,68.5,89.8,68.5C89.7,68.5,89.7,68.5,89.8,68.5L89.8,68.5z"/>
		<path class="st1" d="M99.7,26.3c-3.1-1-8,0.7-9.7,7.8c-0.1,0.4-0.3,0.4-0.4,0c-2.6-7.2-6.8-8.7-9.8-7.8c-4.4,1.4-8,6.7-7.7,13.4
			c0.1,11.7,10.6,17.6,17.6,28.8c7.1-11.2,17.7-17.1,17.7-28.8C108.1,32.8,104.3,27.7,99.7,26.3z"/>
	</g>
	<g>
		<path class="st1" d="M89.8,146.5C89.8,146.5,89.8,146.4,89.8,146.5C89.7,146.4,89.7,146.5,89.8,146.5L89.8,146.5z"/>
		<path class="st1" d="M99.7,104.2c-3.1-1-8,0.7-9.7,7.8c-0.1,0.4-0.3,0.4-0.4,0c-2.6-7.2-6.8-8.7-9.8-7.8c-4.4,1.4-8,6.7-7.7,13.4
			c0.1,11.7,10.6,17.6,17.6,28.8c7.1-11.2,17.7-17.1,17.7-28.8C108.1,110.8,104.3,105.6,99.7,104.2z"/>
	</g>
	<g>
		<path class="st1" d="M14.3,22.5l5.9-5.2h0v0l0,0l0,0v-2.5l-13.5,0l0,1.8v2.3h2.1v-1.5l7.9,0l-7.8,7.2l1.1,1.7
			c0.8-0.8,1.9-1.2,3.1-1.2c1.4,0,2.7,0.6,3.6,1.7c0.9,1,1.4,2.5,1.4,4.1c0,1.6-0.6,3-1.4,4.1c-0.9,1-2.3,1.7-3.6,1.7
			c-1.4,0-2.6-0.6-3.5-1.7c-0.6-0.8-1.1-1.7-1.3-2.8l-2.1,0.4c0.7,3.7,3.5,6.5,6.9,6.5c3.9,0,7.2-3.7,7.2-8.2
			C20.3,26.5,17.7,23.1,14.3,22.5z"/>
		<polygon class="st1" points="10,26.1 10,26.1 10,26.1 		"/>
	</g>
	<g>
		<path class="st1" d="M165.3,228l-5.9,5.2h0v0l0,0l0,0l0,2.5l13.5,0l0-1.8v-2.3h-2.1v1.5l-7.9,0l7.8-7.2l-1.1-1.7
			c-0.8,0.8-1.9,1.2-3.1,1.2c-1.4,0-2.7-0.6-3.6-1.7c-0.9-1-1.4-2.5-1.4-4.1c0-1.6,0.6-3,1.4-4.1c0.9-1,2.3-1.7,3.6-1.7
			s2.6,0.6,3.5,1.7c0.6,0.8,1.1,1.7,1.3,2.8l2.1-0.4c-0.7-3.7-3.5-6.5-6.9-6.5c-3.9,0-7.2,3.7-7.2,8.2
			C159.2,224,161.9,227.3,165.3,228z"/>
		<polygon class="st1" points="169.6,224.4 169.6,224.4 169.6,224.4 		"/>
	</g>
</g>
</svg>
