<?xml version="1.0" encoding="utf-8"?>
<!-- Generator: Adobe Illustrator 23.0.4, SVG Export Plug-In . SVG Version: 6.00 Build 0)  -->
<svg version="1.1" id="Layer_1" xmlns="http://www.w3.org/2000/svg" xmlns:xlink="http://www.w3.org/1999/xlink" x="0px" y="0px"
	 viewBox="0 0 179.6 250.4" style="enable-background:new 0 0 179.6 250.4;" xml:space="preserve">
<style type="text/css">
	.st0{fill:#F4F4F2;stroke:#000000;}
	.st1{fill-rule:evenodd;clip-rule:evenodd;}
	.st2{fill-rule:evenodd;clip-rule:evenodd;stroke:#000000;stroke-width:0.1625;stroke-linejoin:round;}
</style>
<g>
	<path class="st0" d="M179.1,235.8c0,7.8-6.3,14.2-14.2,14.2H14.7c-7.8,0-14.2-6.3-14.2-14.2V14.7c0-7.8,6.3-14.2,14.2-14.2h150.2
		c7.8,0,14.2,6.3,14.2,14.2V235.8z"/>
	<g>
		<path class="st1" d="M14.6,56.2c-0.4-0.7-0.5-1.7-0.6-1.2c-0.2,1.8,0.5,3.6,0.9,5.1c-0.9-0.3-2.3-0.3-3.2,0c0.4-1.6,1.2-3.2,1-5.1
			c-0.1-0.4-0.2,0.5-0.6,1.2c-0.6,0.9-1.6,1.2-2.6,1.2c-1.5,0-3-1-3.2-2.6c0-0.4,0-0.8,0-1.2c0.3-4.7,4-8.8,7.1-10.6
			c0.1,0,0.1,0.1,0.1,0.1c3,1.9,6.6,5.7,6.9,10.4c0.2,2.2-0.9,3.9-3.1,3.9C16,57.4,15.1,57,14.6,56.2z"/>
	</g>
	<g>
		<path class="st1" d="M165,194.3c0.4,0.7,0.5,1.7,0.6,1.2c0.2-1.8-0.5-3.6-0.9-5.1c0.9,0.3,2.3,0.3,3.2,0c-0.4,1.6-1.2,3.2-1,5.1
			c0.1,0.4,0.2-0.5,0.6-1.2c0.6-0.9,1.6-1.3,2.6-1.2c1.5,0,3,1,3.2,2.6c0,0.4,0,0.8,0,1.2c-0.3,4.7-4,8.8-7.1,10.6
			c-0.1,0-0.1-0.1-0.1-0.1c-3-1.9-6.6-5.7-6.9-10.4c-0.2-2.2,0.9-3.9,3.1-3.9C163.5,193,164.5,193.5,165,194.3z"/>
	</g>
	<g>
		<g>
			<polygon points="173.4,219.6 173.4,220.2 164.5,235.8 164.3,235.8 162.8,234.2 171.8,218.5 			"/>
		</g>
		<g>
			<polygon points="164.5,235.8 162.2,235.8 162.2,211.7 164.5,211.7 164.5,235.8 			"/>
		</g>
		<g>
			<polygon points="165.9,214.1 160.7,214.1 160.7,211.7 165.9,211.7 165.9,214.1 			"/>
		</g>
		<g>
			<polygon points="173.4,217.8 173.4,220.2 159.2,220.2 159.2,217.8 173.4,217.8 			"/>
		</g>
	</g>
	<path class="st2" d="M46.5,26c-0.1,0.1-0.2,0.1-0.3,0.2C38.7,31,29.8,40.5,28.9,52.3c-0.4,5.6,3.2,9.5,7.8,9.6c3,0.1,5.3-1,6.6-3
		c1.1-1.7,1.3-4.2,1.5-3.1c0.6,4.5-1.3,8.9-2.3,12.7c1.1-0.4,2.6-0.6,4-0.6h0c1.4,0,2.9,0.2,4,0.6c-1-3.8-2.9-8.2-2.3-12.7
		c0.2-1.2,0.4,1.4,1.5,3.1c1.3,2,3.7,3.1,6.6,3c4.6-0.1,8.2-4,7.8-9.6C63.3,40.5,54.5,31,46.9,26.2C46.8,26.1,46.7,26.1,46.5,26
		L46.5,26z"/>
	<path class="st2" d="M133,26c-0.1,0.1-0.2,0.1-0.3,0.2c-7.6,4.8-16.5,14.3-17.4,26.1c-0.4,5.6,3.2,9.5,7.8,9.6c3,0.1,5.3-1,6.6-3
		c1.1-1.7,1.3-4.2,1.5-3.1c0.6,4.5-1.3,8.9-2.3,12.7c1.1-0.4,2.6-0.6,4-0.6h0c1.4,0,2.9,0.2,4,0.6c-1-3.8-2.9-8.2-2.3-12.7
		c0.2-1.2,0.4,1.4,1.5,3.1c1.3,2,3.7,3.1,6.6,3c4.6-0.1,8.2-4,7.8-9.6c-0.9-11.8-9.8-21.3-17.4-26.1C133.3,26.1,133.2,26.1,133,26
		L133,26z"/>
	<path class="st2" d="M46.5,224.4c-0.1-0.1-0.2-0.1-0.3-0.2c-7.6-4.8-16.5-14.3-17.4-26.1c-0.4-5.6,3.2-9.5,7.8-9.6
		c3-0.1,5.3,1,6.6,3c1.1,1.7,1.3,4.2,1.5,3.1c0.6-4.5-1.3-8.9-2.3-12.7c1.1,0.4,2.6,0.6,4,0.6h0c1.4,0,2.9-0.2,4-0.6
		c-1,3.8-2.9,8.2-2.3,12.7c0.2,1.2,0.4-1.4,1.5-3.1c1.3-2,3.7-3.1,6.6-3c4.6,0.1,8.2,4,7.8,9.6c-0.9,11.8-9.8,21.3-17.4,26.1
		C46.8,224.3,46.7,224.4,46.5,224.4L46.5,224.4z"/>
	<path class="st2" d="M133,224.4c-0.1-0.1-0.2-0.1-0.3-0.2c-7.6-4.8-16.5-14.3-17.4-26.1c-0.4-5.6,3.2-9.5,7.8-9.6
		c3-0.1,5.3,1,6.6,3c1.1,1.7,1.3,4.2,1.5,3.1c0.6-4.5-1.3-8.9-2.3-12.7c1.1,0.4,2.6,0.6,4,0.6h0c1.4,0,2.9-0.2,4-0.6
		c-1,3.8-2.9,8.2-2.3,12.7c0.2,1.2,0.4-1.4,1.5-3.1c1.3-2,3.7-3.1,6.6-3c4.6,0.1,8.2,4,7.8,9.6c-0.9,11.8-9.8,21.3-17.4,26.1
		C133.3,224.3,133.2,224.4,133,224.4L133,224.4z"/>
	<g>
		<g>
			<polygon points="6.2,30.9 6.2,30.2 15,14.7 15.3,14.7 16.7,16.3 7.8,32 			"/>
		</g>
		<g>
			<polygon points="15.1,14.7 17.4,14.7 17.4,38.7 15.1,38.7 15.1,14.7 			"/>
		</g>
		<g>
			<polygon points="13.6,36.4 18.9,36.4 18.9,38.8 13.6,38.8 13.6,36.4 			"/>
		</g>
		<g>
			<polygon points="6.2,32.6 6.2,30.2 20.3,30.2 20.3,32.6 6.2,32.6 			"/>
		</g>
	</g>
</g>
</svg>
