<?xml version="1.0" encoding="utf-8"?>
<!-- Generator: Adobe Illustrator 23.0.4, SVG Export Plug-In . SVG Version: 6.00 Build 0)  -->
<svg version="1.1" id="Layer_1" xmlns="http://www.w3.org/2000/svg" xmlns:xlink="http://www.w3.org/1999/xlink" x="0px" y="0px"
	 viewBox="0 0 179.7 250.5" style="enable-background:new 0 0 179.7 250.5;" xml:space="preserve">
<style type="text/css">
	.st0{fill:#F4F4F2;stroke:#000000;}
	.st1{fill:#E44145;}
</style>
<g>
	<path class="st0" d="M179.2,235.8c0,7.8-6.3,14.2-14.2,14.2H14.7c-7.8,0-14.2-6.3-14.2-14.2V14.7c0-7.8,6.3-14.2,14.2-14.2h150.2
		c7.8,0,14.2,6.3,14.2,14.2L179.2,235.8L179.2,235.8z"/>
	<path class="st1" d="M13.3,43c1.8,3.5,4.1,6.3,7.1,8.5c-2.9,2.2-5.3,5-7.1,8.5c-1.8-3.5-4.2-6.3-7.1-8.5
		C9.2,49.3,11.5,46.5,13.3,43L13.3,43z"/>
	<path class="st1" d="M166.4,190.4c1.8,3.5,4.1,6.3,7.1,8.5c-2.9,2.2-5.3,5-7.1,8.5c-1.8-3.5-4.2-6.3-7.1-8.5
		C162.2,196.7,164.6,193.9,166.4,190.4L166.4,190.4z"/>
	<path class="st1" d="M46.7,26c4.5,8.7,10.4,15.8,17.7,21.3c-7.3,5.5-13.2,12.6-17.7,21.2C42.2,59.9,36.3,52.8,29,47.3
		C36.2,41.8,42.2,34.7,46.7,26L46.7,26z"/>
	<path class="st1" d="M46.7,181.9c4.5,8.7,10.4,15.8,17.7,21.3c-7.3,5.5-13.2,12.6-17.7,21.2c-4.5-8.6-10.4-15.7-17.7-21.2
		C36.2,197.7,42.2,190.6,46.7,181.9L46.7,181.9z"/>
	<path class="st1" d="M133.1,26c4.5,8.7,10.4,15.8,17.7,21.3c-7.3,5.5-13.2,12.6-17.7,21.2c-4.5-8.6-10.4-15.7-17.7-21.2
		C122.7,41.8,128.6,34.7,133.1,26L133.1,26z"/>
	<path class="st1" d="M133.1,181.9c4.5,8.7,10.4,15.8,17.7,21.3c-7.3,5.5-13.2,12.6-17.7,21.2c-4.5-8.6-10.4-15.7-17.7-21.2
		C122.7,197.7,128.6,190.6,133.1,181.9L133.1,181.9z"/>
	<path class="st1" d="M20.4,32.6v-2.4h-3V14.6h-2.2l0,0h-0.1L6.2,30.2v2.4h9v3.7h-1.5v2.4h5.2v-2.4h-1.5v-3.7H20.4z M8.9,30.3
		l6.3-11.1v11.1H8.9z"/>
	<path class="st1" d="M159.3,217.8v2.4h3v15.6h2.2l0,0h0.1l8.9-15.6v-2.4h-9v-3.7h1.5v-2.4h-5.2v2.4h1.5v3.7H159.3z M170.9,220.2
		l-6.3,11.1v-11.1H170.9z"/>
</g>
</svg>
