<?xml version="1.0" encoding="utf-8"?>
<!-- Generator: Adobe Illustrator 23.0.4, SVG Export Plug-In . SVG Version: 6.00 Build 0)  -->
<svg version="1.1" id="Layer_1" xmlns="http://www.w3.org/2000/svg" xmlns:xlink="http://www.w3.org/1999/xlink" x="0px" y="0px"
	 viewBox="0 0 179.6 250.4" style="enable-background:new 0 0 179.6 250.4;" xml:space="preserve">
<style type="text/css">
	.st0{fill:#F4F4F2;stroke:#000000;}
	.st1{fill:#E44145;}
</style>
<g>
	<path class="st0" d="M179.1,235.8c0,7.8-6.3,14.2-14.2,14.2H14.7c-7.8,0-14.2-6.3-14.2-14.2V14.7c0-7.8,6.3-14.2,14.2-14.2h150.2
		c7.8,0,14.2,6.3,14.2,14.2V235.8z"/>
	<g>
		<path class="st1" d="M17.2,43.1c-1.2-0.4-3.2,0.3-3.9,3.1c-0.1,0.2-0.1,0.2-0.2,0c-1-2.9-2.7-3.5-3.9-3.1
			c-1.8,0.6-3.2,2.7-3.1,5.4c0,4.7,4.2,7,7.1,11.5c2.8-4.5,7.1-6.8,7.1-11.5C20.6,45.8,19,43.7,17.2,43.1z"/>
		<path class="st1" d="M13.3,60C13.2,60,13.2,60,13.3,60C13.2,60,13.2,60,13.3,60L13.3,60z"/>
	</g>
	<g>
		<path class="st1" d="M166.3,190.5c-2.8,4.5-7.1,6.8-7.1,11.5c-0.2,2.7,1.3,4.8,3.1,5.3c1.2,0.4,3.2-0.3,3.9-3.1
			c0.1-0.2,0.1-0.2,0.2,0c1,2.9,2.7,3.5,3.9,3.1c1.8-0.6,3.2-2.7,3.1-5.4C173.4,197.3,169.2,194.9,166.3,190.5z"/>
		<path class="st1" d="M166.3,190.4C166.3,190.4,166.3,190.4,166.3,190.4C166.4,190.4,166.4,190.4,166.3,190.4L166.3,190.4z"/>
	</g>
	<g>
		<path class="st1" d="M56.5,26.3c-3.1-1-8,0.7-9.7,7.8c-0.1,0.4-0.3,0.4-0.4,0c-2.6-7.2-6.8-8.7-9.8-7.8c-4.4,1.4-8,6.7-7.7,13.4
			C29,51.4,39.4,57.3,46.5,68.5c7.1-11.2,17.7-17.1,17.7-28.8C64.8,32.8,61,27.7,56.5,26.3z"/>
		<path class="st1" d="M46.6,68.5C46.5,68.5,46.5,68.5,46.6,68.5C46.5,68.5,46.5,68.5,46.6,68.5L46.6,68.5z"/>
	</g>
	<g>
		<path class="st1" d="M64.3,210.8c-0.1-11.7-10.6-17.6-17.6-28.8c-7.1,11.2-17.7,17.1-17.7,28.8c-0.6,6.8,3.2,12,7.7,13.4
			c3.1,1,8-0.7,9.7-7.8c0.1-0.4,0.3-0.4,0.4,0c2.6,7.2,6.8,8.7,9.8,7.8C61,222.8,64.6,217.5,64.3,210.8z"/>
		<path class="st1" d="M46.6,181.9C46.6,181.9,46.6,182,46.6,181.9C46.6,182,46.6,181.9,46.6,181.9L46.6,181.9z"/>
	</g>
	<g>
		<path class="st1" d="M133,65.7C133,65.7,133,65.6,133,65.7C133,65.6,132.9,65.7,133,65.7L133,65.7z"/>
		<path class="st1" d="M143,23.4c-3.1-1-8,0.7-9.7,7.8c-0.1,0.4-0.3,0.4-0.4,0c-2.6-7.2-6.8-8.7-9.8-7.8c-4.4,1.4-8,6.7-7.7,13.4
			c0.1,11.7,10.6,17.6,17.6,28.8c7.1-11.2,17.7-17.1,17.7-28.8C151.3,30,147.5,24.8,143,23.4z"/>
	</g>
	<g>
		<path class="st1" d="M150.7,210.8c-0.1-11.7-10.6-17.6-17.6-28.8c-7.1,11.2-17.7,17.1-17.7,28.8c-0.6,6.8,3.2,12,7.7,13.4
			c3.1,1,8-0.7,9.7-7.8c0.1-0.4,0.3-0.4,0.4,0c2.6,7.2,6.8,8.7,9.8,7.8C147.5,222.8,151,217.5,150.7,210.8z"/>
		<path class="st1" d="M133,181.9C133,181.9,133.1,182,133,181.9C133.1,182,133.1,181.9,133,181.9L133,181.9z"/>
	</g>
	<path class="st1" d="M20.3,32.6v-2.4h-3l0-15.6l-2.2,0l0,0H15L6.2,30.2v2.4h9l0,3.7l-1.5,0l0,2.4l5.2,0l0-2.4l-1.5,0l0-3.7H20.3z
		 M8.8,30.2l6.3-11.1l0,11.1H8.8z"/>
	<path class="st1" d="M159.2,217.8v2.4h3l0,15.6l2.2,0v0l0.1,0l8.9-15.6v-2.4h-9l0-3.7l1.5,0l0-2.4l-5.2,0l0,2.4l1.5,0l0,3.7H159.2z
		 M170.8,220.2l-6.3,11.1l0-11.1H170.8z"/>
</g>
</svg>
