<?xml version="1.0" encoding="utf-8"?>
<!-- Generator: Adobe Illustrator 23.0.4, SVG Export Plug-In . SVG Version: 6.00 Build 0)  -->
<svg version="1.1" id="Layer_1" xmlns="http://www.w3.org/2000/svg" xmlns:xlink="http://www.w3.org/1999/xlink" x="0px" y="0px"
	 viewBox="0 0 179.6 250.4" style="enable-background:new 0 0 179.6 250.4;" xml:space="preserve">
<style type="text/css">
	.st0{fill:#F4F4F2;stroke:#000000;}
	.st1{fill:#E44145;}
</style>
<g>
	<path class="st0" d="M179.1,235.8c0,7.8-6.3,14.2-14.2,14.2H14.7c-7.8,0-14.2-6.3-14.2-14.2V14.7c0-7.8,6.3-14.2,14.2-14.2h150.2
		c7.8,0,14.2,6.3,14.2,14.2V235.8z"/>
	<g>
		<path class="st1" d="M13.3,60C13.2,60,13.2,60,13.3,60C13.2,60,13.2,60,13.3,60L13.3,60z"/>
		<path class="st1" d="M17.2,43.1c-1.2-0.4-3.2,0.3-3.9,3.1c-0.1,0.2-0.1,0.2-0.2,0c-1-2.9-2.7-3.5-3.9-3.1
			c-1.8,0.6-3.2,2.7-3.1,5.4c0,4.7,4.2,7,7.1,11.5c2.8-4.5,7.1-6.8,7.1-11.5C20.6,45.8,19,43.7,17.2,43.1z"/>
	</g>
	<g>
		<path class="st1" d="M166.3,190.4c-2.8,4.5-7.1,6.8-7.1,11.5c-0.2,2.7,1.3,4.8,3.1,5.3c1.2,0.4,3.2-0.3,3.9-3.1
			c0.1-0.2,0.1-0.2,0.2,0c1,2.9,2.7,3.5,3.9,3.1c1.8-0.6,3.2-2.7,3.1-5.4C173.4,197.3,169.2,194.9,166.3,190.4z"/>
		<path class="st1" d="M166.3,190.4C166.3,190.4,166.3,190.4,166.3,190.4C166.4,190.4,166.4,190.4,166.3,190.4L166.3,190.4z"/>
	</g>
	<g>
		<path class="st1" d="M56.5,23.4c-3.1-1-8,0.7-9.7,7.8c-0.1,0.4-0.3,0.4-0.4,0c-2.6-7.2-6.8-8.7-9.8-7.8c-4.4,1.4-8,6.7-7.7,13.4
			C29,48.5,39.4,54.4,46.5,65.6c7.1-11.2,17.7-17.1,17.7-28.8C64.8,30,61,24.8,56.5,23.4z"/>
		<path class="st1" d="M46.6,65.7C46.5,65.7,46.5,65.6,46.6,65.7C46.5,65.6,46.5,65.7,46.6,65.7L46.6,65.7z"/>
	</g>
	<g>
		<path class="st1" d="M46.6,181.9C46.6,181.9,46.6,182,46.6,181.9C46.6,182,46.6,181.9,46.6,181.9L46.6,181.9z"/>
		<path class="st1" d="M64.3,210.8c-0.1-11.7-10.6-17.6-17.6-28.8c-7.1,11.2-17.7,17.1-17.7,28.8c-0.6,6.8,3.2,12,7.7,13.4
			c3.1,1,8-0.7,9.7-7.8c0.1-0.4,0.3-0.4,0.4,0c2.6,7.2,6.8,8.7,9.8,7.8C61,222.8,64.6,217.5,64.3,210.8z"/>
	</g>
	<g>
		<path class="st1" d="M143,23.4c-3.1-1-8,0.7-9.7,7.8c-0.1,0.4-0.3,0.4-0.4,0c-2.6-7.2-6.8-8.7-9.8-7.8c-4.4,1.4-8,6.7-7.7,13.4
			c0.1,11.7,10.6,17.6,17.6,28.8c7.1-11.2,17.7-17.1,17.7-28.8C151.3,30,147.5,24.8,143,23.4z"/>
		<path class="st1" d="M133,65.7C133,65.7,133,65.6,133,65.7C133,65.6,132.9,65.7,133,65.7L133,65.7z"/>
	</g>
	<g>
		<path class="st1" d="M150.7,208c-0.1-11.7-10.6-17.6-17.6-28.8c-7.1,11.2-17.7,17.1-17.7,28.8c-0.6,6.8,3.2,12,7.7,13.4
			c3.1,1,8-0.7,9.7-7.8c0.1-0.4,0.3-0.4,0.4,0c2.6,7.2,6.8,8.7,9.8,7.8C147.5,219.9,151,214.7,150.7,208z"/>
		<path class="st1" d="M133,179.1C133,179.1,133.1,179.1,133,179.1C133.1,179.1,133.1,179.1,133,179.1L133,179.1z"/>
	</g>
	<g>
		<path class="st1" d="M99.7,104.2c-3.1-1-8,0.7-9.8,7.8c-0.1,0.4-0.3,0.4-0.4,0c-2.6-7.2-6.8-8.7-9.8-7.8c-4.4,1.4-8,6.7-7.7,13.4
			c0.1,11.7,10.6,17.6,17.6,28.8c7.1-11.2,17.7-17.1,17.7-28.8C108.1,110.8,104.3,105.6,99.7,104.2z"/>
		<path class="st1" d="M89.8,146.5C89.8,146.5,89.8,146.4,89.8,146.5C89.7,146.4,89.7,146.5,89.8,146.5L89.8,146.5z"/>
	</g>
	<path class="st1" d="M18.2,23.6C16.9,22,15,21,12.9,21c-1.3,0-2.5,0.4-3.6,1.1l0-5h9.4v-2.4H7.1v0.8h0l0,9.7l2.3,0
		c0.8-1.1,2.4-1.9,3.6-1.9c1.4,0,2.6,0.7,3.6,1.8c1,1.2,1.6,2.8,1.6,4.7c0,1.9-0.6,3.5-1.6,4.7c-1,1.2-2.2,1.8-3.6,1.8
		c-1,0-2-0.4-2.8-1c-0.8-0.7-1.5-1.6-1.9-2.8l-2.1,0.9c0.6,1.5,1.5,2.9,2.6,3.8c1.2,1,2.6,1.5,4.1,1.5c0,0,0,0,0,0
		c2.1,0,4-1.1,5.3-2.7c1.3-1.6,2.1-3.8,2.1-6.2C20.3,27.5,19.6,25.3,18.2,23.6z"/>
	<path class="st1" d="M161.3,226.8c1.3,1.6,3.2,2.7,5.3,2.7c1.3,0,2.5-0.4,3.6-1.1l0,5h-9.4v2.4h11.6v-0.8h0l0-9.7l-2.3,0
		c-0.8,1.1-2.4,1.9-3.6,1.9c-1.4,0-2.6-0.7-3.6-1.8c-1-1.2-1.6-2.8-1.6-4.7c0-1.9,0.6-3.5,1.6-4.7c1-1.2,2.2-1.8,3.6-1.8
		c1,0,2,0.4,2.8,1c0.8,0.7,1.5,1.6,1.9,2.8l2.1-0.9c-0.6-1.5-1.5-2.9-2.6-3.8c-1.2-1-2.6-1.5-4.1-1.5c0,0,0,0,0,0
		c-2.1,0-4,1.1-5.3,2.7c-1.3,1.6-2.1,3.8-2.1,6.2C159.2,223,160,225.2,161.3,226.8z"/>
</g>
</svg>
