<?xml version="1.0" encoding="utf-8"?>
<!-- Generator: Adobe Illustrator 23.0.4, SVG Export Plug-In . SVG Version: 6.00 Build 0)  -->
<svg version="1.1" id="Layer_1" xmlns="http://www.w3.org/2000/svg" xmlns:xlink="http://www.w3.org/1999/xlink" x="0px" y="0px"
	 viewBox="0 0 179.6 250.4" style="enable-background:new 0 0 179.6 250.4;" xml:space="preserve">
<style type="text/css">
	.st0{fill:#F4F4F2;stroke:#000000;}
	.st1{stroke:#000000;}
	.st2{fill-rule:evenodd;clip-rule:evenodd;stroke:#000000;stroke-width:6.501800e-02;stroke-linejoin:round;}
	.st3{fill-rule:evenodd;clip-rule:evenodd;stroke:#000000;stroke-width:0.1625;stroke-linejoin:round;}
</style>
<g>
	<path class="st0" d="M179.1,235.8c0,7.8-6.3,14.2-14.2,14.2H14.7c-7.8,0-14.2-6.3-14.2-14.2V14.7c0-7.8,6.3-14.2,14.2-14.2h150.2
		c7.8,0,14.2,6.3,14.2,14.2V235.8z"/>
	<path class="st1" d="M18.2,23.6C16.9,22,15,21,12.9,21c-1.3,0-2.5,0.4-3.6,1.1l0-5h9.4v-2.4H7.1v0.8h0l0,9.7l2.3,0
		c0.8-1.1,2.4-1.9,3.6-1.9c1.4,0,2.6,0.7,3.6,1.8c1,1.2,1.6,2.8,1.6,4.7c0,1.9-0.6,3.5-1.6,4.7c-1,1.2-2.2,1.8-3.6,1.8
		c-1,0-2-0.4-2.8-1c-0.8-0.7-1.5-1.6-1.9-2.8l-2.1,0.9c0.6,1.5,1.5,2.9,2.6,3.8c1.2,0.9,2.6,1.5,4.1,1.5c0,0,0,0,0,0
		c2.1,0,4-1.1,5.3-2.7c1.3-1.6,2.1-3.8,2.1-6.2C20.3,27.5,19.6,25.3,18.2,23.6z"/>
	<path class="st1" d="M161.3,226.8c1.3,1.6,3.2,2.7,5.3,2.7c1.3,0,2.5-0.4,3.6-1.1l0,5h-9.4v2.4h11.6v-0.8h0l0-9.7l-2.3,0
		c-0.8,1.1-2.4,1.9-3.6,1.9c-1.4,0-2.6-0.7-3.6-1.8c-1-1.2-1.6-2.8-1.6-4.7c0-1.9,0.6-3.5,1.6-4.7c1-1.2,2.2-1.8,3.6-1.8
		c1,0,2,0.4,2.8,1c0.8,0.7,1.5,1.6,1.9,2.8l2.1-0.9c-0.6-1.5-1.5-2.9-2.6-3.8c-1.2-0.9-2.6-1.5-4.1-1.5c0,0,0,0,0,0
		c-2.1,0-4,1.1-5.3,2.7c-1.3,1.6-2.1,3.8-2.1,6.2C159.2,223,160,225.2,161.3,226.8z"/>
	<path class="st2" d="M13.2,43c0,0-0.1,0-0.1,0.1c-3,1.9-6.6,5.7-6.9,10.4c-0.2,2.2,1.3,3.8,3.1,3.8c1.2,0,2.1-0.4,2.7-1.2
		c0.4-0.7,0.5-1.7,0.6-1.2c0.2,1.8-0.5,3.6-0.9,5.1c0.5-0.2,1-0.3,1.6-0.3h0c0.6,0,1.2,0.1,1.6,0.3c-0.4-1.5-1.2-3.3-0.9-5.1
		c0.1-0.5,0.2,0.6,0.6,1.2c0.5,0.8,1.5,1.2,2.7,1.2c1.9,0,3.3-1.6,3.1-3.8c-0.4-4.7-3.9-8.5-6.9-10.4C13.4,43.1,13.3,43.1,13.2,43
		L13.2,43z"/>
	<path class="st2" d="M166.3,207.4c0,0-0.1,0-0.1-0.1c-3-1.9-6.6-5.7-6.9-10.4c-0.2-2.2,1.3-3.8,3.1-3.8c1.2,0,2.1,0.4,2.7,1.2
		c0.4,0.7,0.5,1.7,0.6,1.2c0.2-1.8-0.5-3.6-0.9-5.1c0.5,0.2,1,0.2,1.6,0.3h0c0.6,0,1.2-0.1,1.6-0.3c-0.4,1.5-1.2,3.3-0.9,5.1
		c0.1,0.5,0.2-0.6,0.6-1.2c0.5-0.8,1.5-1.2,2.7-1.2c1.9,0,3.3,1.6,3.1,3.8c-0.4,4.7-3.9,8.5-6.9,10.4
		C166.4,207.4,166.4,207.4,166.3,207.4L166.3,207.4z"/>
	<path class="st3" d="M46.5,26c-0.1,0.1-0.2,0.1-0.3,0.2C38.7,31,29.8,40.5,28.9,52.3c-0.4,5.6,3.2,9.5,7.8,9.6c3,0.1,5.3-1,6.6-3
		c1.1-1.7,1.3-4.2,1.5-3.1c0.6,4.5-1.3,8.9-2.3,12.7c1.1-0.4,2.6-0.6,4-0.6h0c1.4,0,2.9,0.2,4,0.6c-1-3.8-2.9-8.2-2.3-12.7
		c0.2-1.2,0.4,1.4,1.5,3.1c1.3,2,3.7,3.1,6.6,3c4.6-0.1,8.2-4,7.8-9.6C63.3,40.5,54.5,31,46.9,26.2C46.8,26.1,46.7,26.1,46.5,26
		L46.5,26z"/>
	<path class="st3" d="M133,26c-0.1,0.1-0.2,0.1-0.3,0.2c-7.6,4.8-16.5,14.3-17.4,26.1c-0.4,5.6,3.2,9.5,7.8,9.6c3,0.1,5.3-1,6.6-3
		c1.1-1.7,1.3-4.2,1.5-3.1c0.6,4.5-1.3,8.9-2.3,12.7c1.1-0.4,2.6-0.6,4-0.6h0c1.4,0,2.9,0.2,4,0.6c-1-3.8-2.9-8.2-2.3-12.7
		c0.2-1.2,0.4,1.4,1.5,3.1c1.3,2,3.7,3.1,6.6,3c4.6-0.1,8.2-4,7.8-9.6c-0.9-11.8-9.8-21.3-17.4-26.1C133.3,26.1,133.2,26.1,133,26
		L133,26z"/>
	<path class="st3" d="M89.8,104c-0.1,0.1-0.2,0.1-0.3,0.2c-7.6,4.8-16.5,14.3-17.4,26.1c-0.4,5.6,3.2,9.5,7.8,9.6c3,0.1,5.3-1,6.6-3
		c1.1-1.7,1.3-4.2,1.5-3.1c0.6,4.5-1.3,8.9-2.3,12.7c1.1-0.4,2.6-0.6,4-0.6h0c1.4,0,2.9,0.2,4,0.6c-1-3.8-2.9-8.2-2.3-12.7
		c0.2-1.2,0.4,1.4,1.5,3.1c1.3,2,3.7,3.1,6.6,3c4.6-0.1,8.2-4,7.8-9.6c-0.9-11.8-9.8-21.3-17.4-26.1C90,104.1,90,104,89.8,104
		L89.8,104z"/>
	<path class="st3" d="M46.5,224.4c-0.1-0.1-0.2-0.1-0.3-0.2c-7.6-4.8-16.5-14.3-17.4-26.1c-0.4-5.6,3.2-9.5,7.8-9.6
		c3-0.1,5.3,1,6.6,3c1.1,1.7,1.3,4.2,1.5,3.1c0.6-4.5-1.3-8.9-2.3-12.7c1.1,0.4,2.6,0.6,4,0.6h0c1.4,0,2.9-0.2,4-0.6
		c-1,3.8-2.9,8.2-2.3,12.7c0.2,1.2,0.4-1.4,1.5-3.1c1.3-2,3.7-3.1,6.6-3c4.6,0.1,8.2,4,7.8,9.6c-0.9,11.8-9.8,21.3-17.4,26.1
		C46.8,224.3,46.7,224.4,46.5,224.4L46.5,224.4z"/>
	<path class="st3" d="M133,224.4c-0.1-0.1-0.2-0.1-0.3-0.2c-7.6-4.8-16.5-14.3-17.4-26.1c-0.4-5.6,3.2-9.5,7.8-9.6
		c3-0.1,5.3,1,6.6,3c1.1,1.7,1.3,4.2,1.5,3.1c0.6-4.5-1.3-8.9-2.3-12.7c1.1,0.4,2.6,0.6,4,0.6h0c1.4,0,2.9-0.2,4-0.6
		c-1,3.8-2.9,8.2-2.3,12.7c0.2,1.2,0.4-1.4,1.5-3.1c1.3-2,3.7-3.1,6.6-3c4.6,0.1,8.2,4,7.8,9.6c-0.9,11.8-9.8,21.3-17.4,26.1
		C133.3,224.3,133.2,224.4,133,224.4L133,224.4z"/>
</g>
</svg>
