<?xml version="1.0" encoding="utf-8"?>
<!-- Generator: Adobe Illustrator 23.0.4, SVG Export Plug-In . SVG Version: 6.00 Build 0)  -->
<svg version="1.1" id="Layer_1" xmlns="http://www.w3.org/2000/svg" xmlns:xlink="http://www.w3.org/1999/xlink" x="0px" y="0px"
	 viewBox="0 0 179.6 250.4" style="enable-background:new 0 0 179.6 250.4;" xml:space="preserve">
<style type="text/css">
	.st0{fill:#F4F4F2;stroke:#000000;}
	.st1{fill:#E44145;}
</style>
<g>
	<path class="st0" d="M179.1,235.8c0,7.8-6.3,14.2-14.2,14.2H14.7c-7.8,0-14.2-6.3-14.2-14.2V14.7c0-7.8,6.3-14.2,14.2-14.2h150.2
		c7.8,0,14.2,6.3,14.2,14.2V235.8z"/>
	<path class="st1" d="M13.3,43c1.8,3.5,4.1,6.3,7.1,8.5c-2.9,2.2-5.3,5-7.1,8.5c-1.8-3.5-4.2-6.3-7.1-8.5
		C9.1,49.3,11.5,46.5,13.3,43L13.3,43z"/>
	<path class="st1" d="M166.3,190.4c1.8,3.5,4.1,6.3,7.1,8.5c-2.9,2.2-5.3,5-7.1,8.5c-1.8-3.5-4.2-6.3-7.1-8.5
		C162.2,196.7,164.5,193.9,166.3,190.4L166.3,190.4z"/>
	<path class="st1" d="M46.6,26c4.5,8.7,10.4,15.8,17.7,21.3C57,52.8,51.1,59.9,46.6,68.5c-4.5-8.6-10.4-15.7-17.7-21.2
		C36.2,41.8,42.1,34.7,46.6,26L46.6,26z"/>
	<path class="st1" d="M89.8,104c4.5,8.7,10.4,15.8,17.7,21.3c-7.3,5.5-13.2,12.6-17.7,21.3c-4.5-8.6-10.4-15.7-17.7-21.3
		C79.4,119.7,85.3,112.6,89.8,104L89.8,104z"/>
	<path class="st1" d="M46.6,181.9c4.5,8.7,10.4,15.8,17.7,21.3c-7.3,5.5-13.2,12.6-17.7,21.2c-4.5-8.6-10.4-15.7-17.7-21.2
		C36.2,197.7,42.1,190.6,46.6,181.9L46.6,181.9z"/>
	<path class="st1" d="M133,26c4.5,8.7,10.4,15.8,17.7,21.3c-7.3,5.5-13.2,12.6-17.7,21.2c-4.5-8.6-10.4-15.7-17.7-21.2
		C122.6,41.8,128.5,34.7,133,26L133,26z"/>
	<path class="st1" d="M133,181.9c4.5,8.7,10.4,15.8,17.7,21.3c-7.3,5.5-13.2,12.6-17.7,21.2c-4.5-8.6-10.4-15.7-17.7-21.2
		C122.6,197.7,128.5,190.6,133,181.9L133,181.9z"/>
	<path class="st1" d="M18.2,23.6C16.9,22,15,21,12.9,21c-1.3,0-2.5,0.4-3.6,1.1l0-5h9.4v-2.4H7.1v0.8h0l0,9.7l2.3,0
		c0.8-1.1,2.4-1.9,3.6-1.9c1.4,0,2.6,0.7,3.6,1.8c1,1.2,1.6,2.8,1.6,4.7c0,1.9-0.6,3.5-1.6,4.7c-1,1.2-2.2,1.8-3.6,1.8
		c-1,0-2-0.4-2.8-1c-0.8-0.7-1.5-1.6-1.9-2.8l-2.1,0.9c0.6,1.5,1.5,2.9,2.6,3.8c1.2,1,2.6,1.5,4.1,1.5c0,0,0,0,0,0
		c2.1,0,4-1.1,5.3-2.7c1.3-1.6,2.1-3.8,2.1-6.2C20.3,27.5,19.6,25.3,18.2,23.6z"/>
	<path class="st1" d="M161.3,226.8c1.3,1.6,3.2,2.7,5.3,2.7c1.3,0,2.5-0.4,3.6-1.1l0,5h-9.4v2.4h11.6v-0.8h0l0-9.7l-2.3,0
		c-0.8,1.1-2.4,1.9-3.6,1.9c-1.4,0-2.6-0.7-3.6-1.8c-1-1.2-1.6-2.8-1.6-4.7c0-1.9,0.6-3.5,1.6-4.7c1-1.2,2.2-1.8,3.6-1.8
		c1,0,2,0.4,2.8,1c0.8,0.7,1.5,1.6,1.9,2.8l2.1-0.9c-0.6-1.5-1.5-2.9-2.6-3.8c-1.2-1-2.6-1.5-4.1-1.5c0,0,0,0,0,0
		c-2.1,0-4,1.1-5.3,2.7c-1.3,1.6-2.1,3.8-2.1,6.2C159.2,223,160,225.2,161.3,226.8z"/>
</g>
</svg>
