<?xml version="1.0" encoding="utf-8"?>
<!-- Generator: Adobe Illustrator 23.0.4, SVG Export Plug-In . SVG Version: 6.00 Build 0)  -->
<svg version="1.1" id="Layer_1" xmlns="http://www.w3.org/2000/svg" xmlns:xlink="http://www.w3.org/1999/xlink" x="0px" y="0px"
	 viewBox="0 0 179.6 250.4" style="enable-background:new 0 0 179.6 250.4;" xml:space="preserve">
<style type="text/css">
	.st0{fill:#F4F4F2;stroke:#000000;}
	.st1{fill:none;}
	.st2{fill-rule:evenodd;clip-rule:evenodd;stroke:#000000;stroke-width:6.501800e-02;stroke-linejoin:round;}
	.st3{fill-rule:evenodd;clip-rule:evenodd;stroke:#000000;stroke-width:0.1625;stroke-linejoin:round;}
</style>
<g>
	<path class="st0" d="M179.1,235.8c0,7.8-6.3,14.2-14.2,14.2H14.7c-7.8,0-14.2-6.3-14.2-14.2V14.7c0-7.8,6.3-14.2,14.2-14.2h150.2
		c7.8,0,14.2,6.3,14.2,14.2V235.8z"/>
	<g>
		<path class="st1" d="M15.4,24.3c-0.6-0.3-1.2-0.5-2-0.5c0,0,0,0-0.1,0c-0.8,0-1.4,0.2-2,0.5c-0.6,0.3-1.1,0.8-1.5,1.4
			c-0.8,1.2-1.3,2.8-1.3,4.6c0,0.1,0,0.2,0,0.3c0,0.1,0,0.2,0,0.3l0,0c0.1,1.5,0.6,2.8,1.4,3.8c0.9,1,2,1.7,3.4,1.7
			c0.8,0,1.4-0.2,2-0.5c0.6-0.3,1.1-0.8,1.5-1.3c0.9-1.1,1.4-2.8,1.4-4.6c0-1.4-0.3-2.6-0.8-3.6C16.9,25.4,16.2,24.7,15.4,24.3z"/>
		<path d="M18.5,24c-0.6-0.8-1.4-1.4-2.2-1.9c-0.9-0.4-1.9-0.7-2.9-0.7c0,0-0.1,0-0.1,0c-1.1,0-2.1,0.3-2.9,0.8
			c-0.6,0.3-1.1,0.7-1.6,1.2c0-0.2,0.1-0.5,0.1-0.7C9,22,9.1,21.5,9.2,21.1c0-0.2,0.1-0.3,0.1-0.4c0,0,0-0.1,0-0.1c0,0,0,0,0,0
			c0,0,0,0,0,0v0l0,0l0,0l0,0v0c0-0.1,0.3-0.9,0.9-1.7c0.3-0.4,0.7-0.8,1.2-1.1c0.5-0.3,1.1-0.5,1.9-0.6c0.1,0,0.2,0,0.3,0
			c1.4,0,2.3,0.5,3,1c0.3,0.2,0.5,0.5,0.7,0.7c0.1,0.1,0.1,0.2,0.1,0.2c0,0,0,0,0,0c0,0,0,0,0,0l0.5-0.4l1.3-0.9
			c-0.1-0.1-0.5-0.8-1.4-1.5c-0.9-0.7-2.3-1.5-4.2-1.4c-0.1,0-0.3,0-0.4,0c-1.2,0.1-2.1,0.4-2.9,0.9c-1.2,0.8-2,1.8-2.4,2.6
			c-0.4,0.8-0.6,1.4-0.7,1.5c-0.1,0.4-1.2,3.7-1.2,8.4c0,0.8,0,1.7,0.1,2.7c0.1,2.1,0.8,4,1.9,5.4c1.2,1.5,3,2.5,5.1,2.5
			c0,0,0,0,0,0c1.1,0,2.1-0.3,3-0.7c1.3-0.7,2.4-1.9,3.1-3.3c0.7-1.4,1.1-3.1,1.1-4.8C20.3,27.7,19.7,25.6,18.5,24z M16.8,34.6
			c-0.4,0.6-0.9,1-1.5,1.3c-0.6,0.3-1.2,0.5-2,0.5c-1.4,0-2.6-0.6-3.4-1.7c-0.7-0.9-1.2-2.2-1.4-3.8l0,0c0-0.1,0-0.2,0-0.3
			c0-0.1,0-0.2,0-0.3c0-1.8,0.5-3.5,1.3-4.6c0.4-0.6,0.9-1,1.5-1.4c0.6-0.3,1.2-0.5,2-0.5c0,0,0,0,0.1,0c0.8,0,1.4,0.2,2,0.5
			c0.9,0.4,1.5,1.2,2,2.2c0.5,1,0.8,2.2,0.8,3.6C18.2,31.8,17.6,33.4,16.8,34.6z"/>
	</g>
	<g>
		<path class="st1" d="M164.2,226.2c0.6,0.3,1.2,0.5,2,0.5c0,0,0,0,0.1,0c0.8,0,1.4-0.2,2-0.5c0.6-0.3,1.1-0.8,1.5-1.4
			c0.8-1.2,1.3-2.8,1.3-4.6c0-0.1,0-0.2,0-0.3c0-0.1,0-0.2,0-0.3l0,0c-0.1-1.5-0.6-2.8-1.4-3.8c-0.8-1.1-2-1.7-3.4-1.7
			c-0.8,0-1.4,0.2-2,0.5c-0.6,0.3-1.1,0.8-1.5,1.3c-0.8,1.1-1.4,2.8-1.4,4.6c0,1.4,0.3,2.6,0.8,3.6
			C162.7,225,163.4,225.7,164.2,226.2z"/>
		<path d="M161.1,226.5c0.6,0.8,1.4,1.4,2.2,1.9c0.9,0.4,1.9,0.7,2.9,0.7c0,0,0.1,0,0.1,0c1.1,0,2.1-0.3,2.9-0.8
			c0.6-0.3,1.1-0.7,1.6-1.2c0,0.2-0.1,0.5-0.1,0.7c-0.1,0.7-0.3,1.2-0.4,1.6c-0.1,0.2-0.1,0.3-0.1,0.4c0,0,0,0.1,0,0.1c0,0,0,0,0,0
			l0,0v0l0,0l0,0l0,0l0,0c0,0.1-0.3,0.9-0.9,1.7c-0.3,0.4-0.7,0.8-1.2,1.1c-0.5,0.3-1.1,0.5-1.9,0.6c-0.1,0-0.2,0-0.3,0
			c-1.4,0-2.3-0.5-3-1c-0.3-0.2-0.5-0.5-0.7-0.7c-0.1-0.1-0.1-0.2-0.1-0.2c0,0,0,0,0,0c0,0,0,0,0,0l-0.5,0.4l-1.3,0.9
			c0.1,0.1,0.5,0.8,1.4,1.5c0.9,0.7,2.3,1.5,4.2,1.4c0.1,0,0.3,0,0.4,0c1.2-0.1,2.1-0.4,2.9-0.9c1.2-0.8,2-1.8,2.4-2.7
			c0.4-0.8,0.6-1.4,0.7-1.5c0.1-0.4,1.2-3.7,1.2-8.4c0-0.8,0-1.7-0.1-2.7c-0.1-2.1-0.8-4-1.9-5.4c-1.2-1.5-3-2.5-5.1-2.5
			c0,0,0,0,0,0c-1.1,0-2.1,0.3-3,0.7c-1.3,0.7-2.4,1.9-3.1,3.3c-0.7,1.4-1.1,3.1-1.1,4.8C159.2,222.7,159.9,224.9,161.1,226.5z
			 M162.8,215.9c0.4-0.6,0.9-1,1.5-1.3c0.6-0.3,1.2-0.5,2-0.5c1.4,0,2.6,0.6,3.4,1.7c0.7,0.9,1.2,2.2,1.4,3.8l0,0c0,0.1,0,0.2,0,0.3
			c0,0.1,0,0.2,0,0.3c0,1.8-0.5,3.5-1.3,4.6c-0.4,0.6-0.9,1-1.5,1.4c-0.6,0.3-1.2,0.5-2,0.5c0,0,0,0-0.1,0c-0.8,0-1.4-0.2-2-0.5
			c-0.9-0.4-1.5-1.2-2-2.2c-0.5-1-0.8-2.2-0.8-3.6C161.4,218.6,161.9,217,162.8,215.9z"/>
	</g>
	<path class="st2" d="M13.2,43c0,0-0.1,0-0.1,0.1c-3,1.9-6.6,5.7-6.9,10.4c-0.2,2.2,1.3,3.8,3.1,3.8c1.2,0,2.1-0.4,2.7-1.2
		c0.4-0.7,0.5-1.7,0.6-1.2c0.2,1.8-0.5,3.6-0.9,5.1c0.5-0.2,1-0.3,1.6-0.3h0c0.6,0,1.2,0.1,1.6,0.3c-0.4-1.5-1.2-3.3-0.9-5.1
		c0.1-0.5,0.2,0.6,0.6,1.2c0.5,0.8,1.5,1.2,2.7,1.2c1.9,0,3.3-1.6,3.1-3.8c-0.4-4.7-3.9-8.5-6.9-10.4C13.4,43.1,13.3,43.1,13.2,43
		L13.2,43z"/>
	<path class="st2" d="M166.3,207.4c0,0-0.1,0-0.1-0.1c-3-1.9-6.6-5.7-6.9-10.4c-0.2-2.2,1.3-3.8,3.1-3.8c1.2,0,2.1,0.4,2.7,1.2
		c0.4,0.7,0.5,1.7,0.6,1.2c0.2-1.8-0.5-3.6-0.9-5.1c0.5,0.2,1,0.2,1.6,0.3h0c0.6,0,1.2-0.1,1.6-0.3c-0.4,1.5-1.2,3.3-0.9,5.1
		c0.1,0.5,0.2-0.6,0.6-1.2c0.5-0.8,1.5-1.2,2.7-1.2c1.9,0,3.3,1.6,3.1,3.8c-0.4,4.7-3.9,8.5-6.9,10.4
		C166.4,207.4,166.4,207.4,166.3,207.4L166.3,207.4z"/>
	<path class="st3" d="M46.5,26c-0.1,0.1-0.2,0.1-0.3,0.2C38.7,31,29.8,40.5,28.9,52.3c-0.4,5.6,3.2,9.5,7.8,9.6c3,0.1,5.3-1,6.6-3
		c1.1-1.7,1.3-4.2,1.5-3.1c0.6,4.5-1.3,8.9-2.3,12.7c1.1-0.4,2.6-0.6,4-0.6h0c1.4,0,2.9,0.2,4,0.6c-1-3.8-2.9-8.2-2.3-12.7
		c0.2-1.2,0.4,1.4,1.5,3.1c1.3,2,3.7,3.1,6.6,3c4.6-0.1,8.2-4,7.8-9.6C63.3,40.5,54.5,31,46.9,26.2C46.8,26.1,46.7,26.1,46.5,26
		L46.5,26z"/>
	<path class="st3" d="M133,26c-0.1,0.1-0.2,0.1-0.3,0.2c-7.6,4.8-16.5,14.3-17.4,26.1c-0.4,5.6,3.2,9.5,7.8,9.6c3,0.1,5.3-1,6.6-3
		c1.1-1.7,1.3-4.2,1.5-3.1c0.6,4.5-1.3,8.9-2.3,12.7c1.1-0.4,2.6-0.6,4-0.6h0c1.4,0,2.9,0.2,4,0.6c-1-3.8-2.9-8.2-2.3-12.7
		c0.2-1.2,0.4,1.4,1.5,3.1c1.3,2,3.7,3.1,6.6,3c4.6-0.1,8.2-4,7.8-9.6c-0.9-11.8-9.8-21.3-17.4-26.1C133.3,26.1,133.2,26.1,133,26
		L133,26z"/>
	<path class="st3" d="M46.5,104c-0.1,0.1-0.2,0.1-0.3,0.2c-7.6,4.8-16.5,14.3-17.4,26.1c-0.4,5.6,3.2,9.5,7.8,9.6c3,0.1,5.3-1,6.6-3
		c1.1-1.7,1.3-4.2,1.5-3.1c0.6,4.5-1.3,8.9-2.3,12.7c1.1-0.4,2.6-0.6,4-0.6h0c1.4,0,2.9,0.2,4,0.6c-1-3.8-2.9-8.2-2.3-12.7
		c0.2-1.2,0.4,1.4,1.5,3.1c1.3,2,3.7,3.1,6.6,3c4.6-0.1,8.2-4,7.8-9.6c-0.9-11.8-9.8-21.3-17.4-26.1C46.8,104.1,46.7,104,46.5,104
		L46.5,104z"/>
	<path class="st3" d="M133,104c-0.1,0.1-0.2,0.1-0.3,0.2c-7.6,4.8-16.5,14.3-17.4,26.1c-0.4,5.6,3.2,9.5,7.8,9.6c3,0.1,5.3-1,6.6-3
		c1.1-1.7,1.3-4.2,1.5-3.1c0.6,4.5-1.3,8.9-2.3,12.7c1.1-0.4,2.6-0.6,4-0.6h0c1.4,0,2.9,0.2,4,0.6c-1-3.8-2.9-8.2-2.3-12.7
		c0.2-1.2,0.4,1.4,1.5,3.1c1.3,2,3.7,3.1,6.6,3c4.6-0.1,8.2-4,7.8-9.6c-0.9-11.8-9.8-21.3-17.4-26.1C133.3,104.1,133.2,104,133,104
		L133,104z"/>
	<path class="st3" d="M46.5,224.4c-0.1-0.1-0.2-0.1-0.3-0.2c-7.6-4.8-16.5-14.3-17.4-26.1c-0.4-5.6,3.2-9.5,7.8-9.6
		c3-0.1,5.3,1,6.6,3c1.1,1.7,1.3,4.2,1.5,3.1c0.6-4.5-1.3-8.9-2.3-12.7c1.1,0.4,2.6,0.6,4,0.6h0c1.4,0,2.9-0.2,4-0.6
		c-1,3.8-2.9,8.2-2.3,12.7c0.2,1.2,0.4-1.4,1.5-3.1c1.3-2,3.7-3.1,6.6-3c4.6,0.1,8.2,4,7.8,9.6c-0.9,11.8-9.8,21.3-17.4,26.1
		C46.8,224.3,46.7,224.4,46.5,224.4L46.5,224.4z"/>
	<path class="st3" d="M133,224.4c-0.1-0.1-0.2-0.1-0.3-0.2c-7.6-4.8-16.5-14.3-17.4-26.1c-0.4-5.6,3.2-9.5,7.8-9.6
		c3-0.1,5.3,1,6.6,3c1.1,1.7,1.3,4.2,1.5,3.1c0.6-4.5-1.3-8.9-2.3-12.7c1.1,0.4,2.6,0.6,4,0.6h0c1.4,0,2.9-0.2,4-0.6
		c-1,3.8-2.9,8.2-2.3,12.7c0.2,1.2,0.4-1.4,1.5-3.1c1.3-2,3.7-3.1,6.6-3c4.6,0.1,8.2,4,7.8,9.6c-0.9,11.8-9.8,21.3-17.4,26.1
		C133.3,224.3,133.2,224.4,133,224.4L133,224.4z"/>
</g>
</svg>
