<?xml version="1.0" encoding="utf-8"?>
<!-- Generator: Adobe Illustrator 23.0.4, SVG Export Plug-In . SVG Version: 6.00 Build 0)  -->
<svg version="1.1" id="Layer_1" xmlns="http://www.w3.org/2000/svg" xmlns:xlink="http://www.w3.org/1999/xlink" x="0px" y="0px"
	 viewBox="0 0 179.6 250.4" style="enable-background:new 0 0 179.6 250.4;" xml:space="preserve">
<style type="text/css">
	.st0{fill:#F4F4F2;stroke:#000000;}
	.st1{fill:#E44145;}
</style>
<g>
	<path class="st0" d="M179.1,235.8c0,7.8-6.3,14.2-14.2,14.2H14.7c-7.8,0-14.2-6.3-14.2-14.2V14.7c0-7.8,6.3-14.2,14.2-14.2h150.2
		c7.8,0,14.2,6.3,14.2,14.2V235.8z"/>
	<path class="st1" d="M13.3,43c1.8,3.5,4.1,6.3,7.1,8.5c-2.9,2.2-5.3,5-7.1,8.5c-1.8-3.5-4.2-6.3-7.1-8.5
		C9.1,49.3,11.5,46.5,13.3,43L13.3,43z"/>
	<path class="st1" d="M166.3,190.4c1.8,3.5,4.1,6.3,7.1,8.5c-2.9,2.2-5.3,5-7.1,8.5c-1.8-3.5-4.2-6.3-7.1-8.5
		C162.2,196.7,164.5,193.9,166.3,190.4L166.3,190.4z"/>
	<path class="st1" d="M46.6,26c4.5,8.7,10.4,15.8,17.7,21.3C57,52.8,51.1,59.9,46.6,68.5c-4.5-8.6-10.4-15.7-17.7-21.2
		C36.2,41.8,42.1,34.7,46.6,26L46.6,26z"/>
	<path class="st1" d="M46.6,104c4.5,8.7,10.4,15.8,17.7,21.3c-7.3,5.5-13.2,12.6-17.7,21.2c-4.5-8.6-10.4-15.7-17.7-21.2
		C36.2,119.7,42.1,112.6,46.6,104L46.6,104z"/>
	<path class="st1" d="M46.6,181.9c4.5,8.7,10.4,15.8,17.7,21.3c-7.3,5.5-13.2,12.6-17.7,21.2c-4.5-8.6-10.4-15.7-17.7-21.2
		C36.2,197.7,42.1,190.6,46.6,181.9L46.6,181.9z"/>
	<path class="st1" d="M133,26c4.5,8.7,10.4,15.8,17.7,21.3c-7.3,5.5-13.2,12.6-17.7,21.2c-4.5-8.6-10.4-15.7-17.7-21.2
		C122.6,41.8,128.5,34.7,133,26L133,26z"/>
	<path class="st1" d="M133,104c4.5,8.7,10.4,15.8,17.7,21.3c-7.3,5.5-13.2,12.6-17.7,21.2c-4.5-8.6-10.4-15.7-17.7-21.2
		C122.6,119.7,128.5,112.6,133,104L133,104z"/>
	<path class="st1" d="M133,181.9c4.5,8.7,10.4,15.8,17.7,21.3c-7.3,5.5-13.2,12.6-17.7,21.2c-4.5-8.6-10.4-15.7-17.7-21.2
		C122.6,197.7,128.5,190.6,133,181.9L133,181.9z"/>
	<path class="st1" d="M18.5,24c-0.6-0.8-1.4-1.4-2.2-1.9c-0.9-0.4-1.9-0.7-2.9-0.7c0,0-0.1,0-0.1,0c-1.1,0-2.1,0.3-2.9,0.8
		c-0.6,0.3-1.1,0.7-1.6,1.2c0-0.2,0.1-0.5,0.1-0.7C9,22,9.1,21.5,9.2,21.1c0-0.2,0.1-0.3,0.1-0.4c0,0,0-0.1,0-0.1c0,0,0,0,0,0
		c0,0,0,0,0,0v0l0,0l0,0l0,0v0c0-0.1,0.3-0.9,0.9-1.7c0.3-0.4,0.7-0.8,1.2-1.1c0.5-0.3,1.1-0.5,1.9-0.6c0.1,0,0.2,0,0.3,0
		c1.4,0,2.3,0.5,3,1c0.3,0.2,0.5,0.5,0.7,0.7c0.1,0.1,0.1,0.2,0.1,0.2c0,0,0,0,0,0c0,0,0,0,0,0l0.5-0.4l1.3-0.9
		c-0.1-0.1-0.5-0.8-1.4-1.6c-0.9-0.7-2.3-1.5-4.2-1.4c-0.1,0-0.3,0-0.4,0c-1.2,0.1-2.1,0.4-2.9,0.9c-1.2,0.8-2,1.8-2.4,2.6
		c-0.4,0.8-0.6,1.4-0.7,1.5c-0.1,0.4-1.2,3.7-1.2,8.4c0,0.9,0,1.7,0.1,2.7c0.1,2.1,0.8,4,1.9,5.4c1.2,1.5,3,2.5,5.1,2.5c0,0,0,0,0,0
		c1.1,0,2.1-0.3,3-0.7c1.3-0.7,2.4-1.9,3.1-3.3c0.7-1.4,1.1-3.1,1.1-4.8C20.3,27.7,19.7,25.6,18.5,24z M16.8,34.6
		c-0.4,0.6-0.9,1-1.5,1.3c-0.6,0.3-1.2,0.5-2,0.5c-1.4,0-2.6-0.6-3.4-1.7c-0.7-0.9-1.2-2.2-1.4-3.8l0,0c0-0.1,0-0.2,0-0.3
		c0-0.1,0-0.2,0-0.3c0-1.8,0.5-3.5,1.3-4.6c0.4-0.6,0.9-1,1.5-1.4c0.6-0.3,1.2-0.5,2-0.5c0,0,0,0,0.1,0c0.8,0,1.4,0.2,2,0.5
		c0.9,0.4,1.5,1.2,2,2.2c0.5,1,0.8,2.2,0.8,3.6C18.2,31.8,17.6,33.4,16.8,34.6z"/>
	<path class="st1" d="M161.1,226.5c0.6,0.8,1.4,1.4,2.2,1.9c0.9,0.4,1.9,0.7,2.9,0.7c0,0,0.1,0,0.1,0c1.1,0,2.1-0.3,2.9-0.8
		c0.6-0.3,1.1-0.7,1.6-1.2c0,0.2-0.1,0.5-0.1,0.7c-0.1,0.7-0.3,1.2-0.4,1.6c0,0.2-0.1,0.3-0.1,0.4c0,0,0,0.1,0,0.1c0,0,0,0,0,0
		c0,0,0,0,0,0v0l0,0l0,0l0,0l0,0c0,0.1-0.3,0.9-0.9,1.7c-0.3,0.4-0.7,0.8-1.2,1.1c-0.5,0.3-1.1,0.5-1.9,0.6c-0.1,0-0.2,0-0.3,0
		c-1.4,0-2.3-0.5-3-1c-0.3-0.2-0.5-0.5-0.7-0.7c-0.1-0.1-0.1-0.2-0.1-0.2c0,0,0,0,0,0c0,0,0,0,0,0l-0.5,0.4l-1.3,0.9
		c0.1,0.1,0.5,0.8,1.4,1.5c0.9,0.7,2.3,1.5,4.2,1.4c0.1,0,0.3,0,0.4,0c1.2-0.1,2.1-0.4,2.9-0.9c1.2-0.8,2-1.8,2.4-2.6
		c0.4-0.8,0.6-1.4,0.7-1.5c0.1-0.4,1.2-3.7,1.2-8.4c0-0.8,0-1.7-0.1-2.7c-0.1-2.1-0.8-4-1.9-5.4c-1.2-1.5-3-2.5-5.1-2.5c0,0,0,0,0,0
		c-1.1,0-2.1,0.3-3,0.7c-1.3,0.7-2.4,1.9-3.1,3.3c-0.7,1.4-1.1,3.1-1.1,4.8C159.2,222.7,159.9,224.9,161.1,226.5z M162.8,215.9
		c0.4-0.6,0.9-1,1.5-1.3c0.6-0.3,1.2-0.5,2-0.5c1.4,0,2.6,0.6,3.4,1.7c0.7,0.9,1.2,2.2,1.4,3.8l0,0c0,0.1,0,0.2,0,0.3
		c0,0.1,0,0.2,0,0.3c0,1.8-0.5,3.5-1.3,4.6c-0.4,0.6-0.9,1-1.5,1.4c-0.6,0.3-1.2,0.5-2,0.5c0,0,0,0-0.1,0c-0.8,0-1.4-0.2-2-0.5
		c-0.9-0.4-1.5-1.2-2-2.2c-0.5-1-0.8-2.2-0.8-3.6C161.4,218.6,161.9,217,162.8,215.9z"/>
</g>
</svg>
