<?xml version="1.0" encoding="utf-8"?>
<!-- Generator: Adobe Illustrator 23.0.4, SVG Export Plug-In . SVG Version: 6.00 Build 0)  -->
<svg version="1.1" id="Layer_1" xmlns="http://www.w3.org/2000/svg" xmlns:xlink="http://www.w3.org/1999/xlink" x="0px" y="0px"
	 viewBox="0 0 179.6 250.4" style="enable-background:new 0 0 179.6 250.4;" xml:space="preserve">
<style type="text/css">
	.st0{fill:#F4F4F2;stroke:#000000;}
</style>
<g>
	<path class="st0" d="M179.1,235.8c0,7.8-6.3,14.2-14.2,14.2H14.7c-7.8,0-14.2-6.3-14.2-14.2V14.7c0-7.8,6.3-14.2,14.2-14.2h150.2
		c7.8,0,14.2,6.3,14.2,14.2V235.8z"/>
	<path d="M13.3,43c-1.9,0-3.4,1.7-3.4,3.8c0,1.2,0.5,2.3,1.3,3c0.3,0.2,0.1,0.5-0.1,0.3c-0.5-0.3-1-0.5-1.6-0.5
		c-1.8,0-3.3,1.6-3.3,3.7c0,2,1.5,3.7,3.3,3.7c1.2,0,2.2-0.7,2.8-1.8c0.1-0.1,0.1-0.3,0.2-0.3c0.1,0,0.2,0.2,0.2,0.5
		c0,1.3-0.5,2.9-1.3,4.6c0.3-0.1,1.3-0.3,1.9-0.3c0.6,0,1.6,0.2,1.9,0.3c-0.7-1.8-1.3-3.3-1.3-4.6c0-0.3,0-0.5,0.2-0.5
		c0.1,0,0.1,0.1,0.2,0.3c0.6,1.1,1.6,1.8,2.8,1.8c1.8,0,3.3-1.6,3.3-3.7c0-2-1.5-3.7-3.3-3.7c-0.6,0-1.1,0.2-1.6,0.5
		c-0.3,0.2-0.4-0.1-0.1-0.3c0.8-0.7,1.3-1.8,1.3-3C16.6,44.7,15.1,43,13.3,43z"/>
	<path d="M166.3,207.4c1.9,0,3.4-1.7,3.4-3.8c0-1.2-0.5-2.3-1.3-3c-0.3-0.2-0.1-0.5,0.1-0.3c0.5,0.3,1,0.5,1.6,0.5
		c1.8,0,3.3-1.6,3.3-3.7c0-2-1.5-3.7-3.3-3.7c-1.2,0-2.2,0.7-2.8,1.8c-0.1,0.1-0.1,0.3-0.2,0.3c-0.1,0-0.2-0.2-0.2-0.5
		c0-1.3,0.5-2.9,1.2-4.6c-0.3,0.1-1.3,0.3-1.9,0.3c-0.6,0-1.6-0.2-1.9-0.3c0.7,1.8,1.3,3.3,1.3,4.6c0,0.3-0.1,0.5-0.2,0.5
		c-0.1,0-0.1-0.1-0.2-0.3c-0.6-1.1-1.6-1.8-2.8-1.8c-1.8,0-3.3,1.6-3.3,3.7c0,2,1.5,3.7,3.3,3.7c0.6,0,1.1-0.2,1.6-0.5
		c0.3-0.2,0.4,0.1,0.1,0.3c-0.8,0.7-1.3,1.8-1.3,3C163,205.7,164.5,207.4,166.3,207.4z"/>
	<path d="M46.6,26c-4.7,0-8.4,4.3-8.4,9.5c0,3,1.3,5.7,3.2,7.4c0.6,0.6,0.4,1.2-0.3,0.8c-1.2-0.7-2.6-1.2-4-1.2
		c-4.5,0-8.1,4.1-8.1,9.2c0,5.1,3.6,9.2,8.1,9.2c3,0,5.6-1.8,7-4.5c0.1-0.3,0.2-0.6,0.4-0.6c0.3,0,0.4,0.4,0.4,1.3
		c0,3.3-1.3,7.1-3.1,11.5c0.8-0.2,3.2-0.7,4.8-0.7c1.6,0,4,0.5,4.8,0.7c-1.9-4.4-3.1-8.3-3.1-11.5c0-0.8,0.1-1.3,0.4-1.3
		c0.2,0,0.3,0.4,0.4,0.6c1.4,2.7,4,4.5,7,4.5c4.5,0,8.1-4.1,8.1-9.2c0-5.1-3.6-9.2-8.1-9.2c-1.5,0-2.8,0.5-4,1.2
		c-0.7,0.4-0.9-0.2-0.3-0.8c1.9-1.8,3.2-4.4,3.2-7.4C55,30.3,51.2,26,46.6,26z"/>
	<path d="M46.6,104c-4.7,0-8.4,4.3-8.4,9.5c0,3,1.3,5.7,3.2,7.4c0.6,0.6,0.4,1.2-0.3,0.8c-1.2-0.7-2.6-1.2-4-1.2
		c-4.5,0-8.1,4.1-8.1,9.2c0,5.1,3.6,9.2,8.1,9.2c3,0,5.6-1.8,7-4.5c0.1-0.3,0.2-0.6,0.4-0.6c0.3,0,0.4,0.4,0.4,1.3
		c0,3.3-1.3,7.1-3.1,11.5c0.8-0.2,3.2-0.7,4.8-0.7c1.6,0,4,0.5,4.8,0.7c-1.9-4.4-3.1-8.3-3.1-11.5c0-0.8,0.1-1.3,0.4-1.3
		c0.2,0,0.3,0.4,0.4,0.6c1.4,2.7,4,4.5,7,4.5c4.5,0,8.1-4.1,8.1-9.2c0-5.1-3.6-9.2-8.1-9.2c-1.5,0-2.8,0.5-4,1.2
		c-0.7,0.4-0.9-0.2-0.3-0.8c1.9-1.8,3.2-4.4,3.2-7.4C55,108.2,51.2,104,46.6,104z"/>
	<path d="M46.6,224.4c4.7,0,8.4-4.3,8.4-9.5c0-3-1.3-5.7-3.2-7.4c-0.6-0.6-0.4-1.2,0.3-0.8c1.2,0.7,2.6,1.2,4,1.2
		c4.5,0,8.1-4.1,8.1-9.2c0-5.1-3.6-9.2-8.1-9.2c-3,0-5.6,1.8-7,4.5c-0.1,0.3-0.2,0.6-0.4,0.6c-0.3,0-0.4-0.4-0.4-1.3
		c0-3.3,1.3-7.1,3.1-11.5c-0.8,0.2-3.2,0.7-4.8,0.7c-1.6,0-4-0.5-4.8-0.7c1.9,4.4,3.1,8.3,3.1,11.5c0,0.8-0.1,1.3-0.4,1.3
		c-0.2,0-0.3-0.4-0.4-0.6c-1.4-2.7-4-4.5-7-4.5c-4.5,0-8.1,4.1-8.1,9.2c0,5.1,3.6,9.2,8.1,9.2c1.5,0,2.8-0.5,4-1.2
		c0.7-0.4,0.9,0.2,0.3,0.8c-1.9,1.8-3.2,4.4-3.2,7.4C38.1,220.2,41.9,224.4,46.6,224.4z"/>
	<path d="M133,26c-4.7,0-8.4,4.3-8.4,9.5c0,3,1.3,5.7,3.2,7.4c0.6,0.6,0.4,1.2-0.3,0.8c-1.2-0.7-2.6-1.2-4-1.2
		c-4.5,0-8.1,4.1-8.1,9.2c0,5.1,3.6,9.2,8.1,9.2c3,0,5.6-1.8,7-4.5c0.1-0.3,0.2-0.6,0.4-0.6c0.3,0,0.4,0.4,0.4,1.3
		c0,3.3-1.3,7.1-3.1,11.5c0.8-0.2,3.2-0.7,4.8-0.7c1.6,0,4,0.5,4.8,0.7c-1.9-4.4-3.1-8.3-3.1-11.5c0-0.8,0.1-1.3,0.4-1.3
		c0.2,0,0.3,0.4,0.4,0.6c1.4,2.7,4,4.5,7,4.5c4.5,0,8.1-4.1,8.1-9.2c0-5.1-3.6-9.2-8.1-9.2c-1.5,0-2.8,0.5-4,1.2
		c-0.7,0.4-0.9-0.2-0.3-0.8c1.9-1.8,3.2-4.4,3.2-7.4C141.5,30.3,137.7,26,133,26z"/>
	<path d="M133,104c-4.7,0-8.4,4.3-8.4,9.5c0,3,1.3,5.7,3.2,7.4c0.6,0.6,0.4,1.2-0.3,0.8c-1.2-0.7-2.6-1.2-4-1.2
		c-4.5,0-8.1,4.1-8.1,9.2c0,5.1,3.6,9.2,8.1,9.2c3,0,5.6-1.8,7-4.5c0.1-0.3,0.2-0.6,0.4-0.6c0.3,0,0.4,0.4,0.4,1.3
		c0,3.3-1.3,7.1-3.1,11.5c0.8-0.2,3.2-0.7,4.8-0.7c1.6,0,4,0.5,4.8,0.7c-1.9-4.4-3.1-8.3-3.1-11.5c0-0.8,0.1-1.3,0.4-1.3
		c0.2,0,0.3,0.4,0.4,0.6c1.4,2.7,4,4.5,7,4.5c4.5,0,8.1-4.1,8.1-9.2c0-5.1-3.6-9.2-8.1-9.2c-1.5,0-2.8,0.5-4,1.2
		c-0.7,0.4-0.9-0.2-0.3-0.8c1.9-1.8,3.2-4.4,3.2-7.4C141.5,108.2,137.7,104,133,104z"/>
	<path d="M133,224.4c4.7,0,8.4-4.3,8.4-9.5c0-3-1.3-5.7-3.2-7.4c-0.6-0.6-0.4-1.2,0.3-0.8c1.2,0.7,2.6,1.2,4,1.2
		c4.5,0,8.1-4.1,8.1-9.2c0-5.1-3.6-9.2-8.1-9.2c-3,0-5.6,1.8-7,4.5c-0.1,0.3-0.2,0.6-0.4,0.6c-0.3,0-0.4-0.4-0.4-1.3
		c0-3.3,1.3-7.1,3.1-11.5c-0.8,0.2-3.2,0.7-4.8,0.7c-1.6,0-4-0.5-4.8-0.7c1.9,4.4,3.1,8.3,3.1,11.5c0,0.8-0.1,1.3-0.4,1.3
		c-0.2,0-0.3-0.4-0.4-0.6c-1.4-2.7-4-4.5-7-4.5c-4.5,0-8.1,4.1-8.1,9.2c0,5.1,3.6,9.2,8.1,9.2c1.5,0,2.8-0.5,4-1.2
		c0.7-0.4,0.9,0.2,0.3,0.8c-1.9,1.8-3.2,4.4-3.2,7.4C124.6,220.2,128.4,224.4,133,224.4z"/>
	<path d="M89.8,57.2c-4.7,0-8.4,4.3-8.4,9.5c0,3,1.3,5.7,3.2,7.4c0.6,0.6,0.4,1.2-0.3,0.8c-1.2-0.7-2.6-1.2-4-1.2
		c-4.5,0-8.1,4.1-8.1,9.2c0,5.1,3.6,9.2,8.1,9.2c3,0,5.6-1.8,7-4.5c0.1-0.3,0.2-0.6,0.4-0.6c0.3,0,0.4,0.4,0.4,1.3
		c0,3.3-1.3,7.1-3.1,11.5c0.8-0.2,3.2-0.7,4.8-0.7c1.6,0,4,0.5,4.8,0.7c-1.9-4.4-3.1-8.3-3.1-11.5c0-0.8,0.1-1.3,0.4-1.3
		c0.2,0,0.3,0.4,0.4,0.6c1.4,2.7,4,4.5,7,4.5c4.5,0,8.1-4.1,8.1-9.2c0-5.1-3.6-9.2-8.1-9.2c-1.5,0-2.8,0.5-4,1.2
		c-0.7,0.4-0.9-0.2-0.3-0.8c1.9-1.8,3.2-4.4,3.2-7.4C98.2,61.5,94.5,57.2,89.8,57.2z"/>
	<path d="M6.2,14.7v1.4h0v2.5l2.2,0l0-1.5h9.3c-1.4,2.7-5.4,10.6-6.8,21.7l2.2,0c0.8-6.5,2.3-11.6,3.9-15.4c0.8-1.9,1.6-3.4,2.1-4.4
		c0.3-0.5,0.5-0.9,0.7-1.1c0.2-0.3,0.4-0.7,0.5-0.8v-2.4H6.2z"/>
	<path d="M173.4,235.8v-1.4h0v-2.5l-2.2,0l0,1.5h-9.3c1.4-2.7,5.4-10.6,6.8-21.7l-2.2,0c-0.8,6.5-2.3,11.6-3.9,15.4
		c-0.8,1.9-1.6,3.4-2.1,4.4c-0.3,0.5-0.5,0.9-0.7,1.1c-0.2,0.3-0.4,0.7-0.5,0.8v2.4H173.4z"/>
</g>
</svg>
