<?xml version="1.0" encoding="utf-8"?>
<!-- Generator: Adobe Illustrator 23.0.4, SVG Export Plug-In . SVG Version: 6.00 Build 0)  -->
<svg version="1.1" id="Layer_1" xmlns="http://www.w3.org/2000/svg" xmlns:xlink="http://www.w3.org/1999/xlink" x="0px" y="0px"
	 viewBox="0 0 179.6 250.4" style="enable-background:new 0 0 179.6 250.4;" xml:space="preserve">
<style type="text/css">
	.st0{fill:#F4F4F2;stroke:#000000;}
	.st1{fill:#E44145;}
</style>
<g>
	<g>
		<path class="st0" d="M179.1,235.8c0,7.8-6.3,14.2-14.2,14.2H14.7c-7.8,0-14.2-6.3-14.2-14.2V14.7c0-7.8,6.3-14.2,14.2-14.2h150.2
			c7.8,0,14.2,6.3,14.2,14.2V235.8z"/>
	</g>
	<path class="st1" d="M13.3,43c1.8,3.5,4.1,6.3,7.1,8.5c-2.9,2.2-5.3,5-7.1,8.5c-1.8-3.5-4.2-6.3-7.1-8.5
		C9.1,49.3,11.5,46.5,13.3,43L13.3,43z"/>
	<path class="st1" d="M166.3,190.4c1.8,3.5,4.1,6.3,7.1,8.5c-2.9,2.2-5.3,5-7.1,8.5c-1.8-3.5-4.2-6.3-7.1-8.5
		C162.2,196.7,164.5,193.9,166.3,190.4L166.3,190.4z"/>
	<path class="st1" d="M46.6,26c4.5,8.7,10.4,15.8,17.7,21.3C57,52.8,51.1,59.9,46.6,68.5c-4.5-8.6-10.4-15.7-17.7-21.2
		C36.2,41.8,42.1,34.7,46.6,26L46.6,26z"/>
	<path class="st1" d="M46.6,104c4.5,8.7,10.4,15.8,17.7,21.3c-7.3,5.5-13.2,12.6-17.7,21.2c-4.5-8.6-10.4-15.7-17.7-21.2
		C36.2,119.7,42.1,112.6,46.6,104L46.6,104z"/>
	<path class="st1" d="M46.6,181.9c4.5,8.7,10.4,15.8,17.7,21.3c-7.3,5.5-13.2,12.6-17.7,21.2c-4.5-8.6-10.4-15.7-17.7-21.2
		C36.2,197.7,42.1,190.6,46.6,181.9L46.6,181.9z"/>
	<path class="st1" d="M133,26c4.5,8.7,10.4,15.8,17.7,21.3c-7.3,5.5-13.2,12.6-17.7,21.2c-4.5-8.6-10.4-15.7-17.7-21.2
		C122.6,41.8,128.5,34.7,133,26L133,26z"/>
	<path class="st1" d="M133,104c4.5,8.7,10.4,15.8,17.7,21.3c-7.3,5.5-13.2,12.6-17.7,21.2c-4.5-8.6-10.4-15.7-17.7-21.2
		C122.6,119.7,128.5,112.6,133,104L133,104z"/>
	<path class="st1" d="M133,181.9c4.5,8.7,10.4,15.8,17.7,21.3c-7.3,5.5-13.2,12.6-17.7,21.2c-4.5-8.6-10.4-15.7-17.7-21.2
		C122.6,197.7,128.5,190.6,133,181.9L133,181.9z"/>
	<path class="st1" d="M89.8,57.2c4.5,8.7,10.4,15.8,17.7,21.3c-7.3,5.5-13.2,12.6-17.7,21.2C85.3,91.1,79.4,84,72.1,78.5
		C79.4,73,85.3,65.9,89.8,57.2L89.8,57.2z"/>
	<path class="st1" d="M6.2,14.7v1.4h0v2.5l2.2,0l0-1.5h9.3c-1.4,2.7-5.4,10.6-6.8,21.7l2.2,0c0.8-6.5,2.3-11.6,3.9-15.4
		c0.8-1.9,1.6-3.4,2.1-4.4c0.3-0.5,0.5-0.9,0.7-1.1c0.2-0.3,0.4-0.7,0.5-0.8v-2.4H6.2z"/>
	<path class="st1" d="M173.4,235.8v-1.4h0v-2.5l-2.2,0l0,1.5h-9.3c1.4-2.7,5.4-10.6,6.8-21.7l-2.2,0c-0.8,6.5-2.3,11.6-3.9,15.4
		c-0.8,1.9-1.6,3.4-2.1,4.4c-0.3,0.5-0.5,0.9-0.7,1.1c-0.2,0.3-0.4,0.7-0.5,0.8v2.4H173.4z"/>
</g>
</svg>
