<?xml version="1.0" encoding="utf-8"?>
<!-- Generator: Adobe Illustrator 23.0.4, SVG Export Plug-In . SVG Version: 6.00 Build 0)  -->
<svg version="1.1" id="Layer_1" xmlns="http://www.w3.org/2000/svg" xmlns:xlink="http://www.w3.org/1999/xlink" x="0px" y="0px"
	 viewBox="0 0 179.6 250.4" style="enable-background:new 0 0 179.6 250.4;" xml:space="preserve">
<style type="text/css">
	.st0{fill:#F4F4F2;stroke:#000000;}
	.st1{fill:#E44145;}
</style>
<path class="st0" d="M179.1,235.8c0,7.8-6.3,14.2-14.2,14.2H14.7c-7.8,0-14.2-6.3-14.2-14.2V14.7c0-7.8,6.3-14.2,14.2-14.2h150.2
	c7.8,0,14.2,6.3,14.2,14.2V235.8z"/>
<g>
	<path class="st1" d="M166.3,190.4c-2.8,4.5-7.1,6.8-7.1,11.5c-0.2,2.7,1.3,4.8,3.1,5.3c1.2,0.4,3.2-0.3,3.9-3.1
		c0.1-0.2,0.1-0.2,0.2,0c1,2.9,2.7,3.5,3.9,3.1c1.8-0.6,3.2-2.7,3.1-5.4C173.4,197.3,169.2,194.9,166.3,190.4z"/>
	<path class="st1" d="M166.3,190.4C166.3,190.4,166.3,190.4,166.3,190.4C166.4,190.4,166.4,190.4,166.3,190.4L166.3,190.4z"/>
</g>
<g>
	<path class="st1" d="M13.3,60C13.2,60,13.2,60,13.3,60C13.2,60,13.2,60,13.3,60L13.3,60z"/>
	<path class="st1" d="M17.2,43.1c-1.2-0.4-3.2,0.3-3.9,3.1c-0.1,0.2-0.1,0.2-0.2,0c-1-2.9-2.7-3.5-3.9-3.1c-1.8,0.6-3.2,2.7-3.1,5.4
		c0,4.7,4.2,7,7.1,11.5c2.8-4.5,7.1-6.8,7.1-11.5C20.6,45.8,19,43.7,17.2,43.1z"/>
</g>
<g>
	<path class="st1" d="M150.7,210.8c-0.1-11.7-10.6-17.6-17.6-28.8c-7.1,11.2-17.7,17.1-17.7,28.8c-0.6,6.8,3.2,12,7.7,13.4
		c3.1,1,8-0.7,9.7-7.8c0.1-0.4,0.3-0.4,0.4,0c2.6,7.2,6.8,8.7,9.8,7.8C147.5,222.8,151,217.5,150.7,210.8z"/>
	<path class="st1" d="M133,181.9C133,181.9,133.1,182,133,181.9C133.1,182,133.1,181.9,133,181.9L133,181.9z"/>
</g>
<g>
	<path class="st1" d="M133,65.7C133,65.7,133,65.6,133,65.7C132.9,65.6,132.9,65.7,133,65.7L133,65.7z"/>
	<path class="st1" d="M143,23.4c-3.1-1-8,0.7-9.7,7.8c-0.1,0.4-0.3,0.4-0.4,0c-2.6-7.2-6.8-8.7-9.8-7.8c-4.4,1.4-8,6.7-7.7,13.4
		c0.1,11.7,10.6,17.6,17.6,28.8c7.1-11.2,17.7-17.1,17.7-28.8C151.3,30,147.5,24.8,143,23.4z"/>
</g>
<g>
	<path class="st1" d="M143,104.2c-3.1-1-8,0.7-9.7,7.8c-0.1,0.4-0.3,0.4-0.4,0c-2.6-7.2-6.8-8.7-9.8-7.8c-4.4,1.4-8,6.7-7.7,13.4
		c0.1,11.7,10.6,17.6,17.6,28.8c7.1-11.2,17.7-17.1,17.7-28.8C151.3,110.8,147.5,105.6,143,104.2z"/>
	<path class="st1" d="M133,146.5C133,146.5,133,146.4,133,146.5C132.9,146.4,132.9,146.5,133,146.5L133,146.5z"/>
</g>
<g>
	<path class="st1" d="M61.4,208c-0.1-11.7-10.6-17.6-17.6-28.8c-7.1,11.2-17.7,17.1-17.7,28.8c-0.6,6.8,3.2,12,7.7,13.4
		c3.1,1,8-0.7,9.7-7.8c0.1-0.4,0.3-0.4,0.4,0c2.6,7.2,6.8,8.7,9.8,7.8C58.2,219.9,61.8,214.7,61.4,208z"/>
	<path class="st1" d="M43.7,179.1C43.7,179.1,43.8,179.1,43.7,179.1C43.8,179.1,43.8,179.1,43.7,179.1L43.7,179.1z"/>
</g>
<g>
	<path class="st1" d="M53.7,23.4c-3.1-1-8,0.7-9.7,7.8c-0.2,0.4-0.3,0.4-0.4,0c-2.6-7.2-6.8-8.7-9.8-7.8c-4.4,1.4-8,6.7-7.7,13.4
		c0.1,11.7,10.6,17.6,17.6,28.8c7.1-11.2,17.7-17.1,17.7-28.8C62,30,58.2,24.8,53.7,23.4z"/>
	<path class="st1" d="M43.7,65.7C43.7,65.7,43.7,65.6,43.7,65.7C43.7,65.6,43.6,65.7,43.7,65.7L43.7,65.7z"/>
</g>
<g>
	<path class="st1" d="M53.7,104.2c-3.1-1-8,0.7-9.7,7.8c-0.2,0.4-0.3,0.4-0.4,0c-2.6-7.2-6.8-8.7-9.8-7.8c-4.4,1.4-8,6.7-7.7,13.4
		c0.1,11.7,10.6,17.6,17.6,28.8c7.1-11.2,17.7-17.1,17.7-28.8C62,110.8,58.2,105.6,53.7,104.2z"/>
	<path class="st1" d="M43.7,146.5C43.7,146.5,43.7,146.4,43.7,146.5C43.7,146.4,43.6,146.5,43.7,146.5L43.7,146.5z"/>
</g>
<g>
	<path class="st1" d="M107.5,169.7c-0.1-11.7-10.6-17.6-17.6-28.8c-7.1,11.2-17.7,17.1-17.7,28.8c-0.6,6.8,3.2,12,7.7,13.4
		c3.1,1,8-0.7,9.7-7.8c0.1-0.4,0.3-0.4,0.4,0c2.6,7.2,6.8,8.7,9.8,7.8C104.2,181.7,107.8,176.4,107.5,169.7z"/>
	<path class="st1" d="M89.8,140.8C89.8,140.8,89.8,140.9,89.8,140.8C89.9,140.9,89.9,140.8,89.8,140.8L89.8,140.8z"/>
</g>
<g>
	<path class="st1" d="M99.7,64.5c-3.1-1-8,0.7-9.7,7.8c-0.2,0.4-0.3,0.4-0.4,0c-2.6-7.2-6.8-8.7-9.8-7.8c-4.4,1.4-8,6.7-7.7,13.4
		c0.1,11.7,10.6,17.6,17.6,28.8c7.1-11.2,17.7-17.1,17.7-28.8C108.1,71.1,104.3,65.9,99.7,64.5z"/>
	<path class="st1" d="M89.8,106.8C89.8,106.8,89.8,106.8,89.8,106.8C89.7,106.8,89.7,106.8,89.8,106.8L89.8,106.8z"/>
</g>
<path class="st1" d="M18.2,26.6c-0.4-0.4-0.8-0.7-1.2-1c0.2-0.1,0.4-0.3,0.5-0.5c1.1-1.1,1.8-2.7,1.8-4.4c0-1.7-0.7-3.3-1.8-4.4
	c-1.1-1.1-2.6-1.8-4.3-1.8c-1.7,0-3.2,0.7-4.3,1.8c-1.1,1.1-1.8,2.7-1.8,4.4c0,1.7,0.7,3.3,1.8,4.4c0.2,0.2,0.4,0.3,0.5,0.5
	c-0.4,0.3-0.8,0.6-1.2,1c-1.3,1.3-2.1,3.1-2.1,5.1c0,2,0.8,3.8,2.1,5.1c1.3,1.3,3,2,5,2c1.9,0,3.7-0.8,5-2c1.3-1.3,2.1-3.1,2.1-5.1
	C20.3,29.7,19.5,27.9,18.2,26.6z M10.4,18.2c0.7-0.7,1.7-1.1,2.8-1.1h0c1.1,0,2.1,0.4,2.8,1.1c0.7,0.7,1.1,1.6,1.1,2.6
	c0,1-0.4,1.9-1.1,2.6c-0.7,0.7-1.7,1.1-2.8,1.1c-1.1,0-2.1-0.4-2.8-1.1c-0.7-0.7-1.1-1.6-1.1-2.6C9.3,19.8,9.7,18.9,10.4,18.2z
	 M16.7,34.8c-0.9,0.8-2.1,1.4-3.4,1.4c-1.4,0-2.6-0.5-3.4-1.4c-0.9-0.8-1.3-2-1.4-3.2c0-1.2,0.5-2.3,1.4-3.2
	c0.9-0.8,2.1-1.4,3.4-1.4h0c1.4,0,2.6,0.5,3.4,1.4c0.9,0.8,1.4,2,1.4,3.2C18,32.9,17.5,34,16.7,34.8z"/>
<path class="st1" d="M161.4,223.8c0.4,0.4,0.8,0.7,1.2,1c-0.2,0.1-0.4,0.3-0.5,0.5c-1.1,1.1-1.8,2.7-1.8,4.4c0,1.7,0.7,3.3,1.8,4.4
	c1.1,1.1,2.6,1.8,4.3,1.8c1.7,0,3.2-0.7,4.3-1.8c1.1-1.1,1.8-2.7,1.8-4.4c0-1.7-0.7-3.3-1.8-4.4c-0.2-0.2-0.4-0.3-0.5-0.5
	c0.4-0.3,0.8-0.6,1.2-1c1.3-1.3,2.1-3.1,2.1-5.1c0-2-0.8-3.8-2.1-5.1c-1.3-1.3-3-2-5-2c-1.9,0-3.7,0.8-5,2c-1.3,1.3-2.1,3.1-2.1,5.1
	C159.2,220.8,160.1,222.6,161.4,223.8z M169.2,232.2c-0.7,0.7-1.7,1.1-2.8,1.1h0c-1.1,0-2.1-0.4-2.8-1.1c-0.7-0.7-1.1-1.6-1.1-2.6
	c0-1,0.4-1.9,1.1-2.6c0.7-0.7,1.7-1.1,2.8-1.1c1.1,0,2.1,0.4,2.8,1.1c0.7,0.7,1.1,1.6,1.1,2.6C170.3,230.6,169.9,231.5,169.2,232.2z
	 M162.9,215.6c0.9-0.8,2.1-1.4,3.4-1.4c1.4,0,2.6,0.5,3.4,1.4c0.9,0.8,1.4,2,1.4,3.2c0,1.2-0.5,2.3-1.4,3.2
	c-0.9,0.8-2.1,1.4-3.4,1.4h0c-1.4,0-2.6-0.5-3.4-1.4c-0.9-0.8-1.4-2-1.4-3.2C161.6,217.6,162.1,216.4,162.9,215.6z"/>
</svg>
