<?xml version="1.0" encoding="utf-8"?>
<!-- Generator: Adobe Illustrator 23.0.4, SVG Export Plug-In . SVG Version: 6.00 Build 0)  -->
<svg version="1.1" id="Layer_1" xmlns="http://www.w3.org/2000/svg" xmlns:xlink="http://www.w3.org/1999/xlink" x="0px" y="0px"
	 viewBox="0 0 179.6 250.4" style="enable-background:new 0 0 179.6 250.4;" xml:space="preserve">
<style type="text/css">
	.st0{fill:#F4F4F2;stroke:#000000;}
	.st1{fill:#E44145;}
</style>
<g>
	<path class="st0" d="M179.1,235.8c0,7.8-6.3,14.2-14.2,14.2H14.7c-7.8,0-14.2-6.3-14.2-14.2V14.7c0-7.8,6.3-14.2,14.2-14.2h150.2
		c7.8,0,14.2,6.3,14.2,14.2V235.8z"/>
	<path class="st1" d="M13.3,43c1.8,3.5,4.1,6.3,7.1,8.5c-2.9,2.2-5.3,5-7.1,8.5c-1.8-3.5-4.2-6.3-7.1-8.5
		C9.1,49.3,11.5,46.5,13.3,43L13.3,43z"/>
	<path class="st1" d="M166.3,190.4c1.8,3.5,4.1,6.3,7.1,8.5c-2.9,2.2-5.3,5-7.1,8.5c-1.8-3.5-4.2-6.3-7.1-8.5
		C162.2,196.7,164.5,193.9,166.3,190.4L166.3,190.4z"/>
	<path class="st1" d="M46.6,26c4.5,8.7,10.4,15.8,17.7,21.3C57,52.8,51.1,59.9,46.6,68.5c-4.5-8.6-10.4-15.7-17.7-21.2
		C36.2,41.8,42.1,34.7,46.6,26L46.6,26z"/>
	<path class="st1" d="M46.6,104c4.5,8.7,10.4,15.8,17.7,21.3c-7.3,5.5-13.2,12.6-17.7,21.2c-4.5-8.6-10.4-15.7-17.7-21.2
		C36.2,119.7,42.1,112.6,46.6,104L46.6,104z"/>
	<path class="st1" d="M46.6,181.9c4.5,8.7,10.4,15.8,17.7,21.3c-7.3,5.5-13.2,12.6-17.7,21.2c-4.5-8.6-10.4-15.7-17.7-21.2
		C36.2,197.7,42.1,190.6,46.6,181.9L46.6,181.9z"/>
	<path class="st1" d="M133,26c4.5,8.7,10.4,15.8,17.7,21.3c-7.3,5.5-13.2,12.6-17.7,21.2c-4.5-8.6-10.4-15.7-17.7-21.2
		C122.6,41.8,128.5,34.7,133,26L133,26z"/>
	<path class="st1" d="M133,104c4.5,8.7,10.4,15.8,17.7,21.3c-7.3,5.5-13.2,12.6-17.7,21.2c-4.5-8.6-10.4-15.7-17.7-21.2
		C122.6,119.7,128.5,112.6,133,104L133,104z"/>
	<path class="st1" d="M133,181.9c4.5,8.7,10.4,15.8,17.7,21.3c-7.3,5.5-13.2,12.6-17.7,21.2c-4.5-8.6-10.4-15.7-17.7-21.2
		C122.6,197.7,128.5,190.6,133,181.9L133,181.9z"/>
	<path class="st1" d="M89.8,67.1c4.5,8.7,10.4,15.8,17.7,21.3c-7.3,5.5-13.2,12.6-17.7,21.2c-4.5-8.6-10.4-15.7-17.7-21.2
		C79.4,82.9,85.3,75.8,89.8,67.1L89.8,67.1z"/>
	<path class="st1" d="M89.8,140.8c4.5,8.7,10.4,15.8,17.7,21.3c-7.3,5.5-13.2,12.6-17.7,21.2c-4.5-8.6-10.4-15.7-17.7-21.2
		C79.4,156.6,85.3,149.5,89.8,140.8L89.8,140.8z"/>
	<path class="st1" d="M18.2,26.6c-0.4-0.4-0.8-0.7-1.2-1c0.2-0.1,0.4-0.3,0.5-0.5c1.1-1.1,1.8-2.7,1.8-4.4c0-1.7-0.7-3.3-1.8-4.4
		c-1.1-1.1-2.6-1.8-4.3-1.8c-1.7,0-3.2,0.7-4.3,1.8c-1.1,1.1-1.8,2.7-1.8,4.4c0,1.7,0.7,3.3,1.8,4.4c0.2,0.2,0.4,0.3,0.5,0.5
		c-0.4,0.3-0.8,0.6-1.2,1c-1.3,1.3-2.1,3.1-2.1,5.1c0,2,0.8,3.8,2.1,5.1c1.3,1.3,3,2,5,2c1.9,0,3.7-0.8,5-2c1.3-1.3,2.1-3.1,2.1-5.1
		C20.3,29.7,19.5,27.9,18.2,26.6z M10.4,18.2c0.7-0.7,1.7-1.1,2.8-1.1h0c1.1,0,2.1,0.4,2.8,1.1c0.7,0.7,1.1,1.6,1.1,2.6
		c0,1-0.4,1.9-1.1,2.6c-0.7,0.7-1.7,1.1-2.8,1.1c-1.1,0-2.1-0.4-2.8-1.1c-0.7-0.7-1.1-1.6-1.1-2.6C9.3,19.8,9.7,18.9,10.4,18.2z
		 M16.7,34.8c-0.9,0.8-2.1,1.4-3.4,1.4c-1.4,0-2.6-0.5-3.4-1.4c-0.9-0.8-1.3-2-1.4-3.2c0-1.2,0.5-2.3,1.4-3.2
		c0.9-0.8,2.1-1.4,3.4-1.4h0c1.4,0,2.6,0.5,3.4,1.4c0.9,0.8,1.4,2,1.4,3.2C18,32.9,17.5,34,16.7,34.8z"/>
	<path class="st1" d="M161.4,223.8c0.4,0.4,0.8,0.7,1.2,1c-0.2,0.1-0.4,0.3-0.5,0.5c-1.1,1.1-1.8,2.7-1.8,4.4c0,1.7,0.7,3.3,1.8,4.4
		c1.1,1.1,2.6,1.8,4.3,1.8c1.7,0,3.2-0.7,4.3-1.8c1.1-1.1,1.8-2.7,1.8-4.4c0-1.7-0.7-3.3-1.8-4.4c-0.2-0.2-0.4-0.3-0.5-0.5
		c0.4-0.3,0.8-0.6,1.2-1c1.3-1.3,2.1-3.1,2.1-5.1c0-2-0.8-3.8-2.1-5.1c-1.3-1.3-3-2-5-2c-1.9,0-3.7,0.8-5,2
		c-1.3,1.3-2.1,3.1-2.1,5.1C159.2,220.8,160.1,222.6,161.4,223.8z M169.2,232.2c-0.7,0.7-1.7,1.1-2.8,1.1h0c-1.1,0-2.1-0.4-2.8-1.1
		c-0.7-0.7-1.1-1.6-1.1-2.6c0-1,0.4-1.9,1.1-2.6c0.7-0.7,1.7-1.1,2.8-1.1c1.1,0,2.1,0.4,2.8,1.1c0.7,0.7,1.1,1.6,1.1,2.6
		C170.3,230.6,169.9,231.5,169.2,232.2z M162.9,215.6c0.9-0.8,2.1-1.4,3.4-1.4c1.4,0,2.6,0.5,3.4,1.4c0.9,0.8,1.4,2,1.4,3.2
		c0,1.2-0.5,2.3-1.4,3.2c-0.9,0.8-2.1,1.4-3.4,1.4h0c-1.4,0-2.6-0.5-3.4-1.4c-0.9-0.8-1.4-2-1.4-3.2
		C161.6,217.5,162.1,216.4,162.9,215.6z"/>
</g>
</svg>
