<?xml version="1.0" encoding="utf-8"?>
<!-- Generator: Adobe Illustrator 23.0.4, SVG Export Plug-In . SVG Version: 6.00 Build 0)  -->
<svg version="1.1" id="Layer_1" xmlns="http://www.w3.org/2000/svg" xmlns:xlink="http://www.w3.org/1999/xlink" x="0px" y="0px"
	 viewBox="0 0 179.6 250.4" style="enable-background:new 0 0 179.6 250.4;" xml:space="preserve">
<style type="text/css">
	.st0{fill:#F4F4F2;stroke:#000000;}
	.st1{fill:#E44145;}
	.st2{fill:none;}
</style>
<g>
	<path class="st0" d="M179.1,235.8c0,7.8-6.3,14.2-14.2,14.2H14.7c-7.8,0-14.2-6.3-14.2-14.2V14.7c0-7.8,6.3-14.2,14.2-14.2h150.2
		c7.8,0,14.2,6.3,14.2,14.2V235.8z"/>
	<g>
		<path class="st1" d="M13.3,43c1.8,3.5,4.1,6.3,7.1,8.5c-2.9,2.2-5.3,5-7.1,8.5c-1.8-3.5-4.2-6.3-7.1-8.5
			C9.1,49.3,11.5,46.5,13.3,43L13.3,43z"/>
		<path class="st1" d="M166.3,190.4c1.8,3.5,4.1,6.3,7.1,8.5c-2.9,2.2-5.3,5-7.1,8.5c-1.8-3.5-4.2-6.3-7.1-8.5
			C162.2,196.7,164.5,193.9,166.3,190.4L166.3,190.4z"/>
		<path class="st1" d="M46.6,26c4.5,8.7,10.4,15.8,17.7,21.3C57,52.8,51.1,59.9,46.6,68.5c-4.5-8.6-10.4-15.7-17.7-21.2
			C36.2,41.8,42.1,34.7,46.6,26L46.6,26z"/>
		<path class="st1" d="M46.6,78c4.5,8.7,10.4,15.8,17.7,21.3c-7.3,5.5-13.2,12.6-17.7,21.2c-4.5-8.6-10.4-15.7-17.7-21.2
			C36.2,93.8,42.1,86.7,46.6,78L46.6,78z"/>
		<path class="st1" d="M46.6,129.9c4.5,8.7,10.4,15.8,17.7,21.3c-7.3,5.5-13.2,12.6-17.7,21.2c-4.5-8.6-10.4-15.7-17.7-21.2
			C36.2,145.7,42.1,138.6,46.6,129.9L46.6,129.9z"/>
		<path class="st1" d="M46.6,181.9c4.5,8.7,10.4,15.8,17.7,21.3c-7.3,5.5-13.2,12.6-17.7,21.2c-4.5-8.6-10.4-15.7-17.7-21.2
			C36.2,197.7,42.1,190.6,46.6,181.9L46.6,181.9z"/>
		<path class="st1" d="M133,26c4.5,8.7,10.4,15.8,17.7,21.3c-7.3,5.5-13.2,12.6-17.7,21.2c-4.5-8.6-10.4-15.7-17.7-21.2
			C122.6,41.8,128.5,34.7,133,26L133,26z"/>
		<path class="st1" d="M133,78c4.5,8.7,10.4,15.8,17.7,21.3c-7.3,5.5-13.2,12.6-17.7,21.2c-4.5-8.6-10.4-15.7-17.7-21.2
			C122.6,93.8,128.5,86.7,133,78L133,78z"/>
		<path class="st1" d="M133,129.9c4.5,8.7,10.4,15.8,17.7,21.3c-7.3,5.5-13.2,12.6-17.7,21.2c-4.5-8.6-10.4-15.7-17.7-21.2
			C122.6,145.7,128.5,138.6,133,129.9L133,129.9z"/>
		<path class="st1" d="M133,181.9c4.5,8.7,10.4,15.8,17.7,21.3c-7.3,5.5-13.2,12.6-17.7,21.2c-4.5-8.6-10.4-15.7-17.7-21.2
			C122.6,197.7,128.5,190.6,133,181.9L133,181.9z"/>
		<path class="st1" d="M89.8,104c4.5,8.7,10.4,15.8,17.7,21.3c-7.3,5.5-13.2,12.6-17.7,21.2c-4.5-8.6-10.4-15.7-17.7-21.2
			C79.4,119.7,85.3,112.6,89.8,104L89.8,104z"/>
		<path class="st2" d="M13.3,17c-0.7,0-1.4,0.2-2,0.5c-0.6,0.3-1.1,0.7-1.5,1.3c-0.8,1.1-1.3,2.6-1.3,4.4c0,1.3,0.3,2.5,0.7,3.4
			c0.5,0.9,1.1,1.6,2,2.1c0.6,0.3,1.2,0.4,2,0.4c0,0,0,0,0.1,0c0.7,0,1.4-0.2,1.9-0.5c0.6-0.3,1.1-0.7,1.5-1.3
			c0.8-1.1,1.3-2.7,1.3-4.4c0-1.7-0.5-3.2-1.3-4.2C15.8,17.6,14.7,17,13.3,17z"/>
		<path class="st1" d="M20.1,22c-0.1-1.9-0.8-3.7-1.9-5c-1.2-1.5-3-2.4-5-2.4c0,0,0,0,0,0c-1.1,0-2,0.2-2.9,0.7
			c-1.3,0.7-2.3,1.8-3,3.1c-0.7,1.3-1,2.9-1,4.6c0,2.2,0.6,4.2,1.8,5.7c0.6,0.8,1.3,1.4,2.2,1.8c0.9,0.4,1.8,0.7,2.9,0.7
			c0,0,0.1,0,0.1,0c1.1,0,2-0.3,2.9-0.7c0.7-0.4,1.4-0.9,1.9-1.6c-0.1,1.6-0.3,3.5-1.1,4.9c-0.4,0.7-0.9,1.3-1.5,1.8
			c-0.7,0.4-1.5,0.7-2.8,0.7c-0.9,0-1.6-0.2-2.2-0.5c-0.9-0.5-1.5-1.2-1.8-1.8c-0.2-0.3-0.3-0.6-0.4-0.8c0-0.1-0.1-0.2-0.1-0.2
			c0,0,0,0,0,0l0,0l-2,0.8c0,0.1,0.4,1.2,1.4,2.4c0.5,0.6,1.2,1.2,2,1.7c0.9,0.5,1.9,0.8,3.1,0.8c0,0,0,0,0,0c1.5,0,2.8-0.4,3.9-1.1
			c0.8-0.5,1.4-1.2,1.9-1.9c0.7-1.1,1.1-2.3,1.4-3.5c0.3-1.2,0.3-2.4,0.4-3.4c0-0.7,0-1.4,0-2C20.3,24.4,20.2,22.4,20.1,22z
			 M16.7,27.2c-0.4,0.6-0.9,1-1.5,1.3C14.7,28.8,14,29,13.3,29c0,0,0,0-0.1,0c-0.8,0-1.4-0.2-2-0.4c-0.8-0.4-1.5-1.1-2-2.1
			c-0.5-0.9-0.8-2.1-0.7-3.4c0-1.7,0.5-3.3,1.3-4.4c0.4-0.5,0.9-1,1.5-1.3c0.6-0.3,1.2-0.5,2-0.5c1.4,0,2.5,0.6,3.4,1.6
			c0.8,1,1.3,2.5,1.3,4.2C18,24.5,17.5,26.1,16.7,27.2z"/>
		<path class="st1" d="M159.4,228.4c0.1,1.9,0.8,3.7,1.9,5c1.2,1.5,3,2.4,5,2.4c0,0,0,0,0,0c1.1,0,2-0.2,2.9-0.7
			c1.3-0.7,2.3-1.8,3-3.1c0.7-1.3,1-2.9,1-4.6c0-2.2-0.6-4.2-1.8-5.7c-0.6-0.8-1.3-1.4-2.2-1.8s-1.8-0.7-2.9-0.7c0,0-0.1,0-0.1,0
			c-1.1,0-2,0.3-2.9,0.7c-0.7,0.4-1.4,0.9-1.9,1.6c0.1-1.6,0.3-3.5,1.1-4.9c0.4-0.7,0.9-1.3,1.5-1.8c0.7-0.4,1.5-0.7,2.8-0.7
			c0.9,0,1.6,0.2,2.2,0.5c0.9,0.5,1.5,1.2,1.8,1.8c0.2,0.3,0.3,0.6,0.4,0.8c0,0.1,0.1,0.2,0.1,0.2c0,0,0,0,0,0l0,0l2-0.8
			c0-0.1-0.4-1.2-1.4-2.4c-0.5-0.6-1.2-1.2-2-1.7c-0.9-0.5-1.9-0.8-3.1-0.8c0,0,0,0,0,0c-1.5,0-2.8,0.4-3.9,1.1
			c-0.8,0.5-1.4,1.2-1.9,1.9c-0.7,1.1-1.1,2.3-1.4,3.5c-0.3,1.2-0.3,2.4-0.4,3.4c0,0.7,0,1.4,0,2C159.2,226,159.4,228.1,159.4,228.4
			z M162.9,223.2c0.4-0.6,0.9-1,1.5-1.3c0.6-0.3,1.2-0.5,1.9-0.5c0,0,0,0,0.1,0c0.8,0,1.4,0.2,2,0.4c0.8,0.4,1.5,1.1,2,2.1
			c0.5,0.9,0.8,2.1,0.7,3.4c0,1.7-0.5,3.3-1.3,4.4c-0.4,0.5-0.9,1-1.5,1.3c-0.6,0.3-1.2,0.5-2,0.5c-1.4,0-2.5-0.6-3.4-1.6
			c-0.8-1-1.3-2.5-1.3-4.2C161.6,225.9,162,224.3,162.9,223.2z"/>
	</g>
</g>
</svg>
