<?xml version="1.0" encoding="utf-8"?>
<!-- Generator: Adobe Illustrator 23.0.4, SVG Export Plug-In . SVG Version: 6.00 Build 0)  -->
<svg version="1.1" id="Layer_1" xmlns="http://www.w3.org/2000/svg" xmlns:xlink="http://www.w3.org/1999/xlink" x="0px" y="0px"
	 viewBox="0 0 179.6 250.4" style="enable-background:new 0 0 179.6 250.4;" xml:space="preserve">
<style type="text/css">
	.st0{fill:#F4F4F2;stroke:#000000;}
	.st1{fill:none;}
</style>
<path class="st0" d="M179.1,235.8c0,7.8-6.3,14.2-14.2,14.2H14.7c-7.8,0-14.2-6.3-14.2-14.2V14.7c0-7.8,6.3-14.2,14.2-14.2h150.2
	c7.8,0,14.2,6.3,14.2,14.2V235.8z"/>
<path d="M13.3,43c-1.9,0-3.4,1.7-3.4,3.8c0,1.2,0.5,2.3,1.3,3c0.3,0.2,0.1,0.5-0.1,0.3c-0.5-0.3-1-0.5-1.6-0.5
	c-1.8,0-3.3,1.6-3.3,3.7c0,2,1.5,3.7,3.3,3.7c1.2,0,2.2-0.7,2.8-1.8c0.1-0.1,0.1-0.3,0.2-0.3c0.1,0,0.2,0.2,0.2,0.5
	c0,1.3-0.5,2.9-1.3,4.6c0.3-0.1,1.3-0.3,1.9-0.3c0.6,0,1.6,0.2,1.9,0.3c-0.7-1.8-1.3-3.3-1.3-4.6c0-0.3,0-0.5,0.2-0.5
	c0.1,0,0.1,0.1,0.2,0.3c0.6,1.1,1.6,1.8,2.8,1.8c1.8,0,3.3-1.6,3.3-3.7c0-2-1.5-3.7-3.3-3.7c-0.6,0-1.1,0.2-1.6,0.5
	c-0.3,0.2-0.4-0.1-0.1-0.3c0.8-0.7,1.3-1.8,1.3-3C16.6,44.7,15.1,43,13.3,43z"/>
<path d="M166.3,207.4c1.9,0,3.4-1.7,3.4-3.8c0-1.2-0.5-2.3-1.3-3c-0.3-0.2-0.1-0.5,0.1-0.3c0.5,0.3,1,0.5,1.6,0.5
	c1.8,0,3.3-1.6,3.3-3.7c0-2-1.5-3.7-3.3-3.7c-1.2,0-2.2,0.7-2.8,1.8c-0.1,0.1-0.1,0.3-0.2,0.3c-0.1,0-0.2-0.2-0.2-0.5
	c0-1.3,0.5-2.9,1.3-4.6c-0.3,0.1-1.3,0.3-1.9,0.3c-0.6,0-1.6-0.2-1.9-0.3c0.7,1.8,1.3,3.3,1.3,4.6c0,0.3-0.1,0.5-0.2,0.5
	c-0.1,0-0.1-0.1-0.2-0.3c-0.6-1.1-1.6-1.8-2.8-1.8c-1.8,0-3.3,1.6-3.3,3.7c0,2,1.5,3.7,3.3,3.7c0.6,0,1.1-0.2,1.6-0.5
	c0.3-0.2,0.4,0.1,0.1,0.3c-0.8,0.7-1.3,1.8-1.3,3C163,205.7,164.5,207.4,166.3,207.4z"/>
<path d="M46.6,26c-4.7,0-8.4,4.3-8.4,9.5c0,3,1.3,5.7,3.2,7.4c0.6,0.6,0.4,1.2-0.3,0.8c-1.2-0.7-2.6-1.2-4-1.2
	c-4.5,0-8.1,4.1-8.1,9.2c0,5.1,3.6,9.2,8.1,9.2c3,0,5.6-1.8,7-4.5c0.1-0.3,0.2-0.6,0.4-0.6c0.3,0,0.4,0.4,0.4,1.3
	c0,3.3-1.3,7.1-3.1,11.5c0.8-0.2,3.2-0.7,4.8-0.7c1.6,0,4,0.5,4.8,0.7c-1.9-4.4-3.1-8.3-3.1-11.5c0-0.8,0.1-1.3,0.4-1.3
	c0.2,0,0.3,0.4,0.4,0.6c1.4,2.7,4,4.5,7,4.5c4.5,0,8.1-4.1,8.1-9.2c0-5.1-3.6-9.2-8.1-9.2c-1.5,0-2.8,0.5-4,1.2
	c-0.7,0.4-0.9-0.2-0.3-0.8c1.9-1.8,3.2-4.4,3.2-7.4C55,30.3,51.2,26,46.6,26z"/>
<path d="M46.6,78c-4.7,0-8.4,4.3-8.4,9.5c0,3,1.3,5.7,3.2,7.4c0.6,0.6,0.4,1.2-0.3,0.8c-1.2-0.7-2.6-1.2-4-1.2
	c-4.5,0-8.1,4.1-8.1,9.2c0,5.1,3.6,9.2,8.1,9.2c3,0,5.6-1.8,7-4.5c0.1-0.3,0.2-0.6,0.4-0.6c0.3,0,0.4,0.4,0.4,1.3
	c0,3.3-1.3,7.1-3.1,11.6c0.8-0.2,3.2-0.7,4.8-0.7c1.6,0,4,0.5,4.8,0.7c-1.9-4.4-3.1-8.3-3.1-11.6c0-0.8,0.1-1.3,0.4-1.3
	c0.2,0,0.3,0.4,0.4,0.6c1.4,2.7,4,4.5,7,4.5c4.5,0,8.1-4.1,8.1-9.2c0-5.1-3.6-9.2-8.1-9.2c-1.5,0-2.8,0.5-4,1.2
	c-0.7,0.4-0.9-0.2-0.3-0.8c1.9-1.8,3.2-4.4,3.2-7.4C55,82.2,51.2,78,46.6,78z"/>
<path d="M46.6,224.4c4.7,0,8.4-4.3,8.4-9.5c0-3-1.3-5.7-3.2-7.4c-0.6-0.6-0.4-1.2,0.3-0.8c1.2,0.7,2.6,1.2,4,1.2
	c4.5,0,8.1-4.1,8.1-9.2c0-5.1-3.6-9.2-8.1-9.2c-3,0-5.6,1.8-7,4.5c-0.1,0.3-0.2,0.6-0.4,0.6c-0.3,0-0.4-0.4-0.4-1.3
	c0-3.3,1.3-7.1,3.1-11.5c-0.8,0.2-3.2,0.7-4.8,0.7c-1.6,0-4-0.5-4.8-0.7c1.9,4.4,3.1,8.3,3.1,11.5c0,0.8-0.1,1.3-0.4,1.3
	c-0.2,0-0.3-0.4-0.4-0.6c-1.4-2.7-4-4.5-7-4.5c-4.5,0-8.1,4.1-8.1,9.2c0,5.1,3.6,9.2,8.1,9.2c1.5,0,2.8-0.5,4-1.2
	c0.7-0.4,0.9,0.2,0.3,0.8c-1.9,1.8-3.2,4.4-3.2,7.4C38.1,220.2,41.9,224.4,46.6,224.4z"/>
<path d="M46.6,172.5c4.7,0,8.4-4.3,8.4-9.5c0-3-1.3-5.7-3.2-7.4c-0.6-0.6-0.4-1.2,0.3-0.8c1.2,0.7,2.6,1.2,4,1.2
	c4.5,0,8.1-4.1,8.1-9.2c0-5.1-3.6-9.2-8.1-9.2c-3,0-5.6,1.8-7,4.5c-0.1,0.3-0.2,0.6-0.4,0.6c-0.3,0-0.4-0.4-0.4-1.3
	c0-3.3,1.3-7.1,3.1-11.5c-0.8,0.2-3.2,0.7-4.8,0.7c-1.6,0-4-0.5-4.8-0.7c1.9,4.4,3.1,8.3,3.1,11.5c0,0.8-0.1,1.3-0.4,1.3
	c-0.2,0-0.3-0.4-0.4-0.6c-1.4-2.7-4-4.5-7-4.5c-4.5,0-8.1,4.1-8.1,9.2c0,5.1,3.6,9.2,8.1,9.2c1.5,0,2.8-0.5,4-1.2
	c0.7-0.4,0.9,0.2,0.3,0.8c-1.9,1.8-3.2,4.4-3.2,7.4C38.1,168.2,41.9,172.5,46.6,172.5z"/>
<path d="M133,26c-4.7,0-8.4,4.3-8.4,9.5c0,3,1.3,5.7,3.2,7.4c0.6,0.6,0.4,1.2-0.3,0.8c-1.2-0.7-2.6-1.2-4-1.2
	c-4.5,0-8.1,4.1-8.1,9.2c0,5.1,3.6,9.2,8.1,9.2c3,0,5.6-1.8,7-4.5c0.1-0.3,0.2-0.6,0.4-0.6c0.3,0,0.4,0.4,0.4,1.3
	c0,3.3-1.3,7.1-3.1,11.5c0.8-0.2,3.2-0.7,4.8-0.7c1.6,0,4,0.5,4.8,0.7c-1.9-4.4-3.1-8.3-3.1-11.5c0-0.8,0.1-1.3,0.4-1.3
	c0.2,0,0.3,0.4,0.4,0.6c1.4,2.7,4,4.5,7,4.5c4.5,0,8.1-4.1,8.1-9.2c0-5.1-3.6-9.2-8.1-9.2c-1.5,0-2.8,0.5-4,1.2
	c-0.7,0.4-0.9-0.2-0.3-0.8c1.9-1.8,3.2-4.4,3.2-7.4C141.5,30.3,137.7,26,133,26z"/>
<path d="M133,78c-4.7,0-8.4,4.3-8.4,9.5c0,3,1.3,5.7,3.2,7.4c0.6,0.6,0.4,1.2-0.3,0.8c-1.2-0.7-2.6-1.2-4-1.2
	c-4.5,0-8.1,4.1-8.1,9.2c0,5.1,3.6,9.2,8.1,9.2c3,0,5.6-1.8,7-4.5c0.1-0.3,0.2-0.6,0.4-0.6c0.3,0,0.4,0.4,0.4,1.3
	c0,3.3-1.3,7.1-3.1,11.6c0.8-0.2,3.2-0.7,4.8-0.7c1.6,0,4,0.5,4.8,0.7c-1.9-4.4-3.1-8.3-3.1-11.6c0-0.8,0.1-1.3,0.4-1.3
	c0.2,0,0.3,0.4,0.4,0.6c1.4,2.7,4,4.5,7,4.5c4.5,0,8.1-4.1,8.1-9.2c0-5.1-3.6-9.2-8.1-9.2c-1.5,0-2.8,0.5-4,1.2
	c-0.7,0.4-0.9-0.2-0.3-0.8c1.9-1.8,3.2-4.4,3.2-7.4C141.5,82.2,137.7,78,133,78z"/>
<path d="M133,224.4c4.7,0,8.4-4.3,8.4-9.5c0-3-1.3-5.7-3.2-7.4c-0.6-0.6-0.4-1.2,0.3-0.8c1.2,0.7,2.6,1.2,4,1.2
	c4.5,0,8.1-4.1,8.1-9.2c0-5.1-3.6-9.2-8.1-9.2c-3,0-5.6,1.8-7,4.5c-0.1,0.3-0.2,0.6-0.4,0.6c-0.3,0-0.4-0.4-0.4-1.3
	c0-3.3,1.3-7.1,3.1-11.5c-0.8,0.2-3.2,0.7-4.8,0.7c-1.6,0-4-0.5-4.8-0.7c1.9,4.4,3.1,8.3,3.1,11.5c0,0.8-0.1,1.3-0.4,1.3
	c-0.2,0-0.3-0.4-0.4-0.6c-1.4-2.7-4-4.5-7-4.5c-4.5,0-8.1,4.1-8.1,9.2c0,5.1,3.6,9.2,8.1,9.2c1.5,0,2.8-0.5,4-1.2
	c0.7-0.4,0.9,0.2,0.3,0.8c-1.9,1.8-3.2,4.4-3.2,7.4C124.6,220.2,128.4,224.4,133,224.4z"/>
<path d="M133,172.5c4.7,0,8.4-4.3,8.4-9.5c0-3-1.3-5.7-3.2-7.4c-0.6-0.6-0.4-1.2,0.3-0.8c1.2,0.7,2.6,1.2,4,1.2
	c4.5,0,8.1-4.1,8.1-9.2c0-5.1-3.6-9.2-8.1-9.2c-3,0-5.6,1.8-7,4.5c-0.1,0.3-0.2,0.6-0.4,0.6c-0.3,0-0.4-0.4-0.4-1.3
	c0-3.3,1.3-7.1,3.1-11.5c-0.8,0.2-3.2,0.7-4.8,0.7c-1.6,0-4-0.5-4.8-0.7c1.9,4.4,3.1,8.3,3.1,11.5c0,0.8-0.1,1.3-0.4,1.3
	c-0.2,0-0.3-0.4-0.4-0.6c-1.4-2.7-4-4.5-7-4.5c-4.5,0-8.1,4.1-8.1,9.2c0,5.1,3.6,9.2,8.1,9.2c1.5,0,2.8-0.5,4-1.2
	c0.7-0.4,0.9,0.2,0.3,0.8c-1.9,1.8-3.2,4.4-3.2,7.4C124.6,168.2,128.4,172.5,133,172.5z"/>
<path d="M89.8,104c-4.7,0-8.4,4.3-8.4,9.5c0,3,1.3,5.7,3.2,7.4c0.6,0.6,0.4,1.2-0.3,0.8c-1.2-0.7-2.6-1.2-4-1.2
	c-4.5,0-8.1,4.1-8.1,9.2c0,5.1,3.6,9.2,8.1,9.2c3,0,5.6-1.8,7-4.5c0.1-0.3,0.2-0.6,0.4-0.6c0.3,0,0.4,0.4,0.4,1.3
	c0,3.3-1.3,7.1-3.1,11.5c0.8-0.2,3.2-0.7,4.8-0.7c1.6,0,4,0.5,4.8,0.7c-1.9-4.4-3.1-8.2-3.1-11.5c0-0.8,0.1-1.3,0.4-1.3
	c0.2,0,0.3,0.4,0.4,0.6c1.4,2.7,4,4.5,7,4.5c4.5,0,8.1-4.1,8.1-9.2c0-5.1-3.6-9.2-8.1-9.2c-1.5,0-2.8,0.5-4,1.2
	c-0.7,0.4-0.9-0.2-0.3-0.8c1.9-1.8,3.2-4.4,3.2-7.4C98.2,108.2,94.4,104,89.8,104z"/>
<g>
	<path class="st1" d="M13.3,17c-0.7,0-1.4,0.2-2,0.5c-0.6,0.3-1.1,0.7-1.5,1.3c-0.8,1.1-1.3,2.6-1.3,4.4c0,1.3,0.3,2.5,0.7,3.4
		c0.5,0.9,1.1,1.6,2,2.1c0.6,0.3,1.2,0.4,2,0.4c0,0,0,0,0.1,0c0.7,0,1.4-0.2,2-0.5c0.6-0.3,1.1-0.7,1.5-1.3c0.8-1.1,1.3-2.7,1.3-4.4
		c0-1.7-0.5-3.2-1.3-4.2C15.8,17.6,14.7,17,13.3,17z"/>
	<path d="M20.1,22c-0.1-1.9-0.8-3.7-1.9-5c-1.2-1.5-3-2.4-5-2.4c0,0,0,0,0,0c-1.1,0-2,0.2-2.9,0.7c-1.3,0.7-2.3,1.8-3,3.1
		c-0.7,1.3-1,2.9-1,4.6c0,2.2,0.6,4.2,1.8,5.7c0.6,0.8,1.3,1.4,2.2,1.8c0.9,0.4,1.8,0.7,2.9,0.7c0,0,0.1,0,0.1,0
		c1.1,0,2-0.3,2.9-0.7c0.7-0.4,1.4-0.9,1.9-1.6c-0.1,1.6-0.3,3.5-1.1,4.9c-0.4,0.7-0.9,1.3-1.5,1.8c-0.7,0.4-1.5,0.7-2.8,0.7
		c-0.9,0-1.6-0.2-2.2-0.5c-0.9-0.5-1.5-1.2-1.8-1.8c-0.2-0.3-0.3-0.6-0.4-0.8c0-0.1-0.1-0.2-0.1-0.2c0,0,0,0,0,0l0,0l-2,0.8
		c0,0.1,0.4,1.2,1.4,2.4c0.5,0.6,1.2,1.2,2,1.7c0.9,0.5,1.9,0.8,3.1,0.8c0,0,0,0,0,0c1.5,0,2.8-0.4,3.9-1.1c0.8-0.5,1.4-1.2,1.9-1.9
		c0.7-1.1,1.1-2.3,1.4-3.5c0.3-1.2,0.3-2.4,0.4-3.4c0-0.7,0-1.4,0-2C20.3,24.4,20.2,22.4,20.1,22z M16.7,27.2
		c-0.4,0.6-0.9,1-1.5,1.3c-0.6,0.3-1.2,0.5-2,0.5c0,0,0,0-0.1,0c-0.8,0-1.4-0.2-2-0.4c-0.8-0.4-1.5-1.1-2-2.1
		c-0.5-0.9-0.8-2.1-0.7-3.4c0-1.7,0.5-3.3,1.3-4.4c0.4-0.5,0.9-1,1.5-1.3c0.6-0.3,1.2-0.5,2-0.5c1.4,0,2.5,0.6,3.4,1.6
		c0.8,1,1.3,2.5,1.3,4.2C18,24.5,17.5,26.1,16.7,27.2z"/>
</g>
<g>
	<path class="st1" d="M166.3,233.5c0.7,0,1.4-0.2,2-0.5c0.6-0.3,1.1-0.7,1.5-1.3c0.8-1.1,1.3-2.6,1.3-4.4c0-1.3-0.3-2.5-0.7-3.4
		c-0.5-0.9-1.1-1.6-2-2.1c-0.6-0.3-1.2-0.4-2-0.4c0,0,0,0-0.1,0c-0.7,0-1.4,0.2-2,0.5c-0.6,0.3-1.1,0.7-1.5,1.3
		c-0.8,1.1-1.3,2.7-1.3,4.4c0,1.7,0.5,3.2,1.3,4.2C163.7,232.9,164.9,233.5,166.3,233.5z"/>
	<path d="M159.4,228.4c0.1,1.9,0.8,3.7,1.9,5c1.2,1.5,3,2.4,5,2.4c0,0,0,0,0,0c1.1,0,2-0.2,2.9-0.7c1.3-0.7,2.3-1.8,3-3.1
		c0.7-1.3,1-2.9,1-4.6c0-2.2-0.6-4.2-1.8-5.7c-0.6-0.8-1.3-1.4-2.2-1.8c-0.9-0.4-1.8-0.7-2.9-0.7c0,0-0.1,0-0.1,0
		c-1.1,0-2,0.3-2.9,0.7c-0.7,0.4-1.4,0.9-1.9,1.6c0.1-1.6,0.3-3.5,1.1-4.9c0.4-0.7,0.9-1.3,1.5-1.8c0.7-0.4,1.5-0.7,2.8-0.7
		c0.9,0,1.6,0.2,2.2,0.5c0.9,0.5,1.5,1.2,1.8,1.8c0.2,0.3,0.3,0.6,0.4,0.8c0,0.1,0.1,0.2,0.1,0.2c0,0,0,0,0,0l0,0l2-0.8
		c0-0.1-0.4-1.2-1.4-2.4c-0.5-0.6-1.2-1.2-2-1.7c-0.9-0.5-1.9-0.8-3.1-0.8c0,0,0,0,0,0c-1.5,0-2.8,0.4-3.9,1.1
		c-0.8,0.5-1.4,1.2-1.9,1.9c-0.7,1.1-1.1,2.3-1.4,3.5c-0.3,1.2-0.3,2.4-0.4,3.4c0,0.7,0,1.4,0,2C159.2,226,159.4,228.1,159.4,228.4z
		 M162.9,223.2c0.4-0.6,0.9-1,1.5-1.3c0.6-0.3,1.2-0.5,2-0.5c0,0,0,0,0.1,0c0.8,0,1.4,0.2,2,0.4c0.8,0.4,1.5,1.1,2,2.1
		c0.5,0.9,0.8,2.1,0.7,3.4c0,1.7-0.5,3.3-1.3,4.4c-0.4,0.5-0.9,1-1.5,1.3c-0.6,0.3-1.2,0.5-2,0.5c-1.4,0-2.5-0.6-3.4-1.6
		c-0.8-1-1.3-2.5-1.3-4.2C161.6,225.9,162,224.3,162.9,223.2z"/>
</g>
</svg>
