<?xml version="1.0" encoding="utf-8"?>
<!-- Generator: Adobe Illustrator 23.0.4, SVG Export Plug-In . SVG Version: 6.00 Build 0)  -->
<svg version="1.1" id="Layer_1" xmlns="http://www.w3.org/2000/svg" xmlns:xlink="http://www.w3.org/1999/xlink" x="0px" y="0px"
	 viewBox="0 0 179.6 250.4" style="enable-background:new 0 0 179.6 250.4;" xml:space="preserve">
<style type="text/css">
	.st0{fill:#F4F4F2;stroke:#000000;}
	.st1{fill:#E44145;}
</style>
<g>
	<path class="st0" d="M179.1,235.8c0,7.8-6.3,14.2-14.2,14.2H14.7c-7.8,0-14.2-6.3-14.2-14.2V14.7c0-7.8,6.3-14.2,14.2-14.2h150.2
		c7.8,0,14.2,6.3,14.2,14.2V235.8z"/>
	<g>
		<path class="st1" d="M17.2,43.1c-1.2-0.4-3.2,0.3-3.9,3.1c-0.1,0.2-0.1,0.2-0.2,0c-1-2.9-2.7-3.5-3.9-3.1
			c-1.8,0.6-3.2,2.7-3.1,5.4c0,4.7,4.2,7,7.1,11.5c2.8-4.5,7.1-6.8,7.1-11.5C20.6,45.8,19,43.7,17.2,43.1z"/>
		<path class="st1" d="M13.3,60C13.2,60,13.2,60,13.3,60C13.2,60,13.2,60,13.3,60L13.3,60z"/>
	</g>
	<g>
		<path class="st1" d="M166.3,190.5c-2.8,4.5-7.1,6.8-7.1,11.5c-0.2,2.7,1.3,4.8,3.1,5.3c1.2,0.4,3.2-0.3,3.9-3.1
			c0.1-0.2,0.1-0.2,0.2,0c1,2.9,2.7,3.5,3.9,3.1c1.8-0.6,3.2-2.7,3.1-5.4C173.4,197.3,169.2,194.9,166.3,190.5z"/>
		<path class="st1" d="M166.3,190.4C166.3,190.4,166.3,190.4,166.3,190.4C166.4,190.4,166.4,190.4,166.3,190.4L166.3,190.4z"/>
	</g>
	<g>
		<path class="st1" d="M56.5,23.4c-3.1-1-8,0.7-9.7,7.8c-0.1,0.4-0.3,0.4-0.4,0c-2.6-7.2-6.8-8.7-9.8-7.8c-4.4,1.4-8,6.7-7.7,13.4
			C29,48.5,39.4,54.4,46.5,65.6c7.1-11.2,17.7-17.1,17.7-28.8C64.8,30,61,24.8,56.5,23.4z"/>
		<path class="st1" d="M46.6,65.7C46.5,65.7,46.5,65.6,46.6,65.7C46.5,65.6,46.5,65.7,46.6,65.7L46.6,65.7z"/>
	</g>
	<g>
		<path class="st1" d="M46.6,118.6C46.5,118.6,46.5,118.6,46.6,118.6C46.5,118.6,46.5,118.6,46.6,118.6L46.6,118.6z"/>
		<path class="st1" d="M56.5,76.3c-3.1-1-8,0.7-9.7,7.8c-0.1,0.4-0.3,0.4-0.4,0c-2.6-7.2-6.8-8.7-9.8-7.8c-4.4,1.4-8,6.7-7.7,13.4
			c0.1,11.7,10.6,17.6,17.6,28.8c7.1-11.2,17.7-17.1,17.7-28.8C64.8,82.9,61,77.7,56.5,76.3z"/>
	</g>
	<g>
		<path class="st1" d="M46.6,181.9C46.6,181.9,46.6,182,46.6,181.9C46.6,182,46.6,181.9,46.6,181.9L46.6,181.9z"/>
		<path class="st1" d="M64.3,210.8c-0.1-11.7-10.6-17.6-17.6-28.8c-7.1,11.2-17.7,17.1-17.7,28.8c-0.6,6.8,3.2,12,7.7,13.4
			c3.1,1,8-0.7,9.7-7.8c0.1-0.4,0.3-0.4,0.4,0c2.6,7.2,6.8,8.7,9.8,7.8C61,222.8,64.6,217.5,64.3,210.8z"/>
	</g>
	<g>
		<path class="st1" d="M46.6,129C46.6,129,46.6,129.1,46.6,129C46.6,129.1,46.6,129,46.6,129L46.6,129z"/>
		<path class="st1" d="M64.3,157.9c-0.1-11.7-10.6-17.6-17.6-28.8c-7.1,11.2-17.7,17.1-17.7,28.8c-0.6,6.8,3.2,12,7.7,13.4
			c3.1,1,8-0.7,9.7-7.8c0.1-0.4,0.3-0.4,0.4,0c2.6,7.2,6.8,8.7,9.8,7.8C61,169.9,64.6,164.6,64.3,157.9z"/>
	</g>
	<g>
		<path class="st1" d="M133,65.7C133,65.7,133,65.6,133,65.7C133,65.6,132.9,65.7,133,65.7L133,65.7z"/>
		<path class="st1" d="M143,23.4c-3.1-1-8,0.7-9.7,7.8c-0.1,0.4-0.3,0.4-0.4,0c-2.6-7.2-6.8-8.7-9.8-7.8c-4.4,1.4-8,6.7-7.7,13.4
			c0.1,11.7,10.6,17.6,17.6,28.8c7.1-11.2,17.7-17.1,17.7-28.8C151.3,30,147.5,24.8,143,23.4z"/>
	</g>
	<g>
		<path class="st1" d="M133,118.6C133,118.6,133,118.6,133,118.6C133,118.6,132.9,118.6,133,118.6L133,118.6z"/>
		<path class="st1" d="M143,76.3c-3.1-1-8,0.7-9.7,7.8c-0.1,0.4-0.3,0.4-0.4,0c-2.6-7.2-6.8-8.7-9.8-7.8c-4.4,1.4-8,6.7-7.7,13.4
			c0.1,11.7,10.6,17.6,17.6,28.8c7.1-11.2,17.7-17.1,17.7-28.8C151.3,82.9,147.5,77.7,143,76.3z"/>
	</g>
	<g>
		<path class="st1" d="M133,181.9C133,181.9,133.1,182,133,181.9C133.1,182,133.1,181.9,133,181.9L133,181.9z"/>
		<path class="st1" d="M150.7,210.8c-0.1-11.7-10.6-17.6-17.6-28.8c-7.1,11.2-17.7,17.1-17.7,28.8c-0.6,6.8,3.2,12,7.7,13.4
			c3.1,1,8-0.7,9.7-7.8c0.1-0.4,0.3-0.4,0.4,0c2.6,7.2,6.8,8.7,9.8,7.8C147.5,222.8,151,217.5,150.7,210.8z"/>
	</g>
	<g>
		<path class="st1" d="M150.7,157.9c-0.1-11.7-10.6-17.6-17.6-28.8c-7.1,11.2-17.7,17.1-17.7,28.8c-0.6,6.8,3.2,12,7.7,13.4
			c3.1,1,8-0.7,9.7-7.8c0.1-0.4,0.3-0.4,0.4,0c2.6,7.2,6.8,8.7,9.8,7.8C147.5,169.9,151,164.6,150.7,157.9z"/>
		<path class="st1" d="M133,129C133,129,133.1,129.1,133,129C133.1,129.1,133.1,129,133,129L133,129z"/>
	</g>
	<g>
		<path class="st1" d="M89.8,146.5C89.8,146.5,89.8,146.4,89.8,146.5C89.7,146.4,89.7,146.5,89.8,146.5L89.8,146.5z"/>
		<path class="st1" d="M99.7,104.2c-3.1-1-8,0.7-9.7,7.8c-0.2,0.4-0.3,0.4-0.4,0c-2.6-7.2-6.8-8.7-9.8-7.8c-4.4,1.4-8,6.7-7.7,13.4
			c0.1,11.7,10.6,17.6,17.6,28.8c7.1-11.2,17.7-17.1,17.7-28.8C108.1,110.8,104.3,105.6,99.7,104.2z"/>
	</g>
	<path class="st1" d="M20.1,22c-0.1-1.9-0.8-3.7-1.9-5c-1.2-1.5-3-2.4-5-2.4c0,0,0,0,0,0c-1.1,0-2,0.2-2.9,0.7
		c-1.3,0.7-2.3,1.8-3,3.1c-0.7,1.3-1,2.9-1,4.6c0,2.2,0.6,4.2,1.8,5.7c0.6,0.8,1.3,1.4,2.2,1.8c0.9,0.4,1.8,0.7,2.9,0.7
		c0,0,0.1,0,0.1,0c1.1,0,2-0.3,2.9-0.7c0.7-0.4,1.4-0.9,1.9-1.6c-0.1,1.6-0.3,3.5-1.1,4.9c-0.4,0.7-0.9,1.3-1.5,1.8
		c-0.7,0.4-1.5,0.7-2.8,0.7c-0.9,0-1.6-0.2-2.2-0.5c-0.9-0.5-1.5-1.2-1.8-1.8c-0.2-0.3-0.3-0.6-0.4-0.8c0-0.1-0.1-0.2-0.1-0.2
		c0,0,0,0,0,0l0,0l-2,0.8c0,0.1,0.4,1.2,1.4,2.4c0.5,0.6,1.2,1.2,2,1.7c0.9,0.5,1.9,0.8,3.1,0.8c0,0,0,0,0,0c1.5,0,2.8-0.4,3.9-1.1
		c0.8-0.5,1.4-1.2,1.9-1.9c0.7-1.1,1.1-2.3,1.4-3.5c0.3-1.2,0.3-2.4,0.4-3.4c0-0.7,0-1.4,0-2C20.3,24.4,20.2,22.4,20.1,22z
		 M16.7,27.2c-0.4,0.6-0.9,1-1.5,1.3C14.7,28.8,14,29,13.3,29c0,0,0,0-0.1,0c-0.8,0-1.4-0.2-2-0.4c-0.8-0.4-1.5-1.1-2-2.1
		c-0.5-0.9-0.8-2.1-0.7-3.4c0-1.7,0.5-3.3,1.3-4.4c0.4-0.5,0.9-1,1.5-1.3c0.6-0.3,1.2-0.5,2-0.5c1.4,0,2.5,0.6,3.4,1.6
		c0.8,1,1.3,2.5,1.3,4.2C18,24.5,17.5,26.1,16.7,27.2z"/>
	<path class="st1" d="M159.4,228.4c0.1,1.9,0.8,3.7,1.9,5c1.2,1.5,3,2.4,5,2.4c0,0,0,0,0,0c1.1,0,2-0.2,2.9-0.7
		c1.3-0.7,2.3-1.8,3-3.1c0.7-1.3,1-2.9,1-4.6c0-2.2-0.6-4.2-1.8-5.7c-0.6-0.8-1.3-1.4-2.2-1.8c-0.9-0.4-1.8-0.7-2.9-0.7
		c0,0-0.1,0-0.1,0c-1.1,0-2,0.3-2.9,0.7c-0.7,0.4-1.4,0.9-1.9,1.6c0.1-1.6,0.3-3.5,1.1-4.9c0.4-0.7,0.9-1.3,1.5-1.8
		c0.7-0.4,1.5-0.7,2.8-0.7c0.9,0,1.6,0.2,2.2,0.5c0.9,0.5,1.5,1.2,1.8,1.8c0.2,0.3,0.3,0.6,0.4,0.8c0,0.1,0.1,0.2,0.1,0.2
		c0,0,0,0,0,0l0,0l2-0.8c0-0.1-0.4-1.2-1.4-2.4c-0.5-0.6-1.2-1.2-2-1.7c-0.9-0.5-1.9-0.8-3.1-0.8c0,0,0,0,0,0
		c-1.5,0-2.8,0.4-3.9,1.1c-0.8,0.5-1.4,1.2-1.9,1.9c-0.7,1.1-1.1,2.3-1.4,3.5c-0.3,1.2-0.3,2.4-0.4,3.4c0,0.7,0,1.4,0,2
		C159.2,226,159.4,228.1,159.4,228.4z M162.9,223.2c0.4-0.6,0.9-1,1.5-1.3c0.6-0.3,1.2-0.5,1.9-0.5c0,0,0,0,0.1,0
		c0.8,0,1.4,0.2,2,0.4c0.8,0.4,1.5,1.1,2,2.1c0.5,0.9,0.8,2.1,0.7,3.4c0,1.7-0.5,3.3-1.3,4.4c-0.4,0.5-0.9,1-1.5,1.3
		c-0.6,0.3-1.2,0.5-2,0.5c-1.4,0-2.5-0.6-3.4-1.6c-0.8-1-1.3-2.5-1.3-4.2C161.6,225.9,162,224.3,162.9,223.2z"/>
</g>
</svg>
