<?xml version="1.0" encoding="utf-8"?>
<!-- Generator: Adobe Illustrator 23.0.4, SVG Export Plug-In . SVG Version: 6.00 Build 0)  -->
<svg version="1.1" id="Layer_1" xmlns="http://www.w3.org/2000/svg" xmlns:xlink="http://www.w3.org/1999/xlink" x="0px" y="0px"
	 viewBox="0 0 179.6 250.4" style="enable-background:new 0 0 179.6 250.4;" xml:space="preserve">
<style type="text/css">
	.st0{fill:#F4F4F2;stroke:#000000;}
	.st1{fill:#E44145;}
</style>
<g>
	<path class="st0" d="M179.1,235.8c0,7.8-6.3,14.2-14.2,14.2H14.7c-7.8,0-14.2-6.3-14.2-14.2V14.7c0-7.8,6.3-14.2,14.2-14.2h150.2
		c7.8,0,14.2,6.3,14.2,14.2V235.8z"/>
	<path class="st1" d="M13.3,43c1.8,3.5,4.1,6.3,7.1,8.5c-2.9,2.2-5.3,5-7.1,8.5c-1.8-3.5-4.2-6.3-7.1-8.5
		C9.1,49.3,11.5,46.5,13.3,43L13.3,43z"/>
	<path class="st1" d="M166.3,190.4c1.8,3.5,4.1,6.3,7.1,8.5c-2.9,2.2-5.3,5-7.1,8.5c-1.8-3.5-4.2-6.3-7.1-8.5
		C162.2,196.7,164.5,193.9,166.3,190.4L166.3,190.4z"/>
	<path class="st1" d="M89,106.3c4.5,8.4,10.4,15.3,17.7,20.6c-7.3,5.3-13.2,12.2-17.7,20.5c-4.5-8.4-10.4-15.2-17.7-20.5
		C78.6,121.5,84.5,114.7,89,106.3L89,106.3z"/>
	<path class="st1" d="M18.7,36.5l-4.1-21.8l-2.2,0l0,0l-0.5,0L7.9,36.5H6.2l0,2.3h5.4l0-2.3H10l0.6-3.3l5.3,0l0.6,3.3h-1.7l0,2.3
		l5.5,0l0-2.3L18.7,36.5z M11.1,30.6l2.2-11.6l2.2,11.6L11.1,30.6z"/>
	<path class="st1" d="M160.9,214l4.1,21.8l2.2,0l0,0l0.5,0l4.1-21.8h1.7l0-2.3H168l0,2.3h1.6l-0.6,3.3l-5.3,0L163,214h1.7l0-2.3
		l-5.5,0l0,2.3L160.9,214z M168.4,219.8l-2.2,11.6l-2.2-11.6L168.4,219.8z"/>
</g>
</svg>
