<?xml version="1.0" encoding="utf-8"?>
<!-- Generator: Adobe Illustrator 23.0.4, SVG Export Plug-In . SVG Version: 6.00 Build 0)  -->
<svg version="1.1" id="Layer_1" xmlns="http://www.w3.org/2000/svg" xmlns:xlink="http://www.w3.org/1999/xlink" x="0px" y="0px"
	 viewBox="0 0 179.6 250.4" style="enable-background:new 0 0 179.6 250.4;" xml:space="preserve">
<style type="text/css">
	.st0{fill:#F4F4F2;stroke:#000000;}
	.st1{fill:#E44145;}
</style>
<g>
	<path class="st0" d="M179.1,235.8c0,7.8-6.3,14.2-14.2,14.2H14.7c-7.8,0-14.2-6.3-14.2-14.2V14.7c0-7.8,6.3-14.2,14.2-14.2h150.2
		c7.8,0,14.2,6.3,14.2,14.2V235.8z"/>
	<g>
		<path class="st1" d="M17.2,43.1c-1.2-0.4-3.2,0.3-3.9,3.1c-0.1,0.2-0.1,0.2-0.2,0c-1-2.9-2.7-3.5-3.9-3.1
			c-1.8,0.6-3.2,2.7-3.1,5.4c0,4.7,4.2,7,7.1,11.5c2.8-4.5,7.1-6.8,7.1-11.5C20.6,45.8,19,43.7,17.2,43.1z"/>
		<path class="st1" d="M13.3,60C13.2,60,13.2,60,13.3,60C13.2,60,13.2,60,13.3,60L13.3,60z"/>
	</g>
	<g>
		<path class="st1" d="M166.3,190.4c-2.8,4.5-7.1,6.8-7.1,11.5c-0.2,2.7,1.3,4.8,3.1,5.3c1.2,0.4,3.2-0.3,3.9-3.1
			c0.1-0.2,0.1-0.2,0.2,0c1,2.9,2.7,3.5,3.9,3.1c1.8-0.6,3.2-2.7,3.1-5.4C173.4,197.3,169.2,194.9,166.3,190.4z"/>
		<path class="st1" d="M166.3,190.4C166.3,190.4,166.3,190.4,166.3,190.4C166.4,190.4,166.4,190.4,166.3,190.4L166.3,190.4z"/>
	</g>
	<g>
		<path class="st1" d="M89.8,146.5C89.8,146.5,89.7,146.4,89.8,146.5C89.7,146.4,89.7,146.5,89.8,146.5L89.8,146.5z"/>
		<path class="st1" d="M99.7,104.2c-3.1-1-8,0.7-9.8,7.8c-0.1,0.4-0.3,0.4-0.4,0c-2.6-7.2-6.8-8.7-9.8-7.8c-4.4,1.4-8,6.7-7.7,13.4
			c0.1,11.7,10.6,17.6,17.6,28.8c7.1-11.2,17.7-17.1,17.7-28.8C108.1,110.8,104.3,105.6,99.7,104.2z"/>
	</g>
	<path class="st1" d="M18.7,36.5l-4.1-21.8l-2.2,0l0,0l-0.5,0L7.9,36.5H6.2l0,2.3h5.4l0-2.3H10l0.6-3.3l5.3,0l0.6,3.3l-1.7,0l0,2.3
		l5.5,0l0-2.3L18.7,36.5z M11.1,30.6l2.2-11.6l2.2,11.6L11.1,30.6z"/>
	<path class="st1" d="M160.9,214l4.1,21.8l2.2,0l0,0l0.5,0l4.1-21.8h1.7l0-2.3H168l0,2.3h1.6l-0.6,3.3l-5.3,0L163,214l1.7,0l0-2.3
		l-5.5,0l0,2.3H160.9z M168.4,219.8l-2.2,11.6l-2.2-11.6L168.4,219.8z"/>
</g>
</svg>
