<?xml version="1.0" encoding="utf-8"?>
<!-- Generator: Adobe Illustrator 23.0.4, SVG Export Plug-In . SVG Version: 6.00 Build 0)  -->
<svg version="1.1" id="Layer_1" xmlns="http://www.w3.org/2000/svg" xmlns:xlink="http://www.w3.org/1999/xlink" x="0px" y="0px"
	 viewBox="0 0 179.6 250.4" style="enable-background:new 0 0 179.6 250.4;" xml:space="preserve">
<style type="text/css">
	.st0{fill:#F4F4F2;stroke:#000000;}
	.st1{fill-rule:evenodd;clip-rule:evenodd;stroke:#000000;stroke-width:6.501800e-02;stroke-linejoin:round;}
	.st2{fill:none;}
	.st3{fill-rule:evenodd;clip-rule:evenodd;fill:none;stroke:#000000;stroke-width:1.5;stroke-linejoin:round;}
	.st4{fill-rule:evenodd;clip-rule:evenodd;stroke:#000000;stroke-width:0.455;stroke-linejoin:round;}
	.st5{fill-rule:evenodd;clip-rule:evenodd;stroke:#000000;stroke-width:0.3458;stroke-linejoin:round;}
	.st6{fill-rule:evenodd;clip-rule:evenodd;stroke:#000000;stroke-width:0.2628;stroke-linejoin:round;}
	.st7{stroke:#000000;stroke-width:0.1007;stroke-linecap:round;stroke-linejoin:round;}
	.st8{stroke:#000000;stroke-width:5.033000e-02;stroke-linecap:round;stroke-linejoin:round;}
	.st9{stroke:#000000;stroke-width:2.437500e-02;stroke-linecap:round;stroke-linejoin:round;}
	.st10{fill-rule:evenodd;clip-rule:evenodd;stroke:#000000;stroke-width:0.1971;stroke-linejoin:round;}
	.st11{fill-rule:evenodd;clip-rule:evenodd;stroke:#000000;stroke-width:2.463800e-02;stroke-linejoin:round;}
	.st12{fill-rule:evenodd;clip-rule:evenodd;stroke:#000000;stroke-width:3.942100e-02;stroke-linejoin:round;}
	.st13{stroke:#000000;stroke-width:3.271500e-02;stroke-linecap:round;stroke-linejoin:round;}
</style>
<g>
	<path class="st0" d="M179.1,235.8c0,7.8-6.3,14.2-14.2,14.2H14.7c-7.8,0-14.2-6.3-14.2-14.2V14.7c0-7.8,6.3-14.2,14.2-14.2h150.2
		c7.8,0,14.2,6.3,14.2,14.2V235.8z"/>
	<path class="st1" d="M13.2,43c0,0-0.1,0-0.1,0.1c-3,1.9-6.6,5.7-6.9,10.4c-0.2,2.2,1.3,3.8,3.1,3.8c1.2,0,2.1-0.4,2.7-1.2
		c0.4-0.7,0.5-1.7,0.6-1.2c0.2,1.8-0.5,3.6-0.9,5.1c0.5-0.2,1-0.3,1.6-0.3h0c0.6,0,1.2,0.1,1.6,0.3c-0.4-1.5-1.2-3.3-0.9-5.1
		c0.1-0.5,0.2,0.6,0.6,1.2c0.5,0.8,1.5,1.2,2.7,1.2c1.9,0,3.3-1.6,3.1-3.8c-0.4-4.7-3.9-8.5-6.9-10.4C13.4,43.1,13.3,43.1,13.2,43
		L13.2,43z"/>
	<path class="st1" d="M166.3,207.4c0,0-0.1,0-0.1-0.1c-3-1.9-6.6-5.7-6.9-10.4c-0.2-2.2,1.3-3.8,3.1-3.8c1.2,0,2.1,0.4,2.7,1.2
		c0.4,0.7,0.5,1.7,0.6,1.2c0.2-1.8-0.5-3.6-0.9-5.1c0.5,0.2,1,0.3,1.6,0.3h0c0.6,0,1.2-0.1,1.6-0.3c-0.4,1.5-1.2,3.3-0.9,5.1
		c0.1,0.5,0.2-0.6,0.6-1.2c0.5-0.8,1.5-1.2,2.7-1.2c1.9,0,3.3,1.6,3.1,3.8c-0.4,4.7-3.9,8.5-6.9,10.4
		C166.4,207.4,166.4,207.4,166.3,207.4L166.3,207.4z"/>
	<g>
		<polygon class="st2" points="164.2,219.8 168.5,219.8 166.4,231.4 		"/>
		<path d="M173.4,214l0-2.3l-5.5,0l0,2.3l1.7,0l-0.6,3.3l-5.3,0l-0.6-3.3h1.6l0-2.3h-5.4l0,2.3h1.7l4.1,21.8l0.5,0l0,0l2.2,0
			l4.1-21.8L173.4,214z M168.5,219.8l-2.2,11.6l-2.2-11.6L168.5,219.8z"/>
	</g>
	<g>
		<polygon class="st2" points="11.1,30.6 15.5,30.6 13.3,19.1 		"/>
		<path d="M18.7,36.5l-4.1-21.8l-2.2,0l0,0l-0.5,0L7.9,36.5l-1.7,0l0,2.3h5.4l0-2.3H10l0.6-3.3l5.3,0l0.6,3.3l-1.7,0l0,2.3l5.5,0
			l0-2.3H18.7z M11.1,30.6l2.2-11.6l2.2,11.6L11.1,30.6z"/>
	</g>
	<path class="st3" d="M89.7,70.2c-0.2,0.1-0.3,0.2-0.5,0.4C75.1,81,58.6,101.4,56.9,126.8c-0.8,12.1,5.8,20.5,14.4,20.7
		c5.5,0.1,9.9-2.2,12.3-6.5c2-3.6,2.5-9.2,2.8-6.6c1.2,9.8-2.4,19.2-4.3,27.4c2.1-0.9,4.8-1.4,7.5-1.4h0c2.7,0,5.3,0.5,7.5,1.4
		c-1.9-8.2-5.4-17.6-4.3-27.4c0.3-2.6,0.8,3,2.8,6.6c2.4,4.3,6.8,6.6,12.3,6.5c8.6-0.2,15.2-8.6,14.4-20.7
		c-1.7-25.4-18.1-45.8-32.2-56.3c-0.2-0.1-0.3-0.2-0.5-0.4H89.7z"/>
	<path d="M66.5,132.8c0-0.2,0-0.4,0-0.6l0,0c0-4.8,3.7-8.8,8.5-9.1l0,0c0.3,0,0.5,0,0.7,0l0,0c5.9,0,10.8,4.6,11.2,10.5l0,0h0
		c0,0.3-0.2,0.5-0.5,0.5l0,0c-0.3,0-0.5-0.2-0.5-0.5l0,0c-0.4-5.4-4.9-9.6-10.2-9.6l0,0c-0.2,0-0.5,0-0.7,0l0,0
		c-4.3,0.3-7.6,3.8-7.6,8.1l0,0c0,0.2,0,0.4,0,0.5l0,0c0.2,3.4,3,6,6.4,6l0,0c0.1,0,0.3,0,0.4,0l0,0c2.6-0.2,4.7-2.4,4.7-5l0,0
		c0-0.1,0-0.2,0-0.3l0,0c-0.1-2.1-1.9-3.6-3.9-3.6l0,0c-0.1,0-0.2,0-0.3,0l0,0c-1.6,0.1-2.8,1.4-2.8,3l0,0c0,0.1,0,0.1,0,0.2l0,0
		c0.1,1.2,1.1,2.2,2.3,2.2l0,0c0,0,0.1,0,0.2,0l0,0c0.9-0.1,1.6-0.8,1.6-1.7l0,0c0,0,0-0.1,0-0.1l0,0c0-0.7-0.6-1.2-1.3-1.2l0,0
		c0,0-0.1,0-0.1,0l0,0c-0.5,0-0.9,0.4-0.9,0.9l0,0c0,0,0,0,0,0.1l0,0c0,0.3-0.2,0.5-0.5,0.5l0,0c-0.3,0-0.5-0.2-0.5-0.5l0,0
		c0-0.1,0-0.1,0-0.1l0,0c0-1,0.8-1.9,1.8-1.9l0,0c0.1,0,0.1,0,0.2,0l0,0c1.2,0,2.2,0.9,2.3,2.2l0,0c0,0.1,0,0.1,0,0.2l0,0
		c0,1.4-1.1,2.6-2.6,2.7l0,0c-0.1,0-0.1,0-0.2,0l0,0c-1.7,0-3.2-1.3-3.3-3.1l0,0c0-0.1,0-0.2,0-0.3l0,0c0-2.1,1.6-3.9,3.7-4l0,0
		c0.1,0,0.2,0,0.3,0l0,0c2.6,0,4.7,2,4.9,4.6l0,0c0,0.1,0,0.3,0,0.4l0,0c0,3.1-2.4,5.8-5.6,6l0,0c-0.2,0-0.3,0-0.5,0l0,0
		C70,139.7,66.7,136.7,66.5,132.8L66.5,132.8z"/>
	<path d="M105.2,139.7c-3.2-0.2-5.6-2.8-5.6-6l0,0c0-0.1,0-0.3,0-0.4l0,0c0.2-2.6,2.3-4.6,4.9-4.6l0,0c0.1,0,0.2,0,0.3,0l0,0
		c2.1,0.1,3.8,1.9,3.8,4l0,0c0,0.1,0,0.2,0,0.3l0,0c-0.1,1.8-1.6,3.1-3.3,3.1l0,0c-0.1,0-0.1,0-0.2,0l0,0c-1.5-0.1-2.6-1.3-2.6-2.7
		l0,0c0-0.1,0-0.1,0-0.2l0,0c0.1-1.2,1.1-2.2,2.3-2.2l0,0c0,0,0.1,0,0.2,0l0,0c1,0.1,1.8,0.9,1.8,1.9l0,0c0,0,0,0.1,0,0.1l0,0
		c0,0.3-0.2,0.5-0.5,0.5l0,0c-0.3,0-0.5-0.2-0.5-0.5l0,0c0,0,0-0.1,0-0.1l0,0c0-0.5-0.4-0.9-0.9-0.9l0,0c0,0,0,0-0.1,0l0,0
		c-0.7,0-1.3,0.5-1.3,1.2l0,0c0,0,0,0.1,0,0.1l0,0c0,0.9,0.7,1.7,1.6,1.7l0,0c0.1,0,0.1,0,0.2,0l0,0c1.2,0,2.2-0.9,2.3-2.2l0,0
		c0-0.1,0-0.1,0-0.2l0,0c0-1.6-1.2-2.9-2.8-3l0,0c-0.1,0-0.2,0-0.2,0l0,0c-2,0-3.7,1.6-3.9,3.7l0,0c0,0.1,0,0.2,0,0.3l0,0
		c0,2.6,2,4.8,4.7,5l0,0c0.1,0,0.3,0,0.4,0l0,0c3.3,0,6.1-2.6,6.3-6l0,0c0-0.2,0-0.4,0-0.5l0,0c0-4.2-3.3-7.8-7.6-8.1l0,0
		c-0.2,0-0.5,0-0.7,0l0,0c-5.3,0-9.8,4.2-10.2,9.6l0,0v0c0,0.3-0.3,0.5-0.5,0.5l0,0c-0.3,0-0.5-0.3-0.5-0.5l0,0
		c0.4-5.9,5.3-10.5,11.2-10.5l0,0c0.2,0,0.5,0,0.7,0l0,0c4.8,0.3,8.5,4.3,8.5,9.1l0,0c0,0.2,0,0.4,0,0.6l0,0
		c-0.3,3.9-3.5,6.9-7.3,6.9l0,0C105.5,139.7,105.4,139.7,105.2,139.7L105.2,139.7z"/>
	<path d="M89.8,138c-0.1,0-0.3-0.1-0.4-0.1l0,0c-0.1-0.1-0.1-0.2-0.1-0.4l0,0c0-0.1,0-0.2,0-0.2l0,0c-0.1-1.8-1.6-3.8-2.4-4.6l0,0
		c-0.3-0.3-0.4-0.5-0.4-0.5l0,0c-0.1-0.1-0.2-0.3-0.1-0.5l0,0c0,0,0.9-3,1.7-6.1l0,0c0.5-2.2,0.9-4.5,1.4-6.5l0,0
		c-0.2-0.8-0.5-1.5-0.7-2l0,0c0,0,0-0.1,0-0.1l0,0c-1-2.5-3.4-4.1-6-4.1l0,0c-0.7,0-1.4,0.1-2.1,0.4l0,0c-2,0.7-3.3,2.6-3.3,4.7l0,0
		c0,0.5,0.1,1.1,0.3,1.6l0,0c0.6,1.6,2,2.6,3.6,2.6l0,0c0.4,0,0.9-0.1,1.3-0.2l0,0c1.2-0.4,2-1.6,2-2.8l0,0c0-0.3-0.1-0.7-0.2-1l0,0
		c-0.3-0.9-1.2-1.5-2.2-1.5l0,0c-0.3,0-0.5,0-0.8,0.1l0,0c-0.7,0.2-1.2,0.9-1.2,1.6l0,0c0,0.2,0,0.4,0.1,0.6l0,0
		c0.2,0.5,0.7,0.9,1.2,0.9l0,0c0.1,0,0.3,0,0.4-0.1l0,0c0.4-0.1,0.6-0.5,0.6-0.9l0,0c0-0.1,0-0.2-0.1-0.3l0,0
		c-0.1-0.3-0.3-0.4-0.6-0.4l0,0c-0.1,0-0.1,0-0.2,0l0,0c-0.2,0.1-0.3,0.2-0.3,0.4l0,0c0,0,0,0.1,0,0.1l0,0v0c0.1,0.3,0,0.5-0.3,0.6
		l0,0c-0.3,0.1-0.5,0-0.6-0.3l0,0c-0.1-0.2-0.1-0.3-0.1-0.5l0,0c0-0.6,0.4-1.1,0.9-1.3l0,0c0.2-0.1,0.4-0.1,0.5-0.1l0,0
		c0.7,0,1.3,0.4,1.5,1.1l0,0c0.1,0.2,0.1,0.4,0.1,0.6l0,0c0,0.8-0.5,1.5-1.3,1.8l0,0c-0.3,0.1-0.5,0.1-0.8,0.1l0,0
		c-0.9,0-1.8-0.6-2.2-1.5l0,0c-0.1-0.3-0.2-0.6-0.2-0.9l0,0c0-1.1,0.7-2.2,1.8-2.6l0,0c0.4-0.1,0.7-0.2,1.1-0.2l0,0
		c1.4,0,2.6,0.8,3.1,2.2l0,0c0.2,0.4,0.2,0.9,0.2,1.3l0,0c0,1.6-1,3.2-2.7,3.8l0,0c-0.5,0.2-1.1,0.3-1.6,0.3l0,0
		c-2,0-3.9-1.3-4.6-3.2l0,0c-0.2-0.7-0.3-1.3-0.3-2l0,0c0-2.5,1.5-4.8,4-5.6l0,0c0.8-0.3,1.6-0.4,2.4-0.4l0,0c3,0,5.8,1.9,6.9,4.9
		l0,0c0,0,0,0,0,0.1l0,0c0.1,0.2,0.2,0.5,0.3,0.7l0,0c0.1-0.3,0.2-0.6,0.4-0.8l0,0c1.5-2.8,4.1-4.8,7-4.8l0,0c0.7,0,1.5,0.1,2.3,0.4
		l0,0c2.4,0.9,4,3.2,4,5.6l0,0c0,0.7-0.1,1.3-0.3,2l0,0c-0.7,2-2.6,3.2-4.6,3.2l0,0c-0.5,0-1.1-0.1-1.6-0.3l0,0
		c-1.6-0.6-2.7-2.1-2.7-3.8l0,0c0-0.4,0.1-0.9,0.2-1.3l0,0c0.5-1.4,1.7-2.2,3.1-2.2l0,0c0.4,0,0.7,0.1,1.1,0.2l0,0
		c1.1,0.4,1.8,1.4,1.8,2.6l0,0c0,0.3-0.1,0.6-0.2,0.9l0,0c-0.3,0.9-1.2,1.5-2.2,1.5l0,0c-0.3,0-0.5,0-0.8-0.1l0,0
		c-0.8-0.3-1.3-1-1.3-1.8l0,0c0-0.2,0-0.4,0.1-0.6l0,0c0.2-0.7,0.9-1.1,1.5-1.1l0,0c0.2,0,0.4,0,0.5,0.1l0,0
		c0.6,0.2,0.9,0.7,0.9,1.3l0,0c0,0.2,0,0.3-0.1,0.5l0,0c-0.1,0.3-0.4,0.4-0.6,0.3l0,0c-0.3-0.1-0.4-0.4-0.3-0.6l0,0
		c0-0.1,0-0.1,0-0.1l0,0c0-0.2-0.1-0.3-0.3-0.4l0,0c-0.1,0-0.1,0-0.2,0l0,0c-0.3,0-0.5,0.2-0.6,0.4l0,0c0,0.1-0.1,0.2-0.1,0.3l0,0
		c0,0.4,0.2,0.7,0.6,0.9l0,0c0.1,0,0.3,0.1,0.4,0.1l0,0c0.5,0,1-0.3,1.2-0.9l0,0c0.1-0.2,0.1-0.4,0.1-0.6l0,0c0-0.7-0.4-1.4-1.2-1.6
		l0,0c-0.3-0.1-0.5-0.1-0.8-0.1l0,0c-0.9,0-1.8,0.6-2.2,1.5l0,0c-0.1,0.3-0.2,0.7-0.2,1l0,0c0,1.2,0.8,2.4,2,2.8l0,0
		c0.4,0.1,0.9,0.2,1.3,0.2l0,0c1.6,0,3.1-1,3.6-2.6l0,0c0.2-0.5,0.3-1.1,0.3-1.6l0,0c0-2-1.3-4-3.3-4.7l0,0
		c-0.7-0.2-1.3-0.3-1.9-0.3l0,0c-2.5,0-4.8,1.7-6.1,4.3l0,0c-0.3,0.5-0.5,1.2-0.8,2l0,0c0.5,2,1,4.3,1.5,6.5l0,0
		c0.7,3,1.6,5.8,1.6,6.1l0,0c0.1,0.2,0,0.4-0.1,0.6l0,0c0,0-0.2,0.2-0.5,0.5l0,0c-0.3,0.3-0.7,0.7-1.1,1.2l0,0
		c-0.7,1-1.4,2.2-1.5,3.4l0,0c0,0.1,0,0.2,0,0.2l0,0c0,0.1-0.1,0.3-0.1,0.4l0,0C90,137.9,89.9,138,89.8,138L89.8,138L89.8,138
		L89.8,138z M89.8,135.3c0.7-1.7,2.1-3.1,2.6-3.6l0,0c-0.3-0.8-1-3.3-1.6-5.9l0,0c-0.3-1.6-0.7-3.1-1-4.6l0,0
		c-0.3,1.5-0.6,3.1-1,4.6l0,0c-0.6,2.6-1.3,5.1-1.6,5.9l0,0C87.8,132.2,89.1,133.5,89.8,135.3L89.8,135.3z"/>
	<path d="M99.4,98.6c-1.8,0-3.6-0.6-5-2l0,0c-1.3-1.2-2-2.8-2-4.5l0,0c0-1.5,0.5-2.9,1.6-4.1l0,0c1-1.1,2.3-1.6,3.6-1.6l0,0
		c1.2,0,2.4,0.4,3.3,1.3l0,0c0.9,0.8,1.3,1.9,1.3,3l0,0c0,1-0.4,2-1.1,2.7l0,0c-0.7,0.7-1.6,1.1-2.5,1.1l0,0c-0.8,0-1.6-0.3-2.3-0.9
		l0,0c-0.6-0.5-0.9-1.3-0.9-2l0,0c0-0.7,0.2-1.3,0.7-1.9l0,0c0.5-0.5,1.1-0.8,1.7-0.8l0,0c0.6,0,1.1,0.2,1.6,0.6l0,0
		c0.4,0.4,0.6,0.9,0.6,1.4l0,0c0,0.5-0.2,0.9-0.5,1.3l0,0c-0.3,0.4-0.8,0.5-1.2,0.5l0,0c-0.4,0-0.8-0.1-1.1-0.4l0,0
		c-0.2-0.2-0.2-0.5,0-0.7l0,0c0.2-0.2,0.5-0.2,0.7,0l0,0c0.1,0.1,0.3,0.2,0.4,0.2l0,0c0.2,0,0.4-0.1,0.5-0.2l0,0
		c0.2-0.2,0.3-0.4,0.3-0.6l0,0c0-0.3-0.1-0.5-0.3-0.7l0,0c-0.3-0.2-0.6-0.3-0.9-0.3l0,0c-0.4,0-0.7,0.1-1,0.4l0,0
		c-0.3,0.3-0.5,0.8-0.5,1.2l0,0c0,0.5,0.2,1,0.6,1.3l0,0c0.4,0.4,1,0.6,1.6,0.6l0,0c0.6,0,1.3-0.3,1.7-0.8l0,0
		c0.5-0.6,0.8-1.3,0.8-2.1l0,0c0-0.8-0.3-1.6-1-2.3l0,0c-0.8-0.7-1.7-1-2.7-1l0,0c-1.1,0-2.1,0.4-2.9,1.3l0,0
		c-0.9,1-1.3,2.2-1.3,3.4l0,0c0,1.4,0.6,2.7,1.6,3.7l0,0c1.2,1.1,2.8,1.7,4.4,1.7l0,0c1.7,0,3.5-0.7,4.8-2.1l0,0
		c1.4-1.6,2.1-3.5,2.1-5.5l0,0c0-2.2-0.9-4.4-2.6-6l0,0v0c-0.2-0.2-0.2-0.5,0-0.7l0,0c0.2-0.2,0.5-0.2,0.7,0l0,0c2,1.8,3,4.3,3,6.8
		l0,0c0,2.2-0.8,4.4-2.4,6.2l0,0C103.4,97.8,101.4,98.6,99.4,98.6L99.4,98.6C99.4,98.6,99.4,98.6,99.4,98.6L99.4,98.6z"/>
	<path d="M74.5,96.2c-1.6-1.8-2.4-4-2.4-6.2l0,0c0-2.5,1-5,3-6.8l0,0h0c0.2-0.2,0.5-0.2,0.7,0l0,0c0.2,0.2,0.2,0.5,0,0.7l0,0
		c-1.8,1.6-2.7,3.8-2.7,6l0,0c0,2,0.7,4,2.2,5.5l0,0c1.3,1.4,3,2.1,4.8,2.1l0,0c1.6,0,3.1-0.6,4.4-1.7l0,0c1.1-1,1.6-2.4,1.6-3.7
		l0,0c0-1.2-0.4-2.4-1.3-3.4l0,0c-0.8-0.8-1.8-1.3-2.9-1.3l0,0c-1,0-1.9,0.3-2.7,1l0,0c-0.7,0.6-1,1.4-1,2.3l0,0
		c0,0.7,0.3,1.5,0.8,2.1l0,0c0.5,0.5,1.1,0.8,1.7,0.8l0,0c0.6,0,1.1-0.2,1.6-0.6l0,0c0.4-0.4,0.6-0.8,0.6-1.3l0,0
		c0-0.4-0.2-0.9-0.5-1.2l0,0c-0.3-0.3-0.6-0.4-1-0.4l0,0c-0.3,0-0.6,0.1-0.9,0.3l0,0c-0.2,0.2-0.3,0.4-0.3,0.7l0,0
		c0,0.2,0.1,0.5,0.3,0.6l0,0c0.1,0.1,0.3,0.2,0.5,0.2l0,0c0.2,0,0.3-0.1,0.5-0.2l0,0c0.2-0.2,0.5-0.2,0.7,0l0,0
		c0.2,0.2,0.2,0.5,0,0.7l0,0c-0.3,0.3-0.7,0.4-1.1,0.4l0,0c-0.4,0-0.9-0.2-1.2-0.5l0,0c-0.3-0.4-0.5-0.9-0.5-1.3l0,0
		c0-0.5,0.2-1.1,0.6-1.4l0,0c0.4-0.4,1-0.6,1.6-0.6l0,0c0.6,0,1.3,0.3,1.7,0.8l0,0c0.5,0.5,0.7,1.2,0.7,1.9l0,0c0,0.8-0.3,1.5-0.9,2
		l0,0c-0.6,0.6-1.5,0.9-2.3,0.9l0,0c-0.9,0-1.8-0.4-2.5-1.1l0,0c-0.7-0.8-1.1-1.8-1.1-2.7l0,0c0-1.1,0.4-2.2,1.3-3l0,0
		c0.9-0.9,2.2-1.3,3.3-1.3l0,0c1.3,0,2.7,0.5,3.6,1.6l0,0c1.1,1.2,1.6,2.6,1.6,4.1l0,0c0,1.6-0.7,3.3-2,4.5l0,0c-1.4,1.3-3.2,2-5,2
		l0,0C78,98.6,76,97.8,74.5,96.2L74.5,96.2z"/>
	<path d="M71.8,113.2c-2.4-0.8-3.9-3-3.9-5.4l0,0c0-0.6,0.1-1.2,0.3-1.8l0,0c0.6-1.9,2.4-3.2,4.4-3.2l0,0c0.5,0,1,0.1,1.4,0.2l0,0
		c1.6,0.5,2.6,2,2.6,3.6l0,0c0,0.4-0.1,0.8-0.2,1.2l0,0c-0.4,1.3-1.7,2.1-3,2.1l0,0c-0.3,0-0.7-0.1-1-0.2l0,0
		c-1.1-0.4-1.8-1.4-1.8-2.5l0,0c0-0.3,0-0.5,0.1-0.8l0,0c0.3-0.9,1.2-1.5,2.1-1.5l0,0c0.2,0,0.5,0,0.7,0.1l0,0
		c0.8,0.3,1.3,1,1.3,1.8l0,0c0,0.2,0,0.4-0.1,0.6l0,0c-0.1,0.3-0.4,0.4-0.6,0.3l0,0c-0.3-0.1-0.4-0.4-0.3-0.6l0,0c0-0.1,0-0.2,0-0.3
		l0,0c0-0.4-0.2-0.7-0.6-0.8l0,0c-0.1,0-0.2-0.1-0.4-0.1l0,0c-0.5,0-1,0.3-1.1,0.8l0,0c-0.1,0.2-0.1,0.3-0.1,0.5l0,0
		c0,0.7,0.4,1.3,1.1,1.5l0,0c0.2,0.1,0.4,0.1,0.7,0.1l0,0c0.9,0,1.7-0.6,2-1.5l0,0c0.1-0.3,0.1-0.6,0.1-0.9l0,0
		c0-1.2-0.7-2.3-1.9-2.6l0,0c-0.4-0.1-0.8-0.2-1.1-0.2l0,0c-1.5,0-2.9,1-3.4,2.5l0,0c-0.2,0.5-0.2,1-0.2,1.5l0,0
		c0,1.9,1.2,3.8,3.2,4.4l0,0c0.6,0.2,1.2,0.3,1.9,0.3l0,0c2.5,0,4.8-1.6,5.6-4.1l0,0c0.3-0.8,0.4-1.6,0.4-2.4l0,0
		c0-3.2-2-6.1-5.2-7.1l0,0c-1-0.3-2-0.5-3-0.5l0,0c-4,0-7.7,2.5-9.1,6.5l0,0h0c-0.1,0.3-0.4,0.4-0.6,0.3l0,0
		c-0.3-0.1-0.4-0.4-0.3-0.6l0,0c1.5-4.4,5.6-7.2,10-7.2l0,0c1.1,0,2.2,0.2,3.3,0.5l0,0c3.6,1.2,5.9,4.5,5.9,8.1l0,0
		c0,0.9-0.1,1.8-0.4,2.7l0,0c-1,2.9-3.7,4.8-6.6,4.8l0,0C73.3,113.5,72.5,113.4,71.8,113.2L71.8,113.2z"/>
	<path d="M99,108.8c-0.3-0.9-0.4-1.8-0.4-2.7l0,0c0-3.6,2.3-6.9,5.8-8.1l0,0c1.1-0.4,2.2-0.5,3.3-0.5l0,0c4.4,0,8.5,2.8,10,7.2l0,0
		c0.1,0.3-0.1,0.5-0.3,0.6l0,0c-0.3,0.1-0.5-0.1-0.6-0.3l0,0c-1.3-4-5-6.5-9-6.5l0,0c-1,0-2,0.2-3,0.5l0,0c-3.2,1-5.2,4-5.2,7.1l0,0
		c0,0.8,0.1,1.6,0.4,2.4l0,0c0.8,2.5,3.1,4.1,5.6,4.1l0,0c0.6,0,1.2-0.1,1.9-0.3l0,0c1.9-0.6,3.2-2.5,3.2-4.4l0,0
		c0-0.5-0.1-1-0.2-1.5l0,0c-0.5-1.5-1.9-2.5-3.4-2.5l0,0c-0.4,0-0.8,0.1-1.1,0.2l0,0c-1.2,0.4-1.9,1.5-1.9,2.6l0,0
		c0,0.3,0,0.6,0.1,0.9l0,0c0.3,0.9,1.1,1.5,2,1.5l0,0c0.2,0,0.4,0,0.7-0.1l0,0c0.7-0.2,1.1-0.8,1.1-1.5l0,0c0-0.2,0-0.3-0.1-0.5l0,0
		c-0.2-0.5-0.6-0.8-1.1-0.8l0,0c-0.1,0-0.2,0-0.4,0.1l0,0c-0.4,0.1-0.6,0.4-0.6,0.8l0,0c0,0.1,0,0.2,0,0.3l0,0
		c0.1,0.3-0.1,0.5-0.3,0.6l0,0c-0.3,0.1-0.5-0.1-0.6-0.3l0,0c-0.1-0.2-0.1-0.4-0.1-0.6l0,0c0-0.8,0.5-1.5,1.3-1.8l0,0
		c0.2-0.1,0.5-0.1,0.7-0.1l0,0c0.9,0,1.8,0.6,2.1,1.5l0,0c0.1,0.3,0.1,0.5,0.1,0.8l0,0c0,1.1-0.7,2.1-1.8,2.5l0,0
		c-0.3,0.1-0.7,0.2-1,0.2l0,0c-1.3,0-2.5-0.8-3-2.1l0,0c-0.1-0.4-0.2-0.8-0.2-1.2l0,0c0-1.6,1-3.1,2.6-3.6l0,0
		c0.5-0.2,1-0.2,1.4-0.2l0,0c1.9,0,3.7,1.2,4.4,3.2l0,0c0.2,0.6,0.3,1.2,0.3,1.8l0,0c0,2.4-1.5,4.6-3.9,5.4l0,0
		c-0.7,0.2-1.4,0.3-2.2,0.3l0,0C102.7,113.5,100,111.7,99,108.8L99,108.8z"/>
	<g>
		<path d="M96.1,171.8c-0.5,0-1-0.1-1.6-0.3l0,0c-1.6-0.6-2.5-2-2.5-3.6l0,0c0-0.4,0.1-0.9,0.2-1.3l0,0c0.5-1.3,1.7-2.1,3-2.1l0,0
			c0.4,0,0.7,0.1,1.1,0.2l0,0c1.1,0.4,1.7,1.4,1.7,2.5l0,0c0,0.3,0,0.6-0.2,0.9l0,0c-0.3,0.9-1.2,1.5-2.1,1.5l0,0
			c-0.2,0-0.5,0-0.7-0.1l0,0c-0.8-0.3-1.2-1-1.2-1.7l0,0c0-0.2,0-0.4,0.1-0.6l0,0c0.2-0.6,0.8-1,1.5-1l0,0c0.2,0,0.4,0,0.5,0.1l0,0
			c0.6,0.2,0.9,0.7,0.9,1.3l0,0c0,0.2,0,0.3-0.1,0.5l0,0c-0.1,0.2-0.2,0.4-0.4,0.6l0,0c0.3-0.1,0.5-0.4,0.6-0.7l0,0
			c0.1-0.2,0.1-0.4,0.1-0.5l0,0c0-0.7-0.4-1.3-1.1-1.5l0,0c-0.2-0.1-0.5-0.1-0.7-0.1l0,0c-0.9,0-1.7,0.5-2,1.4l0,0
			c-0.1,0.3-0.2,0.6-0.2,0.9l0,0c0,1.1,0.7,2.2,1.9,2.6l0,0c0.4,0.1,0.8,0.2,1.2,0.2l0,0c1.5,0,2.9-0.9,3.4-2.4l0,0
			c0.2-0.5,0.3-1.1,0.3-1.6l0,0c0-1.9-1.2-3.7-3.1-4.4l0,0h0c-0.3-0.1-0.4-0.4-0.3-0.6l0,0c0.1-0.3,0.4-0.4,0.6-0.3l0,0
			c2.3,0.8,3.8,3,3.8,5.3l0,0c0,0.6-0.1,1.3-0.3,1.9l0,0C99.8,170.6,98,171.8,96.1,171.8L96.1,171.8
			C96.1,171.8,96.1,171.8,96.1,171.8L96.1,171.8z M94.9,167.4c0,0.1,0,0.2,0,0.3l0,0c0,0.1,0,0.3,0.1,0.4l0,0c0-0.1,0-0.1,0-0.2l0,0
			c0.1-0.3,0.4-0.4,0.6-0.3l0,0c0,0,0,0,0.1,0l0,0c0.1,0,0.2,0,0.2-0.1l0,0c0,0,0-0.1,0-0.1l0,0c0-0.2-0.1-0.3-0.2-0.3l0,0
			c-0.1,0-0.1,0-0.2,0l0,0C95.2,167,95,167.2,94.9,167.4L94.9,167.4z"/>
		<path d="M101.9,164.7c-1.4,0-2.8-0.5-3.9-1.5l0,0l0,0c-0.2-0.2-0.2-0.5,0-0.7l0,0c0.2-0.2,0.5-0.2,0.7,0l0,0
			c0.9,0.9,2.1,1.3,3.2,1.3l0,0c1.2,0,2.5-0.5,3.4-1.5l0,0c0.7-0.7,1-1.6,1-2.5l0,0c0-1-0.4-1.9-1.1-2.6l0,0
			c-0.5-0.5-1.2-0.8-1.9-0.8l0,0c-0.7,0-1.5,0.3-2,0.9l0,0c-0.4,0.4-0.6,0.9-0.6,1.5l0,0c0,0.6,0.2,1.1,0.7,1.6l0,0
			c0.3,0.3,0.7,0.4,1.1,0.4l0,0c0.4,0,0.9-0.2,1.2-0.5l0,0c0.2-0.2,0.3-0.5,0.3-0.8l0,0c0,0.2-0.1,0.5-0.3,0.6l0,0
			c-0.3,0.3-0.6,0.4-1,0.4l0,0c-0.3,0-0.7-0.1-0.9-0.4l0,0c-0.3-0.3-0.5-0.7-0.5-1.2l0,0c0-0.4,0.1-0.8,0.4-1.1l0,0
			c0.4-0.4,0.9-0.6,1.4-0.6l0,0c0.5,0,0.9,0.2,1.3,0.5l0,0c0.5,0.4,0.7,1,0.7,1.6l0,0c0,0.5-0.2,1.1-0.6,1.5l0,0
			c-0.5,0.5-1.2,0.8-1.9,0.8l0,0c-0.6,0-1.3-0.2-1.8-0.7l0,0c-0.7-0.6-1-1.5-1-2.3l0,0c0-0.8,0.3-1.6,0.9-2.2l0,0
			c0.7-0.8,1.8-1.2,2.8-1.2l0,0c0.9,0,1.9,0.3,2.6,1l0,0c1,0.9,1.5,2.1,1.5,3.4l0,0c0,1.1-0.4,2.3-1.3,3.2l0,0
			C105,164.1,103.5,164.7,101.9,164.7L101.9,164.7C102,164.7,102,164.7,101.9,164.7L101.9,164.7z M102.3,158.6
			c-0.1,0.1-0.2,0.3-0.2,0.4l0,0c0,0.2,0.1,0.3,0.2,0.4l0,0c0.1,0.1,0.2,0.1,0.3,0.1l0,0c0.1,0,0.2,0,0.3-0.1l0,0
			c0,0,0.1-0.1,0.1-0.1l0,0c0-0.1,0-0.1-0.1-0.1l0,0c-0.2-0.2-0.2-0.5,0-0.7l0,0c0,0,0.1-0.1,0.1-0.1l0,0c0,0,0,0,0,0l0,0
			C102.7,158.3,102.5,158.4,102.3,158.6L102.3,158.6z"/>
		<path d="M108.6,169c-0.8,0-1.6-0.3-2.2-1l0,0c-0.4-0.5-0.7-1.1-0.7-1.7l0,0c0-0.7,0.3-1.3,0.8-1.8l0,0c0.4-0.4,0.9-0.6,1.4-0.6
			l0,0c0.6,0,1.1,0.2,1.5,0.7l0,0c0.3,0.3,0.5,0.8,0.5,1.2l0,0c0,0.5-0.2,1-0.6,1.3l0,0c-0.3,0.3-0.7,0.4-1,0.4l0,0
			c-0.4,0-0.8-0.2-1.1-0.5l0,0c-0.2-0.3-0.3-0.6-0.3-0.9l0,0c0-0.4,0.1-0.7,0.4-1l0,0c0.1,0,0.1-0.1,0.2-0.1l0,0
			c-0.1,0-0.2,0.1-0.3,0.2l0,0c-0.3,0.3-0.5,0.7-0.5,1.1l0,0c0,0.4,0.1,0.7,0.4,1l0,0c0.4,0.4,0.9,0.6,1.5,0.6l0,0
			c0.5,0,1-0.2,1.3-0.5l0,0c0.6-0.5,0.8-1.2,0.8-1.9l0,0c0-0.6-0.2-1.3-0.7-1.8l0,0c-0.7-0.7-1.6-1.1-2.5-1.1l0,0
			c-0.8,0-1.6,0.3-2.3,0.9l0,0l0,0c-0.2,0.2-0.5,0.2-0.7,0l0,0c-0.2-0.2-0.2-0.5,0-0.7l0,0c0.8-0.8,1.9-1.2,3-1.2l0,0
			c1.2,0,2.4,0.5,3.2,1.4l0,0c0.6,0.7,1,1.6,0.9,2.4l0,0c0,1-0.4,1.9-1.2,2.7l0,0C110,168.8,109.3,169,108.6,169L108.6,169
			C108.6,169,108.6,169,108.6,169L108.6,169z M108,166c-0.1,0.1-0.1,0.1-0.1,0.2l0,0c0,0.1,0,0.2,0.1,0.2l0,0c0,0,0.1,0,0.1,0.1l0,0
			c0-0.2,0-0.3,0.1-0.5l0,0c0,0,0,0,0,0l0,0c0,0,0,0,0,0l0,0c0,0-0.1,0-0.1,0l0,0C108,165.9,108,166,108,166L108,166z"/>
	</g>
	<g>
		<path d="M79,168.7c-0.2-0.6-0.3-1.3-0.3-1.9l0,0c0-2.3,1.4-4.5,3.8-5.3l0,0c0.3-0.1,0.5,0,0.6,0.3l0,0c0.1,0.3,0,0.5-0.3,0.6l0,0
			c-1.9,0.7-3.1,2.5-3.1,4.4l0,0c0,0.5,0.1,1.1,0.3,1.6l0,0c0.5,1.5,1.9,2.4,3.4,2.4l0,0c0.4,0,0.8-0.1,1.2-0.2l0,0
			c1.1-0.4,1.9-1.5,1.9-2.6l0,0c0-0.3-0.1-0.6-0.2-0.9l0,0c-0.3-0.9-1.1-1.4-2-1.4l0,0c-0.2,0-0.5,0-0.7,0.1l0,0
			c-0.7,0.2-1.1,0.9-1.1,1.5l0,0c0,0.2,0,0.4,0.1,0.5l0,0c0.1,0.3,0.3,0.5,0.6,0.7l0,0c-0.2-0.1-0.3-0.3-0.4-0.6l0,0
			c-0.1-0.2-0.1-0.3-0.1-0.5l0,0c0-0.6,0.3-1.1,0.9-1.3l0,0c0.2-0.1,0.4-0.1,0.5-0.1l0,0c0.7,0,1.3,0.4,1.5,1l0,0
			c0.1,0.2,0.1,0.4,0.1,0.6l0,0c0,0.8-0.5,1.5-1.2,1.7l0,0c-0.2,0.1-0.5,0.1-0.7,0.1l0,0c-0.9,0-1.7-0.6-2.1-1.5l0,0
			c-0.1-0.3-0.2-0.6-0.2-0.9l0,0c0-1.1,0.7-2.1,1.7-2.5l0,0c0.4-0.1,0.7-0.2,1.1-0.2l0,0c1.3,0,2.5,0.8,3,2.1l0,0
			c0.2,0.4,0.2,0.9,0.2,1.3l0,0c0,1.6-1,3-2.5,3.6l0,0c-0.5,0.2-1,0.3-1.6,0.3l0,0C81.5,171.8,79.7,170.6,79,168.7L79,168.7z
			 M84.6,167.9c0,0,0,0.1,0,0.2l0,0c0.1-0.1,0.1-0.3,0.1-0.4l0,0c0-0.1,0-0.2,0-0.3l0,0c-0.1-0.2-0.3-0.4-0.6-0.4l0,0
			c-0.1,0-0.1,0-0.2,0l0,0c-0.2,0.1-0.2,0.2-0.2,0.3l0,0c0,0,0,0.1,0,0.1l0,0c0,0.1,0.1,0.1,0.2,0.1l0,0c0,0,0,0,0.1,0l0,0
			c0.1,0,0.1,0,0.2,0l0,0C84.3,167.6,84.5,167.7,84.6,167.9L84.6,167.9z"/>
		<path d="M73.4,162.9c-0.8-0.9-1.3-2-1.3-3.2l0,0c0-1.2,0.5-2.5,1.5-3.4l0,0c0.7-0.7,1.7-1,2.6-1l0,0c1,0,2,0.4,2.8,1.2l0,0
			c0.6,0.6,0.9,1.4,0.9,2.2l0,0c0,0.8-0.3,1.7-1,2.3l0,0c-0.5,0.5-1.2,0.7-1.8,0.7l0,0c-0.7,0-1.4-0.3-1.9-0.8l0,0
			c-0.4-0.4-0.6-1-0.6-1.5l0,0c0-0.6,0.2-1.2,0.7-1.6l0,0c0.4-0.3,0.8-0.5,1.3-0.5l0,0c0.5,0,1,0.2,1.3,0.6l0,0
			c0.3,0.3,0.4,0.7,0.4,1.1l0,0c0,0.4-0.2,0.8-0.5,1.2l0,0c-0.3,0.2-0.6,0.4-0.9,0.4l0,0c-0.4,0-0.7-0.1-1-0.4l0,0
			c-0.2-0.2-0.3-0.4-0.3-0.6l0,0c0,0.3,0.1,0.6,0.3,0.8l0,0c0.3,0.3,0.7,0.5,1.2,0.5l0,0c0.4,0,0.8-0.1,1.1-0.4l0,0
			c0.4-0.4,0.7-1,0.7-1.6l0,0c0-0.5-0.2-1.1-0.6-1.5l0,0c-0.6-0.6-1.3-0.9-2-0.9l0,0c-0.7,0-1.4,0.3-1.9,0.8l0,0
			c-0.8,0.7-1.1,1.7-1.1,2.6l0,0c0,0.9,0.3,1.8,1,2.5l0,0c0.9,1,2.2,1.5,3.4,1.5l0,0c1.2,0,2.3-0.4,3.2-1.3l0,0v0
			c0.2-0.2,0.5-0.2,0.7,0l0,0c0.2,0.2,0.2,0.5,0,0.7l0,0c-1.1,1-2.5,1.5-3.9,1.5l0,0C76.1,164.7,74.6,164.1,73.4,162.9L73.4,162.9z
			 M76.7,158.4c0.2,0.2,0.2,0.5,0,0.7l0,0c0,0-0.1,0.1-0.1,0.1l0,0c0,0,0,0.1,0.1,0.1l0,0c0.1,0.1,0.2,0.1,0.3,0.1l0,0
			c0.1,0,0.2,0,0.2-0.1l0,0c0.1-0.1,0.2-0.3,0.2-0.4l0,0c0-0.1-0.1-0.3-0.2-0.4l0,0c-0.2-0.2-0.4-0.3-0.6-0.3l0,0c0,0,0,0,0,0l0,0
			C76.6,158.3,76.6,158.3,76.7,158.4L76.7,158.4z"/>
		<path d="M68.9,168.2c-0.8-0.7-1.2-1.7-1.2-2.7l0,0c0-0.9,0.3-1.7,0.9-2.4l0,0c0.9-0.9,2-1.4,3.2-1.4l0,0c1.1,0,2.1,0.4,3,1.2l0,0
			l0,0c0.2,0.2,0.2,0.5,0,0.7l0,0c-0.2,0.2-0.5,0.2-0.7,0l0,0c-0.7-0.6-1.5-0.9-2.3-0.9l0,0c-0.9,0-1.8,0.4-2.5,1.1l0,0
			c-0.5,0.5-0.7,1.1-0.7,1.8l0,0c0,0.7,0.3,1.4,0.8,1.9l0,0c0.4,0.3,0.9,0.5,1.3,0.5l0,0c0.5,0,1.1-0.2,1.5-0.6l0,0
			c0.3-0.3,0.4-0.6,0.4-1l0,0c0-0.4-0.2-0.8-0.5-1.1l0,0c-0.1-0.1-0.2-0.1-0.3-0.2l0,0c0.1,0,0.1,0.1,0.2,0.1l0,0
			c0.3,0.3,0.4,0.6,0.4,1l0,0c0,0.3-0.1,0.6-0.3,0.9l0,0c-0.3,0.3-0.7,0.5-1.1,0.5l0,0c-0.4,0-0.7-0.1-1-0.4l0,0
			c-0.4-0.3-0.6-0.8-0.6-1.3l0,0c0-0.4,0.2-0.9,0.5-1.2l0,0c0.4-0.4,1-0.7,1.5-0.7l0,0c0.5,0,1,0.2,1.4,0.6l0,0
			c0.5,0.5,0.8,1.2,0.8,1.8l0,0c0,0.6-0.2,1.2-0.7,1.7l0,0c-0.6,0.6-1.4,1-2.2,1l0,0C70.2,169,69.5,168.8,68.9,168.2L68.9,168.2z
			 M71.3,166C71.3,166,71.3,166,71.3,166L71.3,166C71.3,166,71.3,166,71.3,166L71.3,166c0.1,0.2,0.2,0.3,0.2,0.5l0,0
			c0,0,0.1,0,0.1-0.1l0,0c0.1-0.1,0.1-0.1,0.1-0.2l0,0c0-0.1,0-0.2-0.1-0.2l0,0c0,0-0.1,0-0.1,0l0,0C71.4,165.9,71.4,165.9,71.3,166
			L71.3,166z"/>
	</g>
	<g>
		<path d="M86,72c-1.5,0-3-0.6-4.1-1.8l0,0c-0.8-0.9-1.3-2-1.3-3.2l0,0c0-1.2,0.5-2.5,1.5-3.4l0,0c0.7-0.7,1.7-1,2.6-1l0,0
			c1,0,2,0.4,2.8,1.2l0,0c0.6,0.6,0.9,1.4,0.9,2.2l0,0c0,0.8-0.3,1.7-1,2.3l0,0c-0.5,0.5-1.2,0.7-1.8,0.7l0,0
			c-0.7,0-1.4-0.3-1.9-0.8l0,0c-0.4-0.4-0.6-1-0.6-1.5l0,0c0-0.6,0.2-1.2,0.7-1.6l0,0c0.4-0.3,0.8-0.5,1.3-0.5l0,0
			c0.5,0,1,0.2,1.3,0.6l0,0c0.3,0.3,0.4,0.7,0.4,1.1l0,0c0,0.4-0.2,0.8-0.5,1.2l0,0c-0.3,0.2-0.6,0.4-0.9,0.4l0,0
			c-0.4,0-0.7-0.1-1-0.4l0,0c-0.2-0.2-0.3-0.4-0.3-0.6l0,0c0,0.3,0.1,0.6,0.3,0.8l0,0c0.3,0.3,0.7,0.5,1.2,0.5l0,0
			c0.4,0,0.8-0.1,1.1-0.4l0,0c0.4-0.4,0.7-1,0.7-1.6l0,0c0-0.5-0.2-1.1-0.6-1.5l0,0c-0.6-0.6-1.3-0.9-2-0.9l0,0
			c-0.7,0-1.4,0.3-1.9,0.8l0,0C82,65.1,81.7,66,81.7,67l0,0c0,0.9,0.3,1.8,1,2.5l0,0c0.9,1,2.2,1.5,3.4,1.5l0,0
			c1.2,0,2.3-0.4,3.2-1.3l0,0v0c0.2-0.2,0.5-0.2,0.7,0l0,0c0.2,0.2,0.2,0.5,0,0.7l0,0C88.8,71.5,87.4,72,86,72L86,72
			C86,72,86,72,86,72L86,72z M85.1,65.6c0.2,0.2,0.2,0.5,0,0.7l0,0c0,0-0.1,0.1-0.1,0.1l0,0c0,0,0,0.1,0.1,0.1l0,0
			c0.1,0.1,0.2,0.1,0.3,0.1l0,0c0.1,0,0.2,0,0.3-0.1l0,0c0.1-0.1,0.2-0.3,0.2-0.4l0,0c0-0.1-0.1-0.3-0.2-0.4l0,0
			c-0.2-0.2-0.4-0.3-0.6-0.3l0,0c0,0,0,0,0,0l0,0C85.1,65.6,85.1,65.6,85.1,65.6L85.1,65.6z"/>
		<path d="M79.4,76.3c-0.7,0-1.4-0.3-2-0.8l0,0c-0.8-0.7-1.2-1.7-1.2-2.7l0,0c0-0.9,0.3-1.7,0.9-2.4l0,0c0.9-0.9,2-1.4,3.2-1.4l0,0
			c1.1,0,2.1,0.4,3,1.2l0,0c0.2,0.2,0.2,0.5,0,0.7l0,0c-0.2,0.2-0.5,0.2-0.7,0l0,0c-0.6-0.6-1.5-0.9-2.3-0.9l0,0
			c-0.9,0-1.8,0.4-2.5,1.1l0,0c-0.5,0.5-0.7,1.1-0.7,1.8l0,0c0,0.7,0.3,1.4,0.8,1.9l0,0c0.4,0.3,0.9,0.5,1.3,0.5l0,0
			c0.5,0,1.1-0.2,1.5-0.6l0,0c0.3-0.3,0.4-0.6,0.4-1l0,0c0-0.4-0.2-0.8-0.5-1.1l0,0c-0.1-0.1-0.2-0.1-0.3-0.2l0,0
			c0.1,0,0.1,0.1,0.2,0.1l0,0c0.3,0.3,0.4,0.6,0.4,1l0,0c0,0.3-0.1,0.6-0.3,0.9l0,0c-0.3,0.3-0.7,0.5-1.1,0.5l0,0
			c-0.4,0-0.7-0.1-1-0.4l0,0c-0.4-0.3-0.6-0.8-0.6-1.3l0,0c0-0.4,0.2-0.9,0.5-1.2l0,0c0.4-0.4,1-0.7,1.5-0.7l0,0
			c0.5,0,1,0.2,1.4,0.6l0,0c0.5,0.5,0.8,1.2,0.8,1.8l0,0c0,0.6-0.2,1.2-0.7,1.7l0,0C81.1,76,80.2,76.3,79.4,76.3L79.4,76.3
			C79.4,76.3,79.4,76.3,79.4,76.3L79.4,76.3z M79.8,73.2C79.8,73.2,79.8,73.2,79.8,73.2L79.8,73.2C79.8,73.3,79.8,73.3,79.8,73.2
			L79.8,73.2c0.1,0.2,0.2,0.3,0.2,0.5l0,0c0,0,0.1,0,0.1-0.1l0,0c0.1-0.1,0.1-0.1,0.1-0.2l0,0c0-0.1,0-0.2-0.1-0.2l0,0
			c0,0-0.1,0-0.1,0l0,0C79.9,73.2,79.9,73.2,79.8,73.2L79.8,73.2z"/>
	</g>
	<g>
		<path d="M89.5,70.4c-0.2-0.2-0.2-0.5,0-0.7l0,0c0.2-0.2,0.5-0.2,0.7,0l0,0c0.9,0.9,2.1,1.3,3.2,1.3l0,0c1.2,0,2.5-0.5,3.4-1.5l0,0
			c0.7-0.7,1-1.6,1-2.5l0,0c0-1-0.4-1.9-1.1-2.6l0,0c-0.5-0.5-1.2-0.8-1.9-0.8l0,0c-0.7,0-1.5,0.3-2,0.9l0,0
			c-0.4,0.4-0.6,0.9-0.6,1.5l0,0c0,0.6,0.2,1.1,0.7,1.6l0,0c0.3,0.3,0.7,0.4,1.1,0.4l0,0c0.4,0,0.9-0.2,1.2-0.5l0,0
			c0.2-0.2,0.3-0.5,0.3-0.8l0,0c0,0.2-0.1,0.5-0.3,0.7l0,0c-0.3,0.3-0.6,0.4-1,0.4l0,0c-0.3,0-0.7-0.1-0.9-0.4l0,0
			c-0.3-0.3-0.5-0.7-0.5-1.2l0,0c0-0.4,0.1-0.8,0.4-1.1l0,0c0.4-0.4,0.9-0.6,1.3-0.6l0,0c0.5,0,0.9,0.2,1.3,0.5l0,0
			c0.5,0.4,0.7,1,0.7,1.6l0,0c0,0.5-0.2,1.1-0.6,1.5l0,0c-0.5,0.5-1.2,0.8-1.9,0.8l0,0c-0.6,0-1.3-0.2-1.8-0.7l0,0
			c-0.7-0.6-1-1.5-1-2.3l0,0c0-0.8,0.3-1.6,0.9-2.2l0,0c0.7-0.8,1.8-1.2,2.8-1.2l0,0c0.9,0,1.9,0.3,2.6,1l0,0c1,0.9,1.5,2.1,1.5,3.4
			l0,0c0,1.1-0.4,2.3-1.3,3.2l0,0c-1.1,1.2-2.6,1.8-4.1,1.8l0,0C92,71.9,90.6,71.4,89.5,70.4L89.5,70.4z M93.8,65.8
			c-0.1,0.1-0.2,0.3-0.2,0.4l0,0c0,0.2,0.1,0.3,0.2,0.4l0,0c0.1,0.1,0.2,0.1,0.3,0.1l0,0c0.1,0,0.2,0,0.3-0.1l0,0
			c0,0,0.1-0.1,0.1-0.1l0,0c0-0.1,0-0.1-0.1-0.1l0,0c-0.2-0.2-0.2-0.5,0-0.7l0,0c0,0,0.1-0.1,0.1-0.1l0,0c0,0,0,0,0,0l0,0
			C94.2,65.5,93.9,65.6,93.8,65.8L93.8,65.8z"/>
		<path d="M100,76.2c-0.8,0-1.6-0.3-2.2-1l0,0c-0.4-0.5-0.7-1.1-0.7-1.7l0,0c0-0.7,0.3-1.3,0.8-1.8l0,0c0.4-0.4,0.9-0.6,1.4-0.6l0,0
			c0.6,0,1.1,0.2,1.5,0.7l0,0c0.3,0.3,0.5,0.8,0.5,1.2l0,0c0,0.5-0.2,1-0.6,1.3l0,0c-0.3,0.3-0.7,0.4-1,0.4l0,0
			c-0.4,0-0.8-0.2-1.1-0.5l0,0c-0.2-0.3-0.3-0.6-0.3-0.9l0,0c0-0.4,0.1-0.7,0.4-1l0,0c0.1,0,0.1-0.1,0.2-0.1l0,0
			c-0.1,0-0.2,0.1-0.3,0.2l0,0c-0.3,0.3-0.5,0.7-0.5,1.1l0,0c0,0.4,0.1,0.7,0.4,1l0,0c0.4,0.4,0.9,0.6,1.5,0.6l0,0
			c0.5,0,1-0.2,1.3-0.5l0,0c0.6-0.5,0.8-1.2,0.8-1.9l0,0c0-0.6-0.2-1.3-0.7-1.8l0,0c-0.7-0.7-1.6-1.1-2.5-1.1l0,0
			c-0.8,0-1.6,0.3-2.3,0.9l0,0h0c-0.2,0.2-0.5,0.2-0.7,0l0,0c-0.2-0.2-0.2-0.5,0-0.7l0,0c0.8-0.8,1.9-1.2,3-1.2l0,0
			c1.2,0,2.4,0.5,3.2,1.4l0,0c0.6,0.7,1,1.6,0.9,2.4l0,0c0,1-0.4,1.9-1.2,2.7l0,0C101.4,76,100.7,76.2,100,76.2L100,76.2
			C100,76.2,100,76.2,100,76.2L100,76.2z M99.4,73.2c-0.1,0.1-0.1,0.1-0.1,0.2l0,0c0,0.1,0,0.2,0.1,0.2l0,0c0,0,0.1,0,0.1,0.1l0,0
			c0-0.2,0-0.3,0.1-0.5l0,0c0,0,0,0,0,0l0,0c0,0,0,0,0,0l0,0c0,0-0.1,0-0.1,0l0,0C99.5,73.1,99.4,73.2,99.4,73.2L99.4,73.2z"/>
	</g>
	<path class="st4" d="M89.8,73.5C73.4,86.1,75.5,90.1,75.5,90.1s13.9-16.8,28.1-0.2C103.5,90,106.2,86.1,89.8,73.5L89.8,73.5z"/>
	<path class="st4" d="M112.4,102.1c0,0,13.3,23.6,4.9,37.2c-7.2,11.5-22.7,2.8-20.6-6.3c0,0,2,9.8,11.5,9.1c0,0,10.4-0.8,7.6-13.3
		c-0.2-0.9-2.6-8.6-10.6-9.6C105.3,119.2,114,118.7,112.4,102.1z"/>
	<path class="st4" d="M67.2,102.1c0,0-13.3,23.6-4.9,37.2c7.1,11.5,23.2,3.8,20.6-6.3c0,0-2,9.8-11.5,9.1c0,0-10.4-0.8-7.6-13.3
		c0.2-0.9,2.6-8.6,10.6-9.6C74.4,119.2,65.6,118.7,67.2,102.1z"/>
	<path class="st4" d="M89.9,90.8c0,0,1,12.5,7.8,9.9c0,0-2.9,3.8-0.8,8.3c0,0-6.6,0.3-6.8,4.5h-0.2c-0.2-4.2-7.2-4.5-7.2-4.5
		c2.1-4.6-0.8-8.3-0.8-8.3c6.8,2.6,7.8-9.9,7.8-9.9H89.9z"/>
	<path class="st4" d="M74.6,107.1c0,0.7-0.5,1.2-1.2,1.2c-0.7,0-1.2-0.5-1.2-1.2c0-0.7,0.5-1.2,1.2-1.2
		C74,105.9,74.6,106.5,74.6,107.1z"/>
	<path class="st4" d="M82.4,91.3c0,0.7-0.5,1.2-1.2,1.2c-0.7,0-1.2-0.5-1.2-1.2c0-0.7,0.5-1.2,1.2-1.2
		C81.9,90.1,82.4,90.6,82.4,91.3z"/>
	<path class="st4" d="M99.3,91.3c0,0.7-0.5,1.2-1.2,1.2c-0.7,0-1.2-0.5-1.2-1.2c0-0.7,0.5-1.2,1.2-1.2
		C98.8,90.2,99.3,90.7,99.3,91.3z"/>
	<path class="st4" d="M107.3,107.1c0,0.7-0.5,1.2-1.2,1.2c-0.7,0-1.2-0.5-1.2-1.2c0-0.7,0.5-1.2,1.2-1.2
		C106.7,105.9,107.3,106.4,107.3,107.1z"/>
	<path class="st4" d="M75.4,133c0,0.7-0.5,1.2-1.2,1.2c-0.7,0-1.2-0.5-1.2-1.2c0-0.7,0.5-1.2,1.2-1.2
		C74.9,131.8,75.4,132.3,75.4,133z"/>
	<path class="st4" d="M106.5,133c0,0.7-0.5,1.2-1.2,1.2c-0.7,0-1.2-0.5-1.2-1.2c0-0.7,0.5-1.2,1.2-1.2
		C105.9,131.8,106.5,132.3,106.5,133z"/>
	<path class="st5" d="M82.4,118.4c0,0.5-0.4,0.9-0.9,0.9c-0.5,0-0.9-0.4-0.9-0.9c0-0.5,0.4-0.9,0.9-0.9
		C82,117.5,82.4,117.9,82.4,118.4z"/>
	<path class="st5" d="M99,118.5c0,0.5-0.4,0.9-0.9,0.9c-0.5,0-0.9-0.4-0.9-0.9c0-0.5,0.4-0.9,0.9-0.9C98.6,117.6,99,118,99,118.5z"
		/>
	<path class="st5" d="M82.5,110.4c0,0.7-0.5,1.2-1.2,1.2c-0.7,0-1.2-0.5-1.2-1.2c0-0.7,0.5-1.2,1.2-1.2
		C81.9,109.2,82.5,109.7,82.5,110.4z"/>
	<path class="st5" d="M99.4,110.4c0,0.7-0.5,1.2-1.2,1.2c-0.7,0-1.2-0.5-1.2-1.2c0-0.7,0.5-1.2,1.2-1.2
		C98.9,109.2,99.4,109.7,99.4,110.4z"/>
	<path class="st6" d="M90.8,115.2c0,0.5-0.4,0.9-0.9,0.9c-0.5,0-0.9-0.4-0.9-0.9c0-0.5,0.4-0.9,0.9-0.9
		C90.4,114.3,90.8,114.7,90.8,115.2z"/>
	<path class="st6" d="M81.4,100c0,0.5-0.4,0.9-0.9,0.9c-0.5,0-0.9-0.4-0.9-0.9c0-0.5,0.4-0.9,0.9-0.9C80.9,99.1,81.4,99.5,81.4,100z
		"/>
	<path class="st6" d="M100.1,99.9c0,0.5-0.4,0.9-0.9,0.9c-0.5,0-0.9-0.4-0.9-0.9c0-0.5,0.4-0.9,0.9-0.9
		C99.7,98.9,100.1,99.4,100.1,99.9z"/>
	<path class="st6" d="M91.7,87.7c0,1.2-1,2.1-2.1,2.1c-1.2,0-2.1-1-2.1-2.1c0-1.2,1-2.1,2.1-2.1C90.7,85.6,91.7,86.6,91.7,87.7z"/>
	<g>
		<path d="M56.4,105.7c-1.8-0.7-2.9-2.5-2.9-4.3l0,0c0-0.6,0.1-1.2,0.3-1.8l0,0c0.6-1.5,2-2.4,3.5-2.4l0,0c0.5,0,1,0.1,1.4,0.3l0,0
			c1.2,0.5,2,1.7,2,2.9l0,0c0,0.4-0.1,0.8-0.2,1.2l0,0c-0.4,1-1.4,1.6-2.4,1.6l0,0c-0.3,0-0.7-0.1-1-0.2l0,0c-0.8-0.3-1.4-1.2-1.4-2
			l0,0c0-0.3,0.1-0.6,0.2-0.8l0,0c0.3-0.7,1-1.2,1.7-1.2l0,0c0.2,0,0.5,0,0.7,0.1l0,0c0.6,0.3,1,0.8,1,1.5l0,0c0,0.2,0,0.4-0.1,0.6
			l0,0c-0.2,0.5-0.7,0.8-1.3,0.8l0,0c-0.2,0-0.3,0-0.5-0.1l0,0c-0.2-0.1-0.4-0.3-0.6-0.5l0,0c0.1,0.3,0.3,0.5,0.6,0.6l0,0
			c0.2,0.1,0.4,0.1,0.6,0.1l0,0c0.6,0,1.2-0.4,1.5-1l0,0c0.1-0.3,0.2-0.5,0.2-0.8l0,0c0-0.8-0.5-1.6-1.3-2l0,0
			c-0.3-0.1-0.7-0.2-1.1-0.2l0,0c-1.1,0-2.2,0.7-2.6,1.7l0,0c-0.2,0.4-0.3,0.9-0.3,1.4l0,0c0,1.4,0.9,2.8,2.3,3.4l0,0
			c0.6,0.2,1.2,0.3,1.8,0.3l0,0c1.8,0,3.6-1.1,4.3-2.9l0,0c0.1-0.3,0.4-0.4,0.7-0.3l0,0c0.3,0.1,0.4,0.4,0.3,0.7l0,0
			c-0.9,2.2-3,3.5-5.2,3.5l0,0C57.9,106.1,57.1,106,56.4,105.7L56.4,105.7z M57.5,100.2c0.3,0.1,0.4,0.4,0.3,0.7l0,0c0,0,0,0,0,0.1
			l0,0c0,0.1,0,0.1,0.1,0.2l0,0c0,0,0.1,0,0.1,0l0,0c0.1,0,0.3-0.1,0.3-0.2l0,0c0-0.1,0-0.2,0-0.2l0,0c0-0.2-0.1-0.4-0.4-0.5l0,0
			c-0.1,0-0.2-0.1-0.3-0.1l0,0c-0.1,0-0.3,0-0.4,0.1l0,0C57.4,100.2,57.4,100.2,57.5,100.2L57.5,100.2z"/>
		<path d="M55.4,112.5c-0.3,0-0.6,0-0.9-0.2l0,0c-1.5-0.5-2.5-1.9-2.5-3.4l0,0c0-0.4,0.1-0.8,0.2-1.1l0,0c0.6-1.8,2.3-3,4.2-3l0,0
			c0.5,0,0.9,0.1,1.4,0.2l0,0c0.3,0.1,0.4,0.4,0.3,0.6l0,0c-0.1,0.3-0.4,0.4-0.6,0.3l0,0c-0.4-0.1-0.7-0.2-1.1-0.2l0,0
			c-1.4,0-2.7,0.9-3.2,2.3l0,0c-0.1,0.3-0.1,0.5-0.1,0.8l0,0c0,1.1,0.7,2.1,1.8,2.5l0,0c0.2,0.1,0.4,0.1,0.6,0.1l0,0
			c0.8,0,1.6-0.5,1.9-1.4l0,0c0.1-0.2,0.1-0.3,0.1-0.5l0,0c0-0.6-0.4-1.2-1-1.4l0,0c-0.1,0-0.2-0.1-0.3-0.1l0,0c0.1,0,0.1,0,0.2,0
			l0,0c0.6,0.2,0.9,0.7,0.9,1.2l0,0c0,0.1,0,0.3-0.1,0.4l0,0c-0.2,0.6-0.8,1-1.4,1l0,0c-0.2,0-0.3,0-0.5-0.1l0,0
			c-0.7-0.2-1.2-0.9-1.2-1.7l0,0c0-0.2,0-0.4,0.1-0.6l0,0c0.3-0.9,1.1-1.4,2-1.4l0,0c0.2,0,0.4,0,0.7,0.1l0,0c1,0.3,1.7,1.3,1.7,2.4
			l0,0c0,0.3,0,0.5-0.1,0.8l0,0C57.9,111.7,56.7,112.5,55.4,112.5L55.4,112.5C55.4,112.5,55.4,112.5,55.4,112.5L55.4,112.5z
			 M55.8,109.3L55.8,109.3C55.8,109.3,55.8,109.3,55.8,109.3L55.8,109.3c0.2,0.1,0.3,0.2,0.3,0.4l0,0c0,0,0-0.1,0-0.1l0,0
			c0,0,0-0.1,0-0.1l0,0c0-0.1-0.1-0.3-0.2-0.3l0,0c0,0,0,0,0,0l0,0C55.8,109.2,55.8,109.2,55.8,109.3L55.8,109.3z"/>
	</g>
	<g>
		<path d="M115.8,102.6L115.8,102.6c-0.1-0.3,0-0.5,0.3-0.7l0,0c0.3-0.1,0.5,0,0.7,0.3l0,0c0.7,1.8,2.5,2.9,4.3,2.9l0,0
			c0.6,0,1.2-0.1,1.8-0.3l0,0c1.4-0.6,2.3-1.9,2.3-3.4l0,0c0-0.5-0.1-0.9-0.3-1.4l0,0c-0.4-1.1-1.5-1.7-2.6-1.7l0,0
			c-0.4,0-0.7,0.1-1.1,0.2l0,0c-0.8,0.3-1.3,1.1-1.3,2l0,0c0,0.3,0.1,0.5,0.2,0.8l0,0c0.3,0.6,0.9,1,1.5,1l0,0c0.2,0,0.4,0,0.6-0.1
			l0,0c0.3-0.1,0.5-0.3,0.6-0.6l0,0c-0.1,0.2-0.3,0.4-0.6,0.5l0,0c-0.2,0.1-0.3,0.1-0.5,0.1l0,0c-0.5,0-1-0.3-1.3-0.8l0,0
			c-0.1-0.2-0.1-0.4-0.1-0.6l0,0c0-0.6,0.4-1.2,1-1.5l0,0c0.2-0.1,0.5-0.1,0.7-0.1l0,0c0.7,0,1.4,0.4,1.7,1.2l0,0
			c0.1,0.3,0.2,0.5,0.2,0.8l0,0c0,0.9-0.5,1.7-1.4,2l0,0c-0.3,0.1-0.7,0.2-1,0.2l0,0c-1,0-2-0.6-2.4-1.6l0,0
			c-0.2-0.4-0.2-0.8-0.2-1.2l0,0c0-1.2,0.7-2.4,2-2.9l0,0c0.5-0.2,1-0.3,1.4-0.3l0,0c1.5,0,2.9,0.9,3.5,2.4l0,0
			c0.2,0.6,0.3,1.2,0.3,1.8l0,0c0,1.8-1.1,3.6-2.9,4.3l0,0c-0.7,0.3-1.4,0.4-2.1,0.4l0,0C118.8,106.1,116.7,104.8,115.8,102.6
			L115.8,102.6z M121.6,100.1c-0.2,0.1-0.4,0.3-0.4,0.5l0,0c0,0.1,0,0.1,0,0.2l0,0c0.1,0.1,0.2,0.2,0.3,0.2l0,0c0,0,0.1,0,0.1,0l0,0
			c0.1,0,0.1-0.1,0.1-0.2l0,0c0,0,0,0,0-0.1l0,0c-0.1-0.3,0-0.5,0.3-0.7l0,0c0.1,0,0.1,0,0.2,0l0,0c-0.1-0.1-0.2-0.1-0.4-0.1l0,0
			C121.8,100.1,121.7,100.1,121.6,100.1L121.6,100.1z"/>
		<path d="M121.3,110.5c-0.1-0.3-0.1-0.5-0.1-0.8l0,0c0-1,0.7-2,1.7-2.4l0,0c0.2-0.1,0.4-0.1,0.7-0.1l0,0c0.9,0,1.7,0.6,2,1.4l0,0
			c0.1,0.2,0.1,0.4,0.1,0.6l0,0c0,0.7-0.5,1.4-1.2,1.7l0,0c-0.2,0.1-0.3,0.1-0.5,0.1l0,0c-0.6,0-1.2-0.4-1.4-1l0,0
			c0-0.1-0.1-0.3-0.1-0.4l0,0c0-0.6,0.3-1.1,0.9-1.2l0,0c0.1,0,0.1,0,0.2,0l0,0c-0.1,0-0.2,0-0.3,0.1l0,0c-0.6,0.2-1,0.8-1,1.4l0,0
			c0,0.2,0,0.3,0.1,0.5l0,0c0.3,0.8,1,1.4,1.9,1.4l0,0c0.2,0,0.4,0,0.6-0.1l0,0c1.1-0.4,1.8-1.4,1.8-2.5l0,0c0-0.3,0-0.5-0.1-0.8
			l0,0c-0.5-1.4-1.8-2.3-3.2-2.3l0,0c-0.4,0-0.7,0.1-1.1,0.2l0,0h0c-0.3,0.1-0.5-0.1-0.6-0.3l0,0c-0.1-0.3,0.1-0.5,0.3-0.6l0,0
			c0.5-0.1,0.9-0.2,1.4-0.2l0,0c1.8,0,3.5,1.2,4.2,3l0,0c0.1,0.4,0.2,0.8,0.2,1.1l0,0c0,1.5-1,2.9-2.5,3.4l0,0
			c-0.3,0.1-0.6,0.1-0.9,0.1l0,0C122.9,112.5,121.7,111.7,121.3,110.5L121.3,110.5z M123.6,109.2c-0.1,0-0.2,0.2-0.2,0.3l0,0
			c0,0,0,0.1,0,0.1l0,0c0,0,0,0.1,0,0.1l0,0c0-0.2,0.2-0.3,0.3-0.4l0,0c0,0,0,0,0,0l0,0c0,0,0,0,0,0l0,0
			C123.8,109.2,123.7,109.2,123.6,109.2L123.6,109.2C123.7,109.2,123.7,109.2,123.6,109.2L123.6,109.2z"/>
	</g>
	<polygon class="st7" points="92.5,157.1 86.8,157.1 89.6,144.3 	"/>
	<polygon class="st8" points="91.2,131.6 88.4,131.6 89.8,125.2 	"/>
	<polygon class="st8" points="68.8,95.2 70.3,92.8 74.9,97.5 	"/>
	<polygon class="st8" points="110.8,95.2 109.3,92.8 104.6,97.4 	"/>
	<polygon class="st8" points="72.2,101.6 73.7,99.2 78.4,103.9 	"/>
	<polygon class="st8" points="107.5,101.6 106,99.2 101.3,103.9 	"/>
	<polygon class="st8" points="93.3,125.8 95.9,124.5 91.8,119.4 	"/>
	<polygon class="st8" points="86.4,125.8 83.9,124.5 88,119.4 	"/>
	<polygon class="st8" points="74.7,124.6 76.1,127.1 69.8,129.1 	"/>
	<polygon class="st8" points="105.1,124.7 103.6,127.2 109.9,129.2 	"/>
	<rect x="88" y="139.3" class="st9" width="3.6" height="3.6"/>
	<path class="st10" d="M90.4,69.3c0,0.4-0.3,0.7-0.7,0.7c-0.4,0-0.7-0.3-0.7-0.7c0-0.4,0.3-0.7,0.7-0.7
		C90.1,68.6,90.4,68.9,90.4,69.3z"/>
	<polygon class="st11" points="74.6,122.3 74.2,121.1 75.2,120.4 76.2,121.1 75.8,122.3 	"/>
	<polygon class="st11" points="71.7,122.9 71.3,121.8 72.3,121.1 73.3,121.8 72.9,122.9 	"/>
	<polygon class="st11" points="68.9,124.4 68.5,123.2 69.5,122.5 70.5,123.2 70.1,124.4 	"/>
	<polygon class="st11" points="104.7,122.1 105.1,121 104.1,120.2 103.2,121 103.5,122.1 	"/>
	<polygon class="st11" points="107.7,122.8 108,121.6 107.1,120.9 106.1,121.6 106.5,122.8 	"/>
	<polygon class="st11" points="110.4,124.2 110.8,123.1 109.8,122.4 108.8,123.1 109.2,124.2 	"/>
	<path class="st10" d="M86.7,70.6c0,0.4-0.3,0.7-0.7,0.7c-0.4,0-0.7-0.3-0.7-0.7c0-0.4,0.3-0.7,0.7-0.7
		C86.4,69.9,86.7,70.2,86.7,70.6z"/>
	<path class="st10" d="M94.1,70.6c0,0.4-0.3,0.7-0.7,0.7c-0.4,0-0.7-0.3-0.7-0.7c0-0.4,0.3-0.7,0.7-0.7
		C93.8,69.9,94.1,70.2,94.1,70.6z"/>
	<path class="st10" d="M59.4,104.9c0,0.4-0.3,0.7-0.7,0.7c-0.4,0-0.7-0.3-0.7-0.7c0-0.4,0.3-0.7,0.7-0.7
		C59,104.2,59.4,104.5,59.4,104.9z"/>
	<path class="st10" d="M121.9,104.8c0,0.4-0.3,0.7-0.7,0.7c-0.4,0-0.7-0.3-0.7-0.7c0-0.4,0.3-0.7,0.7-0.7
		C121.6,104.1,121.9,104.4,121.9,104.8z"/>
	<path class="st10" d="M77.8,163.2c0,0.4-0.3,0.7-0.7,0.7c-0.4,0-0.7-0.3-0.7-0.7c0-0.4,0.3-0.7,0.7-0.7
		C77.5,162.5,77.8,162.8,77.8,163.2z"/>
	<path class="st10" d="M103.3,163.2c0,0.4-0.3,0.7-0.7,0.7c-0.4,0-0.7-0.3-0.7-0.7c0-0.4,0.3-0.7,0.7-0.7
		C103,162.5,103.3,162.8,103.3,163.2z"/>
	<polygon class="st12" points="84.2,159.5 85.6,157 87,159.5 	"/>
	<polygon class="st12" points="92.5,159.5 94,157 95.4,159.5 	"/>
	<polygon class="st12" points="84.3,85.2 85.7,87.6 87.2,85.2 	"/>
	<polygon class="st12" points="92.1,85.3 93.5,87.8 94.9,85.3 	"/>
	<polygon class="st13" points="101.9,105.2 100.1,105.7 102.2,109.5 	"/>
	<polygon class="st13" points="103.9,110.3 104.2,112.1 108.2,110.6 	"/>
	<polygon class="st13" points="77.5,105.2 79.3,105.7 77.2,109.5 	"/>
	<polygon class="st13" points="75.3,110.3 75.1,112.1 71.1,110.6 	"/>
	<polygon class="st13" points="78.7,95.1 79,97 83,95.5 	"/>
	<polygon class="st13" points="72.2,136.1 72.5,137.9 76.5,136.4 	"/>
	<polygon class="st13" points="70.1,131.2 68.3,131.7 70.3,135.5 	"/>
	<polygon class="st13" points="109.5,130.6 111.3,131.1 109.2,134.8 	"/>
	<polygon class="st13" points="108,136.3 107.7,138.1 103.7,136.6 	"/>
	<polygon class="st13" points="100.5,95.1 100.2,97 96.2,95.5 	"/>
	<polygon class="st13" points="86.1,118.1 87.7,117.1 84.6,114.1 	"/>
	<polygon class="st13" points="93.7,118.3 92.1,117.3 95.1,114.2 	"/>
	<path class="st6" d="M83.5,129.1c0,1.2-1,2.1-2.1,2.1c-1.2,0-2.1-1-2.1-2.1c0-1.2,1-2.1,2.1-2.1C82.6,127,83.5,128,83.5,129.1z"/>
	<path class="st6" d="M99.9,129.3c0,1.2-1,2.1-2.1,2.1c-1.2,0-2.1-1-2.1-2.1c0-1.2,1-2.1,2.1-2.1C98.9,127.2,99.9,128.1,99.9,129.3z
		"/>
	<path class="st5" d="M74.8,115.6c0,0.7-0.5,1.2-1.2,1.2c-0.7,0-1.2-0.5-1.2-1.2c0-0.7,0.5-1.2,1.2-1.2
		C74.3,114.4,74.8,115,74.8,115.6z"/>
	<path class="st5" d="M107.7,115.6c0,0.7-0.5,1.2-1.2,1.2c-0.7,0-1.2-0.5-1.2-1.2c0-0.7,0.5-1.2,1.2-1.2
		C107.2,114.4,107.7,115,107.7,115.6z"/>
</g>
</svg>
