<?xml version="1.0" encoding="utf-8"?>
<!-- Generator: Adobe Illustrator 23.0.4, SVG Export Plug-In . SVG Version: 6.00 Build 0)  -->
<svg version="1.1" id="Layer_1" xmlns="http://www.w3.org/2000/svg" xmlns:xlink="http://www.w3.org/1999/xlink" x="0px" y="0px"
	 viewBox="0 0 585 434.6" style="enable-background:new 0 0 585 434.6;" xml:space="preserve">
<style type="text/css">
	.st0{fill:#009345;}
	.st1{fill:#790712;}
	.st2{fill:#BE1E2D;}
	.st3{fill:#830C17;}
	.st4{fill:#FEC842;}
	.st5{fill:#E7E6DE;}
	.st6{fill:#F9C00D;}
	.st7{fill:#F8CE68;}
	.st8{fill:#FFFFFF;}
	.st9{display:none;fill:#FFFFFF;enable-background:new    ;}
	.st10{font-family:'Avenir-Heavy';}
	.st11{font-size:26px;}
	.st12{letter-spacing:41;}
</style>
<rect class="st0" width="585" height="434.6"/>
<g id="heart">
</g>
<g id="heart_2_">
</g>
<g id="heart_1_">
</g>
<path class="st1" d="M300,404.1c-14.3,0-28.1-3.8-38.9-10.8L51.8,258.9c-14.5-9.3-22.8-23.5-22.8-39s8.3-29.7,22.8-39L261.1,46.5
	c10.8-6.9,24.6-10.8,38.9-10.8s28.1,3.8,38.9,10.8l209.3,134.4c14.5,9.3,22.8,23.5,22.8,39s-8.3,29.7-22.8,39L338.9,393.3
	C328.1,400.3,314.3,404.1,300,404.1z"/>
<path class="st2" d="M300,397.1c-14.3,0-28.1-3.8-38.9-10.8L51.8,251.9c-14.5-9.3-22.8-23.5-22.8-39s8.3-29.7,22.8-39L261.1,39.5
	c10.8-6.9,24.6-10.8,38.9-10.8s28.1,3.8,38.9,10.8l209.3,134.4c14.5,9.3,22.8,23.5,22.8,39s-8.3,29.7-22.8,39L338.9,386.3
	C328.1,393.3,314.3,397.1,300,397.1z"/>
<g>
	<path class="st3" d="M293.8,384.8c0-3.4,2.7-6.1,6-6.2l0,0c0.1,0,0.1,0,0.2,0l0,0c3.4,0,6.2,2.7,6.2,6.1l0,0c0,3.4-2.7,6.2-6.2,6.2
		l0,0l0,0l0,0l0,0l0,0l0,0l0,0C296.6,390.9,293.8,388.2,293.8,384.8z M280.5,388.2c-3.3-0.9-5.1-4.4-4.2-7.6l0,0
		c1-3.3,4.4-5.1,7.6-4.2l0,0c3.3,1,5.1,4.4,4.2,7.6l0,0c-0.8,2.7-3.2,4.4-5.9,4.4l0,0C281.7,388.5,281.1,388.4,280.5,388.2z
		 M311.9,384c-1-3.3,0.9-6.7,4.2-7.6l0,0c3.3-1,6.7,0.9,7.6,4.2l0,0c1,3.3-0.9,6.7-4.2,7.6l0,0l0,0l0,0c-0.6,0.2-1.2,0.2-1.7,0.2
		l0,0C315.2,388.4,312.7,386.7,311.9,384z M262.8,379.7c-2.9-1.8-3.7-5.6-1.9-8.5l0,0c1.8-2.9,5.6-3.7,8.5-1.9l0,0
		c2.9,1.8,3.7,5.6,1.9,8.5l0,0c-1.2,1.8-3.2,2.8-5.2,2.8l0,0C265,380.7,263.8,380.4,262.8,379.7z M328.8,377.9
		c-1.8-2.9-1-6.7,1.9-8.5l0,0c2.9-1.8,6.7-1,8.5,1.8l0,0c1.8,2.9,1,6.7-1.9,8.5l0,0c-1,0.7-2.2,1-3.3,1l0,0
		C331.9,380.7,329.9,379.7,328.8,377.9z M300.1,378.6L300.1,378.6L300.1,378.6L300.1,378.6L300.1,378.6z M247.7,370
		c-2.9-1.8-3.7-5.6-1.9-8.5l0,0c1.8-2.9,5.6-3.7,8.5-1.9l0,0c2.9,1.8,3.7,5.6,1.9,8.5l0,0c-1.2,1.8-3.2,2.8-5.2,2.8l0,0
		C249.8,371,248.7,370.7,247.7,370z M343.9,368.1c-1.8-2.9-1-6.7,1.9-8.5l0,0c2.9-1.8,6.7-1,8.5,1.9l0,0c1.8,2.9,1,6.7-1.9,8.5l0,0
		c-1,0.7-2.2,1-3.3,1l0,0C347,371,345.1,370,343.9,368.1z M232.5,360.3c-2.9-1.8-3.7-5.7-1.9-8.5l0,0c1.8-2.9,5.6-3.7,8.5-1.8l0,0
		c2.9,1.8,3.7,5.6,1.9,8.5l0,0c-1.2,1.8-3.2,2.8-5.2,2.8l0,0C234.7,361.3,233.6,361,232.5,360.3z M359,358.4c-1.8-2.9-1-6.7,1.8-8.5
		l0,0c2.9-1.8,6.7-1,8.5,1.9l0,0c1.8,2.9,1,6.7-1.9,8.5l0,0c-1,0.7-2.2,1-3.3,1l0,0C362.2,361.3,360.2,360.3,359,358.4z
		 M217.4,350.6c-2.9-1.8-3.7-5.6-1.9-8.5l0,0c1.8-2.9,5.6-3.7,8.5-1.9l0,0c2.9,1.8,3.7,5.6,1.9,8.5l0,0c-1.2,1.8-3.2,2.8-5.2,2.8
		l0,0C219.6,351.6,218.4,351.3,217.4,350.6z M374.1,348.7c-1.8-2.9-1-6.7,1.9-8.5l0,0c2.9-1.8,6.7-1,8.5,1.9l0,0
		c1.8,2.9,1,6.7-1.9,8.5l0,0c-1,0.7-2.2,1-3.3,1l0,0C377.3,351.6,375.3,350.6,374.1,348.7z M202.3,340.9c-2.9-1.8-3.7-5.6-1.8-8.5
		l0,0c1.8-2.9,5.6-3.7,8.5-1.9l0,0c2.9,1.8,3.7,5.6,1.9,8.5l0,0c-1.2,1.8-3.2,2.8-5.2,2.8l0,0C204.5,341.9,203.3,341.6,202.3,340.9z
		 M389.3,339c-1.8-2.9-1-6.7,1.9-8.5l0,0c2.9-1.8,6.7-1,8.5,1.9l0,0c1.8,2.9,1,6.7-1.9,8.5l0,0c-1,0.7-2.2,1-3.3,1l0,0
		C392.4,341.8,390.4,340.8,389.3,339z M187.2,331.2c-2.9-1.8-3.7-5.6-1.9-8.5l0,0c1.8-2.9,5.6-3.7,8.5-1.9l0,0
		c2.9,1.8,3.7,5.6,1.9,8.5l0,0c-1.2,1.8-3.2,2.8-5.2,2.8l0,0C189.3,332.2,188.2,331.9,187.2,331.2z M404.4,329.3
		c-1.8-2.9-1-6.7,1.9-8.5l0,0c2.9-1.8,6.7-1,8.5,1.9l0,0c1.8,2.9,1,6.7-1.8,8.5l0,0c-1,0.7-2.2,1-3.3,1l0,0
		C407.5,332.1,405.6,331.1,404.4,329.3z M172,321.5c-2.9-1.8-3.7-5.6-1.9-8.5l0,0c1.8-2.9,5.6-3.7,8.5-1.9l0,0
		c2.9,1.8,3.7,5.6,1.9,8.5l0,0c-1.2,1.8-3.2,2.8-5.2,2.8l0,0C174.2,322.5,173.1,322.2,172,321.5z M419.5,319.6
		c-1.8-2.9-1-6.7,1.8-8.5l0,0c2.9-1.8,6.7-1,8.5,1.9l0,0c1.8,2.9,1,6.7-1.9,8.5l0,0c-1,0.7-2.2,1-3.3,1l0,0
		C422.7,322.4,420.7,321.4,419.5,319.6z M156.9,311.8c-2.9-1.8-3.7-5.6-1.9-8.5l0,0c1.8-2.9,5.6-3.7,8.5-1.9l0,0
		c2.9,1.8,3.7,5.6,1.9,8.5l0,0c-1.2,1.8-3.2,2.8-5.2,2.8l0,0C159.1,312.8,157.9,312.4,156.9,311.8z M434.6,309.9
		c-1.8-2.9-1-6.7,1.9-8.5l0,0c2.9-1.8,6.7-1,8.5,1.9l0,0c1.8,2.9,1,6.7-1.9,8.5l0,0c-1,0.7-2.2,1-3.3,1l0,0
		C437.8,312.7,435.8,311.7,434.6,309.9z M141.8,302.1c-2.9-1.8-3.7-5.6-1.8-8.5l0,0c1.8-2.9,5.6-3.7,8.5-1.9l0,0
		c2.9,1.8,3.7,5.6,1.9,8.5l0,0c-1.2,1.8-3.2,2.8-5.2,2.8l0,0C144,303,142.8,302.7,141.8,302.1z M449.8,300.2c-1.8-2.9-1-6.7,1.9-8.5
		l0,0c2.9-1.8,6.7-1,8.5,1.9l0,0c1.8,2.9,1,6.7-1.9,8.5l0,0c-1,0.7-2.2,1-3.3,1l0,0C452.9,303,450.9,302,449.8,300.2z M126.7,292.4
		c-2.9-1.8-3.7-5.6-1.9-8.5l0,0c1.8-2.9,5.6-3.7,8.5-1.9l0,0c2.9,1.8,3.7,5.6,1.9,8.5l0,0c-1.2,1.8-3.2,2.8-5.2,2.8l0,0
		C128.9,293.3,127.7,293,126.7,292.4z M464.9,290.5c-1.8-2.9-1-6.7,1.9-8.5l0,0c2.9-1.8,6.7-1,8.5,1.9l0,0c1.8,2.9,1,6.7-1.9,8.5
		l0,0c-1,0.7-2.2,1-3.3,1l0,0C468.1,293.3,466.1,292.3,464.9,290.5z M111.5,282.7c-2.9-1.8-3.7-5.6-1.9-8.5l0,0
		c1.8-2.9,5.6-3.7,8.5-1.9l0,0c2.9,1.8,3.7,5.6,1.9,8.5l0,0c-1.2,1.8-3.2,2.8-5.2,2.8l0,0C113.7,283.6,112.6,283.3,111.5,282.7z
		 M480,280.8c-1.8-2.9-1-6.7,1.9-8.5l0,0c2.9-1.8,6.7-1,8.5,1.9l0,0c1.8,2.9,1,6.7-1.9,8.5l0,0c-1,0.7-2.2,1-3.3,1l0,0
		C483.2,283.6,481.2,282.6,480,280.8z M96.4,272.9c-2.9-1.8-3.7-5.6-1.9-8.5l0,0c1.8-2.9,5.6-3.7,8.5-1.9l0,0
		c2.9,1.8,3.7,5.6,1.9,8.5l0,0c-1.2,1.8-3.2,2.8-5.2,2.8l0,0C98.6,273.9,97.4,273.6,96.4,272.9z M495.1,271c-1.8-2.9-1-6.7,1.9-8.5
		l0,0c2.9-1.8,6.7-1,8.5,1.9l0,0c1.8,2.9,1,6.7-1.9,8.5l0,0c-1,0.7-2.2,1-3.3,1l0,0C498.3,273.9,496.3,272.9,495.1,271z M81.3,263.2
		c-2.9-1.8-3.7-5.6-1.9-8.5l0,0c1.8-2.9,5.6-3.7,8.5-1.9l0,0c2.9,1.8,3.7,5.7,1.9,8.5l0,0c-1.2,1.8-3.2,2.8-5.2,2.8l0,0
		C83.5,264.2,82.3,263.9,81.3,263.2z M510.3,261.3c-1.8-2.9-1-6.7,1.9-8.5l0,0c2.9-1.8,6.7-1,8.5,1.9l0,0c1.8,2.9,1,6.7-1.9,8.5l0,0
		c-1,0.7-2.2,1-3.3,1l0,0C513.4,264.2,511.4,263.2,510.3,261.3z M66.2,253.5c-2.9-1.8-3.7-5.6-1.8-8.5l0,0c1.8-2.9,5.6-3.7,8.5-1.9
		l0,0c2.9,1.8,3.7,5.6,1.9,8.5l0,0c-1.2,1.8-3.2,2.8-5.2,2.8l0,0C68.3,254.5,67.2,254.2,66.2,253.5z M525.4,251.6
		c-1.8-2.9-1-6.7,1.9-8.5l0,0c2.9-1.8,6.7-1,8.5,1.9l0,0c1.8,2.9,1,6.7-1.9,8.5l0,0c-1,0.7-2.2,1-3.3,1l0,0
		C528.6,254.5,526.6,253.5,525.4,251.6z M50.6,242.9c-2.6-2.2-2.9-6.1-0.6-8.7l0,0c2.2-2.6,6.1-2.9,8.7-0.6l0,0
		c2.6,2.2,2.9,6.1,0.6,8.7l0,0c-1.2,1.4-2.9,2.1-4.7,2.1l0,0C53.2,244.4,51.7,244,50.6,242.9z M540.8,242.3c-2.2-2.6-2-6.5,0.6-8.7
		l0,0c2.6-2.2,6.5-2,8.7,0.6l0,0c2.2,2.6,2,6.5-0.6,8.7l0,0l0,0l0,0c-1.2,1-2.6,1.5-4,1.5l0,0C543.7,244.4,542,243.7,540.8,242.3z
		 M38.7,225.6c-1.1-3.2,0.7-6.7,3.9-7.8l0,0c3.2-1.1,6.7,0.7,7.8,3.9l0,0c1.1,3.2-0.7,6.7-3.9,7.8l0,0c-0.6,0.2-1.3,0.3-1.9,0.3l0,0
		C42,229.8,39.6,228.2,38.7,225.6z M553.5,229.4c-3.2-1.1-5-4.5-3.9-7.8l0,0c1.1-3.2,4.5-5,7.8-4l0,0c3.2,1.1,5,4.5,3.9,7.8l0,0
		c-0.8,2.6-3.3,4.2-5.8,4.2l0,0C554.8,229.7,554.2,229.6,553.5,229.4z M42.6,211.8c-3.2-1.1-5-4.5-3.9-7.8l0,0
		c1.1-3.2,4.5-5,7.8-3.9l0,0c3.2,1.1,5,4.5,3.9,7.8l0,0c-0.8,2.6-3.3,4.2-5.8,4.2l0,0C43.9,212.1,43.3,212,42.6,211.8z M549.6,207.8
		c-1.1-3.2,0.7-6.7,3.9-7.8l0,0c3.2-1.1,6.7,0.7,7.8,3.9l0,0c1.1,3.2-0.7,6.7-3.9,7.8l0,0c-0.6,0.2-1.3,0.3-1.9,0.3l0,0
		C552.8,212.1,550.4,210.4,549.6,207.8z M49.9,195.4c-2.2-2.6-2-6.5,0.6-8.7l0,0c2.6-2.2,6.5-2,8.7,0.6l0,0c2.2,2.6,2,6.5-0.6,8.7
		l0,0c-1.2,1-2.6,1.5-4,1.5l0,0C52.9,197.5,51.1,196.8,49.9,195.4z M541.3,195.9L541.3,195.9c-2.6-2.2-2.9-6.1-0.6-8.7l0,0
		c2.2-2.6,6.1-2.9,8.7-0.6l0,0l0,0l0,0c2.6,2.2,2.9,6.1,0.6,8.7l0,0c-1.2,1.4-2.9,2.1-4.7,2.1l0,0
		C543.9,197.4,542.5,196.9,541.3,195.9z M64.3,184.6c-1.8-2.9-1-6.7,1.9-8.5l0,0c2.9-1.8,6.7-1,8.5,1.9l0,0c1.8,2.9,1,6.7-1.9,8.5
		l0,0c-1,0.7-2.2,1-3.3,1l0,0C67.4,187.4,65.4,186.4,64.3,184.6z M527.2,186.4c-2.9-1.8-3.7-5.6-1.9-8.5l0,0
		c1.8-2.9,5.6-3.7,8.5-1.9l0,0c2.9,1.8,3.7,5.6,1.9,8.5l0,0c-1.2,1.8-3.2,2.8-5.2,2.8l0,0C529.3,187.4,528.2,187.1,527.2,186.4z
		 M79.4,174.9c-1.8-2.9-1-6.7,1.8-8.5l0,0c2.9-1.8,6.7-1,8.5,1.9l0,0c1.8,2.9,1,6.7-1.9,8.5l0,0c-1,0.7-2.2,1-3.3,1l0,0
		C82.6,177.7,80.6,176.7,79.4,174.9z M512,176.7c-2.9-1.8-3.7-5.6-1.8-8.5l0,0c1.8-2.9,5.6-3.7,8.5-1.9l0,0c2.9,1.8,3.7,5.6,1.9,8.5
		l0,0c-1.2,1.8-3.2,2.8-5.2,2.8l0,0C514.2,177.7,513.1,177.4,512,176.7z M94.5,165.2c-1.8-2.9-1-6.7,1.9-8.5l0,0
		c2.9-1.8,6.7-1,8.5,1.9l0,0c1.8,2.9,1,6.7-1.9,8.5l0,0c-1,0.7-2.2,1-3.3,1l0,0C97.7,168,95.7,167,94.5,165.2z M496.9,167
		c-2.9-1.8-3.7-5.6-1.9-8.5l0,0c1.8-2.9,5.6-3.7,8.5-1.9l0,0c2.9,1.8,3.7,5.6,1.9,8.5l0,0c-1.2,1.8-3.2,2.8-5.2,2.8l0,0
		C499.1,168,497.9,167.7,496.9,167z M109.7,155.5c-1.8-2.9-1-6.7,1.9-8.5l0,0c2.9-1.8,6.7-1,8.5,1.9l0,0c1.8,2.9,1,6.7-1.9,8.5l0,0
		c-1,0.7-2.2,1-3.3,1l0,0C112.8,158.3,110.8,157.3,109.7,155.5z M481.8,157.3c-2.9-1.8-3.7-5.6-1.9-8.5l0,0c1.8-2.9,5.6-3.7,8.5-1.8
		l0,0c2.9,1.8,3.7,5.6,1.9,8.5l0,0c-1.2,1.8-3.2,2.8-5.2,2.8l0,0C484,158.3,482.8,157.9,481.8,157.3z M124.8,145.8
		c-1.8-2.9-1-6.7,1.9-8.5l0,0c2.9-1.8,6.7-1,8.5,1.9l0,0c1.8,2.9,1,6.7-1.9,8.5l0,0c-1,0.7-2.2,1-3.3,1l0,0
		C127.9,148.6,126,147.6,124.8,145.8z M466.6,147.6c-2.9-1.8-3.7-5.6-1.9-8.5l0,0c1.8-2.9,5.6-3.7,8.5-1.9l0,0
		c2.9,1.8,3.7,5.6,1.9,8.5l0,0c-1.2,1.8-3.2,2.8-5.2,2.8l0,0C468.8,148.6,467.7,148.2,466.6,147.6z M139.9,136.1
		c-1.8-2.9-1-6.7,1.9-8.5l0,0c2.9-1.8,6.7-1,8.5,1.9l0,0c1.8,2.9,1,6.7-1.8,8.5l0,0c-1,0.7-2.2,1-3.3,1l0,0
		C143.1,138.9,141.1,137.9,139.9,136.1z M451.5,137.9c-2.9-1.8-3.7-5.6-1.8-8.5l0,0c1.8-2.9,5.6-3.7,8.5-1.9l0,0
		c2.9,1.8,3.7,5.6,1.9,8.5l0,0c-1.2,1.8-3.2,2.8-5.2,2.8l0,0C453.7,138.8,452.5,138.5,451.5,137.9z M155,126.3
		c-1.8-2.9-1-6.7,1.9-8.5l0,0c2.9-1.8,6.7-1,8.5,1.9l0,0c1.8,2.9,1,6.7-1.9,8.5l0,0c-1,0.7-2.2,1-3.3,1l0,0
		C158.2,129.2,156.2,128.2,155,126.3z M436.4,128.2c-2.9-1.8-3.7-5.7-1.9-8.5l0,0c1.8-2.9,5.7-3.7,8.5-1.8l0,0
		c2.9,1.8,3.7,5.6,1.8,8.5l0,0c-1.2,1.8-3.2,2.8-5.2,2.8l0,0C438.6,129.1,437.4,128.8,436.4,128.2z M170.2,116.6
		c-1.8-2.9-1-6.7,1.9-8.5l0,0c2.9-1.8,6.7-1,8.5,1.9l0,0c1.8,2.9,1,6.7-1.9,8.5l0,0c-1,0.7-2.2,1-3.3,1l0,0
		C173.3,119.5,171.3,118.5,170.2,116.6z M421.3,118.4c-2.9-1.8-3.7-5.6-1.9-8.5l0,0c1.8-2.9,5.6-3.7,8.5-1.9l0,0
		c2.9,1.8,3.7,5.6,1.9,8.5l0,0c-1.2,1.8-3.2,2.8-5.2,2.8l0,0C423.4,119.4,422.3,119.1,421.3,118.4z M185.3,106.9
		c-1.8-2.9-1-6.7,1.9-8.5l0,0c2.9-1.8,6.7-1,8.5,1.8l0,0c1.8,2.9,1,6.7-1.9,8.5l0,0c-1,0.7-2.2,1-3.3,1l0,0
		C188.4,109.8,186.5,108.8,185.3,106.9z M406.1,108.7c-2.9-1.8-3.7-5.6-1.9-8.5l0,0c1.8-2.9,5.6-3.7,8.5-1.9l0,0
		c2.9,1.8,3.7,5.6,1.9,8.5l0,0c-1.2,1.8-3.2,2.8-5.2,2.8l0,0C408.3,109.7,407.2,109.4,406.1,108.7z M200.4,97.2
		c-1.8-2.9-1-6.7,1.9-8.5l0,0c2.9-1.8,6.7-1,8.5,1.9l0,0c1.8,2.9,1,6.7-1.9,8.5l0,0c-1,0.7-2.2,1-3.3,1l0,0
		C203.6,100,201.6,99,200.4,97.2z M391,99c-2.9-1.8-3.7-5.6-1.8-8.5l0,0c1.8-2.9,5.6-3.7,8.5-1.9l0,0c2.9,1.8,3.7,5.6,1.9,8.5l0,0
		c-1.2,1.8-3.2,2.8-5.2,2.8l0,0C393.2,100,392,99.7,391,99z M215.5,87.5c-1.8-2.9-1-6.7,1.9-8.5l0,0c2.9-1.8,6.7-1,8.5,1.9l0,0
		c1.8,2.9,1,6.7-1.8,8.5l0,0c-1,0.7-2.2,1-3.3,1l0,0C218.7,90.3,216.7,89.3,215.5,87.5z M375.9,89.3c-2.9-1.8-3.7-5.6-1.9-8.5l0,0
		c1.8-2.9,5.7-3.7,8.5-1.8l0,0c2.9,1.8,3.7,5.6,1.8,8.5l0,0c-1.2,1.8-3.2,2.8-5.2,2.8l0,0C378.1,90.3,376.9,90,375.9,89.3z
		 M230.7,77.8c-1.8-2.9-1-6.7,1.9-8.5l0,0c2.9-1.8,6.7-1,8.5,1.9l0,0c1.8,2.9,1,6.7-1.9,8.5l0,0c-1,0.7-2.2,1-3.3,1l0,0
		C233.8,80.6,231.8,79.6,230.7,77.8z M360.8,79.6c-2.9-1.8-3.7-5.6-1.9-8.5l0,0c1.8-2.9,5.6-3.7,8.5-1.9l0,0
		c2.9,1.8,3.7,5.6,1.9,8.5l0,0c-1.2,1.8-3.2,2.8-5.2,2.8l0,0C362.9,80.6,361.8,80.3,360.8,79.6z M245.8,68.1c-1.8-2.9-1-6.7,1.9-8.5
		l0,0c2.9-1.8,6.7-1,8.5,1.8l0,0c1.8,2.9,1,6.7-1.9,8.5l0,0c-1,0.7-2.2,1-3.3,1l0,0C248.9,70.9,247,69.9,245.8,68.1z M345.6,69.9
		c-2.9-1.8-3.7-5.6-1.9-8.5l0,0c1.8-2.9,5.6-3.7,8.5-1.9l0,0c2.9,1.8,3.7,5.6,1.9,8.5l0,0c-1.2,1.8-3.2,2.8-5.2,2.8l0,0
		C347.8,70.9,346.7,70.6,345.6,69.9z M260.9,58.4c-1.8-2.9-1-6.7,1.9-8.5l0,0c2.9-1.8,6.7-1,8.5,1.9l0,0c1.8,2.9,1,6.7-1.9,8.5l0,0
		c-1,0.7-2.2,1-3.3,1l0,0C264.1,61.2,262.1,60.2,260.9,58.4z M330.5,60.2c-2.9-1.8-3.7-5.6-1.9-8.5l0,0c1.8-2.9,5.6-3.7,8.5-1.8l0,0
		c2.9,1.8,3.7,5.6,1.9,8.5l0,0c-1.2,1.8-3.2,2.8-5.2,2.8l0,0C332.7,61.2,331.5,60.8,330.5,60.2z M276.3,49c-1-3.3,0.9-6.7,4.2-7.6
		l0,0l0,0l0,0c3.3-1,6.7,0.9,7.6,4.2l0,0c1,3.3-0.9,6.7-4.2,7.6l0,0c-0.6,0.2-1.2,0.2-1.7,0.2l0,0C279.6,53.5,277.1,51.7,276.3,49z
		 M316,53.2c-3.3-1-5.1-4.4-4.2-7.6l0,0c0.9-3.3,4.4-5.1,7.6-4.2l0,0c3.3,1,5.1,4.4,4.2,7.6l0,0c-0.8,2.7-3.2,4.4-5.9,4.4l0,0
		C317.1,53.4,316.6,53.4,316,53.2z M293.8,44.8c0-3.4,2.7-6.2,6.2-6.2l0,0c3.4,0,6.2,2.8,6.2,6.2l0,0c0,3.4-2.8,6.2-6.2,6.2l0,0
		C296.6,51,293.8,48.2,293.8,44.8z"/>
</g>
<g>
	<path class="st4" d="M293.8,382.9c0-3.4,2.7-6.1,6-6.2l0,0c0.1,0,0.1,0,0.2,0l0,0c3.4,0,6.2,2.7,6.2,6.2l0,0c0,3.4-2.7,6.2-6.2,6.2
		l0,0l0,0l0,0l0,0l0,0l0,0l0,0C296.6,389,293.8,386.3,293.8,382.9z M280.5,386.3c-3.3-0.9-5.1-4.4-4.2-7.6l0,0
		c1-3.3,4.4-5.1,7.6-4.2l0,0c3.3,1,5.1,4.4,4.2,7.6l0,0c-0.8,2.7-3.2,4.4-5.9,4.4l0,0C281.7,386.6,281.1,386.5,280.5,386.3z
		 M311.9,382.1c-1-3.3,0.9-6.7,4.2-7.6l0,0c3.3-1,6.7,0.9,7.6,4.2l0,0c1,3.3-0.9,6.7-4.2,7.6l0,0l0,0l0,0c-0.6,0.2-1.2,0.2-1.7,0.2
		l0,0C315.2,386.5,312.7,384.8,311.9,382.1z M262.8,377.9c-2.9-1.8-3.7-5.6-1.9-8.5l0,0c1.8-2.9,5.6-3.7,8.5-1.9l0,0
		c2.9,1.8,3.7,5.6,1.9,8.5l0,0c-1.2,1.8-3.2,2.8-5.2,2.8l0,0C265,378.8,263.8,378.5,262.8,377.9z M328.8,376c-1.8-2.9-1-6.7,1.9-8.5
		l0,0c2.9-1.8,6.7-1,8.5,1.8l0,0c1.8,2.9,1,6.7-1.9,8.5l0,0c-1,0.7-2.2,1-3.3,1l0,0C331.9,378.8,329.9,377.8,328.8,376z
		 M300.1,376.7L300.1,376.7L300.1,376.7L300.1,376.7L300.1,376.7z M247.7,368.1c-2.9-1.8-3.7-5.6-1.9-8.5l0,0
		c1.8-2.9,5.6-3.7,8.5-1.9l0,0c2.9,1.8,3.7,5.6,1.9,8.5l0,0C255,368,253,369,251,369l0,0C249.8,369.1,248.7,368.8,247.7,368.1z
		 M343.9,366.2c-1.8-2.9-1-6.7,1.9-8.5l0,0c2.9-1.8,6.7-1,8.5,1.9l0,0c1.8,2.9,1,6.7-1.9,8.5l0,0c-1,0.7-2.2,1-3.3,1l0,0
		C347,369.1,345.1,368.1,343.9,366.2z M232.5,358.4c-2.9-1.8-3.7-5.7-1.9-8.5l0,0c1.8-2.9,5.6-3.7,8.5-1.8l0,0
		c2.9,1.8,3.7,5.6,1.9,8.5l0,0c-1.2,1.8-3.2,2.8-5.2,2.8l0,0C234.7,359.4,233.6,359.1,232.5,358.4z M359,356.5
		c-1.8-2.9-1-6.7,1.8-8.5l0,0c2.9-1.8,6.7-1,8.5,1.9l0,0c1.8,2.9,1,6.7-1.9,8.5l0,0c-1,0.7-2.2,1-3.3,1l0,0
		C362.2,359.4,360.2,358.4,359,356.5z M217.4,348.7c-2.9-1.8-3.7-5.6-1.9-8.5l0,0c1.8-2.9,5.6-3.7,8.5-1.9l0,0
		c2.9,1.8,3.7,5.6,1.9,8.5l0,0c-1.2,1.8-3.2,2.8-5.2,2.8l0,0C219.6,349.7,218.4,349.4,217.4,348.7z M374.1,346.8
		c-1.8-2.9-1-6.7,1.9-8.5l0,0c2.9-1.8,6.7-1,8.5,1.9l0,0c1.8,2.9,1,6.7-1.9,8.5l0,0c-1,0.7-2.2,1-3.3,1l0,0
		C377.3,349.7,375.3,348.7,374.1,346.8z M202.3,339c-2.9-1.8-3.7-5.6-1.8-8.5l0,0c1.8-2.9,5.6-3.7,8.5-1.9l0,0
		c2.9,1.8,3.7,5.6,1.9,8.5l0,0c-1.2,1.8-3.2,2.8-5.2,2.8l0,0C204.5,340,203.3,339.7,202.3,339z M389.3,337.1c-1.8-2.9-1-6.7,1.9-8.5
		l0,0c2.9-1.8,6.7-1,8.5,1.9l0,0c1.8,2.9,1,6.7-1.9,8.5l0,0c-1,0.7-2.2,1-3.3,1l0,0C392.4,339.9,390.4,338.9,389.3,337.1z
		 M187.2,329.3c-2.9-1.8-3.7-5.6-1.9-8.5l0,0c1.8-2.9,5.6-3.7,8.5-1.9l0,0c2.9,1.8,3.7,5.6,1.9,8.5l0,0c-1.2,1.8-3.2,2.8-5.2,2.8
		l0,0C189.3,330.3,188.2,330,187.2,329.3z M404.4,327.4c-1.8-2.9-1-6.7,1.9-8.5l0,0c2.9-1.8,6.7-1,8.5,1.9l0,0
		c1.8,2.9,1,6.7-1.8,8.5l0,0c-1,0.7-2.2,1-3.3,1l0,0C407.5,330.2,405.6,329.2,404.4,327.4z M172,319.6c-2.9-1.8-3.7-5.6-1.9-8.5l0,0
		c1.8-2.9,5.6-3.7,8.5-1.9l0,0c2.9,1.8,3.7,5.6,1.9,8.5l0,0c-1.2,1.8-3.2,2.8-5.2,2.8l0,0C174.2,320.6,173.1,320.3,172,319.6z
		 M419.5,317.7c-1.8-2.9-1-6.7,1.8-8.5l0,0c2.9-1.8,6.7-1,8.5,1.9l0,0c1.8,2.9,1,6.7-1.9,8.5l0,0c-1,0.7-2.2,1-3.3,1l0,0
		C422.7,320.5,420.7,319.5,419.5,317.7z M156.9,309.9c-2.9-1.8-3.7-5.6-1.9-8.5l0,0c1.8-2.9,5.6-3.7,8.5-1.9l0,0
		c2.9,1.8,3.7,5.6,1.9,8.5l0,0c-1.2,1.8-3.2,2.8-5.2,2.8l0,0C159.1,310.9,157.9,310.5,156.9,309.9z M434.6,308
		c-1.8-2.9-1-6.7,1.9-8.5l0,0c2.9-1.8,6.7-1,8.5,1.9l0,0c1.8,2.9,1,6.7-1.9,8.5l0,0c-1,0.7-2.2,1-3.3,1l0,0
		C437.8,310.8,435.8,309.8,434.6,308z M141.8,300.2c-2.9-1.8-3.7-5.6-1.8-8.5l0,0c1.8-2.9,5.6-3.7,8.5-1.9l0,0
		c2.9,1.8,3.7,5.6,1.9,8.5l0,0c-1.2,1.8-3.2,2.8-5.2,2.8l0,0C144,301.1,142.8,300.8,141.8,300.2z M449.8,298.3
		c-1.8-2.9-1-6.7,1.9-8.5l0,0c2.9-1.8,6.7-1,8.5,1.9l0,0c1.8,2.9,1,6.7-1.9,8.5l0,0c-1,0.7-2.2,1-3.3,1l0,0
		C452.9,301.1,450.9,300.1,449.8,298.3z M126.7,290.5c-2.9-1.8-3.7-5.6-1.9-8.5l0,0c1.8-2.9,5.6-3.7,8.5-1.9l0,0
		c2.9,1.8,3.7,5.6,1.9,8.5l0,0c-1.2,1.8-3.2,2.8-5.2,2.8l0,0C128.9,291.4,127.7,291.1,126.7,290.5z M464.9,288.6
		c-1.8-2.9-1-6.7,1.9-8.5l0,0c2.9-1.8,6.7-1,8.5,1.9l0,0c1.8,2.9,1,6.7-1.9,8.5l0,0c-1,0.7-2.2,1-3.3,1l0,0
		C468.1,291.4,466.1,290.4,464.9,288.6z M111.5,280.8c-2.9-1.8-3.7-5.6-1.9-8.5l0,0c1.8-2.9,5.6-3.7,8.5-1.9l0,0
		c2.9,1.8,3.7,5.6,1.9,8.5l0,0c-1.2,1.8-3.2,2.8-5.2,2.8l0,0C113.7,281.7,112.6,281.4,111.5,280.8z M480,278.9
		c-1.8-2.9-1-6.7,1.9-8.5l0,0c2.9-1.8,6.7-1,8.5,1.9l0,0c1.8,2.9,1,6.7-1.9,8.5l0,0c-1,0.7-2.2,1-3.3,1l0,0
		C483.2,281.7,481.2,280.7,480,278.9z M96.4,271c-2.9-1.8-3.7-5.6-1.9-8.5l0,0c1.8-2.9,5.6-3.7,8.5-1.9l0,0c2.9,1.8,3.7,5.6,1.9,8.5
		l0,0c-1.2,1.8-3.2,2.8-5.2,2.8l0,0C98.6,272,97.4,271.7,96.4,271z M495.1,269.1c-1.8-2.9-1-6.7,1.9-8.5l0,0c2.9-1.8,6.7-1,8.5,1.9
		l0,0c1.8,2.9,1,6.7-1.9,8.5l0,0c-1,0.7-2.2,1-3.3,1l0,0C498.3,272,496.3,271,495.1,269.1z M81.3,261.3c-2.9-1.8-3.7-5.6-1.9-8.5
		l0,0c1.8-2.9,5.6-3.7,8.5-1.9l0,0c2.9,1.8,3.7,5.7,1.9,8.5l0,0c-1.2,1.8-3.2,2.8-5.2,2.8l0,0C83.5,262.3,82.3,262,81.3,261.3z
		 M510.3,259.4c-1.8-2.9-1-6.7,1.9-8.5l0,0c2.9-1.8,6.7-1,8.5,1.9l0,0c1.8,2.9,1,6.7-1.9,8.5l0,0c-1,0.7-2.2,1-3.3,1l0,0
		C513.4,262.3,511.4,261.3,510.3,259.4z M66.2,251.6c-2.9-1.8-3.7-5.6-1.8-8.5l0,0c1.8-2.9,5.6-3.7,8.5-1.9l0,0
		c2.9,1.8,3.7,5.6,1.9,8.5l0,0c-1.2,1.8-3.2,2.8-5.2,2.8l0,0C68.3,252.6,67.2,252.3,66.2,251.6z M525.4,249.7
		c-1.8-2.9-1-6.7,1.9-8.5l0,0c2.9-1.8,6.7-1,8.5,1.9l0,0c1.8,2.9,1,6.7-1.9,8.5l0,0c-1,0.7-2.2,1-3.3,1l0,0
		C528.6,252.6,526.6,251.6,525.4,249.7z M50.6,241c-2.6-2.2-2.9-6.1-0.6-8.7l0,0c2.2-2.6,6.1-2.9,8.7-0.6l0,0
		c2.6,2.2,2.9,6.1,0.6,8.7l0,0c-1.2,1.4-2.9,2.1-4.7,2.1l0,0C53.2,242.5,51.7,242.1,50.6,241z M540.8,240.4c-2.2-2.6-2-6.5,0.6-8.7
		l0,0c2.6-2.2,6.5-2,8.7,0.6l0,0c2.2,2.6,2,6.5-0.6,8.7l0,0l0,0l0,0c-1.2,1-2.6,1.5-4,1.5l0,0C543.7,242.5,542,241.8,540.8,240.4z
		 M38.7,223.7c-1.1-3.2,0.7-6.7,3.9-7.8l0,0c3.2-1.1,6.7,0.7,7.8,3.9l0,0c1.1,3.2-0.7,6.7-3.9,7.8l0,0c-0.6,0.2-1.3,0.3-1.9,0.3l0,0
		C42,227.9,39.6,226.3,38.7,223.7z M553.5,227.5c-3.2-1.1-5-4.5-3.9-7.8l0,0c1.1-3.2,4.5-5,7.8-4l0,0c3.2,1.1,5,4.5,3.9,7.8l0,0
		c-0.8,2.6-3.3,4.2-5.8,4.2l0,0C554.8,227.8,554.2,227.7,553.5,227.5z M42.6,209.9c-3.2-1.1-5-4.5-3.9-7.8l0,0
		c1.1-3.2,4.5-5,7.8-3.9l0,0c3.2,1.1,5,4.5,3.9,7.8l0,0c-0.8,2.6-3.3,4.2-5.8,4.2l0,0C43.9,210.2,43.3,210.1,42.6,209.9z
		 M549.6,205.9c-1.1-3.2,0.7-6.7,3.9-7.8l0,0c3.2-1.1,6.7,0.7,7.8,3.9l0,0c1.1,3.2-0.7,6.7-3.9,7.8l0,0c-0.6,0.2-1.3,0.3-1.9,0.3
		l0,0C552.8,210.2,550.4,208.5,549.6,205.9z M49.9,193.5c-2.2-2.6-2-6.5,0.6-8.7l0,0c2.6-2.2,6.5-2,8.7,0.6l0,0
		c2.2,2.6,2,6.5-0.6,8.7l0,0c-1.2,1-2.6,1.5-4,1.5l0,0C52.9,195.6,51.1,194.9,49.9,193.5z M541.3,194L541.3,194
		c-2.6-2.2-2.9-6.1-0.6-8.7l0,0c2.2-2.6,6.1-2.9,8.7-0.6l0,0l0,0l0,0c2.6,2.2,2.9,6.1,0.6,8.7l0,0c-1.2,1.4-2.9,2.1-4.7,2.1l0,0
		C543.9,195.5,542.5,195,541.3,194z M64.3,182.7c-1.8-2.9-1-6.7,1.9-8.5l0,0c2.9-1.8,6.7-1,8.5,1.9l0,0c1.8,2.9,1,6.7-1.9,8.5l0,0
		c-1,0.7-2.2,1-3.3,1l0,0C67.4,185.5,65.4,184.5,64.3,182.7z M527.2,184.5c-2.9-1.8-3.7-5.6-1.9-8.5l0,0c1.8-2.9,5.6-3.7,8.5-1.9
		l0,0c2.9,1.8,3.7,5.6,1.9,8.5l0,0c-1.2,1.8-3.2,2.8-5.2,2.8l0,0C529.3,185.5,528.2,185.2,527.2,184.5z M79.4,173
		c-1.8-2.9-1-6.7,1.8-8.5l0,0c2.9-1.8,6.7-1,8.5,1.9l0,0c1.8,2.9,1,6.7-1.9,8.5l0,0c-1,0.7-2.2,1-3.3,1l0,0
		C82.6,175.8,80.6,174.8,79.4,173z M512,174.8c-2.9-1.8-3.7-5.6-1.8-8.5l0,0c1.8-2.9,5.6-3.7,8.5-1.9l0,0c2.9,1.8,3.7,5.6,1.9,8.5
		l0,0c-1.2,1.8-3.2,2.8-5.2,2.8l0,0C514.2,175.8,513.1,175.5,512,174.8z M94.5,163.3c-1.8-2.9-1-6.7,1.9-8.5l0,0
		c2.9-1.8,6.7-1,8.5,1.9l0,0c1.8,2.9,1,6.7-1.9,8.5l0,0c-1,0.7-2.2,1-3.3,1l0,0C97.7,166.1,95.7,165.1,94.5,163.3z M496.9,165.1
		c-2.9-1.8-3.7-5.6-1.9-8.5l0,0c1.8-2.9,5.6-3.7,8.5-1.9l0,0c2.9,1.8,3.7,5.6,1.9,8.5l0,0c-1.2,1.8-3.2,2.8-5.2,2.8l0,0
		C499.1,166.1,497.9,165.8,496.9,165.1z M109.7,153.6c-1.8-2.9-1-6.7,1.9-8.5l0,0c2.9-1.8,6.7-1,8.5,1.9l0,0c1.8,2.9,1,6.7-1.9,8.5
		l0,0c-1,0.7-2.2,1-3.3,1l0,0C112.8,156.4,110.8,155.4,109.7,153.6z M481.8,155.4c-2.9-1.8-3.7-5.6-1.9-8.5l0,0
		c1.8-2.9,5.6-3.7,8.5-1.8l0,0c2.9,1.8,3.7,5.6,1.9,8.5l0,0c-1.2,1.8-3.2,2.8-5.2,2.8l0,0C484,156.4,482.8,156,481.8,155.4z
		 M124.8,143.9c-1.8-2.9-1-6.7,1.9-8.5l0,0c2.9-1.8,6.7-1,8.5,1.9l0,0c1.8,2.9,1,6.7-1.9,8.5l0,0c-1,0.7-2.2,1-3.3,1l0,0
		C127.9,146.7,126,145.7,124.8,143.9z M466.6,145.7c-2.9-1.8-3.7-5.6-1.9-8.5l0,0c1.8-2.9,5.6-3.7,8.5-1.9l0,0
		c2.9,1.8,3.7,5.6,1.9,8.5l0,0c-1.2,1.8-3.2,2.8-5.2,2.8l0,0C468.8,146.7,467.7,146.3,466.6,145.7z M139.9,134.2
		c-1.8-2.9-1-6.7,1.9-8.5l0,0c2.9-1.8,6.7-1,8.5,1.9l0,0c1.8,2.9,1,6.7-1.8,8.5l0,0c-1,0.7-2.2,1-3.3,1l0,0
		C143.1,137,141.1,136,139.9,134.2z M451.5,136c-2.9-1.8-3.7-5.6-1.8-8.5l0,0c1.8-2.9,5.6-3.7,8.5-1.9l0,0c2.9,1.8,3.7,5.6,1.9,8.5
		l0,0c-1.2,1.8-3.2,2.8-5.2,2.8l0,0C453.7,136.9,452.5,136.6,451.5,136z M155,124.4c-1.8-2.9-1-6.7,1.9-8.5l0,0
		c2.9-1.8,6.7-1,8.5,1.9l0,0c1.8,2.9,1,6.7-1.9,8.5l0,0c-1,0.7-2.2,1-3.3,1l0,0C158.2,127.3,156.2,126.3,155,124.4z M436.4,126.3
		c-2.9-1.8-3.7-5.7-1.9-8.5l0,0c1.8-2.9,5.7-3.7,8.5-1.8l0,0c2.9,1.8,3.7,5.6,1.8,8.5l0,0c-1.2,1.8-3.2,2.8-5.2,2.8l0,0
		C438.6,127.2,437.4,126.9,436.4,126.3z M170.2,114.7c-1.8-2.9-1-6.7,1.9-8.5l0,0c2.9-1.8,6.7-1,8.5,1.9l0,0c1.8,2.9,1,6.7-1.9,8.5
		l0,0c-1,0.7-2.2,1-3.3,1l0,0C173.3,117.6,171.3,116.6,170.2,114.7z M421.3,116.6c-2.9-1.8-3.7-5.6-1.9-8.5l0,0
		c1.8-2.9,5.6-3.7,8.5-1.9l0,0c2.9,1.8,3.7,5.6,1.9,8.5l0,0c-1.2,1.8-3.2,2.8-5.2,2.8l0,0C423.4,117.5,422.3,117.2,421.3,116.6z
		 M185.3,105c-1.8-2.9-1-6.7,1.9-8.5l0,0c2.9-1.8,6.7-1,8.5,1.8l0,0c1.8,2.9,1,6.7-1.9,8.5l0,0c-1,0.7-2.2,1-3.3,1l0,0
		C188.4,107.9,186.5,106.9,185.3,105z M406.1,106.8c-2.9-1.8-3.7-5.6-1.9-8.5l0,0c1.8-2.9,5.6-3.7,8.5-1.9l0,0
		c2.9,1.8,3.7,5.6,1.9,8.5l0,0c-1.2,1.8-3.2,2.8-5.2,2.8l0,0C408.3,107.8,407.2,107.5,406.1,106.8z M200.4,95.3
		c-1.8-2.9-1-6.7,1.9-8.5l0,0c2.9-1.8,6.7-1,8.5,1.9l0,0c1.8,2.9,1,6.7-1.9,8.5l0,0c-1,0.7-2.2,1-3.3,1l0,0
		C203.6,98.1,201.6,97.1,200.4,95.3z M391,97.1c-2.9-1.8-3.7-5.6-1.8-8.5l0,0c1.8-2.9,5.6-3.7,8.5-1.9l0,0c2.9,1.8,3.7,5.6,1.9,8.5
		l0,0c-1.2,1.8-3.2,2.8-5.2,2.8l0,0C393.2,98.1,392,97.8,391,97.1z M215.5,85.6c-1.8-2.9-1-6.7,1.9-8.5l0,0c2.9-1.8,6.7-1,8.5,1.9
		l0,0c1.8,2.9,1,6.7-1.8,8.5l0,0c-1,0.7-2.2,1-3.3,1l0,0C218.7,88.4,216.7,87.4,215.5,85.6z M375.9,87.4c-2.9-1.8-3.7-5.6-1.9-8.5
		l0,0c1.8-2.9,5.7-3.7,8.5-1.8l0,0c2.9,1.8,3.7,5.6,1.8,8.5l0,0c-1.2,1.8-3.2,2.8-5.2,2.8l0,0C378.1,88.4,376.9,88.1,375.9,87.4z
		 M230.7,75.9c-1.8-2.9-1-6.7,1.9-8.5l0,0c2.9-1.8,6.7-1,8.5,1.9l0,0c1.8,2.9,1,6.7-1.9,8.5l0,0c-1,0.7-2.2,1-3.3,1l0,0
		C233.8,78.7,231.8,77.7,230.7,75.9z M360.8,77.7c-2.9-1.8-3.7-5.6-1.9-8.5l0,0c1.8-2.9,5.6-3.7,8.5-1.9l0,0
		c2.9,1.8,3.7,5.6,1.9,8.5l0,0c-1.2,1.8-3.2,2.8-5.2,2.8l0,0C362.9,78.7,361.8,78.4,360.8,77.7z M245.8,66.2c-1.8-2.9-1-6.7,1.9-8.5
		l0,0c2.9-1.8,6.7-1,8.5,1.8l0,0c1.8,2.9,1,6.7-1.9,8.5l0,0c-1,0.7-2.2,1-3.3,1l0,0C248.9,69,247,68,245.8,66.2z M345.6,68
		c-2.9-1.8-3.7-5.6-1.9-8.5l0,0c1.8-2.9,5.6-3.7,8.5-1.9l0,0c2.9,1.8,3.7,5.6,1.9,8.5l0,0c-1.2,1.8-3.2,2.8-5.2,2.8l0,0
		C347.8,69,346.7,68.7,345.6,68z M260.9,56.5c-1.8-2.9-1-6.7,1.9-8.5l0,0c2.9-1.8,6.7-1,8.5,1.9l0,0c1.8,2.9,1,6.7-1.9,8.5l0,0
		c-1,0.7-2.2,1-3.3,1l0,0C264.1,59.3,262.1,58.3,260.9,56.5z M330.5,58.3c-2.9-1.8-3.7-5.6-1.9-8.5l0,0c1.8-2.9,5.6-3.7,8.5-1.8l0,0
		c2.9,1.8,3.7,5.6,1.9,8.5l0,0c-1.2,1.8-3.2,2.8-5.2,2.8l0,0C332.7,59.3,331.5,58.9,330.5,58.3z M276.3,47.1c-1-3.3,0.9-6.7,4.2-7.6
		l0,0l0,0l0,0c3.3-1,6.7,0.9,7.6,4.2l0,0c1,3.3-0.9,6.7-4.2,7.6l0,0c-0.6,0.2-1.2,0.2-1.7,0.2l0,0C279.6,51.6,277.1,49.8,276.3,47.1
		z M316,51.3c-3.3-1-5.1-4.4-4.2-7.6l0,0c0.9-3.3,4.4-5.1,7.6-4.2l0,0c3.3,1,5.1,4.4,4.2,7.6l0,0c-0.8,2.7-3.2,4.4-5.9,4.4l0,0
		C317.1,51.5,316.6,51.5,316,51.3z M293.8,42.9c0-3.4,2.7-6.2,6.2-6.2l0,0c3.4,0,6.2,2.8,6.2,6.2l0,0c0,3.4-2.8,6.2-6.2,6.2l0,0
		C296.6,49.1,293.8,46.3,293.8,42.9z"/>
</g>
<path class="st5" d="M532.9,197.8L323.6,63.4c-13-8.4-34.1-8.4-47.1,0L67.1,197.8c-13,8.4-13,21.9,0,30.3l209.3,134.4
	c13,8.4,34.1,8.4,47.1,0l209.3-134.4C545.9,219.7,545.9,206.1,532.9,197.8z"/>
<path class="st1" d="M67.1,202.8L276.4,68.4c13-8.4,34.1-8.4,47.1,0l209.3,134.4c5.5,3.5,8.7,8,9.5,12.6c1.1-6.3-2-12.8-9.5-17.6
	L323.6,63.4c-13-8.4-34.1-8.4-47.1,0L67.1,197.8c-7.5,4.8-10.7,11.4-9.5,17.6C58.4,210.8,61.6,206.3,67.1,202.8z"/>
<path class="st2" d="M362,192.4c-2.2,0-4.6-0.5-6.9-1.4c-2.4-1-4.7-2.5-6.6-4.6c-0.2-0.3-0.5-0.5-0.7-0.7c-0.5-0.4-0.9-0.8-1.3-1.3
	c-2.7-2.7-4.1-6.3-4.1-10.3c0-1.8,0.5-3.7,1.6-5.8c0.5-1,1.1-2,1.7-3.1c0.5-0.8,0.9-1.6,1.3-2.3c0.7-3.8,4-7.1,9.5-7.1
	c2.2,0,4.6,0.5,7,1.6c2.4,1,4.6,2.6,6.4,4.6c0.2,0.2,0.3,0.4,0.5,0.5c0.5,0.5,1,0.9,1.5,1.5c2.5,2.7,3.9,6.2,3.9,10.1
	c0,1.7-0.5,3.5-1.5,5.5c-0.5,0.9-0.9,1.8-1.5,2.8c-0.4,0.7-0.8,1.5-1.1,2.2C371.2,188.6,367.9,192.4,362,192.4z"/>
<path class="st5" d="M186.1,288.6c-3.1,0-6.1-0.4-9.1-1.2c-3.1-0.8-6-2.1-8.7-3.8c-2.8-1.7-5.3-3.7-7.4-6c-2.1-1.9-3.9-4.1-5.4-6.4
	c-2.5-4-4.3-8.4-5.3-13.1c-1-4.5-1.3-9.3-1-14.1c0.3-4.7,1.1-9.2,2.2-13.6c2-6.9,4.1-13.4,6.5-19.3c2.4-6.1,5.3-11.8,8.4-17.1
	c3.2-5.3,6.9-10.4,10.9-15.1s8.7-9.3,13.8-13.6c2-1.7,4.6-3.4,7.7-5c3.2-1.7,6.7-2.9,10.4-3.8c2.4-0.5,4.8-0.8,7.3-0.8
	c1.6,0,3.3,0.1,4.9,0.4c4.7,0.7,9,2.7,12.9,6c0.7,0.6,1.4,1.3,2.1,2.1c3.1,2.7,5.5,6.4,7.2,11c1.6,4.3,2.4,9,2.4,13.9
	c0,4.3-0.7,8.6-2.1,12.9c0.1-0.2,0.3-0.4,0.4-0.6c2.6-3.9,5.5-7.1,8.6-9.7c3.2-2.7,6.7-4.7,10.2-5.9c3.3-1.1,6.6-1.7,10-1.7
	c0.3,0,0.6,0,0.8,0h0.2h0.2c1.3,0.1,2.8,0.4,4.2,0.7c1.4,0.4,2.7,0.9,3.9,1.6c2.1-1.2,4.6-2,7.4-2.1c0.3,0,0.5,0,0.8,0
	c2.5,0,5.1,0.6,7.7,1.8c1.4,0.7,2.7,1.5,3.8,2.6c0.1-0.3,0.2-0.7,0.3-1.1c0.5-1.8,1.3-3.6,2.3-5.3c1.3-2,3-3.7,5.1-5.1
	c2.4-1.5,5.4-2.3,8.7-2.3c4,0,7.2,1.2,9.6,3.5c0.4,0.4,0.8,0.8,1.2,1.3c0.3,0.2,0.6,0.5,0.8,0.7c2.4,2.3,3.7,5.2,3.9,8.5
	c0.1,2.4-0.3,5-1.3,7.6c-0.2,0.5-0.4,1-0.6,1.4c1.7,2.3,3.2,4.5,4.4,6.7c0.5,0.8,0.9,1.7,1.4,2.5V207c1.1-2.5,2.1-4.8,2.9-6.8
	c0.5-1.3,0.9-2.2,1.1-3c-0.4-1.1-0.5-2.3-0.4-3.5c0.1-1.7,1-4.9,4.9-7.2c2.1-1.3,4.7-2,7.5-2.1c0.3,0,0.5,0,0.8,0
	c2.5,0,5.1,0.6,7.7,1.8c1.8,0.9,3.5,2.1,4.8,3.8c0.4,0.3,0.8,0.6,1.1,1c0.7-1.5,1.9-3.1,4.1-4.4c2.1-1.3,4.7-2,7.5-2.1
	c0.3,0,0.5,0,0.8,0c2.6,0,5.2,0.6,7.7,1.8c1.6,0.8,3,1.8,4.2,3.2c1.8-1.3,3.6-2.4,5.3-3.2c2.5-1.2,5-1.8,7.5-1.8c0.1,0,0.2,0,0.3,0
	c4.6,0,8.7,1.9,11.5,5.3c1.5,1.3,2.8,2.8,3.8,4.7c1,1.8,1.7,3.8,2.1,5.9c2.2-3,4.7-5.7,7.3-8c3.1-2.7,6.6-4.8,10.3-6.3
	c3.5-1.4,7.1-2,10.9-2c0.5,0,1,0,1.5,0c2.8,0.1,5.2,0.9,7.3,2.1c1.6,1,3,2.2,4.2,3.5c0.9,0.8,1.7,1.6,2.4,2.5c1.2,1.5,2,3.2,2.6,5
	c0.4,1.3,0.7,2.5,0.9,3.6l0.1,0.7v0.7c0,1.1-0.1,2.1-0.3,3c0.5-0.2,1.1-0.4,1.7-0.6c0.7-0.2,1.5-0.3,2.3-0.3c1.6,0,3.1,0.4,4.5,1.1
	s2.6,1.7,3.6,3c1.3,1,2.4,2.3,3.1,3.9c1.1,2.4,1.2,5.2,0.2,7.8l-0.1,0.2l-0.1,0.2c-1,2.5-2.6,4.7-4.7,6.7c-1.9,1.7-4,3.2-6.4,4.4
	c-2.3,1.1-4.8,2-7.5,2.6c-0.9,0.2-1.9,0.4-2.9,0.5c-0.7,1.3-1.4,2.6-2.2,4c-1.9,3.3-4.1,6.4-6.5,9.3c-2.6,3-5.6,5.6-8.8,7.6
	c-3.5,2.2-7.3,3.3-11.3,3.3c-0.6,0-1.1,0-1.7-0.1h-0.2c-5.5-0.5-10.2-2.9-13.6-6.9c-0.7-0.6-1.4-1.3-2-2c-2,2.1-4.1,3.9-6.2,5.3
	c-3.3,2.3-6.6,3.4-10,3.5c-0.2,0-0.4,0-0.6,0c-3.1,0-5.9-0.9-8.3-2.7c-0.9-0.7-1.8-1.5-2.6-2.5c-1.8-1.5-3.2-3.3-4.3-5.6
	c-1-2.1-1.8-4.4-2.2-6.9c-0.1-0.3-0.1-0.7-0.1-1c0,0.1,0,0.1-0.1,0.2c-1,2.2-1.8,4-2.2,5.6v0.1c1,3.2,0.3,7.3-3.4,10.3
	c-2.1,1.7-4.9,2.7-7.8,2.8c-0.1,0-0.3,0-0.4,0c-2.7,0-5.4-0.8-7.9-2.4c-1.1-0.7-2.2-1.6-3.1-2.7c-0.6,0.5-1.2,0.9-1.8,1.4
	c-3.3,2.3-6.6,3.4-10,3.5c-0.2,0-0.4,0-0.7,0c-2.8,0-5.4-0.7-7.7-2.1c-1.4-0.9-2.6-1.9-3.7-3.2c-0.9-0.7-1.6-1.5-2.3-2.4
	c-2.4,1.8-5.1,3.3-7.9,4.6l0,0c-2.1,1-4.1,1.8-6,2.4c-2.3,0.7-4.3,1-6.1,1c-5.1,0-9.3-1.5-12.5-4.5c-0.5-0.4-0.9-0.9-1.3-1.4
	c-0.2-0.2-0.5-0.4-0.7-0.6c-0.3-0.3-0.5-0.5-0.8-0.8c-1.4,1.3-2.9,2.5-4.4,3.5c-3.3,2.2-6.6,3.4-10,3.5c-0.2,0-0.5,0-0.7,0
	c-4.3,0-8.1-1.7-10.8-4.7c-0.7,0.5-1.4,1-2.2,1.5c-2.9,1.7-6,2.8-9.2,3.2c-0.7,0.1-1.3,0.1-2,0.1c-2.8,0-5.8-0.6-8.8-1.9
	c-3.1-1.3-5.7-3-7.8-5.2c-0.7,1-1.4,1.9-2.2,2.9c-6.1,8-12.6,14.8-19.1,20.2c-6.4,5.1-12.8,8.9-19.1,11.2c-2.4,1-5,1.8-7.7,2.2
	C191.2,288.4,188.6,288.6,186.1,288.6z M189.2,261.8c0.7,0.4,1.4,0.7,2.2,0.8c0.4,0.1,0.8,0.1,1.2,0.1c1.3,0,2.7-0.3,4.4-0.9
	c2.6-0.9,5.6-2.7,8.8-5.3c2.7-2.2,5.5-4.9,8.4-8c2.9-3.2,5.9-6.7,8.7-10.6c2.9-3.9,5.8-8.2,8.5-12.7c2.2-3.5,4.3-7.3,6.4-11.3
	c0.2-0.4,0.3-0.8,0.5-1.1c-1.3,1.6-2.7,3.1-4.3,4.5l-0.1,0.1c-2.3,1.9-5.1,3-8.3,3c-0.8,0-1.5-0.1-2.3-0.2c-2.7-0.4-5.3-1.3-7.7-2.7
	c-1.8-1.1-3.3-2.3-4.6-3.8c-1.5-1.2-2.6-2.6-3.5-4.1c-2.7-4.6-1.6-10,2.6-13.4c1.4-1.1,2.7-2.6,3.8-4.4s2-3.6,2.7-5.5
	c-1,1-2.1,2-3.3,3.2c-2.7,2.9-5.5,6.3-8.3,10.2c-2.1,2.9-4,6-5.8,9.4s-3.5,6.9-5,10.2c-1.5,3.4-2.8,6.7-3.9,9.8
	c-1.1,3.1-2,5.8-2.6,8.2c-1.2,4.3-1.8,8.3-1.8,11.9c0,3.4,0.4,6.4,1.2,8.8C187.8,259.6,188.4,260.8,189.2,261.8z"/>
<path class="st2" d="M182.1,283.6c-3.1,0-6.1-0.4-9.1-1.2c-3.1-0.8-6-2.1-8.7-3.8c-2.8-1.7-5.3-3.7-7.4-6c-2.1-1.9-3.9-4.1-5.4-6.4
	c-2.5-4-4.3-8.4-5.3-13.1c-1-4.5-1.3-9.3-1-14.1c0.3-4.7,1.1-9.2,2.2-13.6c2-6.9,4.1-13.4,6.5-19.3c2.4-6.1,5.3-11.8,8.4-17.1
	c3.2-5.3,6.9-10.4,10.9-15.1s8.7-9.3,13.8-13.6c2-1.7,4.6-3.4,7.7-5c3.2-1.7,6.7-2.9,10.4-3.8c2.4-0.5,4.8-0.8,7.3-0.8
	c1.6,0,3.3,0.1,4.9,0.4c4.7,0.7,9,2.7,12.9,6c0.7,0.6,1.4,1.3,2.1,2.1c3.1,2.7,5.5,6.4,7.2,11c1.6,4.3,2.4,9,2.4,13.9
	c0,4.3-0.7,8.6-2.1,12.9c0.1-0.2,0.3-0.4,0.4-0.6c2.6-3.9,5.5-7.1,8.6-9.7c3.2-2.7,6.7-4.7,10.2-5.9c3.3-1.1,6.6-1.7,10-1.7
	c0.3,0,0.6,0,0.8,0h0.2h0.2c1.3,0.1,2.8,0.4,4.2,0.7c1.4,0.4,2.7,0.9,3.9,1.6c2.1-1.2,4.6-2,7.4-2.1c0.3,0,0.5,0,0.8,0
	c2.5,0,5.1,0.6,7.7,1.8c1.4,0.7,2.7,1.5,3.8,2.6c0.1-0.3,0.2-0.7,0.3-1.1c0.5-1.8,1.3-3.6,2.3-5.3c1.3-2,3-3.7,5.1-5.1
	c2.4-1.5,5.4-2.3,8.7-2.3c4,0,7.2,1.2,9.6,3.5c0.4,0.4,0.8,0.8,1.2,1.3c0.3,0.2,0.6,0.5,0.8,0.7c2.4,2.3,3.7,5.2,3.9,8.5
	c0.1,2.4-0.3,5-1.3,7.6c-0.2,0.5-0.4,1-0.6,1.4c1.7,2.3,3.2,4.5,4.4,6.7c0.5,0.8,0.9,1.7,1.4,2.5V202c1.1-2.5,2.1-4.8,2.9-6.8
	c0.5-1.3,0.9-2.2,1.1-3c-0.4-1.1-0.5-2.3-0.4-3.5c0.1-1.7,1-4.9,4.9-7.2c2.1-1.3,4.7-2,7.5-2.1c0.3,0,0.5,0,0.8,0
	c2.5,0,5.1,0.6,7.7,1.8c1.8,0.9,3.5,2.1,4.8,3.8c0.4,0.3,0.8,0.6,1.1,1c0.7-1.5,1.9-3.1,4.1-4.4c2.1-1.3,4.7-2,7.5-2.1
	c0.3,0,0.5,0,0.8,0c2.6,0,5.2,0.6,7.7,1.8c1.6,0.8,3,1.8,4.2,3.2c1.8-1.3,3.6-2.4,5.3-3.2c2.5-1.2,5-1.8,7.5-1.8c0.1,0,0.2,0,0.3,0
	c4.6,0,8.7,1.9,11.5,5.3c1.5,1.3,2.8,2.8,3.8,4.7c1,1.8,1.7,3.8,2.1,5.9c2.2-3,4.7-5.7,7.3-8c3.1-2.7,6.6-4.8,10.3-6.3
	c3.5-1.4,7.1-2,10.9-2c0.5,0,1,0,1.5,0c2.8,0.1,5.2,0.9,7.3,2.1c1.6,1,3,2.2,4.2,3.5c0.9,0.8,1.7,1.6,2.4,2.5c1.2,1.5,2,3.2,2.6,5
	c0.4,1.3,0.7,2.5,0.9,3.6l0.1,0.7v0.7c0,1.1-0.1,2.1-0.3,3c0.5-0.2,1.1-0.4,1.7-0.6c0.7-0.2,1.5-0.3,2.3-0.3c1.6,0,3.1,0.4,4.5,1.1
	s2.6,1.7,3.6,3c1.3,1,2.4,2.3,3.1,3.9c1.1,2.4,1.2,5.2,0.2,7.8l-0.1,0.2l-0.1,0.2c-1,2.5-2.6,4.7-4.7,6.7c-1.9,1.7-4,3.2-6.4,4.4
	c-2.3,1.1-4.8,2-7.5,2.6c-0.9,0.2-1.9,0.4-2.9,0.5c-0.7,1.3-1.4,2.6-2.2,4c-1.9,3.3-4.1,6.4-6.5,9.3c-2.6,3-5.6,5.6-8.8,7.6
	c-3.5,2.2-7.3,3.3-11.3,3.3c-0.6,0-1.1,0-1.7-0.1h-0.2c-5.5-0.5-10.2-2.9-13.6-6.9c-0.7-0.6-1.4-1.3-2-2c-2,2.1-4.1,3.9-6.2,5.3
	c-3.3,2.3-6.6,3.4-10,3.5c-0.2,0-0.4,0-0.6,0c-3.1,0-5.9-0.9-8.3-2.7c-0.9-0.7-1.8-1.5-2.6-2.5c-1.8-1.5-3.2-3.3-4.3-5.6
	c-1-2.1-1.8-4.4-2.2-6.9c-0.1-0.3-0.1-0.7-0.1-1c0,0.1,0,0.1-0.1,0.2c-1,2.2-1.8,4-2.2,5.6v0.1c1,3.2,0.3,7.3-3.4,10.3
	c-2.1,1.7-4.9,2.7-7.8,2.8c-0.1,0-0.3,0-0.4,0c-2.7,0-5.4-0.8-7.9-2.4c-1.1-0.7-2.2-1.6-3.1-2.7c-0.6,0.5-1.2,0.9-1.8,1.4
	c-3.3,2.3-6.6,3.4-10,3.5c-0.2,0-0.4,0-0.7,0c-2.8,0-5.4-0.7-7.7-2.1c-1.4-0.9-2.6-1.9-3.7-3.2c-0.9-0.7-1.6-1.5-2.3-2.4
	c-2.4,1.8-5.1,3.3-7.9,4.6l0,0c-2.1,1-4.1,1.8-6,2.4c-2.3,0.7-4.3,1-6.1,1c-5.1,0-9.3-1.5-12.5-4.5c-0.5-0.4-0.9-0.9-1.3-1.4
	c-0.2-0.2-0.5-0.4-0.7-0.6c-0.3-0.3-0.5-0.5-0.8-0.8c-1.4,1.3-2.9,2.5-4.4,3.5c-3.3,2.2-6.6,3.4-10,3.5c-0.2,0-0.5,0-0.7,0
	c-4.3,0-8.1-1.7-10.8-4.7c-0.7,0.5-1.4,1-2.2,1.5c-2.9,1.7-6,2.8-9.2,3.2c-0.7,0.1-1.3,0.1-2,0.1c-2.8,0-5.8-0.6-8.8-1.9
	c-3.1-1.3-5.7-3-7.8-5.2c-0.7,1-1.4,1.9-2.2,2.9c-6.1,8-12.6,14.8-19.1,20.2c-6.4,5.1-12.8,8.9-19.1,11.2c-2.4,1-5,1.8-7.7,2.2
	C187.2,283.4,184.6,283.6,182.1,283.6z M185.2,256.8c0.7,0.4,1.4,0.7,2.2,0.8c0.4,0.1,0.8,0.1,1.2,0.1c1.3,0,2.7-0.3,4.4-0.9
	c2.6-0.9,5.6-2.7,8.8-5.3c2.7-2.2,5.5-4.9,8.4-8c2.9-3.2,5.9-6.7,8.7-10.6c2.9-3.9,5.8-8.2,8.5-12.7c2.2-3.5,4.3-7.3,6.4-11.3
	c0.2-0.4,0.3-0.8,0.5-1.1c-1.3,1.6-2.7,3.1-4.3,4.5l-0.1,0.1c-2.3,1.9-5.1,3-8.3,3c-0.8,0-1.5-0.1-2.3-0.2c-2.7-0.4-5.3-1.3-7.7-2.7
	c-1.8-1.1-3.3-2.3-4.6-3.8c-1.5-1.2-2.6-2.6-3.5-4.1c-2.7-4.6-1.6-10,2.6-13.4c1.4-1.1,2.7-2.6,3.8-4.4s2-3.6,2.7-5.5
	c-1,1-2.1,2-3.3,3.2c-2.7,2.9-5.5,6.3-8.3,10.2c-2.1,2.9-4,6-5.8,9.4s-3.5,6.9-5,10.2c-1.5,3.4-2.8,6.7-3.9,9.8
	c-1.1,3.1-2,5.8-2.6,8.2c-1.2,4.3-1.8,8.3-1.8,11.9c0,3.4,0.4,6.4,1.2,8.8C183.8,254.6,184.4,255.8,185.2,256.8z"/>
<path class="st2" d="M362,192.4c-2.2,0-4.6-0.5-6.9-1.4c-2.4-1-4.7-2.5-6.6-4.6c-0.2-0.3-0.5-0.5-0.7-0.7c-0.5-0.4-0.9-0.8-1.3-1.3
	c-2.7-2.7-4.1-6.3-4.1-10.3c0-1.8,0.5-3.7,1.6-5.8c0.5-1,1.1-2,1.7-3.1c0.5-0.8,0.9-1.6,1.3-2.3c0.7-3.8,4-7.1,9.5-7.1
	c2.2,0,4.6,0.5,7,1.6c2.4,1,4.6,2.6,6.4,4.6c0.2,0.2,0.3,0.4,0.5,0.5c0.5,0.5,1,0.9,1.5,1.5c2.5,2.7,3.9,6.2,3.9,10.1
	c0,1.7-0.5,3.5-1.5,5.5c-0.5,0.9-0.9,1.8-1.5,2.8c-0.4,0.7-0.8,1.5-1.1,2.2C371.2,188.6,367.9,192.4,362,192.4z"/>
<path class="st1" d="M232,215.4l-0.1,0.1c-0.8,0.7-1.7,1.3-2.7,1.8c-0.6,1-1.2,2-1.8,3c-2.8,4.5-5.6,8.8-8.5,12.7
	c-2.9,3.9-5.8,7.4-8.7,10.6c-2.9,3.1-5.7,5.8-8.4,8c-3.2,2.6-6.2,4.4-8.8,5.3c-1.6,0.6-3.1,0.9-4.4,0.9c-0.4,0-0.8,0-1.2-0.1
	c-0.6-0.1-1.2-0.3-1.7-0.5c0.4,1,0.9,1.9,1.5,2.7c0.7,0.4,1.4,0.7,2.2,0.8c0.4,0.1,0.8,0.1,1.2,0.1c1.3,0,2.7-0.3,4.4-0.9
	c2.6-0.9,5.6-2.7,8.8-5.3c2.7-2.2,5.5-4.9,8.4-8c2.9-3.2,5.9-6.7,8.7-10.6c2.9-3.9,5.8-8.2,8.5-12.7c2.2-3.5,4.3-7.3,6.4-11.3
	c0.2-0.4,0.3-0.8,0.5-1.1C235,212.5,233.6,214,232,215.4z M413.7,184.6c-2.9-3.5-6.9-5.3-11.5-5.3c-0.1,0-0.2,0-0.3,0
	c-2.5,0-5,0.6-7.5,1.8c-1.8,0.8-3.5,1.9-5.3,3.2c-1.2-1.3-2.6-2.4-4.2-3.2c-2.4-1.1-4.8-1.7-7.3-1.8c-0.2,1-0.6,2.1-1.1,3.2
	c0.6-0.1,1.3-0.2,1.9-0.2c0.3,0,0.5,0,0.8,0c2.6,0,5.2,0.6,7.7,1.8c1.6,0.8,3,1.8,4.2,3.2c1.8-1.3,3.6-2.4,5.3-3.2
	c2.5-1.2,5-1.8,7.5-1.8c0.1,0,0.2,0,0.3,0c4.6,0,8.7,1.9,11.5,5.3c0.7,0.6,1.3,1.2,1.9,1.9c0-0.1-0.1-0.2-0.1-0.2
	C416.5,187.4,415.2,185.9,413.7,184.6z M461.1,184.6c-1.2-1.4-2.6-2.6-4.2-3.5c-2.1-1.2-4.5-1.9-7.3-2.1c-0.5,0-1,0-1.5,0
	c-3.8,0-7.4,0.7-10.9,2c-3.7,1.5-7.2,3.6-10.3,6.3c-2.4,2-4.6,4.4-6.5,7c0.5,1.3,0.9,2.6,1.2,4c2.2-3,4.7-5.7,7.3-8
	c3.1-2.7,6.6-4.8,10.3-6.3c3.5-1.4,7.1-2,10.9-2c0.5,0,1,0,1.5,0c2.8,0.1,5.2,0.9,7.3,2.1c1.6,1,3,2.2,4.2,3.5c0.7,0.6,1.4,1.3,2,2
	c-0.4-0.9-1-1.7-1.6-2.5C462.8,186.2,462,185.3,461.1,184.6z M208.2,194.3c1.4-1.1,2.7-2.6,3.8-4.4s2-3.6,2.7-5.5
	c-1,1-2.1,2-3.3,3.2c-2.7,2.9-5.5,6.3-8.3,10.2c-0.3,0.4-0.6,0.9-0.9,1.3c0,1.8,0.4,3.7,1.5,5.5c0.5,0.8,1,1.5,1.6,2.2
	C203,202.5,204.2,197.5,208.2,194.3z M482,207.3c-0.7-1.6-1.8-2.9-3.1-3.9c-0.9-1.2-2.1-2.3-3.6-3c-1.4-0.7-2.9-1.1-4.5-1.1
	c-0.6,0-1.1,0.1-1.7,0.2v0.6c0,1.1-0.1,2.1-0.3,3c0.5-0.2,1.1-0.4,1.7-0.6c0.7-0.2,1.5-0.3,2.3-0.3c1.6,0,3.1,0.4,4.5,1.1
	s2.6,1.7,3.6,3c0.4,0.3,0.8,0.7,1.2,1.1C482.1,207.5,482.1,207.4,482,207.3z M232.4,159.1c-0.7-0.8-1.4-1.5-2.1-2.1
	c-3.9-3.3-8.2-5.4-12.9-6c-1.6-0.2-3.3-0.4-4.9-0.4c-2.4,0-4.9,0.3-7.3,0.8c-3.7,0.8-7.2,2.1-10.4,3.8c-3.2,1.7-5.7,3.3-7.7,5
	c-5.1,4.3-9.8,8.9-13.8,13.6s-7.7,9.8-10.9,15.1c-3.2,5.3-6,11-8.4,17.1c-2.4,5.9-4.5,12.4-6.5,19.3c-1.2,4.3-1.9,8.9-2.2,13.6
	c-0.3,4.9,0,9.6,1,14.1c1,4.7,2.8,9.1,5.3,13.1c0.5,0.7,1,1.4,1.5,2.1c-2.2-3.8-3.9-7.9-4.8-12.2c-1-4.5-1.3-9.3-1-14.1
	c0.3-4.7,1.1-9.2,2.2-13.6c2-6.9,4.1-13.4,6.5-19.3c2.4-6.1,5.3-11.8,8.4-17.1c3.2-5.3,6.9-10.4,10.9-15.1s8.7-9.3,13.8-13.6
	c2-1.7,4.6-3.4,7.7-5c3.2-1.7,6.7-2.9,10.4-3.8c2.4-0.5,4.8-0.8,7.3-0.8c1.6,0,3.3,0.1,4.9,0.4c4.7,0.7,9,2.7,12.9,6
	c0.7,0.6,1.4,1.3,2.1,2.1c1.1,0.9,2.1,2,3,3.2C236,162.9,234.4,160.8,232.4,159.1z M330.3,195.9c0.5,0.7,1,1.3,1.4,1.9
	c-0.4-0.7-0.9-1.4-1.4-2.1C330.4,195.8,330.4,195.8,330.3,195.9z M382.4,238.9c-0.1-0.3-0.1-0.7-0.1-1l-0.1,0.2
	c-0.3,0.6-0.6,1.2-0.8,1.8c0.3,1,0.7,2,1.2,2.9c0.6,1.3,1.4,2.4,2.2,3.4c-0.1-0.1-0.2-0.3-0.2-0.4
	C383.5,243.8,382.8,241.4,382.4,238.9z M325.6,174.6c-0.4-0.5-0.7-0.9-1.2-1.3c-2.4-2.3-5.6-3.5-9.6-3.5c-3.3,0-6.3,0.8-8.7,2.3
	c-2.1,1.4-3.9,3.1-5.1,5.1c-1.1,1.7-1.9,3.5-2.3,5.3c-0.1,0.4-0.2,0.7-0.3,1.1c-1.1-1.1-2.4-2-3.8-2.6c-2.5-1.2-5.1-1.8-7.7-1.8
	c-0.3,0-0.5,0-0.8,0c-2.8,0.1-5.3,0.8-7.4,2.1c-1.2-0.7-2.5-1.2-3.9-1.6s-2.9-0.6-4.2-0.7h-0.2h-0.2c-0.3,0-0.6,0-0.8,0
	c-3.4,0-6.7,0.6-10,1.7c-3.5,1.2-7,3.2-10.2,5.9c-1.8,1.5-3.5,3.3-5.2,5.2c-0.3,2.7-0.9,5.4-1.8,8.1c0.1-0.2,0.3-0.4,0.4-0.6
	c2.6-3.9,5.5-7.1,8.6-9.7c3.2-2.7,6.7-4.7,10.2-5.9c3.3-1.1,6.6-1.7,10-1.7c0.3,0,0.6,0,0.8,0h0.2h0.2c1.3,0.1,2.8,0.4,4.2,0.7
	c1.4,0.4,2.7,0.9,3.9,1.6c2.1-1.2,4.6-2,7.4-2.1c0.3,0,0.5,0,0.8,0c2.5,0,5.1,0.6,7.7,1.8c1.4,0.7,2.7,1.5,3.8,2.6
	c0.1-0.3,0.2-0.7,0.3-1.1c0.5-1.8,1.3-3.6,2.3-5.3c1.3-2,3-3.7,5.1-5.1c2.4-1.5,5.4-2.3,8.7-2.3c4,0,7.2,1.2,9.6,3.5
	c0.4,0.4,0.8,0.8,1.2,1.3c0.3,0.2,0.6,0.5,0.8,0.7c0.2,0.2,0.5,0.5,0.7,0.7c-0.6-1.4-1.5-2.6-2.7-3.7
	C326.1,175.1,325.9,174.8,325.6,174.6z M342.7,181.4c-3.9,2.3-4.7,5.5-4.9,7.2c-0.1,1.2,0,2.4,0.4,3.5c-0.2,0.7-0.6,1.7-1.1,3
	c-0.8,1.9-1.8,4.2-2.9,6.6c0.2,0.3,0.3,0.6,0.5,0.8c0.5,0.8,0.9,1.7,1.4,2.5v-0.1c1.1-2.5,2.1-4.8,2.9-6.8c0.5-1.3,0.9-2.2,1.1-3
	c-0.4-1.1-0.5-2.3-0.4-3.5c0.1-1.7,1-4.9,4.9-7.2c0.4-0.2,0.8-0.4,1.2-0.6c-0.5-1.1-0.9-2.2-1.2-3.4
	C344,180.7,343.3,181,342.7,181.4z"/>
<g>
	<path class="st1" d="M358.1,183.6c1.4,0.6,2.7,0.8,3.9,0.8c1.2,0,1.8-0.3,1.8-0.9c0-0.5,0.2-1.2,0.6-2.1s0.9-1.8,1.4-2.7
		c0.5-0.9,0.9-1.8,1.4-2.6c0.4-0.8,0.6-1.5,0.6-1.9c0-1.9-0.6-3.4-1.7-4.6s-2.4-2.1-3.8-2.7s-2.7-0.9-3.8-0.9
		c-1.1,0-1.7,0.3-1.7,0.8s-0.2,1.1-0.7,1.9s-1,1.7-1.5,2.7c-0.6,1-1.1,1.9-1.5,2.8c-0.5,0.9-0.7,1.6-0.7,2.1c0,1.9,0.6,3.4,1.8,4.7
		C355.4,182.1,356.7,183,358.1,183.6z"/>
	<path class="st1" d="M474.8,210.7c-0.2-0.5-0.6-0.8-1-1.1c-0.5-0.2-0.9-0.3-1.4-0.2c-0.5,0.1-0.8,0.4-1.1,1
		c-0.2,0.2-0.4,0.8-0.7,1.6c-0.3,0.9-1,1.8-2,2.7c-1,0.9-2.4,1.7-4.2,2.5c-1.8,0.8-4.2,1.2-7.2,1.2c0.9-3,1.3-5.3,1.2-6.9
		c-0.1-1.6-0.4-2.7-1-3.4c-0.6-0.7-1.3-1.1-2.1-1.2c-0.8-0.1-1.5-0.1-2-0.1c-1.5,0-2.8,0.6-3.7,1.8c-1,1.2-1.6,2.6-1.8,4.2
		c-0.2,1.6,0,3.1,0.6,4.7c0.6,1.5,1.7,2.7,3.3,3.3c-1,2-2.1,4.1-3.4,6.4s-2.7,4.4-4.1,6.4s-2.8,3.6-4.2,4.8
		c-1.4,1.2-2.7,1.8-3.8,1.5c-1.6-0.3-2.7-1.2-3.4-2.7c-0.7-1.5-1-3.3-1-5.6c0-2.3,0.4-4.8,1.1-7.5c0.7-2.8,1.6-5.5,2.7-8.4
		c1.1-2.8,2.4-5.6,3.9-8.3c1.5-2.7,3-5,4.6-7.1c0.9-1.1,1.8-2.2,2.8-3.3c0.9-1.1,1.9-2,2.8-2.6s1.8-1,2.5-1c0.8,0,1.5,0.5,2.1,1.6
		c-0.5,0.4-1,0.8-1.3,1.4c-0.3,0.5-0.5,1.1-0.5,1.7c0,1,0.4,1.8,1.1,2.4s1.5,0.9,2.4,0.9c1.3,0,2.2-0.6,2.8-1.7
		c0.5-0.5,0.7-1.4,0.7-2.6c-0.2-0.8-0.4-1.7-0.7-2.7c-0.3-0.9-0.8-1.8-1.4-2.6c-0.6-0.8-1.4-1.5-2.3-2c-0.9-0.6-2.1-0.9-3.6-1
		c-3.2-0.2-6.2,0.3-9.1,1.5c-2.9,1.1-5.6,2.8-8,4.9c-2.5,2.1-4.7,4.6-6.6,7.4c-1.5,2.2-2.9,4.5-4,6.9c-0.1,0.2-0.2,0.3-0.3,0.5
		c-0.1,0.2-0.2,0.4-0.2,0.6c-0.1,0.3-0.3,0.6-0.4,0.9s-0.2,0.6-0.3,0.8c-0.4,0.8-0.8,1.6-1.2,2.5c-1.1,2-2.3,4.1-3.6,6.3
		c-1.4,2.2-2.8,4.4-4.4,6.6c-1.5,2.2-3,4.2-4.5,6c-1.4,1.8-2.8,3.2-4,4.3c-1.2,1.1-2.1,1.6-2.8,1.6c-1.5,0-2.3-0.5-2.4-1.6
		s0.2-2.5,0.8-4.4c0.7-1.8,1.6-3.9,2.9-6.4c1.2-2.4,2.5-5,3.7-7.7s2.4-5.5,3.3-8.3c1-2.8,1.5-5.5,1.7-8.1c0.5-4.1,0.1-7.5-1.4-10.2
		c-1.4-2.6-3.6-3.9-6.6-3.8c-1.4,0-2.8,0.3-4.2,1c-1.4,0.7-2.9,1.6-4.4,2.7s-3,2.5-4.5,4s-2.9,3.1-4.4,4.7c0.3-1.3,0.5-2.5,0.6-3.7
		s0-2.2-0.3-3.2c-0.7-2.3-1.8-3.8-3.4-4.5c-1.6-0.8-3.1-1.1-4.7-1c-1.5,0.1-2.8,0.4-3.8,1s-1.3,1.1-0.7,1.6c0.6,0.6,0.6,2,0,4.1
		s-1.5,4.6-2.8,7.6c-0.8,1.9-1.7,3.9-2.7,6.1c-0.1,0.1-0.2,0.3-0.3,0.5c-0.1,0.2-0.2,0.4-0.3,0.7c-0.4,0.8-0.7,1.6-1.1,2.4
		c-0.3,0.6-0.6,1.1-0.9,1.8c-1.1,2-2.3,4-3.6,6.2c-1.4,2.2-2.8,4.4-4.3,6.6s-3,4.2-4.4,5.9c-1.4,1.8-2.7,3.2-3.9,4.4
		c-1.2,1.1-2.1,1.7-2.9,1.8c-1.7,0.2-2.5-0.5-2.3-2.1c0.2-1.5,0.9-3.6,2.1-6.2s2.8-5.6,4.6-8.9c1.8-3.3,3.6-6.7,5.2-10.1
		s2.9-6.7,3.8-9.8c0.9-3.1,1-5.8,0.3-8c-0.7-2.3-1.8-3.8-3.4-4.5c-1.6-0.8-3.2-1.1-4.7-1s-2.8,0.4-3.8,1s-1.3,1.1-0.7,1.6
		c0.5,0.5,0.6,1.5,0.3,2.9c-0.3,1.4-0.9,3.2-1.8,5.3c-0.9,2.1-1.9,4.5-3.1,7.1c-0.8,1.8-1.6,3.6-2.4,5.5c-1.1,1.8-2.3,3.7-3.7,5.7
		c-2,2.8-4.2,5.6-6.7,8.5c0.5-2.1,0.7-4.4,0.6-6.8s-0.6-5-1.5-7.8s-2.2-5.7-4-8.8c-1.8-3.1-4.1-6.3-7.1-9.7l0.3-0.7
		c1-1.5,1.8-3,2.4-4.6c0.6-1.5,0.9-3,0.8-4.2c-0.1-1.3-0.5-2.3-1.4-3.2c-0.9-0.8-2.2-1.2-4.1-1.2c-1.8,0-3.3,0.4-4.4,1.1
		s-2,1.6-2.7,2.6c-0.6,1-1.1,2-1.4,3.1c-0.3,1-0.4,1.9-0.4,2.5c0,1.6,0.2,3.1,0.7,4.5s1.1,2.8,1.9,4c-0.5,1.1-1,2.1-1.5,3
		s-0.9,1.9-1.5,2.8c-0.5,0.9-1.1,1.9-1.6,2.9s-1.1,2.2-1.7,3.4c-0.1,0.3-0.2,0.5-0.3,0.7c-0.5,1.2-1.2,2.7-2.1,4.5
		c-1.1,2-2.2,4-3.6,6.2c-1.3,2.2-2.8,4.4-4.3,6.6s-3,4.2-4.5,5.9c-1.4,1.8-2.8,3.2-4,4.4c-1.2,1.1-2.1,1.7-2.8,1.8
		c-1.7,0.2-2.5-0.5-2.3-2.1c0.2-1.5,0.9-3.6,2.1-6.2s2.8-5.6,4.6-8.9c1.8-3.3,3.6-6.7,5.2-10.1s2.9-6.7,3.8-9.8c0.9-3.1,1-5.8,0.3-8
		c-0.7-2.3-1.8-3.8-3.4-4.5c-1.6-0.8-3.2-1.1-4.7-1s-2.8,0.4-3.8,1s-1.3,1.1-0.7,1.6c0.5,0.5,0.6,1.3,0.3,2.5
		c-0.2,1.2-0.7,2.8-1.4,4.5c-0.7,1.8-1.5,3.8-2.5,6s-2.1,4.6-3.1,7.1c-1,1.9-2,3.9-3.1,6.2c-1.1,2.2-2.2,4.4-3.4,6.7
		c-1.2,2.2-2.4,4.4-3.6,6.4s-2.5,3.8-3.6,5.2c-1.2,1.4-2.3,2.5-3.5,3.2s-2.3,0.8-3.3,0.3c-1.4-0.5-2.3-1.7-2.8-3.4
		c-0.5-1.7-0.8-3.7-0.7-6c0.1-2.3,0.4-4.7,1.1-7.2c0.6-2.5,1.5-4.9,2.4-7.1c1.6-3.5,3.2-6.6,4.7-9.4c1.6-2.8,3.1-5.2,4.6-7.1
		s2.8-3.4,4.1-4.4c1.3-1,2.4-1.5,3.5-1.4c0.8,0,1.4,0.5,1.8,1.4c-0.5,0.4-1,0.8-1.3,1.4c-0.3,0.5-0.5,1.1-0.5,1.7
		c0,1,0.4,1.8,1.1,2.4s1.5,0.9,2.4,0.9c1,0,1.8-0.3,2.4-1c0.8-0.6,1.1-1.7,1.1-3.4c0-1.5-0.3-2.8-0.9-3.8s-1.3-1.8-2.2-2.4
		c-0.9-0.6-1.8-1-2.8-1.3s-2-0.4-2.9-0.5c-2.7-0.1-5.4,0.3-8,1.2c-2.6,0.9-5.2,2.4-7.7,4.5s-4.8,4.7-7.1,8c-2.2,3.2-4.2,7.1-6,11.7
		c-2.2,4.2-4.5,8.2-6.9,12.1c-2.9,4.7-5.9,9.1-8.9,13.2c-3.1,4.1-6.1,7.9-9.3,11.2c-3.1,3.4-6.2,6.3-9.2,8.8
		c-4,3.2-7.7,5.5-11.2,6.7s-6.7,1.6-9.6,1.1c-2.9-0.5-5.4-1.8-7.5-3.8c-2.1-2.1-3.7-4.7-4.8-8s-1.6-7.1-1.6-11.4s0.7-8.9,2-13.9
		c0.7-2.6,1.6-5.5,2.8-8.8s2.5-6.8,4.1-10.3c1.5-3.6,3.3-7.2,5.3-10.9c2-3.7,4.1-7.1,6.3-10.2c3-4.2,6-7.9,9-11.1s5.8-5.7,8.4-7.5
		c2.6-1.8,4.8-2.9,6.7-3.3c1.9-0.3,3.2,0.2,4.1,1.6c0.9,1.7,1.3,3.9,1.2,6.6s-0.6,5.4-1.5,8.3s-2.2,5.6-3.8,8.3
		c-1.6,2.6-3.5,4.8-5.6,6.4c-1.1,0.9-1.4,1.9-0.7,3.1s1.8,2.2,3.2,3.1c1.5,0.9,3.1,1.4,4.8,1.7c1.7,0.3,3.1-0.1,4.2-1
		c3.3-2.9,5.7-6.4,7.2-10.5c1.5-4,2.2-8,2.2-12s-0.6-7.6-1.9-11.1c-1.3-3.4-3-6-5.1-7.9c-2.7-2.3-5.7-3.7-8.8-4.2
		c-3.2-0.5-6.3-0.3-9.3,0.3c-3.1,0.7-5.9,1.7-8.5,3.1s-4.7,2.7-6.3,4.1c-4.8,4.1-9.1,8.3-12.9,12.7c-3.8,4.4-7.1,9.1-10.1,14
		s-5.6,10.2-7.9,15.9c-2.3,5.7-4.3,11.9-6.2,18.5c-1.1,3.8-1.7,7.8-2,12c-0.3,4.1,0,8.1,0.8,11.9s2.3,7.3,4.3,10.6
		c2,3.2,4.8,5.9,8.3,7.9c2,1.3,4.1,2.2,6.4,2.8c2.3,0.6,4.7,0.9,7.1,0.9c2,0,4.1-0.2,6.3-0.6c2.1-0.4,4.2-1,6.2-1.8
		c5.6-2,11.2-5.4,17-9.9c6.1-5,12.1-11.3,17.9-18.9c1.6-2,3.2-4.3,4.9-6.7c1.7-2.4,3.3-5,5-7.7c0.2-0.3,0.4-0.7,0.6-1
		c0,0.8,0,1.6,0.1,2.4c0.2,2.8,1,5.3,2.3,7.6c1.3,2.3,3.5,4.1,6.5,5.3c2.5,1.1,4.8,1.5,6.8,1.2c2.1-0.2,4-0.9,5.9-2
		c1.8-1.1,3.6-2.7,5.1-4.6c1.6-1.9,3.1-4.1,4.5-6.4c-0.4,3.8,0.2,7,1.6,9.5s3.6,3.7,6.4,3.5c1.8,0,3.7-0.7,5.7-2
		c2-1.4,3.9-3.1,5.8-5.2s3.8-4.4,5.6-7c1.8-2.6,3.5-5.1,5-7.6s2.9-4.9,4-7.1c1-2.1,1.9-3.7,2.5-4.9c0.1-0.1,0.2-0.2,0.3-0.3
		c0.8-1.5,1.6-3.1,2.5-4.8c0.9-1.7,1.8-3.3,2.5-4.7c2.3,4.9,3.9,9.3,4.7,13.2c0.8,3.9,1.1,7.3,1,10.3c-0.2,2.9-0.7,5.4-1.6,7.5
		s-1.9,3.8-3.1,5.1c-1.2,1.3-2.3,2.3-3.4,2.8c-1.1,0.6-2,0.8-2.6,0.8c-1.7-0.1-3-0.6-3.9-1.6s-1.5-2.2-1.8-3.7
		c-0.2-1.4-0.2-2.9,0.2-4.5c0.4-1.6,1.1-2.9,2-4.1c0.2,0.7,0.6,1.2,1.2,1.6s1.2,0.6,1.9,0.6c0.9,0,1.7-0.3,2.4-1
		c0.7-0.7,1.1-1.5,1.1-2.5c0-0.9-0.4-1.7-1.1-2.3c-0.7-0.6-1.5-0.9-2.3-1s-1.8,0-3.1,0.6c-1.2,0.5-2.6,1.6-4.1,3.2
		c-1.1,1.1-1.8,2.8-2.1,4.9c-0.4,2.1-0.3,4.2,0.2,6.3c0.5,2.1,1.6,3.9,3.2,5.5c1.6,1.5,3.9,2.3,7,2.3c1.1,0,2.3-0.2,3.8-0.7
		s3.1-1.1,4.7-1.9l0.1-0.1h0.1c2.8-1.2,5.3-2.7,7.5-4.5s4.4-3.8,6.4-6.1c1.5-1.7,3-3.4,4.4-5.2c-0.3,1.4-0.6,2.8-0.7,4.2
		c-0.2,2-0.2,3.9,0,5.7c0.2,1.8,0.7,3.3,1.4,4.5c0.7,1.2,1.6,2.2,2.7,2.9c1.1,0.7,2.4,1,3.9,0.9c1.8,0,3.7-0.7,5.7-2
		c2-1.4,3.9-3.1,5.8-5.2c1.8-2,3.6-4.2,5.3-6.7c-0.1,0.4-0.2,0.8-0.3,1.2c-0.7,2.9-0.7,5.3-0.1,7.1c0.7,2.3,1.7,3.8,3,4.6
		c1.3,0.8,2.6,1.2,3.8,1.2c1.2,0,2.3-0.4,3.1-1c0.8-0.6,1-1.3,0.7-1.9c-0.5-1.1-0.5-2.6,0.1-4.5c0.6-2,1.5-4.2,2.7-6.8
		c1.2-2.6,2.6-5.3,4.1-8.2c1.5-2.9,3-5.8,4.5-8.8c1.4-2.1,3.1-4.3,4.9-6.6c1.8-2.3,3.6-4.4,5.4-6.3s3.4-3.5,4.9-4.7s2.7-1.9,3.5-2
		c1.6-0.1,2.5,0.3,2.7,1.2c0.2,0.9,0,2.2-0.6,3.9c-0.6,1.7-1.5,3.7-2.7,6s-2.4,4.8-3.7,7.6c-1.2,2.8-2.4,5.6-3.4,8.6
		c-1.1,3-1.8,6.1-2.1,9.2c-0.2,1.7-0.2,3.4,0.1,5.1c0.3,1.7,0.7,3.2,1.4,4.6c0.7,1.4,1.5,2.4,2.6,3.2c1.1,0.8,2.3,1.1,3.8,1.1
		c1.8,0,3.7-0.7,5.7-2c2-1.4,3.9-3.1,5.8-5.2s3.8-4.4,5.6-7c1.3-1.8,2.4-3.6,3.6-5.3c-0.2,1.6-0.2,3.2-0.2,4.8
		c0.2,4,1.3,7.4,3.4,10.2c2.1,2.8,5.1,4.4,8.9,4.8c2.9,0.2,5.6-0.5,8.1-2c2.5-1.6,4.8-3.6,7-6c2.1-2.4,4-5.1,5.6-8s3-5.5,4-7.8
		c2.1,0.1,4.2-0.1,6.3-0.6c2.1-0.5,4-1.1,5.7-1.9s3.2-1.8,4.5-3.1c1.3-1.2,2.2-2.5,2.8-4C475,211.7,475,211.2,474.8,210.7z"/>
</g>
<g>
	<path class="st6" d="M356.1,181.6c1.4,0.6,2.7,0.8,3.9,0.8c1.2,0,1.8-0.3,1.8-0.9c0-0.5,0.2-1.2,0.6-2.1s0.9-1.8,1.4-2.7
		c0.5-0.9,0.9-1.8,1.4-2.6c0.4-0.8,0.6-1.5,0.6-1.9c0-1.9-0.6-3.4-1.7-4.6s-2.4-2.1-3.8-2.7s-2.7-0.9-3.8-0.9
		c-1.1,0-1.7,0.3-1.7,0.8s-0.2,1.1-0.7,1.9s-1,1.7-1.5,2.7c-0.6,1-1.1,1.9-1.5,2.8c-0.5,0.9-0.7,1.6-0.7,2.1c0,1.9,0.6,3.4,1.8,4.7
		C353.4,180.1,354.7,181,356.1,181.6z"/>
	<path class="st7" d="M357.9,176.9c-0.7-0.3-1.5-0.8-2.2-1.6c-0.2-0.2-0.3-0.4-0.4-0.8c0-0.1,0.1-0.1,0.1-0.2
		c0.4-0.8,0.9-1.7,1.4-2.6s1-1.7,1.4-2.4l0,0c0.8,0.3,1.5,0.8,2.1,1.5c0.1,0.1,0.3,0.3,0.3,0.8c0,0,0,0.1-0.1,0.1
		c-0.4,0.8-0.8,1.6-1.3,2.5C358.9,175.1,358.4,176.1,357.9,176.9C358,176.9,358,176.9,357.9,176.9z"/>
	<path class="st6" d="M472.8,208.7c-0.2-0.5-0.6-0.8-1-1.1c-0.5-0.2-0.9-0.3-1.4-0.2c-0.5,0.1-0.8,0.4-1.1,1
		c-0.2,0.2-0.4,0.8-0.7,1.6c-0.3,0.9-1,1.8-2,2.7c-1,0.9-2.4,1.7-4.2,2.5c-1.8,0.8-4.2,1.2-7.2,1.2c0.9-3,1.3-5.3,1.2-6.9
		c-0.1-1.6-0.4-2.7-1-3.4c-0.6-0.7-1.3-1.1-2.1-1.2c-0.8-0.1-1.5-0.1-2-0.1c-1.5,0-2.8,0.6-3.7,1.8c-1,1.2-1.6,2.6-1.8,4.2
		c-0.2,1.6,0,3.1,0.6,4.7c0.6,1.5,1.7,2.7,3.3,3.3c-1,2-2.1,4.1-3.4,6.4s-2.7,4.4-4.1,6.4s-2.8,3.6-4.2,4.8
		c-1.4,1.2-2.7,1.8-3.8,1.5c-1.6-0.3-2.7-1.2-3.4-2.7c-0.7-1.5-1-3.3-1-5.6c0-2.3,0.4-4.8,1.1-7.5c0.7-2.8,1.6-5.5,2.7-8.4
		c1.1-2.8,2.4-5.6,3.9-8.3c1.5-2.7,3-5,4.6-7.1c0.9-1.1,1.8-2.2,2.8-3.3c0.9-1.1,1.9-2,2.8-2.6s1.8-1,2.5-1c0.8,0,1.5,0.5,2.1,1.6
		c-0.5,0.4-1,0.8-1.3,1.4c-0.3,0.5-0.5,1.1-0.5,1.7c0,1,0.4,1.8,1.1,2.4s1.5,0.9,2.4,0.9c1.3,0,2.2-0.6,2.8-1.7
		c0.5-0.5,0.7-1.4,0.7-2.6c-0.2-0.8-0.4-1.7-0.7-2.7c-0.3-0.9-0.8-1.8-1.4-2.6c-0.6-0.8-1.4-1.5-2.3-2c-0.9-0.6-2.1-0.9-3.6-1
		c-3.2-0.2-6.2,0.3-9.1,1.5c-2.9,1.1-5.6,2.8-8,4.9c-2.5,2.1-4.7,4.6-6.6,7.4c-1.5,2.2-2.9,4.5-4,6.9c-0.1,0.2-0.2,0.3-0.3,0.5
		c-0.1,0.2-0.2,0.4-0.2,0.6c-0.1,0.3-0.3,0.6-0.4,0.9s-0.2,0.6-0.3,0.8c-0.4,0.8-0.8,1.6-1.2,2.5c-1.1,2-2.3,4.1-3.6,6.3
		c-1.4,2.2-2.8,4.4-4.4,6.6c-1.5,2.2-3,4.2-4.5,6c-1.4,1.8-2.8,3.2-4,4.3c-1.2,1.1-2.1,1.6-2.8,1.6c-1.5,0-2.3-0.5-2.4-1.6
		s0.2-2.5,0.8-4.4c0.7-1.8,1.6-3.9,2.9-6.4c1.2-2.4,2.5-5,3.7-7.7s2.4-5.5,3.3-8.3c1-2.8,1.5-5.5,1.7-8.1c0.5-4.1,0.1-7.5-1.4-10.2
		c-1.4-2.6-3.6-3.9-6.6-3.8c-1.4,0-2.8,0.3-4.2,1c-1.4,0.7-2.9,1.6-4.4,2.7s-3,2.5-4.5,4s-2.9,3.1-4.4,4.7c0.3-1.3,0.5-2.5,0.6-3.7
		s0-2.2-0.3-3.2c-0.7-2.3-1.8-3.8-3.4-4.5c-1.6-0.8-3.1-1.1-4.7-1c-1.5,0.1-2.8,0.4-3.8,1s-1.3,1.1-0.7,1.6c0.6,0.6,0.6,2,0,4.1
		s-1.5,4.6-2.8,7.6c-0.8,1.9-1.7,3.9-2.7,6.1c-0.1,0.1-0.2,0.3-0.3,0.5c-0.1,0.2-0.2,0.4-0.3,0.7c-0.4,0.8-0.7,1.6-1.1,2.4
		c-0.3,0.6-0.6,1.1-0.9,1.8c-1.1,2-2.3,4-3.6,6.2c-1.4,2.2-2.8,4.4-4.3,6.6s-3,4.2-4.4,5.9c-1.4,1.8-2.7,3.2-3.9,4.4
		c-1.2,1.1-2.1,1.7-2.9,1.8c-1.7,0.2-2.5-0.5-2.3-2.1c0.2-1.5,0.9-3.6,2.1-6.2s2.8-5.6,4.6-8.9c1.8-3.3,3.6-6.7,5.2-10.1
		s2.9-6.7,3.8-9.8c0.9-3.1,1-5.8,0.3-8c-0.7-2.3-1.8-3.8-3.4-4.5c-1.6-0.8-3.2-1.1-4.7-1s-2.8,0.4-3.8,1s-1.3,1.1-0.7,1.6
		c0.5,0.5,0.6,1.5,0.3,2.9c-0.3,1.4-0.9,3.2-1.8,5.3c-0.9,2.1-1.9,4.5-3.1,7.1c-0.8,1.8-1.6,3.6-2.4,5.5c-1.1,1.8-2.3,3.7-3.7,5.7
		c-2,2.8-4.2,5.6-6.7,8.5c0.5-2.1,0.7-4.4,0.6-6.8s-0.6-5-1.5-7.8s-2.2-5.7-4-8.8c-1.8-3.1-4.1-6.3-7.1-9.7l0.3-0.7
		c1-1.5,1.8-3,2.4-4.6c0.6-1.5,0.9-3,0.8-4.2c-0.1-1.3-0.5-2.3-1.4-3.2c-0.9-0.8-2.2-1.2-4.1-1.2c-1.8,0-3.3,0.4-4.4,1.1
		s-2,1.6-2.7,2.6c-0.6,1-1.1,2-1.4,3.1c-0.3,1-0.4,1.9-0.4,2.5c0,1.6,0.2,3.1,0.7,4.5s1.1,2.8,1.9,4c-0.5,1.1-1,2.1-1.5,3
		s-0.9,1.9-1.5,2.8c-0.5,0.9-1.1,1.9-1.6,2.9s-1.1,2.2-1.7,3.4c-0.1,0.3-0.2,0.5-0.3,0.7c-0.5,1.2-1.2,2.7-2.1,4.5
		c-1.1,2-2.2,4-3.6,6.2c-1.3,2.2-2.8,4.4-4.3,6.6s-3,4.2-4.5,5.9c-1.4,1.8-2.8,3.2-4,4.4c-1.2,1.1-2.1,1.7-2.8,1.8
		c-1.7,0.2-2.5-0.5-2.3-2.1c0.2-1.5,0.9-3.6,2.1-6.2s2.8-5.6,4.6-8.9c1.8-3.3,3.6-6.7,5.2-10.1s2.9-6.7,3.8-9.8c0.9-3.1,1-5.8,0.3-8
		c-0.7-2.3-1.8-3.8-3.4-4.5c-1.6-0.8-3.2-1.1-4.7-1s-2.8,0.4-3.8,1s-1.3,1.1-0.7,1.6c0.5,0.5,0.6,1.3,0.3,2.5
		c-0.2,1.2-0.7,2.8-1.4,4.5c-0.7,1.8-1.5,3.8-2.5,6s-2.1,4.6-3.1,7.1c-1,1.9-2,3.9-3.1,6.2c-1.1,2.2-2.2,4.4-3.4,6.7
		c-1.2,2.2-2.4,4.4-3.6,6.4s-2.5,3.8-3.6,5.2c-1.2,1.4-2.3,2.5-3.5,3.2s-2.3,0.8-3.3,0.3c-1.4-0.5-2.3-1.7-2.8-3.4
		c-0.5-1.7-0.8-3.7-0.7-6c0.1-2.3,0.4-4.7,1.1-7.2c0.6-2.5,1.5-4.9,2.4-7.1c1.6-3.5,3.2-6.6,4.7-9.4c1.6-2.8,3.1-5.2,4.6-7.1
		s2.8-3.4,4.1-4.4c1.3-1,2.4-1.5,3.5-1.4c0.8,0,1.4,0.5,1.8,1.4c-0.5,0.4-1,0.8-1.3,1.4c-0.3,0.5-0.5,1.1-0.5,1.7
		c0,1,0.4,1.8,1.1,2.4s1.5,0.9,2.4,0.9c1,0,1.8-0.3,2.4-1c0.8-0.6,1.1-1.7,1.1-3.4c0-1.5-0.3-2.8-0.9-3.8s-1.3-1.8-2.2-2.4
		c-0.9-0.6-1.8-1-2.8-1.3s-2-0.4-2.9-0.5c-2.7-0.1-5.4,0.3-8,1.2c-2.6,0.9-5.2,2.4-7.7,4.5s-4.8,4.7-7.1,8c-2.2,3.2-4.2,7.1-6,11.7
		c-2.2,4.2-4.5,8.2-6.9,12.1c-2.9,4.7-5.9,9.1-8.9,13.2c-3.1,4.1-6.1,7.9-9.3,11.2c-3.1,3.4-6.2,6.3-9.2,8.8
		c-4,3.2-7.7,5.5-11.2,6.7s-6.7,1.6-9.6,1.1c-2.9-0.5-5.4-1.8-7.5-3.8c-2.1-2.1-3.7-4.7-4.8-8s-1.6-7.1-1.6-11.4s0.7-8.9,2-13.9
		c0.7-2.6,1.6-5.5,2.8-8.8s2.5-6.8,4.1-10.3c1.5-3.6,3.3-7.2,5.3-10.9c2-3.7,4.1-7.1,6.3-10.2c3-4.2,6-7.9,9-11.1s5.8-5.7,8.4-7.5
		c2.6-1.8,4.8-2.9,6.7-3.3c1.9-0.3,3.2,0.2,4.1,1.6c0.9,1.7,1.3,3.9,1.2,6.6s-0.6,5.4-1.5,8.3s-2.2,5.6-3.8,8.3
		c-1.6,2.6-3.5,4.8-5.6,6.4c-1.1,0.9-1.4,1.9-0.7,3.1s1.8,2.2,3.2,3.1c1.5,0.9,3.1,1.4,4.8,1.7c1.7,0.3,3.1-0.1,4.2-1
		c3.3-2.9,5.7-6.4,7.2-10.5c1.5-4,2.2-8,2.2-12s-0.6-7.6-1.9-11.1c-1.3-3.4-3-6-5.1-7.9c-2.7-2.3-5.7-3.7-8.8-4.2
		c-3.2-0.5-6.3-0.3-9.3,0.3c-3.1,0.7-5.9,1.7-8.5,3.1s-4.7,2.7-6.3,4.1c-4.8,4.1-9.1,8.3-12.9,12.7c-3.8,4.4-7.1,9.1-10.1,14
		s-5.6,10.2-7.9,15.9c-2.3,5.7-4.3,11.9-6.2,18.5c-1.1,3.8-1.7,7.8-2,12c-0.3,4.1,0,8.1,0.8,11.9s2.3,7.3,4.3,10.6
		c2,3.2,4.8,5.9,8.3,7.9c2,1.3,4.1,2.2,6.4,2.8c2.3,0.6,4.7,0.9,7.1,0.9c2,0,4.1-0.2,6.3-0.6c2.1-0.4,4.2-1,6.2-1.8
		c5.6-2,11.2-5.4,17-9.9c6.1-5,12.1-11.3,17.9-18.9c1.6-2,3.2-4.3,4.9-6.7c1.7-2.4,3.3-5,5-7.7c0.2-0.3,0.4-0.7,0.6-1
		c0,0.8,0,1.6,0.1,2.4c0.2,2.8,1,5.3,2.3,7.6c1.3,2.3,3.5,4.1,6.5,5.3c2.5,1.1,4.8,1.5,6.8,1.2c2.1-0.2,4-0.9,5.9-2
		c1.8-1.1,3.6-2.7,5.1-4.6c1.6-1.9,3.1-4.1,4.5-6.4c-0.4,3.8,0.2,7,1.6,9.5s3.6,3.7,6.4,3.5c1.8,0,3.7-0.7,5.7-2
		c2-1.4,3.9-3.1,5.8-5.2s3.8-4.4,5.6-7c1.8-2.6,3.5-5.1,5-7.6s2.9-4.9,4-7.1c1-2.1,1.9-3.7,2.5-4.9c0.1-0.1,0.2-0.2,0.3-0.3
		c0.8-1.5,1.6-3.1,2.5-4.8c0.9-1.7,1.8-3.3,2.5-4.7c2.3,4.9,3.9,9.3,4.7,13.2c0.8,3.9,1.1,7.3,1,10.3c-0.2,2.9-0.7,5.4-1.6,7.5
		s-1.9,3.8-3.1,5.1c-1.2,1.3-2.3,2.3-3.4,2.8c-1.1,0.6-2,0.8-2.6,0.8c-1.7-0.1-3-0.6-3.9-1.6s-1.5-2.2-1.8-3.7
		c-0.2-1.4-0.2-2.9,0.2-4.5c0.4-1.6,1.1-2.9,2-4.1c0.2,0.7,0.6,1.2,1.2,1.6s1.2,0.6,1.9,0.6c0.9,0,1.7-0.3,2.4-1
		c0.7-0.7,1.1-1.5,1.1-2.5c0-0.9-0.4-1.7-1.1-2.3c-0.7-0.6-1.5-0.9-2.3-1s-1.8,0-3.1,0.6c-1.2,0.5-2.6,1.6-4.1,3.2
		c-1.1,1.1-1.8,2.8-2.1,4.9c-0.4,2.1-0.3,4.2,0.2,6.3c0.5,2.1,1.6,3.9,3.2,5.5c1.6,1.5,3.9,2.3,7,2.3c1.1,0,2.3-0.2,3.8-0.7
		s3.1-1.1,4.7-1.9l0.1-0.1h0.1c2.8-1.2,5.3-2.7,7.5-4.5s4.4-3.8,6.4-6.1c1.5-1.7,3-3.4,4.4-5.2c-0.3,1.4-0.6,2.8-0.7,4.2
		c-0.2,2-0.2,3.9,0,5.7c0.2,1.8,0.7,3.3,1.4,4.5c0.7,1.2,1.6,2.2,2.7,2.9c1.1,0.7,2.4,1,3.9,0.9c1.8,0,3.7-0.7,5.7-2
		c2-1.4,3.9-3.1,5.8-5.2c1.8-2,3.6-4.2,5.3-6.7c-0.1,0.4-0.2,0.8-0.3,1.2c-0.7,2.9-0.7,5.3-0.1,7.1c0.7,2.3,1.7,3.8,3,4.6
		c1.3,0.8,2.6,1.2,3.8,1.2c1.2,0,2.3-0.4,3.1-1c0.8-0.6,1-1.3,0.7-1.9c-0.5-1.1-0.5-2.6,0.1-4.5c0.6-2,1.5-4.2,2.7-6.8
		c1.2-2.6,2.6-5.3,4.1-8.2c1.5-2.9,3-5.8,4.5-8.8c1.4-2.1,3.1-4.3,4.9-6.6c1.8-2.3,3.6-4.4,5.4-6.3s3.4-3.5,4.9-4.7s2.7-1.9,3.5-2
		c1.6-0.1,2.5,0.3,2.7,1.2c0.2,0.9,0,2.2-0.6,3.9c-0.6,1.7-1.5,3.7-2.7,6s-2.4,4.8-3.7,7.6c-1.2,2.8-2.4,5.6-3.4,8.6
		c-1.1,3-1.8,6.1-2.1,9.2c-0.2,1.7-0.2,3.4,0.1,5.1c0.3,1.7,0.7,3.2,1.4,4.6c0.7,1.4,1.5,2.4,2.6,3.2c1.1,0.8,2.3,1.1,3.8,1.1
		c1.8,0,3.7-0.7,5.7-2c2-1.4,3.9-3.1,5.8-5.2s3.8-4.4,5.6-7c1.3-1.8,2.4-3.6,3.6-5.3c-0.2,1.6-0.2,3.2-0.2,4.8
		c0.2,4,1.3,7.4,3.4,10.2c2.1,2.8,5.1,4.4,8.9,4.8c2.9,0.2,5.6-0.5,8.1-2c2.5-1.6,4.8-3.6,7-6c2.1-2.4,4-5.1,5.6-8s3-5.5,4-7.8
		c2.1,0.1,4.2-0.1,6.3-0.6c2.1-0.5,4-1.1,5.7-1.9s3.2-1.8,4.5-3.1c1.3-1.2,2.2-2.5,2.8-4C473,209.7,473,209.2,472.8,208.7z"/>
	<path class="st7" d="M179.6,268.6c-1.8,0-3.6-0.3-5.4-0.7c-1.8-0.5-3.5-1.2-5-2.2l-0.2-0.1c-2.8-1.6-4.9-3.7-6.6-6.3
		c-1.7-2.7-2.9-5.8-3.6-9c-0.7-3.3-1-6.9-0.7-10.5c0.2-3.8,0.9-7.5,1.8-11c1.8-6.4,3.9-12.4,6-18c2.2-5.4,4.7-10.5,7.5-15.2
		s6.1-9.2,9.6-13.4c3.6-4.2,7.7-8.3,12.3-12.1c1.3-1.1,3.1-2.3,5.4-3.5c2.2-1.1,4.6-2,7.3-2.6c0.6-0.1,1.1-0.2,1.7-0.3
		c-0.8,0.5-1.7,1.1-2.6,1.7c-2.9,2-5.9,4.8-9.1,8.1c-3.2,3.3-6.4,7.2-9.5,11.6c-2.4,3.3-4.6,6.9-6.7,10.8c-2,3.8-3.9,7.5-5.4,11.2
		c-1.6,3.7-3,7.2-4.2,10.7c-1.2,3.4-2.2,6.5-2.9,9.2c-1.5,5.3-2.2,10.5-2.2,15.2c0,4.8,0.6,9.2,1.9,12.9c1.3,4,3.4,7.4,6,10
		C176.4,266.7,177.9,267.8,179.6,268.6z M362.9,237.9c-0.2-0.3-0.3-0.7-0.5-1.3v-0.1c-0.1-0.4-0.4-1.7,0.2-4.4
		c0.1-0.2,0.1-0.5,0.2-0.7l0.1-0.4l-3.2-1.5c0.2-0.3,0.4-0.6,0.6-0.9c1.6-2.3,3-4.5,4.4-6.8c1.4-2.2,2.7-4.4,3.8-6.5
		c0.4-0.7,0.7-1.3,1-1.9l0.1-0.2l1.2-2.6c0,0,0.2-0.4,0.2-0.5l0.1-0.1l0.2-0.4c1-2.2,1.9-4.2,2.7-6.1c1.4-3.2,2.4-5.9,3-8.2
		c0.2-0.6,0.5-1.7,0.6-3c0.5,0.1,1.1,0.2,1.7,0.5c0.1,0,0.4,0.4,0.7,1.4c0.1,0.4,0.2,0.9,0.1,1.5c-0.1,0.9-0.2,1.8-0.4,2.8l3.1,1.6
		c-0.8,0.9-1.5,1.9-2.3,2.8c-1.9,2.4-3.6,4.7-5.1,6.9l-0.2,0.3l-0.2,0.3c-1.4,2.9-2.9,5.8-4.4,8.6c-1.6,3-3,5.8-4.2,8.4
		c-1.3,2.8-2.3,5.3-2.9,7.5C363.2,236.1,363,237,362.9,237.9z M426.2,237.8c-0.8-0.5-1.5-1.1-2.2-1.9c-1.5-2-2.3-4.4-2.4-7.3
		c0-1.3,0-2.6,0.2-4.1l-3.1-1.1c0.3-0.5,0.6-1,1-1.5c1.4-2.3,2.7-4.5,3.8-6.6c0.5-1,1-1.9,1.4-2.7l0.1-0.2c0,0,0.3-0.7,0.3-0.8
		c0.1-0.2,0.1-0.3,0.2-0.4l0.3-0.5c0,0,0.2-0.4,0.2-0.5l0.1-0.1l0.2-0.4c1-2.2,2.3-4.3,3.6-6.2c1.7-2.5,3.6-4.6,5.8-6.5
		c0.9-0.8,1.8-1.5,2.8-2.1c-0.1,0.1-0.2,0.2-0.3,0.4c-1.8,2.3-3.5,4.9-5.1,7.8c-1.6,2.8-3,5.8-4.2,8.8s-2.2,6.1-2.9,9
		c-0.8,3.1-1.2,6-1.2,8.6c-0.1,3,0.4,5.6,1.4,7.8C426,237.5,426.1,237.6,426.2,237.8z M247.6,237.2c-1.4-0.7-2.4-1.6-3-2.7
		c-1-1.7-1.5-3.5-1.7-5.6c0-0.6-0.1-1.2-0.1-1.9l0.1-7.5c0.9-1.6,1.8-3.2,2.6-4.8l0.1-0.2l0.1-0.3c1.7-4.2,3.5-7.8,5.5-10.7
		c1.9-2.9,4-5.2,6.1-7c0.9-0.7,1.8-1.4,2.6-1.9c-1.6,2.1-3.2,4.6-4.9,7.6c-1.6,2.9-3.3,6.2-4.9,9.8c-1.1,2.5-2,5.1-2.7,7.9
		c-0.7,2.9-1.1,5.7-1.2,8.3c-0.1,2.8,0.2,5.4,0.9,7.7C247.2,236.4,247.4,236.8,247.6,237.2z M319.7,232.9c1.1-2.6,1.8-5.7,2-9.2
		c0.2-3.4-0.1-7.3-1.1-11.6c-0.8-4-2.4-8.4-4.6-13.1c1.3,1.8,2.5,3.5,3.4,5.1c1.6,2.8,2.8,5.4,3.6,7.9c0.8,2.4,1.2,4.5,1.3,6.5
		c0.1,1.9-0.1,3.7-0.5,5.3l3.5,1.8c-0.5,0.6-1,1.2-1.5,1.7c-1.8,2-3.8,3.9-5.8,5.5c-0.2,0.2-0.4,0.4-0.7,0.5
		C319.5,233.2,319.6,233,319.7,232.9z M274,233c0-0.6,0-1.3,0.1-2l-3.5-1.2c0.9-1.5,1.8-3.1,2.6-4.7c1.2-2.3,2.4-4.6,3.5-6.8
		c1.1-2.2,2.1-4.2,3.1-6.1l0.1-0.2l0.1-0.2c1-2.4,2-4.7,3.1-6.9c1.1-2.3,2-4.4,2.7-6.3c0.8-2.1,1.3-3.8,1.6-5.4
		c0.1-0.4,0.1-0.7,0.1-1c0.5,0.1,1.1,0.2,1.7,0.5c0.2,0.1,0.5,0.6,0.8,1.4c0.4,1.3,0.3,3-0.4,5.1c-0.8,2.8-2,5.9-3.5,9
		c-1.6,3.3-3.3,6.6-5.1,9.8c-1.9,3.4-3.5,6.5-4.8,9.2C275.1,229.5,274.4,231.4,274,233z M338.1,232.8c0-0.9,0-1.8,0.1-2.7
		c0.1-1.1,0.3-2.3,0.6-3.6l-3.5-1.7c1.5-1.8,2.9-3.7,4.1-5.5c1.5-2.1,2.8-4.1,3.9-6.1l0.2-0.3l0.1-0.3c0.9-2.1,1.6-3.8,2.3-5.4
		c1.2-2.7,2.2-5.1,3.1-7.2c1-2.4,1.6-4.4,2-6.1c0.1-0.6,0.2-1.1,0.3-1.7c0.5,0.1,1.1,0.2,1.7,0.5c0.2,0.1,0.5,0.6,0.8,1.4
		c0.4,1.3,0.3,3-0.4,5.1c-0.8,2.9-2,5.9-3.5,9c-1.6,3.3-3.3,6.6-5.1,9.8c-1.9,3.4-3.5,6.5-4.8,9.2
		C339.3,229.4,338.6,231.2,338.1,232.8z M393.1,231.2c0-0.3,0-0.7,0.1-1c0.3-2.8,1-5.5,1.9-8.2c1-2.9,2.1-5.6,3.3-8.2
		c1.2-2.7,2.4-5.1,3.5-7.3c1.3-2.5,2.3-4.7,3-6.6v-0.1c0,0.3-0.1,0.6-0.1,0.9v0.2v0.2c-0.1,2.1-0.6,4.4-1.4,6.7
		c-0.9,2.7-2,5.3-3.2,7.9s-2.4,5.2-3.6,7.6c-1.3,2.6-2.4,4.9-3.1,6.9C393.3,230.4,393.2,230.8,393.1,231.2z M450.7,213.4
		c-0.2-0.7-0.3-1.3-0.2-2c0.1-0.7,0.3-1.2,0.7-1.7h0.1C451.3,210.2,451.3,211.2,450.7,213.4z M219.6,200.5c-0.1,0-0.2,0-0.3,0
		c-1-0.2-1.9-0.5-2.8-0.9c1.7-1.7,3.2-3.6,4.6-5.8c1.8-3,3.3-6.1,4.3-9.4c0.7-2.2,1.2-4.4,1.5-6.6c0.2,1.4,0.3,2.8,0.3,4.2
		c0,3.4-0.6,6.8-1.9,10.3C224,195.5,222.2,198.1,219.6,200.5z M311.2,188.7L311,189c-0.1-0.6-0.2-1.2-0.2-1.8c0,0,0-0.4,0.2-1.3
		c0.1-0.5,0.4-1.1,0.7-1.6c0.2-0.4,0.6-0.7,1.1-1c0.2-0.1,0.8-0.3,1.7-0.3c0.2,0,0.4,0,0.5,0c0,0.4-0.1,1-0.5,1.8
		c-0.5,1.2-1.1,2.5-1.9,3.7l-0.2,0.2l-0.8,1.6L311.2,188.7z"/>
</g>
<polygon class="st2" points="306.4,293.1 300,273.3 293.6,293.1 272.8,293.1 289.6,305.3 283.2,325 300,312.8 316.8,325 
	310.4,305.3 327.2,293.1 "/>
<polygon class="st2" points="251,293.3 246.1,278.3 241.3,293.3 225.5,293.3 238.3,302.5 233.4,317.5 246.1,308.2 258.9,317.5 
	254,302.5 266.7,293.3 "/>
<polygon class="st2" points="374.5,293.3 358.7,293.3 353.9,278.3 349,293.3 333.3,293.3 346,302.5 341.1,317.5 353.9,308.2 
	366.6,317.5 361.7,302.5 "/>
<path class="st1" d="M307.4,295.1h17l2.8-2h-20.4L307.4,295.1z M241.3,293.3h-15.8l2.8,2h14l4.7-14.4l-0.8-2.5L241.3,293.3z
	 M252,295.3h12l2.8-2h-15.4L252,295.3z M359.1,293.3l0.6,2h12l2.8-2H359.1z M233.4,317.5l2.2-1.6l3.7-11.4l-1.3-1L233.4,317.5z
	 M341.1,317.5l2.2-1.6l3.7-11.4l-1.3-1L341.1,317.5z M283.2,325l2.2-1.6l5.3-16.2l-1.3-1L283.2,325z M349,293.3h-15.7l2.8,2h14
	l4.7-14.4l-0.8-2.5L349,293.3z M293.6,293.1h-20.8l2.8,2h19l6.2-19.2l-0.8-2.5L293.6,293.1z"/>
<g id="welcome">
	<g>
		<g>
			<g>
				<g>
					<path class="st6" d="M123.3,92.8c-13.4,0-24.2,10.8-24.2,24.2c0,13.4,10.8,24.2,24.2,24.2s24.2-10.8,24.2-24.2
						C147.5,103.6,136.7,92.8,123.3,92.8z"/>
					<path class="st6" d="M182.2,92.8c-13.4,0-24.2,10.8-24.2,24.2c0,13.4,10.8,24.2,24.2,24.2s24.2-10.8,24.2-24.2
						C206.4,103.6,195.6,92.8,182.2,92.8z"/>
					<path class="st6" d="M241.1,92.8c-13.4,0-24.2,10.8-24.2,24.2c0,13.4,10.8,24.2,24.2,24.2s24.2-10.8,24.2-24.2
						C265.3,103.6,254.5,92.8,241.1,92.8z"/>
					<path class="st6" d="M300,92.8c-13.4,0-24.2,10.8-24.2,24.2c0,13.4,10.8,24.2,24.2,24.2c13.4,0,24.2-10.8,24.2-24.2
						C324.2,103.6,313.4,92.8,300,92.8z"/>
					<path class="st6" d="M358.9,92.8c-13.4,0-24.2,10.8-24.2,24.2c0,13.4,10.8,24.2,24.2,24.2c13.4,0,24.2-10.8,24.2-24.2
						C383.1,103.6,372.3,92.8,358.9,92.8z"/>
					<path class="st6" d="M417.8,92.8c-13.4,0-24.2,10.8-24.2,24.2c0,13.4,10.8,24.2,24.2,24.2c13.4,0,24.2-10.8,24.2-24.2
						C442,103.6,431.2,92.8,417.8,92.8z"/>
					<path class="st6" d="M476.7,92.8c-13.4,0-24.2,10.8-24.2,24.2c0,13.4,10.8,24.2,24.2,24.2s24.2-10.8,24.2-24.2
						C500.9,103.6,490.1,92.8,476.7,92.8z"/>
				</g>
			</g>
		</g>
	</g>
</g>
<g id="shuffle-text">
	<g>
		<path class="st8" d="M126.1,112.3c-0.7-1-2-1.5-3.2-1.5c-1.5,0-3,0.7-3,2.4c0,3.7,8.7,1.6,8.7,8.1c0,4-3.1,5.9-6.7,5.9
			c-2.3,0-4.5-0.7-6-2.5l2.5-2.4c0.8,1.2,2.2,1.9,3.6,1.9c1.5,0,3.2-0.8,3.2-2.5c0-4-8.7-1.7-8.7-8.3c0-3.8,3.4-5.6,6.8-5.6
			c1.9,0,3.8,0.5,5.3,1.9L126.1,112.3z"/>
		<path class="st8" d="M174.7,108.3h3.3v7.3h8.6v-7.3h3.3v18.4h-3.3v-8.1H178v8.1h-3.3V108.3z"/>
		<path class="st8" d="M249.3,120c0,4.4-3.2,7.2-7.4,7.2c-4.2,0-7.4-2.8-7.4-7.2v-11.6h3.3v11.5c0,1.8,1,4.2,4.1,4.2
			s4.1-2.4,4.1-4.2v-11.5h3.3V120z"/>
		<path class="st8" d="M295,108.3h11.9v3h-8.6v4.8h8.1v3h-8.1v7.6H295V108.3z"/>
		<path class="st8" d="M353.6,108.3h11.9v3h-8.6v4.8h8.1v3h-8.1v7.6h-3.3V108.3z"/>
		<path class="st8" d="M414.1,108.3h3.3v15.4h7.8v3h-11.1L414.1,108.3L414.1,108.3z"/>
		<path class="st8" d="M471.2,108.3h12.2v3h-8.9v4.5h8.5v3h-8.5v5h9.4v3h-12.7V108.3z"/>
	</g>
	<text transform="matrix(1 0 0 1 116.0519 127.7471)" class="st9 st10 st11 st12">SHUFFLE</text>
</g>
</svg>
